<?xml version="1.0" encoding="UTF-8"?>
<svg width="16px" height="16px" viewBox="0 0 16 16" version="1.1" xmlns="http://www.w3.org/2000/svg" xmlns:xlink="http://www.w3.org/1999/xlink">
    <title>Icon/Other/正确</title>
    <g id="会务组" stroke="none" stroke-width="1" fill="none" fill-rule="evenodd">
        <g id="选择日期" transform="translate(-382.000000, -372.000000)" fill="#1E89FF">
            <g id="动作栏/列表选择" transform="translate(0.000000, 220.000000)">
                <g id="列表备份-2" transform="translate(0.000000, 132.000000)">
                    <g id="Icon/Other/正确" transform="translate(382.000000, 20.000000)">
                        <path d="M15.4004747,2.178015 L15.7082866,2.27568565 C15.8135704,2.30909289 15.871838,2.42152425 15.8384307,2.52680813 C15.8300708,2.55315461 15.8163405,2.5774822 15.7981062,2.59825562 L6.3247339,13.3907893 C6.0697008,13.6813356 5.62742131,13.7101247 5.336875,13.4550916 C5.31122833,13.4325797 5.28726218,13.4082225 5.26516829,13.3822149 L0.335729984,7.57956985 C0.156945985,7.36911583 0.182619606,7.05357607 0.393073623,6.87479207 C0.397701006,6.87086104 0.402399609,6.86701462 0.407167095,6.86325473 L0.651448482,6.6706015 C0.839052933,6.52264671 1.10511956,6.52809548 1.28650934,6.68360689 L5.44841647,10.2517466 C5.6426075,10.418233 5.93113651,10.4113107 6.11712016,10.2357033 L14.4114961,2.40408282 C14.6756246,2.15469038 15.054224,2.06814744 15.4004747,2.178015 Z" id="路径备份"></path>
                    </g>
                </g>
            </g>
        </g>
    </g>
</svg>