<?xml version="1.0" encoding="UTF-8"?>
<svg width="18px" height="18px" viewBox="0 0 18 18" version="1.1" xmlns="http://www.w3.org/2000/svg" xmlns:xlink="http://www.w3.org/1999/xlink">
    <title>Icon/System/search</title>
    <g id="会务组" stroke="none" stroke-width="1" fill="none" fill-rule="evenodd" opacity="0.317522321">
        <g id="司机端-每日任务筛选" transform="translate(-88.000000, -75.000000)" fill="#191F24">
            <g id="动作栏/侧拉/筛选" transform="translate(60.000000, 0.000000)">
                <g id="分组备份" transform="translate(0.000000, 16.000000)">
                    <g id="起止时间选择" transform="translate(16.000000, 50.000000)">
                        <g id="Icon/System/search" transform="translate(12.000000, 9.000000)">
                            <path d="M7.84236887,0.75 C11.759376,0.75 14.9347377,3.89688468 14.9347377,7.77876366 C14.9347377,9.49089132 14.3170322,11.06004 13.2904316,12.2792717 L17.25,16.203666 L16.1941974,17.25 L12.218868,13.3101316 C11.013466,14.248142 9.49383432,14.8075273 7.84236887,14.8075273 C3.9253617,14.8075273 0.75,11.6606426 0.75,7.77876366 C0.75,3.89688468 3.9253617,0.75 7.84236887,0.75 Z M7.84236887,2.22973972 C4.74999479,2.22973972 2.24313029,4.71412236 2.24313029,7.77876366 C2.24313029,10.843405 4.74999479,13.3277876 7.84236887,13.3277876 C10.934743,13.3277876 13.4416075,10.843405 13.4416075,7.77876366 C13.4416075,4.71412236 10.934743,2.22973972 7.84236887,2.22973972 Z" id="形状结合"></path>
                        </g>
                    </g>
                </g>
            </g>
        </g>
    </g>
</svg>