<?xml version="1.0" encoding="UTF-8"?>
<svg width="14px" height="14px" viewBox="0 0 14 14" version="1.1" xmlns="http://www.w3.org/2000/svg" xmlns:xlink="http://www.w3.org/1999/xlink">
    <title>筛选</title>
    <g id="会务组" stroke="none" stroke-width="1" fill="none" fill-rule="evenodd">
        <g id="司机端-每日任务" transform="translate(-315.000000, -123.000000)" fill="#191F24" fill-rule="nonzero">
            <g id="筛选栏/混合排序备份" transform="translate(0.000000, 112.000000)">
                <g id="Icon/Function/Choose/小筛选" transform="translate(315.000000, 11.000000)">
                    <path d="M11.5860309,1 C12.3669445,1 13,1.63305551 13,2.41396906 L13,2.41396906 L13,2.72983069 C13,3.14499647 12.8410956,3.54441728 12.5558983,3.84612102 L12.5558983,3.84612102 L9.783375,6.77775 L9.78413859,10.4879821 C9.78413859,10.7541532 9.64340399,10.9976512 9.41900249,11.1317306 L9.41900249,11.1317306 L9.3310415,11.1767119 L5.24366452,12.9387297 C4.74858567,13.1521521 4.19676161,12.7891217 4.19676161,12.25 L4.19676161,12.25 L4.1965,6.776875 L1.44078787,3.84411078 C1.19302657,3.5804437 1.04136933,3.24280935 1.00732629,2.88551029 L1.00732629,2.88551029 L1,2.73133648 L1,2.41396906 C1,1.63305551 1.63305551,1 2.41396906,1 L2.41396906,1 Z M11.49925,2.499875 L2.499875,2.499875 L2.5,2.73133648 C2.5,2.75254142 2.50538913,2.77321466 2.51543558,2.79150872 L2.51543558,2.79150872 L2.53390676,2.8169345 L5.49332106,5.96633713 C5.62400834,6.10541426 5.69676161,6.28908078 5.69676161,6.47992526 L5.69676161,6.47992526 L5.69625,11.109875 L8.283625,9.99425 L8.28413859,6.47992526 C8.28413859,6.32663328 8.33107651,6.17799212 8.41724598,6.05337242 L8.41724598,6.05337242 L8.48910859,5.96471434 L11.4658383,2.81569917 C11.4877766,2.79249119 11.5,2.76176651 11.5,2.72983069 L11.5,2.72983069 L11.49925,2.499875 Z M8.52551581,3.50274502 C8.76714038,3.50274502 8.96301581,3.69862045 8.96301581,3.94024502 C8.96301581,4.15502243 8.80825004,4.33365235 8.60415698,4.37069631 L8.52551581,4.37774502 L5.47448419,4.37774502 C5.23285962,4.37774502 5.03698419,4.1818696 5.03698419,3.94024502 C5.03698419,3.72546762 5.19174996,3.5468377 5.39584302,3.50979373 L5.47448419,3.50274502 L8.52551581,3.50274502 Z" id="形状结合"></path>
                </g>
            </g>
        </g>
    </g>
</svg>