<?xml version="1.0" encoding="UTF-8"?>
<svg width="56px" height="56px" viewBox="0 0 56 56" version="1.1" xmlns="http://www.w3.org/2000/svg" xmlns:xlink="http://www.w3.org/1999/xlink">
    <title>编组 5备份 7</title>
    <defs>
        <path d="M10.2555408,-3.51363273e-15 L45.7444592,-4.68828315e-15 C49.3105342,-2.89291511e-15 50.6036791,0.371302445 51.9073828,1.06853082 C53.2110865,1.76575919 54.2342408,2.78891348 54.9314692,4.09261719 C55.6286976,5.39632089 56,6.68946584 56,10.2555408 L56,45.7444592 C56,49.3105342 55.6286976,50.6036791 54.9314692,51.9073828 C54.2342408,53.2110865 53.2110865,54.2342408 51.9073828,54.9314692 C50.6036791,55.6286976 49.3105342,56 45.7444592,56 L10.2555408,56 C6.68946584,56 5.39632089,55.6286976 4.09261719,54.9314692 C2.78891348,54.2342408 1.76575919,53.2110865 1.06853082,51.9073828 C0.371302445,50.6036791 1.06103393e-15,49.3105342 -1.82612968e-15,45.7444592 L7.29641152e-16,10.2555408 C-4.23942521e-16,6.68946584 0.371302445,5.39632089 1.06853082,4.09261719 C1.76575919,2.78891348 2.78891348,1.76575919 4.09261719,1.06853082 C5.39632089,0.371302445 6.68946584,-3.57542083e-15 10.2555408,-3.51363273e-15 Z" id="path-1"></path>
    </defs>
    <g id="会务组" stroke="none" stroke-width="1" fill="none" fill-rule="evenodd">
        <g id="司机端-用车任务备份-2" transform="translate(-194.000000, -299.000000)">
            <g id="编组-7" transform="translate(12.000000, 251.000000)">
                <g id="形状" transform="translate(182.000000, 48.000000)">
                    <g id="编组-5" transform="translate(0.000000, -0.000000)">
                        <mask id="mask-2" fill="white">
                            <use xlink:href="#path-1"></use>
                        </mask>
                        <g id="蒙版备份-4"></g>
                        <path d="M46.5746613,51.5865699 L43.6116062,51.5865699 L43.6116062,28.2360527 C43.6117709,27.4354063 42.9796054,26.78173 42.1893398,26.7653903 L32.2334748,26.7653903 L32.2334748,19.4721053 C32.2414415,19.084848 32.0951204,18.7106553 31.8275253,18.4339547 C31.5599303,18.1572541 31.1936073,18.0013588 30.8112084,18.0014429 L10.8105868,18.0014429 C10.4229749,17.9834908 10.0461821,18.1337268 9.77465574,18.4144925 C9.50312934,18.6952582 9.36260999,19.0799372 9.3883204,19.4721053 L9.3883204,51.5865699 L6.42526536,51.5865699 C6.03765345,51.5686178 5.66086065,51.7188538 5.38933426,51.9996195 C5.11780787,52.2803852 4.97728851,52.6650642 5.00299893,53.0572323 L5.00299893,54.5278947 C4.97728851,54.9200628 5.11780787,55.3047418 5.38933426,55.5855075 C5.66086065,55.8662732 6.03765345,56.0165092 6.42526536,55.9985571 L46.5746613,55.9985571 C46.9622732,56.0165092 47.339066,55.8662732 47.6105924,55.5855075 C47.8821188,55.3047418 48.0226381,54.9200628 47.9969277,54.5278947 L47.9969277,53.0572323 C48.0226381,52.6650642 47.8821188,52.2803852 47.6105924,51.9996195 C47.339066,51.7188538 46.9622732,51.5686178 46.5746613,51.5865699 L46.5746613,51.5865699 Z M33.6557413,35.5293376 L37.9521711,35.5293376 L37.9521711,39.9113113 L33.6557413,39.9113113 L33.6557413,35.5293376 Z M33.6557413,42.8226226 L37.9521711,42.8226226 L37.9521711,47.2045962 L33.6557413,47.2045962 L33.6557413,42.8226226 Z M22.2183488,28.2360527 L26.5147786,28.2360527 L26.5147786,32.6180263 L22.2183488,32.6180263 L22.2183488,28.2360527 Z M22.2183488,35.5293376 L26.5147786,35.5293376 L26.5147786,39.9113113 L22.2183488,39.9113113 L22.2183488,35.5293376 Z M22.2183488,42.8226226 L26.5147786,42.8226226 L26.5147786,47.2045962 L22.2183488,47.2045962 L22.2183488,42.8226226 Z M15.0773861,28.2360527 L19.3738159,28.2360527 L19.3738159,32.6180263 L15.0773861,32.6180263 L15.0773861,28.2360527 Z M15.0773861,35.5293376 L19.3738159,35.5293376 L19.3738159,39.9113113 L15.0773861,39.9113113 L15.0773861,35.5293376 Z M15.0773861,42.8226226 L19.3738159,42.8226226 L19.3738159,47.2045962 L15.0773861,47.2045962 L15.0773861,42.8226226 Z M43.258478,19.73967 C44.8047081,19.9367497 46,21.2573586 46,22.8571429 C46,24.5928949 44.5928949,26 42.8571429,26 C41.2573586,26 39.9367497,24.8047081 39.73967,23.258478 C39.8729381,23.2770801 40.0068893,23.2857143 40.1428571,23.2857143 C41.8786092,23.2857143 43.2857143,21.8786092 43.2857143,20.1428571 C43.2857143,20.0231501 43.2790218,19.9050062 43.2659904,19.7887792 Z" id="形状" fill="#86A5DA" fill-rule="nonzero" mask="url(#mask-2)"></path>
                    </g>
                </g>
            </g>
        </g>
    </g>
</svg>