<?xml version="1.0" standalone="no"?><!DOCTYPE svg PUBLIC "-//W3C//DTD SVG 1.1//EN" "http://www.w3.org/Graphics/SVG/1.1/DTD/svg11.dtd"><svg t="1610677597046" class="icon" viewBox="0 0 1228 1024" version="1.1" xmlns="http://www.w3.org/2000/svg" p-id="1507" xmlns:xlink="http://www.w3.org/1999/xlink" width="239.84375" height="200"><defs><style type="text/css"></style></defs><path d="M28.44444444 0m47.919115 0l1054.220532 0q47.919115 0 47.919115 47.919115l0 0q0 47.919115-47.919115 47.919115l-1054.220532 0q-47.919115 0-47.919115-47.919115l0 0q0-47.919115 47.919115-47.919115Z" p-id="1508"></path><path d="M28.44444444 862.544072m47.919115 0l1054.220532 0q47.919115 0 47.919115 47.919115l0 0q0 47.919115-47.919115 47.919115l-1054.220532 0q-47.919115 0-47.919115-47.919115l0 0q0-47.919115 47.919115-47.919115Z" p-id="1509"></path><path d="M411.79736544 575.029381m47.919115 0l670.867611 0q47.919115 0 47.919115 47.919115l0 0q0 47.919115-47.919115 47.919115l-670.867611 0q-47.919115 0-47.919115-47.919115l0 0q0-47.919115 47.919115-47.919115Z" p-id="1510"></path><path d="M411.79736544 287.514691m47.919115 0l670.867611 0q47.919115 0 47.919115 47.919115l0 0q0 47.919115-47.919115 47.919115l-670.867611 0q-47.919115 0-47.919115-47.919115l0 0q0-47.919115 47.919115-47.919115Z" p-id="1511"></path><path d="M49.64916666 502.46615L305.53724066 683.737317a16.566323 16.566323 0 0 0 26.150146-13.691176V307.640719a16.566323 16.566323 0 0 0-26.150146-13.691176L49.64916666 475.357622a16.703234 16.703234 0 0 0 0 27.108528z" p-id="1512"></path></svg>