<?xml version="1.0" encoding="UTF-8"?>
<svg width="12px" height="12px" viewBox="0 0 12 12" version="1.1" xmlns="http://www.w3.org/2000/svg" xmlns:xlink="http://www.w3.org/1999/xlink">
    <title>形状结合 2</title>
    <g id="会议工作台" stroke="none" stroke-width="1" fill="none" fill-rule="evenodd">
        <g id="会议议程2021备份-7" transform="translate(-284.000000, -187.000000)" fill="#586E81" fill-rule="nonzero">
            <g id="编组-2备份-5" transform="translate(12.000000, 168.000000)">
                <g id="编组" transform="translate(264.000000, 13.000000)">
                    <g id="形状结合-2" transform="translate(8.000000, 6.000000)">
                        <path d="M3,11 C3,11.5522847 2.55228475,12 2,12 C1.44771525,12 1,11.5522847 1,11 C0.44771525,11 0,10.5522847 0,10 L0,5 C0,4.44771525 0.44771525,4 1,4 L2,4 L2,2 C2,0.8954305 2.8954305,0 4,0 L8,0 C9.1045695,0 10,0.8954305 10,2 L10,4 L10,4 L11,4 C11.5522847,4 12,4.44771525 12,5 L12,10 C12,10.5128358 11.6139598,10.9355072 11.1166211,10.9932723 L11,11 L11,11 C11,11.5522847 10.5522847,12 10,12 C9.44771525,12 9,11.5522847 9,11 L3,11 L3,11 Z M2,5 L1,5 L1,10 L2,10 L2,10 L2,5 Z M11,5 L10,5 L10,10 L11,10 L11,5 Z M8.999,8 L3,8 L3,9.993 L9,9.99327227 L8.999,8 Z M8,1 L4,1 C3.48716416,1 3.06449284,1.38604019 3.00672773,1.88337887 L3,2 L2.99985571,4.9828385 C2.99995178,4.98854748 3,4.99426811 3,5 L3,7 L3,7 L8.999,7 L9,2 C9,1.48716416 8.61395981,1.06449284 8.11662113,1.00672773 L8,1 Z" id="形状结合"></path>
                    </g>
                </g>
            </g>
        </g>
    </g>
</svg>