<?xml version="1.0" encoding="UTF-8"?>
<svg width="28px" height="28px" viewBox="0 0 28 28" version="1.1" xmlns="http://www.w3.org/2000/svg" xmlns:xlink="http://www.w3.org/1999/xlink">
    <!-- Generator: Sketch 63 (92445) - https://sketch.com -->
    <title>切片</title>
    <desc>Created with Sketch.</desc>
    <g id="页面-1" stroke="none" stroke-width="1" fill="none" fill-rule="evenodd">
        <g id="202108版-会议首页" transform="translate(-2119.000000, -842.000000)">
            <g id="icon/车辆" transform="translate(2119.000000, 842.000000)">
                <g id="编组-4">
                    <circle id="椭圆形" fill="#FFEFE0" cx="14" cy="14" r="14"></circle>
                    <g id="编组-3" transform="translate(6.000000, 8.000000)">
                        <path d="M11.9825996,0 C12.3950132,-1.36346448e-15 12.7651264,0.25318229 12.9146042,0.637553739 L14.186,3.907 L15.2763932,3.3618034 C15.3226783,3.33866083 15.3721319,3.32291439 15.4229573,3.31498817 L15.5,3.30901699 C15.7454599,3.30901699 15.9496084,3.48589215 15.9919443,3.71914136 L16,3.80901699 L16,4.69098301 C16,4.8488047 15.9256936,4.99533856 15.802897,5.08881314 L15.7236068,5.1381966 L14.837,5.581 L15,6 L15,11.5 C15,11.7761424 14.7761424,12 14.5,12 L13.5,12 C13.2238576,12 13,11.7761424 13,11.5 L13,10 L3,10 L3,11.5 C3,11.7761424 2.77614237,12 2.5,12 L1.5,12 C1.22385763,12 1,11.7761424 1,11.5 L1,6 L1.163,5.581 L0.276393202,5.1381966 C0.107001188,5.05350059 2.31930994e-17,4.88036903 0,4.69098301 L0,3.80901699 C-3.38176876e-17,3.53287462 0.223857625,3.30901699 0.5,3.30901699 C0.577622548,3.30901699 0.654179081,3.32708954 0.723606798,3.3618034 L1.814,3.907 L3.08539577,0.637553739 C3.23487355,0.25318229 3.60498679,7.57591585e-17 4.01740044,0 L11.9825996,0 Z M12.5,6.19371294 C12.446259,6.19371294 12.3928694,6.20237688 12.3418861,6.21937129 L10.3418861,6.88603796 C10.137715,6.95409498 10,7.14516441 10,7.36037961 L10,7.5 C10,7.77614237 10.2238576,8 10.5,8 L12.5,8 C12.7761424,8 13,7.77614237 13,7.5 L13,6.69371294 C13,6.41757057 12.7761424,6.19371294 12.5,6.19371294 Z M3.5,6.19371294 C3.22385763,6.19371294 3,6.41757057 3,6.69371294 L3,6.69371294 L3,7.5 C3,7.77614237 3.22385763,8 3.5,8 L3.5,8 L5.5,8 C5.77614237,8 6,7.77614237 6,7.5 L6,7.5 L6,7.36037961 C6,7.14516441 5.86228495,6.95409498 5.65811388,6.88603796 L5.65811388,6.88603796 L3.65811388,6.21937129 C3.60713065,6.20237688 3.55374105,6.19371294 3.5,6.19371294 Z" id="形状结合" fill="#FF6C19"></path>
                        <path d="M4.91666667,1 L11.0833333,1 C11.4870342,1 11.8511407,1.24273768 12.0064103,1.61538462 L13,4 L13,4 L3,4 L3.99358974,1.61538462 C4.1488593,1.24273768 4.51296582,1 4.91666667,1 Z" id="矩形备份-12" fill="#FFEFE0"></path>
                    </g>
                </g>
            </g>
        </g>
    </g>
</svg>