<?xml version="1.0" encoding="UTF-8"?>
<svg width="28px" height="28px" viewBox="0 0 28 28" version="1.1" xmlns="http://www.w3.org/2000/svg" xmlns:xlink="http://www.w3.org/1999/xlink">
    <!-- Generator: Sketch 63 (92445) - https://sketch.com -->
    <title>切片</title>
    <desc>Created with Sketch.</desc>
    <g id="页面-1" stroke="none" stroke-width="1" fill="none" fill-rule="evenodd">
        <g id="202108版-会议首页" transform="translate(-2119.000000, -918.000000)">
            <g id="icon/用餐" transform="translate(2119.000000, 918.000000)">
                <g id="编组-4">
                    <circle id="椭圆形" fill="#FFEFE0" cx="14" cy="14" r="14"></circle>
                    <g id="编组-3" transform="translate(8.000000, 6.000000)" fill="#FF6C19">
                        <g id="编组-42" transform="translate(0.128902, 0.000000)">
                            <path d="M3.87109756,8.5 C3.87109756,9.49829343 3.95357761,10.4948803 4.11769604,11.4795909 L4.54229958,14.0272122 C4.69612948,14.9501915 4.07261062,15.8231179 3.14963123,15.9769478 C3.05757998,15.9922897 2.96441853,16 2.87109756,16 C1.93538681,16 1.17684338,15.2414566 1.17684338,14.3057458 C1.17684338,14.2124248 1.18455366,14.1192634 1.19989553,14.0272122 L1.62449908,11.4795909 C1.78861751,10.4948803 1.87109756,9.49829343 1.87109756,8.5 L1.871,7.995 L1.85073766,7.99451426 C0.815877791,7.91816512 4.88498131e-14,7.0543618 4.88498131e-14,6 L0.00389484303,5.87524343 L0.339911457,0.498977606 C0.357441089,0.218503488 0.590027394,5.16227908e-17 0.871048779,0 C1.14716597,-5.07219047e-17 1.37100485,0.223834033 1.37101084,0.499951221 L1.37109756,4.5 L1.37109756,4.5 C1.37109756,4.77614237 1.59495518,5 1.87109756,5 C2.11655745,5 2.32070593,4.82312484 2.36304189,4.58987563 L2.37109756,4.5 L2.37101084,0.5 C2.37100485,0.223863612 2.59485277,5.98658693e-06 2.87098916,1.17496457e-10 C2.87099277,3.91654075e-11 2.87099639,6.63726147e-22 2.871,0 C3.14714413,-5.07268534e-17 3.37100485,0.223855872 3.37101084,0.5 L3.37109756,4.5 L3.37109756,4.5 C3.37109756,4.74545989 3.54797272,4.94960837 3.78122192,4.99194433 L3.87109756,5 C4.11655745,5 4.32070593,4.82312484 4.36304189,4.58987563 L4.37109756,4.5 L4.37101084,0.500048779 C4.37100485,0.223885451 4.59487461,5.98717097e-06 4.87103794,1.17507892e-10 C4.87104155,3.9169201e-11 4.87104517,6.63790899e-22 4.87104878,0 C5.152125,-5.16328642e-17 5.38475669,0.218546126 5.40228974,0.499074973 L5.73830027,5.87524343 L5.73830027,5.87524343 C5.80396923,6.92594683 5.045981,7.83778053 4.02028376,7.9806699 L3.87108955,7.99595583 L3.87109756,8.5 Z" id="路径"></path>
                            <path d="M10.9887936,12.4795909 L11.3710976,14 C11.5249275,14.9229794 11.2214663,16.0230522 9.87109756,16 C9.77898508,15.9984275 9.83551609,16 9.74219511,16 C8.37109756,16 8.37880783,14.3135176 8.39414971,14.2214663 C8.54024502,13.0738221 8.65626015,11.5 8.74219511,9.5 C8.82373052,7.6023926 8.71654731,4.65451866 8.42064546,0.656378174 C8.40032971,0.381019203 8.60702808,0.141280052 8.88238237,0.120901118 C8.92753438,0.117559424 8.97293107,0.120366702 9.01732734,0.129245957 L9.62109756,0.25 C10.3717278,0.400126046 10.9485341,1.00333742 11.0649332,1.75993164 L11.8710976,7 L11.8710976,7 C11.9367665,8.0507034 11.9170786,8.83778053 10.8913813,8.9806699 L10.7421871,8.99595583 C10.7971791,10.6619055 10.8793813,11.8231172 10.9887936,12.4795909 Z" id="路径备份"></path>
                        </g>
                    </g>
                </g>
            </g>
        </g>
    </g>
</svg>