<?xml version="1.0" encoding="UTF-8"?>
<svg width="28px" height="28px" viewBox="0 0 28 28" version="1.1" xmlns="http://www.w3.org/2000/svg" xmlns:xlink="http://www.w3.org/1999/xlink">
    <!-- Generator: Sketch 63 (92445) - https://sketch.com -->
    <title>切片</title>
    <desc>Created with Sketch.</desc>
    <g id="页面-1" stroke="none" stroke-width="1" fill="none" fill-rule="evenodd">
        <g id="202108版-会议首页" transform="translate(-2119.000000, -781.000000)">
            <g id="icon/陪同" transform="translate(2119.000000, 781.000000)">
                <g>
                    <circle id="椭圆形" fill="#FFEFE0" cx="14" cy="14" r="14"></circle>
                    <path d="M15.5207844,14 C17.2997019,14 18.8313217,15.2556279 19.1801961,17 L19.5409729,18.8038839 C19.6492848,19.3454436 19.2980681,19.8722687 18.7565083,19.9805807 C18.6919351,19.9934953 18.6262442,20 18.5603922,20 L9,20 C8.44771525,20 8,19.5522847 8,19 C8,18.934148 8.00650469,18.868457 8.01941932,18.8038839 L8.3801961,17 C8.72907052,15.2556279 10.2606903,14 12.0396078,14 L13.438,14 L13,17.5 L14,18.5 L15,17.5 L14.562,14 L15.5207844,14 Z M13.7801961,7 C15.4370503,7 16.7801961,8.34314575 16.7801961,10 C16.7801961,11.6568542 15.4370503,13 13.7801961,13 C12.1233418,13 10.7801961,11.6568542 10.7801961,10 C10.7801961,8.34314575 12.1233418,7 13.7801961,7 Z" id="形状结合" fill="#FF6C19"></path>
                </g>
            </g>
        </g>
    </g>
</svg>