<?xml version="1.0" encoding="UTF-8"?>
<svg width="28px" height="28px" viewBox="0 0 28 28" version="1.1" xmlns="http://www.w3.org/2000/svg" xmlns:xlink="http://www.w3.org/1999/xlink">
    <!-- Generator: Sketch 63 (92445) - https://sketch.com -->
    <title>切片</title>
    <desc>Created with Sketch.</desc>
    <g id="页面-1" stroke="none" stroke-width="1" fill="none" fill-rule="evenodd">
        <g id="202108版-会议首页" transform="translate(-2294.000000, -842.000000)">
            <g id="icon/住宿" transform="translate(2294.000000, 842.000000)">
                <g id="编组-4">
                    <circle id="椭圆形" fill="#FFEFE0" cx="14" cy="14" r="14"></circle>
                    <path d="M15,7 C15.5522847,7 16,7.44771525 16,8 L16,11 L20,11 C20.5522847,11 21,11.4477153 21,12 L21,19 C21,19.5522847 20.5522847,20 20,20 L8,20 C7.44771525,20 7,19.5522847 7,19 L7,8 C7,7.44771525 7.44771525,7 8,7 L15,7 Z M11,16 L9,16 L9,18 L11,18 L11,16 Z M14,16 L12,16 L12,18 L14,18 L14,16 Z M19,16 L17,16 L17,18 L19,18 L19,16 Z M11,13 L9,13 L9,15 L11,15 L11,13 Z M14,13 L12,13 L12,15 L14,15 L14,13 Z M19,13 L17,13 L17,15 L19,15 L19,13 Z M11,10 L9,10 L9,12 L11,12 L11,10 Z M14,10 L12,10 L12,12 L14,12 L14,10 Z" id="形状结合" fill="#FF6C19"></path>
                </g>
            </g>
        </g>
    </g>
</svg>