<?xml version="1.0" encoding="UTF-8"?>
<svg width="28px" height="28px" viewBox="0 0 28 28" version="1.1" xmlns="http://www.w3.org/2000/svg" xmlns:xlink="http://www.w3.org/1999/xlink">
    <!-- Generator: Sketch 63 (92445) - https://sketch.com -->
    <title>切片</title>
    <desc>Created with Sketch.</desc>
    <g id="页面-1" stroke="none" stroke-width="1" fill="none" fill-rule="evenodd">
        <g id="202108版-会议首页" transform="translate(-2294.000000, -918.000000)">
            <g id="icon/票证" transform="translate(2294.000000, 918.000000)">
                <g id="编组-4">
                    <circle id="椭圆形" fill="#FFEFE0" cx="14" cy="14" r="14"></circle>
                    <path d="M20,9 C20.5522847,9 21,9.44771525 21,10 L20.9999275,12.2676063 C20.4021661,12.6134261 20,13.2597476 20,14 C20,14.7402524 20.4021661,15.3865739 20.9999275,15.7323937 L21,18 C21,18.5522847 20.5522847,19 20,19 L9,19 C8.44771525,19 8,18.5522847 8,18 L8.00033215,15.7322434 C8.59795034,15.3863868 9,14.7401452 9,14 C9,13.2598548 8.59795034,12.6136132 8.00033215,12.2677566 L8,10 C8,9.44771525 8.44771525,9 9,9 L20,9 Z M16.5,17.5 C16.2238576,17.5 16,17.7238576 16,18 C16,18.2761424 16.2238576,18.5 16.5,18.5 C16.7761424,18.5 17,18.2761424 17,18 C17,17.7238576 16.7761424,17.5 16.5,17.5 Z M16.5,15.5 C16.2238576,15.5 16,15.7238576 16,16 C16,16.2761424 16.2238576,16.5 16.5,16.5 C16.7761424,16.5 17,16.2761424 17,16 C17,15.7238576 16.7761424,15.5 16.5,15.5 Z M14,12 L12,12 L12,16 L14,16 L14,12 Z M16.5,13.5 C16.2238576,13.5 16,13.7238576 16,14 C16,14.2761424 16.2238576,14.5 16.5,14.5 C16.7761424,14.5 17,14.2761424 17,14 C17,13.7238576 16.7761424,13.5 16.5,13.5 Z M16.5,11.5 C16.2238576,11.5 16,11.7238576 16,12 C16,12.2761424 16.2238576,12.5 16.5,12.5 C16.7761424,12.5 17,12.2761424 17,12 C17,11.7238576 16.7761424,11.5 16.5,11.5 Z M16.5,9.5 C16.2238576,9.5 16,9.72385763 16,10 C16,10.2761424 16.2238576,10.5 16.5,10.5 C16.7761424,10.5 17,10.2761424 17,10 C17,9.72385763 16.7761424,9.5 16.5,9.5 Z" id="形状结合" fill="#FF6C19"></path>
                </g>
            </g>
        </g>
    </g>
</svg>