<?xml version="1.0" encoding="UTF-8"?>
<svg width="16px" height="16px" viewBox="0 0 16 16" version="1.1" xmlns="http://www.w3.org/2000/svg" xmlns:xlink="http://www.w3.org/1999/xlink">
    <!-- Generator: Sketch 63 (92445) - https://sketch.com -->
    <title>切片</title>
    <desc>Created with Sketch.</desc>
    <g id="页面-1" stroke="none" stroke-width="1" fill="none" fill-rule="evenodd">
        <g id="202108版-会议首页" transform="translate(-218.000000, -858.000000)">
            <g id="编组-43" transform="translate(186.000000, 358.000000)">
                <g id="编组-21">
                    <g id="编组-18" transform="translate(16.000000, 374.000000)">
                        <g id="编组-9" transform="translate(0.000000, 35.000000)">
                            <g id="编组-7" transform="translate(16.000000, 15.000000)">
                                <g id="编组-11">
                                    <g id="位置信息" transform="translate(0.000000, 76.000000)">
                                        <g id="编组-45">
                                            <rect id="矩形" fill-opacity="0.01" fill="#FFFFFF" x="0" y="0" width="16" height="16"></rect>
                                            <path d="M7.5,3 C9.98528137,3 12,5.0835979 12,7.65384615 C12,9.36734499 10.5,11.4827296 7.5,14 C4.5,11.4827296 3,9.36734499 3,7.65384615 C3,5.0835979 5.01471863,3 7.5,3 Z M7.5,6 C6.67157288,6 6,6.67157288 6,7.5 C6,8.32842712 6.67157288,9 7.5,9 C8.32842712,9 9,8.32842712 9,7.5 C9,6.67157288 8.32842712,6 7.5,6 Z" id="形状结合" fill="#FF6C19"></path>
                                        </g>
                                    </g>
                                </g>
                            </g>
                        </g>
                    </g>
                </g>
            </g>
        </g>
    </g>
</svg>