<?xml version="1.0" standalone="no"?><!DOCTYPE svg PUBLIC "-//W3C//DTD SVG 1.1//EN" "http://www.w3.org/Graphics/SVG/1.1/DTD/svg11.dtd"><svg t="1628650987392" class="icon" viewBox="0 0 1024 1024" version="1.1" xmlns="http://www.w3.org/2000/svg" p-id="1299" xmlns:xlink="http://www.w3.org/1999/xlink" width="200" height="200"><defs><style type="text/css"></style></defs><path d="M918.79570647-7.85825185a82.85044939 82.85044939 0 0 1 71.25138647 125.10417857l-5.79953146 8.61644674-310.27493295 398.84206333v410.44112624a82.85044939 82.85044939 0 0 1-119.88460024 74.06830174l-165.70089878-82.85044939a82.85044939 82.85044939 0 0 1-45.81629849-74.06830174V524.70443679L32.37874853 125.86237346a82.85044939 82.85044939 0 0 1-16.73579078-39.93391661L14.8973037 74.99219754a82.85044939 82.85044939 0 0 1 73.15694681-82.27049624L97.74775309-7.85825185h821.04795338z m-816.24262732 82.68474848L97.74775309 74.99219754l327.6735273 421.2945351v356.008381l165.70089878 82.85044939V496.28673264l324.77376158-417.15201264 2.98261617-4.14252246-816.32547777-0.16570091z" p-id="1300"></path></svg>