<?xml version="1.0" encoding="UTF-8"?>
<svg width="24px" height="24px" viewBox="0 0 24 24" version="1.1" xmlns="http://www.w3.org/2000/svg" xmlns:xlink="http://www.w3.org/1999/xlink">
    <title>Icon/会议/主题备份 82</title>
    <g id="会务组" stroke="none" stroke-width="1" fill="none" fill-rule="evenodd">
        <g id="会务工作台" transform="translate(-133.000000, -468.000000)">
            <g id="编组-5备份-2" transform="translate(0.000000, 406.000000)">
                <g id="Box/应用备份-4" transform="translate(102.000000, 50.000000)">
                    <g id="占位/24x24备份-6" transform="translate(31.000000, 12.000000)">
                        <path d="M11.9899992,13 C12.717874,13 13.4202812,13.0281774 14.0916197,13.0844475 C14.6424715,13.1306187 15.0515619,13.6141958 15.0053487,14.1645472 C14.9591355,14.7148986 14.4751188,15.1236175 13.924267,15.0774463 C13.3097794,15.0259413 12.6631151,15 11.9899992,15 C9.48840699,15 7.39033881,15.3588198 5.95996941,16.0200565 C4.63388339,16.6330846 4.00181832,17.4294834 4.00181832,18.4 C4.00181832,19.3009686 4.55224186,19.8985069 5.86327531,20.3398475 C7.20034269,20.7899522 9.17422767,20.9951491 11.8925979,20.9999149 L11.9899992,21 C12.6948961,21 13.3464344,20.986938 13.951551,20.9598536 C14.503784,20.9351362 14.9715129,21.3623654 14.9962528,21.9140967 C15.0209927,22.4658281 14.5933751,22.9331322 14.0411421,22.9578496 C13.4469309,22.9844459 12.8140149,22.9981135 12.1359844,22.9998176 L11.9899992,23 C9.02091224,23 6.83246018,22.7765881 5.22408737,22.2351525 C3.17209156,21.5443774 2,20.271958 2,18.4 C2,16.5592061 3.14357108,15.1183122 5.11934565,14.2049435 C6.84759841,13.4060003 9.22153703,13 11.9899992,13 Z M11.9899992,1 C15.030327,1 17.4949996,3.46243388 17.4949996,6.5 C17.4949996,9.53756612 15.030327,12 11.9899992,12 C8.94967148,12 6.48499886,9.53756612 6.48499886,6.5 C6.48499886,3.46243388 8.94967148,1 11.9899992,1 Z M11.9899992,3 C10.0552452,3 8.48681718,4.56700338 8.48681718,6.5 C8.48681718,8.43299662 10.0552452,10 11.9899992,10 C13.9247533,10 15.4931813,8.43299662 15.4931813,6.5 C15.4931813,4.56700338 13.9247533,3 11.9899992,3 Z" id="形状结合" fill="#191F24"></path>
                        <path d="M18.4959088,13.5 C19.0486956,13.5 19.4968179,13.9481223 19.4968179,14.5009092 L19.4968176,16.999 L22,17 C22.5522847,17 23,17.4477153 23,18 C23,18.5522847 22.5522847,19 22,19 L19.4968176,18.999 L19.4968179,21.4990908 C19.4968179,22.0518777 19.0486956,22.5 18.4959088,22.5 C17.9431219,22.5 17.4949996,22.0518777 17.4949996,21.4990908 L17.4948176,18.999 L14.9918176,19 C14.4395328,19 13.9918176,18.5522847 13.9918176,18 C13.9918176,17.4477153 14.4395328,17 14.9918176,17 L17.4948176,16.999 L17.4949996,14.5009092 C17.4949996,13.9481223 17.9431219,13.5 18.4959088,13.5 Z" id="形状结合备份-2" fill="#1E89FF"></path>
                    </g>
                </g>
            </g>
        </g>
    </g>
</svg>