<?xml version="1.0" encoding="UTF-8"?>
<svg width="438px" height="182px" viewBox="0 0 438 182" version="1.1" xmlns="http://www.w3.org/2000/svg" xmlns:xlink="http://www.w3.org/1999/xlink">
    <title>超级管理员@3x</title>
    <defs>
        <linearGradient x1="6.81208638%" y1="42.6144861%" x2="92.7296492%" y2="42.6144861%" id="linearGradient-1">
            <stop stop-color="#00B2F9" offset="0%"></stop>
            <stop stop-color="#0D75FC" offset="100%"></stop>
        </linearGradient>
    </defs>
    <g id="会务组" stroke="none" stroke-width="1" fill="none" fill-rule="evenodd">
        <g id="参会人基本信息-议程安排" transform="translate(29.000000, -64.000000)">
            <g id="编组-2" transform="translate(-29.000000, 64.000000)">
                <g id="超级管理员" transform="translate(0.165605, 0.000000)">
                    <g id="编组-12" transform="translate(0.834395, 0.000000)">
                        <polygon id="蒙版" fill="url(#linearGradient-1)" points="28 1.62911351e-13 403 1.61648472e-13 403 182 28 182"></polygon>
                        <path d="M435.89909,81.6556071 L435.89909,182 L-1.13686838e-13,182 L-1.13686838e-13,126.516174 L1.92799753,126.906464 C33.7128581,133.283647 79.8679049,150.725556 133.441373,149.031481 C229.680515,145.988252 283.295632,71.266515 435.89909,81.6556071 Z" id="路径" fill-opacity="0.0924661276" fill="#FFFFFF"></path>
                        <path d="M435.89909,107.249064 L435.89909,182 L1.76214598e-12,182 L1.76214598e-12,131.62129 L1.92799753,131.979339 C33.7128581,137.829729 79.8679049,151.739498 133.441373,150.185364 C228.532446,147.426829 316.21296,86.8186375 435.89909,107.249064 Z" id="路径" fill-opacity="0.0924661276" fill="#FFFFFF"></path>
                        <path d="M435.89909,129.979671 L435.89909,181.986497 L2.81374923e-12,181.986497 L2.81374923e-12,138.206677 L2.90548489,138.523638 C34.6555703,141.937829 94.1381703,152.898318 133.441373,151.913078 C227.198142,149.562813 318.184123,112.508175 435.89909,129.979671 Z" id="路径" fill-opacity="0.0924661276" fill="#FFFFFF"></path>
                    </g>
                </g>
            </g>
        </g>
    </g>
</svg>