<?xml version="1.0" encoding="UTF-8"?>
<svg width="24px" height="25px" viewBox="0 0 24 25" version="1.1" xmlns="http://www.w3.org/2000/svg" xmlns:xlink="http://www.w3.org/1999/xlink">
    <title>餐饮</title>
    <g id="首页" stroke="none" stroke-width="1" fill="none" fill-rule="evenodd">
        <g id="参会人基本信息-议程安排" transform="translate(-219.000000, -222.000000)" fill="#FF8200">
            <g id="编组" transform="translate(16.000000, 206.000000)">
                <g id="占位/24x24备份-7" transform="translate(203.000000, 16.000000)">
                    <path d="M15.3494609,1.58309318 L15.3609948,1.60917736 L15.5858784,2.13755559 C15.9453198,2.98208613 15.7966248,3.9577028 15.2019995,4.65625766 C15.1047991,4.77044695 15.0770215,4.9277695 15.1278899,5.06771019 L15.1361112,5.08856337 L15.3609948,5.61694159 C15.4099044,5.73185786 15.4357322,5.85083063 15.4405615,5.96866876 L18,5.96894308 C18.5522847,5.96894308 19,6.41752737 19,6.97088414 L19,7.9728252 C21.209139,7.9728252 23,9.76716236 23,11.9805894 C23,13.6781135 21.592747,16.517795 20.089454,17.4960846 L20.089454,17.4960846 L18.9942273,18.2094092 C18.8816436,20.3218505 17.1364185,22 15,22 L6,22 C3.790861,22 2,20.2056628 2,17.9922358 L2,6.97088414 C2,6.41752737 2.44771525,5.96894308 3,5.96894308 L5.062,5.968 L5.02207108,5.87460628 C4.6626296,5.03007574 4.81132468,4.05445908 5.40594994,3.35590421 C5.50315038,3.24171492 5.53092797,3.08439237 5.48005952,2.94445168 L5.47183825,2.92359851 L5.24695467,2.39522028 C5.03031542,1.88621264 5.26652744,1.29761873 5.77454897,1.08055897 C6.27381152,0.867241622 6.84979073,1.09214355 7.07512953,1.58309318 L7.08666339,1.60917736 L7.31154698,2.13755559 C7.67098846,2.98208613 7.52229338,3.9577028 6.92766812,4.65625766 C6.83046768,4.77044695 6.80269009,4.9277695 6.85355854,5.06771019 L6.86177981,5.08856337 L7.08666339,5.61694159 C7.13557302,5.73185786 7.16140083,5.85083063 7.16623011,5.96866876 L9.199,5.968 L9.15923677,5.87460628 C8.79979529,5.03007574 8.94849037,4.05445908 9.54311563,3.35590421 C9.64031607,3.24171492 9.66809366,3.08439237 9.61722521,2.94445168 L9.60900394,2.92359851 L9.38412036,2.39522028 C9.16748111,1.88621264 9.40369313,1.29761873 9.91171466,1.08055897 C10.4109772,0.867241622 10.9869564,1.09214355 11.2122952,1.58309318 L11.2238291,1.60917736 L11.4487127,2.13755559 C11.8081542,2.98208613 11.6594591,3.9577028 11.0648338,4.65625766 C10.9676334,4.77044695 10.9398558,4.9277695 10.9907242,5.06771019 L10.9989455,5.08856337 L11.2238291,5.61694159 C11.2727387,5.73185786 11.2985665,5.85083063 11.3033958,5.96866876 L13.336,5.968 L13.2964025,5.87460628 C12.936961,5.03007574 13.0856561,4.05445908 13.6802813,3.35590421 C13.7774818,3.24171492 13.8052594,3.08439237 13.7543909,2.94445168 L13.7461696,2.92359851 L13.5212861,2.39522028 C13.3046468,1.88621264 13.5408588,1.29761873 14.0488804,1.08055897 C14.5481429,0.867241622 15.1241221,1.09214355 15.3494609,1.58309318 Z M17,7.97276558 L4,7.97276558 L4,17.9922358 C4,19.087421 4.87687286,19.9774041 5.96555106,19.9958266 L6,19.9961179 L15,19.9961179 C16.0930636,19.9961179 16.9813225,19.117543 16.9997093,18.0267516 L17,7.97276558 Z M14,15.9689431 C14.5522847,15.9689431 15,16.4166583 15,16.9689431 C15,17.5212278 14.5522847,17.9689431 14,17.9689431 L7,17.9689431 C6.44771525,17.9689431 6,17.5212278 6,16.9689431 C6,16.4166583 6.44771525,15.9689431 7,15.9689431 L14,15.9689431 Z M19,9.97670731 L19.0000625,15.8155615 C19.9842927,15.1750595 21,12.9247925 21,11.9805894 C21,10.8738759 20.1045695,9.97670731 19,9.97670731 L19,9.97670731 Z" id="形状结合"></path>
                </g>
            </g>
        </g>
    </g>
</svg>