<?xml version="1.0" encoding="UTF-8"?>
<svg width="16px" height="16px" viewBox="0 0 16 16" version="1.1" xmlns="http://www.w3.org/2000/svg" xmlns:xlink="http://www.w3.org/1999/xlink">
    <!-- Generator: Sketch 63 (92445) - https://sketch.com -->
    <title>Icon/会议/Telephone/fill</title>
    <desc>Created with Sketch.</desc>
    <g id="页面-1" stroke="none" stroke-width="1" fill="none" fill-rule="evenodd">
        <g id="0721需求-常用联系人-tang" transform="translate(-343.000000, -186.000000)" fill="#1E89FF">
            <g id="部门列表备份-2" transform="translate(0.000000, 161.000000)">
                <g id="Icon/会议/Telephone/fill" transform="translate(351.000000, 33.000000) scale(-1, 1) translate(-351.000000, -33.000000) translate(343.000000, 25.000000)">
                    <g id="占位/24x24备份-3">
                        <path d="M4.41233874,1.09297003 C4.81218428,1.62534174 5.17613866,2.13829159 5.5042019,2.63181958 C5.76957422,3.03103733 6.01968142,3.42991195 6.25452352,3.82844345 C6.5312261,4.29800266 6.49428145,4.88869612 6.16123155,5.32012158 L5.46030067,6.22809194 C5.2403432,6.51302453 5.2038385,6.89904857 5.36648715,7.22016115 C5.68681923,7.85258364 6.1600989,8.48190852 6.78632616,9.10813577 C7.42369665,9.74550627 8.08198302,10.2421446 8.76118527,10.5980508 C9.08414987,10.7673034 9.47610332,10.732969 9.76473185,10.5101549 L10.6618004,9.81763992 C11.0935243,9.48435042 11.6847068,9.44760817 12.1543808,9.72486933 C12.5368515,9.9506521 12.9327601,10.199596 13.3421064,10.4717011 C13.7221603,10.7243347 14.1024984,10.9894222 14.4831206,11.2669638 L14.8638408,11.5486523 C15.1646175,11.7744208 15.2425643,12.1869071 15.0574972,12.504025 L14.9997611,12.5888347 L14.9997611,12.5888347 C13.5712486,14.4029675 12.1986189,15.2601743 10.8818722,15.1604553 C8.70225919,14.9953901 6.05761282,12.9778401 4.50351558,11.4237429 C2.94941834,9.86964564 1.09029021,7.42348546 0.81974519,5.09832829 C0.661307009,3.73665592 1.45636651,2.39734301 3.2049237,1.08038954 L3.39593159,0.939392133 C3.69677536,0.721566091 4.10817755,0.764922524 4.35774343,1.02830292 L4.41233874,1.09297003 Z" id="路径-8备份-4"></path>
                    </g>
                </g>
            </g>
        </g>
    </g>
</svg>