<?xml version="1.0" encoding="UTF-8"?>
<svg width="24px" height="25px" viewBox="0 0 24 25" version="1.1" xmlns="http://www.w3.org/2000/svg" xmlns:xlink="http://www.w3.org/1999/xlink">
    <title>票证</title>
    <g id="首页" stroke="none" stroke-width="1" fill="none" fill-rule="evenodd">
        <g id="参会人基本信息-议程安排" transform="translate(-304.000000, -222.000000)" fill="#8B28F7">
            <g id="编组" transform="translate(16.000000, 206.000000)">
                <g id="占位/24x24备份-8" transform="translate(288.000000, 16.000000)">
                    <path d="M18,2 C19.6568542,2 21,3.31426401 21,4.93549083 L21,22.0212588 C21,22.5616678 20.5522847,22.9997558 20,22.9997558 C19.8600817,22.9997558 19.7217205,22.9710249 19.5938615,22.9154207 L12.1624554,19.6835948 C12.0590292,19.6386161 11.9409708,19.6386161 11.8375446,19.6835948 L4.40613847,22.9154207 C3.90145428,23.1349015 3.31049253,22.912496 3.08618845,22.4186641 C3.02936223,22.2935545 3,22.1581685 3,22.0212588 L3,4.93549083 C3,3.31426401 4.34314575,2 6,2 L18,2 Z M18,3.95699389 L6,3.95699389 C5.45707601,3.95699389 5.01520683,4.3803573 5.00038418,4.90810222 L5,4.93549083 L5,20.5156084 L11.0252677,17.8952712 C11.631721,17.6315322 12.322023,17.6255381 12.9322876,17.877289 L12.9747323,17.8952712 L19,20.5156084 L19,4.93549083 C19,4.40424136 18.5673329,3.97187372 18.0279905,3.9573698 L18,3.95699389 Z M13.9725782,11.8828191 C14.5400076,11.8828191 15,12.3428115 15,12.9102409 C15,13.4776703 14.5400076,13.9376627 13.9725782,13.9376627 L8.02742179,13.9376627 C7.4599924,13.9376627 7,13.4776703 7,12.9102409 C7,12.3428115 7.4599924,11.8828191 8.02742179,11.8828191 L13.9725782,11.8828191 Z M15.9725782,7.87098166 C16.5400076,7.87098166 17,8.33097406 17,8.89840345 C17,9.46583283 16.5400076,9.92582524 15.9725782,9.92582524 L8.02742179,9.92582524 C7.4599924,9.92582524 7,9.46583283 7,8.89840345 C7,8.33097406 7.4599924,7.87098166 8.02742179,7.87098166 L15.9725782,7.87098166 Z" id="形状结合"></path>
                </g>
            </g>
        </g>
    </g>
</svg>