<?xml version="1.0" encoding="UTF-8"?>
<svg width="24px" height="24px" viewBox="0 0 24 24" version="1.1" xmlns="http://www.w3.org/2000/svg" xmlns:xlink="http://www.w3.org/1999/xlink">
    <!-- Generator: Sketch 63 (92445) - https://sketch.com -->
    <title>Icon/会议/主题备份 86</title>
    <desc>Created with Sketch.</desc>
    <g id="页面-1" stroke="none" stroke-width="1" fill="none" fill-rule="evenodd">
        <g id="会务工作台" transform="translate(-305.000000, -949.000000)">
            <g id="Box/应用备份-13" transform="translate(273.000000, 937.000000)">
                <rect id="Rectangle-17" fill-opacity="0" fill="#FFFFFF" x="0" y="0" width="86" height="72"></rect>
                <g id="Icon/会议/主题" transform="translate(31.000000, 12.000000)">
                    <g id="占位/24x24备份-6"></g>
                </g>
                <path d="M50,14 C51.5976809,14 52.9036609,15.24892 52.9949073,16.8237272 L53,17 L53,22 L51,22 L51,17 C51,16.4871642 50.6139598,16.0644928 50.1166211,16.0067277 L50,16 L37,16 C36.4871642,16 36.0644928,16.3860402 36.0067277,16.8833789 L36,17 L36,30 C36,30.5128358 36.3860402,30.9355072 36.8833789,30.9932723 L37,31 L45,31 L45,33 L37,33 C35.4023191,33 34.0963391,31.75108 34.0050927,30.1762728 L34,30 L34,17 C34,15.4023191 35.24892,14.0963391 36.8237272,14.0050927 L37,14 L50,14 Z M44,23 C44.5522847,23 45,23.4477153 45,24 C45,24.5522847 44.5522847,25 44,25 L40,25 C39.4477153,25 39,24.5522847 39,24 C39,23.4477153 39.4477153,23 40,23 L44,23 Z M47,19 C47.5522847,19 48,19.4477153 48,20 C48,20.5522847 47.5522847,21 47,21 L40,21 C39.4477153,21 39,20.5522847 39,20 C39,19.4477153 39.4477153,19 40,19 L47,19 Z" id="形状结合" fill="#000000" fill-rule="nonzero"></path>
                <path d="M54,31 C54.5522847,31 55,31.4477153 55,32 L55,32 L55,33 L47,33 L47,32 C47,31.4477153 47.4477153,31 48,31 L48,31 Z M51,23 C52.1045695,23 53,23.8954305 53,25 C53,25.7402524 52.5978339,26.3865739 52.0000725,26.7323937 L51.999,27.364 L53,27.3649041 C53.5522847,27.3649041 54,27.8126193 54,28.3649041 L54,30 L51.0171615,29.9998557 C51.0114525,29.9999518 51.0057319,30 51,30 L50.982,29.999 L48,30 L48,28.3649041 C48,27.8126193 48.4477153,27.3649041 49,27.3649041 L49.999,27.364 L49.9989225,26.7318119 C49.4017154,26.3858493 49,25.7398375 49,25 C49,23.8954305 49.8954305,23 51,23 Z" id="形状结合" fill="#1E89FF"></path>
            </g>
        </g>
    </g>
</svg>