<?xml version="1.0" encoding="UTF-8"?>
<svg width="16px" height="16px" viewBox="0 0 16 16" version="1.1" xmlns="http://www.w3.org/2000/svg" xmlns:xlink="http://www.w3.org/1999/xlink">
    <!-- Generator: Sketch 63 (92445) - https://sketch.com -->
    <title>切片</title>
    <desc>Created with Sketch.</desc>
    <g id="参会人" stroke="none" stroke-width="1" fill="none" fill-rule="evenodd">
        <g id="202108版-住宿/票证安排" transform="translate(-911.000000, -571.000000)">
            <g id="详情卡片/时间/黑" transform="translate(911.000000, 571.000000)">
                <g id="详情卡片/时间">
                    <rect id="矩形" fill="#D8D8D8" opacity="0.01" x="0" y="0" width="16" height="16"></rect>
                    <path d="M8.5,2 C11.5375661,2 14,4.46243388 14,7.5 C14,10.5375661 11.5375661,13 8.5,13 C5.46243388,13 3,10.5375661 3,7.5 C3,4.46243388 5.46243388,2 8.5,2 Z M8.5,4.75 C8.12030423,4.75 7.80650904,5.03215388 7.75684662,5.39822944 L7.75,5.5 L7.75,7.5 C7.75,7.87969577 8.03215388,8.19349096 8.39822944,8.24315338 L8.5,8.25 L10.5,8.25 L10.6017706,8.24315338 C10.9678461,8.19349096 11.25,7.87969577 11.25,7.5 C11.25,7.12030423 10.9678461,6.80650904 10.6017706,6.75684662 L10.5,6.75 L9.25,6.75 L9.25,5.5 L9.24315338,5.39822944 C9.19349096,5.03215388 8.87969577,4.75 8.5,4.75 Z" id="形状" fill="#102C70"></path>
                </g>
            </g>
        </g>
    </g>
</svg>