<?xml version="1.0" encoding="UTF-8"?>
<svg width="16px" height="16px" viewBox="0 0 16 16" version="1.1" xmlns="http://www.w3.org/2000/svg" xmlns:xlink="http://www.w3.org/1999/xlink">
    <!-- Generator: Sketch 63 (92445) - https://sketch.com -->
    <title>切片</title>
    <desc>Created with Sketch.</desc>
    <g id="参会人" stroke="none" stroke-width="1" fill="none" fill-rule="evenodd">
        <g id="202108版-住宿/票证安排" transform="translate(-911.000000, -595.000000)">
            <g id="详情卡片/地点/黑" transform="translate(911.000000, 595.000000)">
                <g id="详情卡片/地点">
                    <rect id="矩形备份-5" fill="#D8D8D8" opacity="0.01" x="0" y="0" width="16" height="16"></rect>
                    <path d="M8,2 C10.7614237,2 13,4.27301589 13,7.07692308 C13,8.94619454 11.3333333,11.2538868 8,14 C4.66666667,11.2538868 3,8.94619454 3,7.07692308 C3,4.27301589 5.23857625,2 8,2 Z M8,5 C7.17157288,5 6.5,5.67157288 6.5,6.5 C6.5,7.32842712 7.17157288,8 8,8 C8.82842712,8 9.5,7.32842712 9.5,6.5 C9.5,5.67157288 8.82842712,5 8,5 Z" id="形状结合" fill="#102C70"></path>
                </g>
            </g>
        </g>
    </g>
</svg>