<?xml version="1.0" encoding="UTF-8"?>
<svg width="24px" height="24px" viewBox="0 0 24 24" version="1.1" xmlns="http://www.w3.org/2000/svg" xmlns:xlink="http://www.w3.org/1999/xlink">
    <title>Icon/会议/主题备份 88</title>
    <g id="会务组" stroke="none" stroke-width="1" fill="none" fill-rule="evenodd">
        <g id="会务工作台" transform="translate(-47.000000, -674.000000)">
            <g id="编组-5备份-2" transform="translate(0.000000, 406.000000)">
                <g id="编组-4" transform="translate(0.000000, 130.000000)">
                    <g id="Box/应用备份-3" transform="translate(16.000000, 126.000000)">
                        <g id="Icon/会议/主题" transform="translate(31.000000, 12.000000)">
                            <path d="M16.5584816,3 C17.8497728,3 18.9961893,3.82629028 19.4045315,5.0513167 L19.4045315,5.0513167 L20.7532528,9.09535229 C22.0455224,9.42951433 23,10.6032921 23,12 L23,12 L23,16 C23,17.3062521 22.1651499,18.4175144 20.9999111,18.8293257 L21,20.8333333 C21,21.4776655 20.4776655,22 19.8333333,22 L19.1666667,22 C18.5223345,22 18,21.4776655 18,20.8333333 L17.999,19 L6,19 L6,20.8333333 C6,21.4776655 5.47766554,22 4.83333333,22 L4.16666667,22 C3.52233446,22 3,21.4776655 3,20.8333333 L3.00008893,18.8293257 C1.8348501,18.4175144 1,17.3062521 1,16 L1,16 L1,12 C1,10.6032921 1.95447757,9.42951433 3.24674718,9.09535229 L4.59546855,5.0513167 C5.00381069,3.82629028 6.15022722,3 7.44151844,3 L7.44151844,3 Z M20,11 L4,11 C3.44771525,11 3,11.4477153 3,12 L3,12 L3,16 C3,16.5522847 3.44771525,17 4,17 L4,17 L20,17 C20.5522847,17 21,16.5522847 21,16 L21,16 L21,12 C21,11.4477153 20.5522847,11 20,11 L20,11 Z M16.5584816,5 L7.44151844,5 C7.01108803,5 6.62894919,5.27543009 6.49283514,5.68377223 L6.49283514,5.68377223 L5.387,9 L18.612,9 L17.5071649,5.68377223 C17.3834248,5.31255211 17.0563585,5.05117665 16.6745258,5.00672177 L16.6745258,5.00672177 L16.5584816,5 Z" id="形状结合" fill="#191F24"></path>
                            <path d="M6.5,13 C7.32842712,13 8,13.6715729 8,14.5 C8,15.3284271 7.32842712,16 6.5,16 C5.67157288,16 5,15.3284271 5,14.5 C5,13.6715729 5.67157288,13 6.5,13 Z M17.5,13 C18.3284271,13 19,13.6715729 19,14.5 C19,15.3284271 18.3284271,16 17.5,16 C16.6715729,16 16,15.3284271 16,14.5 C16,13.6715729 16.6715729,13 17.5,13 Z" id="形状结合" fill="#1E89FF"></path>
                        </g>
                    </g>
                </g>
            </g>
        </g>
    </g>
</svg>