<?xml version="1.0" encoding="UTF-8"?>
<svg width="16px" height="16px" viewBox="0 0 16 16" version="1.1" xmlns="http://www.w3.org/2000/svg" xmlns:xlink="http://www.w3.org/1999/xlink">
    <title>Icon/业务图标/车辆</title>
    <defs>
        <filter id="filter-1">
            <feColorMatrix in="SourceGraphic" type="matrix" values="0 0 0 0 0.878431 0 0 0 0 0.560784 0 0 0 0 0.000000 0 0 0 1.000000 0"></feColorMatrix>
        </filter>
    </defs>
    <g id="资源组" stroke="none" stroke-width="1" fill="none" fill-rule="evenodd">
        <g id="车辆管理" transform="translate(-16.000000, -80.000000)">
            <g id="筛选栏/混合排序备份" transform="translate(0.000000, 64.000000)">
                <g id="Icon/业务图标/车辆" transform="translate(16.000000, 14.000000)" filter="url(#filter-1)">
                    <g transform="translate(0.000000, 2.000000)">
                        <path d="M11.0389877,2 C11.8998485,2 12.6641262,2.55086019 12.9363543,3.36754447 L12.9363543,3.36754447 L13.8353582,6.06353105 C14.6969442,6.28625589 15.3333333,7.06880962 15.3333333,8 L15.3333333,8 L15.3333333,10.6666667 C15.3333333,11.5373055 14.777017,12.2780096 14.000465,12.5526984 L14,14 C14,14.3681898 13.7015232,14.6666667 13.3333333,14.6666667 L12.6666667,14.6666667 C12.2984768,14.6666667 12,14.3681898 12,14 L11.9996667,12.666 L3.99966667,12.666 L4,14 C4,14.3681898 3.70152317,14.6666667 3.33333333,14.6666667 L2.66666667,14.6666667 C2.29847683,14.6666667 2,14.3681898 2,14 L1.99953502,12.5526984 C1.222983,12.2780096 0.666666667,11.5373055 0.666666667,10.6666667 L0.666666667,10.6666667 L0.666666667,8 C0.666666667,7.06880962 1.30305579,6.28625589 2.16464179,6.06353105 L3.0636457,3.36754447 C3.33587379,2.55086019 4.10015148,2 4.96101229,2 L4.96101229,2 Z M13.3333333,7.33333333 L2.66666667,7.33333333 C2.29847683,7.33333333 2,7.63181017 2,8 L2,8 L2,10.6666667 C2,11.0348565 2.29847683,11.3333333 2.66666667,11.3333333 L2.66666667,11.3333333 L13.3333333,11.3333333 C13.7015232,11.3333333 14,11.0348565 14,10.6666667 L14,10.6666667 L14,8 C14,7.63181017 13.7015232,7.33333333 13.3333333,7.33333333 L13.3333333,7.33333333 Z M4.33333333,8.66666667 C4.88561808,8.66666667 5.33333333,9.11438192 5.33333333,9.66666667 C5.33333333,10.2189514 4.88561808,10.6666667 4.33333333,10.6666667 C3.78104858,10.6666667 3.33333333,10.2189514 3.33333333,9.66666667 C3.33333333,9.11438192 3.78104858,8.66666667 4.33333333,8.66666667 Z M11.6666667,8.66666667 C12.2189514,8.66666667 12.6666667,9.11438192 12.6666667,9.66666667 C12.6666667,10.2189514 12.2189514,10.6666667 11.6666667,10.6666667 C11.1143819,10.6666667 10.6666667,10.2189514 10.6666667,9.66666667 C10.6666667,9.11438192 11.1143819,8.66666667 11.6666667,8.66666667 Z M11.0389877,3.33333333 L4.96101229,3.33333333 C4.67405869,3.33333333 4.41929946,3.5169534 4.32855676,3.78918149 L4.32855676,3.78918149 L3.59133333,6 L12.408,6 L11.6714432,3.78918149 C11.5889499,3.54170141 11.3709057,3.3674511 11.1163505,3.33781451 L11.1163505,3.33781451 L11.0389877,3.33333333 Z" id="形状结合" fill="#1E89FF"></path>
                    </g>
                </g>
            </g>
        </g>
    </g>
</svg>