<?xml version="1.0" encoding="UTF-8"?>
<svg width="24px" height="24px" viewBox="0 0 24 24" version="1.1" xmlns="http://www.w3.org/2000/svg" xmlns:xlink="http://www.w3.org/1999/xlink">
    <title>签到</title>
    <g id="会务组" stroke="none" stroke-width="1" fill="none" fill-rule="evenodd">
        <g id="会务工作台" transform="translate(-218.000000, -1021.000000)">
            <g id="Box/应用备份-12" transform="translate(187.000000, 1009.000000)">
                <g id="占位/24x24备份-9" transform="translate(31.000000, 12.000000)">
                    <path d="M11.9411255,1 C14.2293591,1 16.5175926,1.87293168 18.263456,3.61879503 C19.9749338,5.33027285 20.8475529,7.5629644 20.881236,9.80593404 C20.9149539,12.0512292 20.1082192,14.3069357 18.4604935,16.0602165 L18.4604935,16.0602165 L12.6482323,21.8786797 C12.4529701,22.0739418 12.1970478,22.1715729 11.9411255,22.1715729 C11.6852032,22.1715729 11.4292809,22.0739418 11.2340187,21.8786797 L11.2340187,21.8786797 L5.61879503,16.263456 C3.87293168,14.5175926 3,12.2293591 3,9.9411255 C3,7.65289194 3.87293168,5.36465838 5.61879503,3.61879503 C7.36465838,1.87293168 9.65289194,1 11.9411255,1 Z" id="路径" stroke="#191F24" stroke-width="2"></path>
                    <path d="M14.9497475,4.86396103 L14.9487475,11.863961 L14.9497475,11.863961 L14.9497475,13.863961 L9.94974747,13.863961 L9.94974747,11.863961 L12.9487475,11.863961 L12.9497475,4.86396103 L14.9497475,4.86396103 Z" id="形状结合" fill="#1E89FF" transform="translate(12.449747, 9.363961) rotate(-315.000000) translate(-12.449747, -9.363961) "></path>
                </g>
            </g>
        </g>
    </g>
</svg>