<?xml version="1.0" encoding="UTF-8"?>
<svg width="24px" height="24px" viewBox="0 0 24 24" version="1.1" xmlns="http://www.w3.org/2000/svg" xmlns:xlink="http://www.w3.org/1999/xlink">
    <!-- Generator: Sketch 63 (92445) - https://sketch.com -->
    <title>Icon/Choose/单选未选</title>
    <desc>Created with Sketch.</desc>
    <g id="页面-1" stroke="none" stroke-width="1" fill="none" fill-rule="evenodd" opacity="0.321089245">
        <g id="第三步" transform="translate(-331.000000, -187.000000)">
            <g id="编组-2备份-5" transform="translate(0.000000, 174.000000)">
                <g id="Icon/Choose/单选未选" transform="translate(331.000000, 13.000000)">
                    <circle id="椭圆形" fill="#1E89FF" cx="12" cy="12" r="11"></circle>
                    <path d="M19.1254604,7.57322145 L19.3578616,7.64468736 C19.4634394,7.67715369 19.522708,7.78906058 19.4902417,7.8946384 C19.4816317,7.9226374 19.4669764,7.9484033 19.4473118,7.97011459 L10.809176,17.5073078 C10.5496486,17.7938468 10.1069744,17.815744 9.82043543,17.5562167 C9.80052407,17.5381823 9.7816674,17.5190167 9.76395899,17.4988149 L5.31694556,12.4256526 C5.13491923,12.2179966 5.1556962,11.9020966 5.36335223,11.7200703 C5.37176619,11.7126948 5.38042535,11.7056038 5.38931508,11.6988093 L5.54261674,11.5816399 C5.72788014,11.4400418 5.98642306,11.4453021 6.16577368,11.5943185 L9.94641782,14.7355288 C10.1385997,14.8952063 10.4191561,14.8885007 10.60349,14.7198241 L18.1812403,7.78572629 C18.4360688,7.55254287 18.7953024,7.47169427 19.1254604,7.57322145 Z" id="路径" fill="#FFFFFF"></path>
                </g>
            </g>
        </g>
    </g>
</svg>