<?xml version="1.0" encoding="UTF-8"?>
<svg width="24px" height="24px" viewBox="0 0 24 24" version="1.1" xmlns="http://www.w3.org/2000/svg" xmlns:xlink="http://www.w3.org/1999/xlink">
    <title>待办工作备份 8</title>
    <defs>
        <linearGradient x1="50%" y1="0%" x2="50%" y2="100%" id="linearGradient-1">
            <stop stop-color="#FFE100" offset="0.0573645105%"></stop>
            <stop stop-color="#FFA200" offset="100%"></stop>
        </linearGradient>
    </defs>
    <g id="会务组" stroke="none" stroke-width="1" fill="none" fill-rule="evenodd">
        <g id="会务工作台" transform="translate(-16.000000, -318.000000)" fill="url(#linearGradient-1)">
            <g id="编组-6" transform="translate(0.000000, 302.000000)">
                <g id="待办工作" transform="translate(16.000000, 16.000000)">
                    <path d="M20.2451469,15.6766049 L23.6958116,17.181584 C23.953377,17.2939056 24.0701156,17.5914792 23.9565545,17.8462333 C23.9052288,17.9613734 23.8122222,18.0533648 23.6958116,18.1041302 L13.322482,22.6278299 C12.7984955,22.8563349 12.2015045,22.8563349 11.677518,22.6278299 L1.30418844,18.1041302 C1.04662303,17.9918087 0.929884447,17.6942351 1.04344552,17.439481 C1.09477119,17.3243409 1.18777778,17.2323495 1.30418844,17.181584 L4.75414691,15.6766049 L12.5000024,19.0543869 L20.2451469,15.6766049 Z M20.2441469,10.5336049 L23.6958116,12.0387269 C23.953377,12.1510485 24.0701156,12.4486221 23.9565545,12.7033762 C23.9052288,12.8185162 23.8122222,12.9105076 23.6958116,12.9612731 L13.322482,17.4849728 C12.7984955,17.7134777 12.2015045,17.7134777 11.677518,17.4849728 L1.30418844,12.9612731 C1.04662303,12.8489515 0.929884447,12.5513779 1.04344552,12.2966238 C1.09477119,12.1814838 1.18777778,12.0894924 1.30418844,12.0387269 L4.75414691,10.5336049 L12.5000024,13.9115298 L20.2441469,10.5336049 Z M13.2994667,2.16134197 L23.7025931,6.69803576 C23.9557139,6.80841907 24.0714255,7.10309737 23.9610422,7.35621816 C23.9105959,7.47189698 23.8182719,7.56422092 23.7025931,7.61466724 L13.2994667,12.151361 C12.789672,12.3736771 12.210328,12.3736771 11.7005333,12.151361 L1.29740689,7.61466724 C1.0442861,7.50428393 0.928574507,7.20960563 1.03895782,6.95648483 C1.08940413,6.84080602 1.18172808,6.74848207 1.29740689,6.69803576 L11.7005333,2.16134197 C12.210328,1.93902592 12.789672,1.93902592 13.2994667,2.16134197 Z" id="矩形备份-6"></path>
                </g>
            </g>
        </g>
    </g>
</svg>