<?xml version="1.0" encoding="UTF-8"?>
<svg width="24px" height="24px" viewBox="0 0 24 24" version="1.1" xmlns="http://www.w3.org/2000/svg" xmlns:xlink="http://www.w3.org/1999/xlink">
    <title>送机</title>
    <g id="会务组" stroke="none" stroke-width="1" fill="none" fill-rule="evenodd">
        <g id="会务工作台" transform="translate(-132.000000, -949.000000)">
            <g id="Box/应用备份-10" transform="translate(101.000000, 937.000000)">
                <g id="送机" transform="translate(31.000000, 12.000000)">
                    <path d="M20.2073467,4.12620607 L18.1922483,5.24336912 L18.8307001,5.46114657 L20.858117,4.33651149 L21.8638121,4.72288349 C22.2180882,4.85872377 22.5105342,5.11931142 22.6861581,5.45564521 C22.8538887,5.77686278 22.8307169,6.16441332 22.6259065,6.46335649 L22.4224046,6.76038985 C22.0700997,7.27461762 21.5986603,7.69601746 21.0482864,7.98865645 L8.63785509,14.5873999 C7.62600666,15.1254092 6.49754339,15.4067667 5.35155415,15.4067667 L1.76283493,15.4067667 C1.38978897,15.4067667 1.0469028,15.2018262 0.870234666,14.8732663 C0.712540103,14.5799925 0.822448722,14.2144105 1.11572244,14.0567159 C1.11654765,14.0562722 1.11737389,14.0558304 1.11820116,14.0553906 L2.99211702,13.0585115 L0.267117022,10.587695 L1.23231213,9.94730992 L6.24411702,11.3295115 L8.26111702,10.2575115 L1.4934736,7.87011208 L2.16845791,7.36621495 L12.776117,7.85651149 L14.7002375,6.83369373 L15.0271629,6.38114717 C15.385144,5.88561178 15.8519414,5.47871988 16.3917004,5.19172496 L17.6206323,4.53829027 C18.096441,4.2852983 18.6184639,4.13105758 19.1553639,4.08482721 L19.3209194,4.07057187 C19.6183753,4.0449591 19.9171031,4.06396252 20.2073467,4.12620607 Z" id="形状结合" fill="#191F24"></path>
                    <path d="M17.32609,11.1585389 C18.8868944,11.1585389 20.19734,12.2304522 20.5614276,13.6782797 L22.1890228,13.6789743 C22.3547082,13.6789743 22.4890228,13.8132889 22.4890228,13.9789743 C22.4890228,14.0665518 22.450754,14.1497566 22.3842602,14.2067513 L19.8253957,16.4000637 C19.6381508,16.5605593 19.3618492,16.5605593 19.1746043,16.4000637 L16.6157398,14.2067513 C16.4899421,14.0989246 16.4753736,13.9095346 16.5832002,13.7837369 C16.6401949,13.7172431 16.7233998,13.6789743 16.8109772,13.6789743 L18.3930351,13.6775773 C18.2729932,12.4628299 17.9173448,11.6231504 17.32609,11.1585389 Z" id="形状结合" fill="#1E89FF" transform="translate(19.499997, 13.839487) scale(1, -1) translate(-19.499997, -13.839487) "></path>
                    <rect id="矩形" fill="#191F24" x="6" y="18" width="12" height="2" rx="1"></rect>
                </g>
            </g>
        </g>
    </g>
</svg>