<?xml version="1.0" encoding="UTF-8"?>
<svg width="16px" height="16px" viewBox="0 0 16 16" version="1.1" xmlns="http://www.w3.org/2000/svg" xmlns:xlink="http://www.w3.org/1999/xlink">
    <title>Icon/业务图标/车辆</title>
    <defs>
        <filter id="filter-1">
            <feColorMatrix in="SourceGraphic" type="matrix" values="0 0 0 0 0.878431 0 0 0 0 0.560784 0 0 0 0 0.000000 0 0 0 1.000000 0"></feColorMatrix>
        </filter>
    </defs>
    <g id="资源组" stroke="none" stroke-width="1" fill="none" fill-rule="evenodd">
        <g id="司机信息" transform="translate(-16.000000, -80.000000)">
            <g id="筛选栏/混合排序备份" transform="translate(0.000000, 64.000000)">
                <g id="Icon/业务图标/车辆" transform="translate(16.000000, 16.000000)" filter="url(#filter-1)">
                    <g id="占位/24x24备份-6" fill="#FF8200">
                        <path d="M7.99363559,8.66666667 C9.84186441,8.66666667 11.4275012,8.93730164 12.581998,9.46970763 C13.9022039,10.0785318 14.6666667,11.0390716 14.6666667,12.2666667 C14.6666667,13.5150985 13.8822263,14.3631655 12.5102424,14.8236267 C11.7028162,15.0946128 10.6769407,15.2461055 9.37708615,15.3047078 L10.5696044,14.1758798 C10.5876418,14.1588383 10.6032123,14.1393626 10.6158653,14.1180163 C10.6633162,14.0379639 10.6640849,13.9431831 10.6262588,13.865303 C11.2013885,13.7953124 11.6856877,13.6938028 12.0852389,13.5597066 C12.9631224,13.2650739 13.3320605,12.866211 13.3320605,12.2666667 C13.3320605,11.6202882 12.9094005,11.0892202 12.0226601,10.6802924 C11.1984607,10.3002058 10.0430557,10.0699406 8.6699407,10.0135919 L9.13638012,10.4797139 C9.26655488,10.6098887 9.26655488,10.8209437 9.13638012,10.9511184 L8.48733333,11.5996667 L9.32297109,14.29609 C9.35303508,14.3932066 9.32526387,14.4989681 9.25136569,14.568786 L8.17313379,15.5874831 C8.07035281,15.6845891 7.90964581,15.6845891 7.80686483,15.5874831 L6.72863293,14.568786 C6.65473475,14.4989681 6.62696354,14.3932066 6.65702754,14.29609 L7.49133333,11.5986667 L6.84361893,10.9511184 C6.71344416,10.8209437 6.71344416,10.6098887 6.84361893,10.4797139 L7.30795575,10.0140253 C5.94205593,10.0711001 4.79324774,10.3010678 3.97343295,10.6800376 C3.08933542,11.088723 2.66793955,11.6196556 2.66793955,12.2666667 C2.66793955,12.8673124 3.03490526,13.2656713 3.90896729,13.5598984 C4.3046071,13.6930788 4.78388035,13.7940969 5.35306282,13.865545 C5.30392553,13.9667746 5.32337881,14.0936692 5.41039397,14.1758798 L5.41039397,14.1758798 L6.60253364,15.3043311 C5.30776427,15.2454569 4.28663475,15.0940145 3.48282262,14.823435 C2.11476323,14.3629183 1.33333333,13.5146387 1.33333333,12.2666667 C1.33333333,11.0394707 2.09574871,10.0788748 3.41299163,9.46996237 C4.56521252,8.93733351 6.14791021,8.66666667 7.99363559,8.66666667 Z M8,0.666666667 C10.0250441,0.666666667 11.6666667,2.30828925 11.6666667,4.33333333 C11.6666667,6.35837742 10.0250441,8 8,8 C5.97495592,8 4.33333333,6.35837742 4.33333333,4.33333333 C4.33333333,2.30828925 5.97495592,0.666666667 8,0.666666667 Z M8,2 C6.71133558,2 5.66666667,3.04466892 5.66666667,4.33333333 C5.66666667,5.62199775 6.71133558,6.66666667 8,6.66666667 C9.28866442,6.66666667 10.3333333,5.62199775 10.3333333,4.33333333 C10.3333333,3.04466892 9.28866442,2 8,2 Z" id="形状结合"></path>
                    </g>
                </g>
            </g>
        </g>
    </g>
</svg>