<?xml version="1.0" encoding="UTF-8"?>
<svg width="24px" height="24px" viewBox="0 0 24 24" version="1.1" xmlns="http://www.w3.org/2000/svg" xmlns:xlink="http://www.w3.org/1999/xlink">
    <title>Icon/会议/主题备份 86</title>
    <g id="会务组" stroke="none" stroke-width="1" fill="none" fill-rule="evenodd">
        <g id="会务工作台" transform="translate(-133.000000, -674.000000)">
            <g id="编组-5备份-2" transform="translate(0.000000, 406.000000)">
                <g id="编组-4" transform="translate(0.000000, 130.000000)">
                    <g id="Box/应用备份-4" transform="translate(102.000000, 126.000000)">
                        <g id="占位/24x24备份-6" transform="translate(31.000000, 12.000000)">
                            <path d="M11.9904534,13 C14.7627966,13 17.1412518,13.4059525 18.8729969,14.2045614 C20.8533059,15.1177977 22,16.5586074 22,18.4 C22,20.2726478 20.8233394,21.5447483 18.7653636,22.2354401 C17.5536999,22.6420952 16.0140784,22.8693549 14.0630964,22.9571759 L15.790135,21.3245424 C15.8217005,21.2947198 15.848949,21.2606373 15.8710917,21.2232813 C15.9495026,21.0909976 15.9550723,20.9357319 15.8997166,20.8040871 C16.7798714,20.6976066 17.5193815,20.5437751 18.1278583,20.3395599 C19.4446836,19.8976108 19.9980907,19.2993165 19.9980907,18.4 C19.9980907,17.4304324 19.3641007,16.6338303 18.0339901,16.0204386 C16.59961,15.358962 14.4964697,15 11.9904534,15 L11.9904534,15 L11.890601,15.0001912 C9.4329151,15.0096223 7.3715114,15.3676363 5.96014943,16.0200565 C4.63400313,16.6330846 4.00190932,17.4294834 4.00190932,18.4 C4.00190932,19.3009686 4.55235789,19.8985069 5.86345093,20.3398475 C6.46683647,20.5429594 7.19990366,20.6962005 8.07254646,20.8036578 C7.99661736,20.9771603 8.03399419,21.1867283 8.17986244,21.3245424 L8.17986244,21.3245424 L9.90554043,22.9565757 C7.9625612,22.8683211 6.43031216,22.641143 5.22423394,22.2351525 C3.17214485,21.5443774 2,20.271958 2,18.4 C2,16.5592061 3.14362306,15.1183122 5.11948745,14.2049435 C6.84781878,13.4060003 9.22186532,13 11.9904534,13 Z M12,1 C15.0375661,1 17.5,3.46243388 17.5,6.5 C17.5,9.53756612 15.0375661,12 12,12 C8.96243388,12 6.5,9.53756612 6.5,6.5 C6.5,3.46243388 8.96243388,1 12,1 Z M12,3 C10.0670034,3 8.5,4.56700338 8.5,6.5 C8.5,8.43299662 10.0670034,10 12,10 C13.9329966,10 15.5,8.43299662 15.5,6.5 C15.5,4.56700338 13.9329966,3 12,3 Z" id="形状结合" fill="#191F24"></path>
                            <path d="M12.3974782,14.412479 L13.6456446,15.6606453 C13.8734504,15.8884512 13.8734504,16.2577974 13.6456446,16.4856032 L12.7319327,17.3986246 L13.9721789,21.4044737 C14.0247909,21.5744278 13.9761912,21.7595105 13.8468694,21.8816918 L12.3054843,23.3379691 C12.1256176,23.5079044 11.8443803,23.5079044 11.6645136,23.3379691 L10.1231285,21.8816918 C9.9938067,21.7595105 9.94520708,21.5744278 9.99781907,21.4044737 L11.2369327,17.3986246 L10.324354,16.4856032 C10.0965481,16.2577974 10.0965481,15.8884512 10.324354,15.6606453 L11.5725203,14.412479 C11.8003262,14.1846731 12.1696724,14.1846731 12.3974782,14.412479 Z" id="形状结合" fill="#1E89FF"></path>
                        </g>
                    </g>
                </g>
            </g>
        </g>
    </g>
</svg>