<?xml version="1.0" encoding="UTF-8"?>
<svg width="24px" height="24px" viewBox="0 0 24 24" version="1.1" xmlns="http://www.w3.org/2000/svg" xmlns:xlink="http://www.w3.org/1999/xlink">
    <title>Icon/会议/主题备份 83</title>
    <g id="会务组" stroke="none" stroke-width="1" fill="none" fill-rule="evenodd">
        <g id="会务工作台" transform="translate(-47.000000, -468.000000)">
            <g id="编组-5备份-2" transform="translate(0.000000, 406.000000)">
                <g id="Box/应用备份-3" transform="translate(16.000000, 50.000000)">
                    <g id="占位/24x24备份-3" transform="translate(31.000000, 12.000000)">
                        <path d="M18.0046494,1 C19.6620172,1 21.0055793,2.33729847 21.0055793,3.98693973 L21.005,10.956 L19.004,10.956 L19.0049594,3.98693973 C19.0049594,3.44637932 18.5721582,3.00643378 18.0326486,2.99167566 L6.00092989,2.99129315 C5.45783761,2.99129315 5.01583147,3.42207665 5.00100422,3.9590711 L5.00061992,3.98693973 L5.00061992,19.917285 C5.00061992,20.4578454 5.43342111,20.8977909 5.97293073,20.912549 L10.002,20.912 L10.002,22.904 L6.00092989,22.9042247 C4.34356207,22.9042247 3,21.5669262 3,19.917285 L3,3.98693973 C3,2.33729847 4.34356207,1 6.00092989,1 L18.0046494,1 Z M13.007763,12.9477589 C13.5576434,12.9477589 14.0034096,13.3935251 14.0034096,13.9434055 C14.0034096,14.4932859 13.5576434,14.9390521 13.007763,14.9390521 L7.99688642,14.9390521 C7.447006,14.9390521 7.00123985,14.4932859 7.00123985,13.9434055 C7.00123985,13.3935251 7.447006,12.9477589 7.99688642,12.9477589 L13.007763,12.9477589 Z M16.0086929,6.97387946 C16.5585733,6.97387946 17.0043395,7.41964562 17.0043395,7.96952604 C17.0043395,8.51940646 16.5585733,8.96517262 16.0086929,8.96517262 L7.99688642,8.96517262 C7.447006,8.96517262 7.00123985,8.51940646 7.00123985,7.96952604 C7.00123985,7.41964562 7.447006,6.97387946 7.99688642,6.97387946 L16.0086929,6.97387946 Z" id="形状结合" fill="#191F24"></path>
                        <path d="M11.3623895,17.0154404 L22.6395439,17.0417885 C23.1914648,17.043078 23.6385644,17.4901775 23.6398539,18.0420985 C23.6411356,18.5906971 23.1974476,19.0364633 22.6488489,19.037745 C22.6473017,19.0377486 22.6457545,19.0377486 22.6442073,19.037745 L11.3670528,19.0113969 C10.8151319,19.0101074 10.3680324,18.5630079 10.3667429,18.0110869 C10.3654611,17.4624883 10.8091492,17.0167221 11.3577478,17.0154404 C11.359295,17.0154368 11.3608423,17.0154368 11.3623895,17.0154404 Z" id="矩形备份-2" fill="#1E89FF" transform="translate(17.003298, 18.026593) rotate(-45.000000) translate(-17.003298, -18.026593) "></path>
                    </g>
                </g>
            </g>
        </g>
    </g>
</svg>