<?xml version="1.0" encoding="UTF-8"?>
<svg width="12px" height="12px" viewBox="0 0 12 12" version="1.1" xmlns="http://www.w3.org/2000/svg" xmlns:xlink="http://www.w3.org/1999/xlink">
    <title>筛选</title>
    <defs>
        <filter color-interpolation-filters="auto" id="filter-1">
            <feColorMatrix in="SourceGraphic" type="matrix" values="0 0 0 0 0.098039 0 0 0 0 0.121569 0 0 0 0 0.141176 0 0 0 1.000000 0"></feColorMatrix>
        </filter>
    </defs>
    <g id="资源组" stroke="none" stroke-width="1" fill="none" fill-rule="evenodd">
        <g id="车辆任务管理" transform="translate(-347.000000, -136.000000)">
            <g id="筛选栏/混合排序备份-4" transform="translate(0.000000, 118.000000)">
                <g id="编组-7备份" transform="translate(301.000000, 0.000000)">
                    <g id="Icon/Other/展开备份" transform="translate(16.000000, 15.000000)" filter="url(#filter-1)">
                        <g transform="translate(30.000000, 3.000000)">
                            <g id="筛选"></g>
                            <path d="M9.93088367,0.857142857 C10.6002381,0.857142857 11.1428571,1.39976187 11.1428571,2.06911633 L11.1428571,2.06911633 L11.1428571,2.33985487 C11.1428571,2.69571126 11.0066534,3.03807195 10.7621986,3.29667516 L10.7621986,3.29667516 L8.38575,5.8095 L8.38640451,8.98969898 C8.38640451,9.21784558 8.26577485,9.42655818 8.0734307,9.54148334 L8.0734307,9.54148334 L7.99803557,9.58003876 L4.49456959,11.0903398 C4.07021629,11.2732733 3.59722424,10.9621043 3.59722424,10.5 L3.59722424,10.5 L3.597,5.80875 L1.23496103,3.29495209 C1.0225942,3.06895175 0.892602284,2.77955087 0.863422537,2.47329453 L0.863422537,2.47329453 L0.857142857,2.34114555 L0.857142857,2.06911633 C0.857142857,1.39976187 1.39976187,0.857142857 2.06911633,0.857142857 L2.06911633,0.857142857 Z M9.8565,2.14275 L2.14275,2.14275 L2.14285714,2.34114555 C2.14285714,2.35932122 2.1474764,2.37704114 2.15608764,2.39272176 L2.15608764,2.39272176 L2.17192008,2.41451529 L4.70856091,5.11400325 C4.82057858,5.23321223 4.88293853,5.39064067 4.88293853,5.55422165 L4.88293853,5.55422165 L4.8825,9.52275 L7.10025,8.5665 L7.10069022,5.55422165 C7.10069022,5.42282853 7.14092272,5.29542182 7.21478227,5.18860493 L7.21478227,5.18860493 L7.27637879,5.11261229 L9.82786143,2.41345643 C9.84666564,2.39356388 9.85714286,2.36722844 9.85714286,2.33985487 L9.85714286,2.33985487 L9.8565,2.14275 Z M7.30758498,3.00235288 C7.51469176,3.00235288 7.68258498,3.1702461 7.68258498,3.37735288 C7.68258498,3.56144779 7.54992861,3.71455915 7.3749917,3.74631112 L7.30758498,3.75235288 L4.69241502,3.75235288 C4.48530824,3.75235288 4.31741502,3.58445966 4.31741502,3.37735288 C4.31741502,3.19325796 4.45007139,3.0401466 4.6250083,3.00839463 L4.69241502,3.00235288 L7.30758498,3.00235288 Z" id="形状结合" fill="#191F24" fill-rule="nonzero"></path>
                        </g>
                    </g>
                </g>
            </g>
        </g>
    </g>
</svg>