<?xml version="1.0" encoding="UTF-8"?>
<svg width="12px" height="12px" viewBox="0 0 12 12" version="1.1" xmlns="http://www.w3.org/2000/svg" xmlns:xlink="http://www.w3.org/1999/xlink">
    <title>结束</title>
    <g id="会务组" stroke="none" stroke-width="1" fill="none" fill-rule="evenodd">
        <g id="会务大厅" transform="translate(-24.000000, -878.000000)" fill="#FFFFFF">
            <g id="编组-3备份-11" transform="translate(16.000000, 874.000000)">
                <g id="占位/24x24备份-10" transform="translate(8.000000, 4.000000)">
                    <path d="M6,0.5 C9.03756612,0.5 11.5,2.96243388 11.5,6 C11.5,9.03756612 9.03756612,11.5 6,11.5 C2.96243388,11.5 0.5,9.03756612 0.5,6 C0.5,2.96243388 2.96243388,0.5 6,0.5 Z M6,1.5 C3.51471863,1.5 1.5,3.51471863 1.5,6 C1.5,8.48528137 3.51471863,10.5 6,10.5 C8.48528137,10.5 10.5,8.48528137 10.5,6 C10.5,3.51471863 8.48528137,1.5 6,1.5 Z M7.25,4.5 C7.38807119,4.5 7.5,4.61192881 7.5,4.75 L7.5,7.25 C7.5,7.38807119 7.38807119,7.5 7.25,7.5 L4.75,7.5 C4.61192881,7.5 4.5,7.38807119 4.5,7.25 L4.5,4.75 C4.5,4.61192881 4.61192881,4.5 4.75,4.5 L7.25,4.5 Z" id="形状结合"></path>
                </g>
            </g>
        </g>
    </g>
</svg>