<?xml version="1.0" encoding="UTF-8"?>
<svg width="22px" height="19px" viewBox="0 0 22 19" version="1.1" xmlns="http://www.w3.org/2000/svg" xmlns:xlink="http://www.w3.org/1999/xlink">
    <title>文件夹</title>
    <g id="icon篇" stroke="none" stroke-width="1" fill="none" fill-rule="evenodd">
        <g id="文件图标备份" transform="translate(-292.000000, -1244.000000)">
            <g id="文件夹" transform="translate(291.000000, 1242.000000)">
                <path d="M3,2 L8.9225128,2 C9.66521812,2 10.3660792,2.34385625 10.8206025,2.93124013 L16.6,10.4 L16.6,10.4 L1,10.4 L1,4 C1,2.8954305 1.8954305,2 3,2 Z" id="矩形备份-3" fill="#EB9B00"></path>
                <path d="M3.5638852,5.4 L20.4361148,5.4 C21.3276335,5.4 21.6509198,5.49282561 21.9768457,5.6671327 C22.3027716,5.8414398 22.5585602,6.09722837 22.7328673,6.4231543 C22.9071744,6.74908022 23,7.07236646 23,7.9638852 L23,18.4361148 C23,19.3276335 22.9071744,19.6509198 22.7328673,19.9768457 C22.5585602,20.3027716 22.3027716,20.5585602 21.9768457,20.7328673 C21.6509198,20.9071744 21.3276335,21 20.4361148,21 L3.5638852,21 C2.67236646,21 2.34908022,20.9071744 2.0231543,20.7328673 C1.69722837,20.5585602 1.4414398,20.3027716 1.2671327,19.9768457 C1.09282561,19.6509198 1,19.3276335 1,18.4361148 L1,7.9638852 C1,7.07236646 1.09282561,6.74908022 1.2671327,6.4231543 C1.4414398,6.09722837 1.69722837,5.8414398 2.0231543,5.6671327 C2.34908022,5.49282561 2.67236646,5.4 3.5638852,5.4 Z" id="矩形" fill="#F8B700"></path>
            </g>
        </g>
    </g>
</svg>