<?xml version="1.0" encoding="UTF-8"?>
<svg width="16px" height="16px" viewBox="0 0 16 16" version="1.1" xmlns="http://www.w3.org/2000/svg" xmlns:xlink="http://www.w3.org/1999/xlink">
    <title>显示备份 4</title>
    <defs>
        <path d="M15.3833112,-6.21504185e-16 L335.616689,6.21504185e-16 C340.965801,-3.61111829e-16 342.905519,0.556953667 344.861074,1.60279622 C346.81663,2.64863878 348.351361,4.18337022 349.397204,6.13892578 C350.443046,8.09448133 351,10.0341988 351,15.3833112 L351,94.6166888 C351,99.9658012 350.443046,101.905519 349.397204,103.861074 C348.351361,105.81663 346.81663,107.351361 344.861074,108.397204 C342.905519,109.443046 340.965801,110 335.616689,110 L15.3833112,110 C10.0341988,110 8.09448133,109.443046 6.13892578,108.397204 C4.18337022,107.351361 2.64863878,105.81663 1.60279622,103.861074 C0.556953667,101.905519 2.4074122e-16,99.9658012 -4.14336123e-16,94.6166888 L-1.39933216e-15,15.3833112 C8.1305228e-16,10.0341988 0.556953667,8.09448133 1.60279622,6.13892578 C2.64863878,4.18337022 4.18337022,2.64863878 6.13892578,1.60279622 C8.09448133,0.556953667 10.0341988,3.61111829e-16 15.3833112,-6.21504185e-16 Z" id="path-1"></path>
        <filter x="-9.0%" y="-25.9%" width="117.9%" height="157.3%" filterUnits="objectBoundingBox" id="filter-2">
            <feOffset dx="0" dy="3" in="SourceAlpha" result="shadowOffsetOuter1"></feOffset>
            <feGaussianBlur stdDeviation="10" in="shadowOffsetOuter1" result="shadowBlurOuter1"></feGaussianBlur>
            <feColorMatrix values="0 0 0 0 0   0 0 0 0 0   0 0 0 0 0  0 0 0 0.08 0" type="matrix" in="shadowBlurOuter1"></feColorMatrix>
        </filter>
    </defs>
    <g id="会务组" stroke="none" stroke-width="1" fill="none" fill-rule="evenodd">
        <g id="报到" transform="translate(-208.000000, -188.000000)">
            <rect fill="#F6F6F6" x="0" y="0" width="375" height="848"></rect>
            <rect id="矩形" fill="#F6F6F6" x="0" y="0" width="375" height="848"></rect>
            <g id="编组-9备份-6" transform="translate(12.000000, 112.000000)">
                <g id="矩形备份">
                    <use fill="black" fill-opacity="1" filter="url(#filter-2)" xlink:href="#path-1"></use>
                    <use fill="#FFFFFF" fill-rule="evenodd" xlink:href="#path-1"></use>
                </g>
                <g id="占位/24x24备份-6" transform="translate(196.000000, 76.000000)" fill="#191F24">
                    <path d="M8,2.66666667 C11.6981395,2.66666667 14.8430046,5.03337588 16,8.33349492 C14.8425789,11.6336111 11.6978892,14 8,14 C4.30186054,14 1.15699543,11.6332908 0,8.33317175 C1.15742111,5.03305555 4.30211082,2.66666667 8,2.66666667 Z M8,4 C5.14124962,4 2.60526447,5.69351015 1.47407434,8.23125254 L1.43,8.33266667 L1.4740561,8.43522779 C2.5786484,10.9139318 5.02388193,12.5874326 7.80107791,12.6639293 L8,12.6666667 C10.8587504,12.6666667 13.3947355,10.9731565 14.5259257,8.43541413 L14.5693333,8.33333333 L14.5259439,8.23143888 C13.4213516,5.7527349 10.9761181,4.07923405 8.19892209,4.00273737 L8,4 Z M8.00730916,5.33333333 C9.66472606,5.33333333 11.0088161,6.6762092 11.0088161,8.33333333 C11.0088161,9.99045747 9.66472606,11.3333333 8.00730916,11.3333333 C6.34989227,11.3333333 5.00580222,9.99045747 5.00580222,8.33333333 C5.00580222,6.6762092 6.34989227,5.33333333 8.00730916,5.33333333 Z M8.00730916,6.66666667 C7.08600232,6.66666667 6.33913556,7.41285875 6.33913556,8.33333333 C6.33913556,9.25380792 7.08600232,10 8.00730916,10 C8.92861601,10 9.67548277,9.25380792 9.67548277,8.33333333 C9.67548277,7.41285875 8.92861601,6.66666667 8.00730916,6.66666667 Z" id="形状"></path>
                </g>
            </g>
        </g>
    </g>
</svg>