<?xml version="1.0" encoding="utf-8"?>
<!DOCTYPE svg PUBLIC "-//W3C//DTD SVG 1.1//EN" "http://www.w3.org/Graphics/SVG/1.1/DTD/svg11.dtd">
<svg version="1.1" id="图层_1" xmlns="http://www.w3.org/2000/svg" xmlns:xlink="http://www.w3.org/1999/xlink" x="0px" y="0px"
	 width="17px" height="16px" viewBox="0 0 17 16" enable-background="new 0 0 17 16" xml:space="preserve">
<title>可见</title>
<g id="资源组">
	<g id="车辆分配" transform="translate(-239.000000, -186.000000)">
		<g id="编组-2" transform="translate(0.000000, 64.000000)">
			<g id="可见" transform="translate(239.028629, 121.238961)">
				<path id="形状结合" fill="#FFFFFF" d="M8.971,3c3.543,0,6.172,1.829,7.886,5.486c0.114,0.343,0.114,0.686,0,0.914
					c-1.714,3.657-4.343,5.486-7.886,5.486S2.8,13.057,1.086,9.4c-0.114-0.229-0.114-0.686,0-0.914C2.8,4.828,5.428,3,8.971,3z
					 M8.971,4.257C6,4.257,3.829,5.743,2.343,8.943c1.486,3.2,3.657,4.686,6.628,4.686c2.972,0,5.143-1.485,6.629-4.686
					C14.114,5.743,11.943,4.257,8.971,4.257z M8.857,5.743c1.829,0,3.314,1.371,3.314,3.2c0,1.828-1.601,3.2-3.314,3.2
					c-1.714,0-3.2-1.372-3.2-3.2C5.657,7.114,7.143,5.743,8.857,5.743z M8.857,6.886C7.714,6.886,6.8,7.8,6.8,8.943
					s0.914,2.057,2.057,2.057c1.144,0,2.058-0.914,2.058-2.057S10.001,6.886,8.857,6.886z"/>
			</g>
		</g>
	</g>
</g>
</svg>
