<?xml version="1.0" encoding="UTF-8"?>
<svg width="48px" height="48px" viewBox="0 0 48 48" version="1.1" xmlns="http://www.w3.org/2000/svg" xmlns:xlink="http://www.w3.org/1999/xlink">
    <title>形状结合备份 2</title>
    <g id="会务组" stroke="none" stroke-width="1" fill="none" fill-rule="evenodd">
        <g id="iOS-初始登录（激活）备份-4" transform="translate(-20.000000, -74.000000)" fill="#1E89FF" fill-rule="nonzero">
            <g id="avic" transform="translate(20.000000, 74.000000)">
                <path d="M48,0 C46.1120473,4.62114286 44.3677618,8.8382857 43.0289894,13.036 C45.2968038,16.6513849 46.4952661,20.8199507 46.4891744,25.0714286 C46.4891744,37.7342856 36.0819716,48 23.2445872,48 C10.4066234,48 -2.48689958e-14,37.7342856 -2.48689958e-14,25.0714286 C-2.48689958e-14,12.408 10.4066234,2.14285716 23.2445872,2.14285716 C28.6195222,2.13511471 33.8296343,3.97279399 37.9809313,7.34057143 C42.6373796,4.5662857 45.8780083,2.06342859 48,0 Z M26.194405,4.0445377 C15.9969104,4.0445377 7.729658,12.1994286 7.729658,22.2588571 C7.729658,32.3182858 15.9963311,40.4731428 26.194405,40.4731428 C36.3918996,40.4731428 44.6597487,32.3182858 44.6597487,22.2588571 C44.6625395,19.4218353 43.9902865,16.6237626 42.697048,14.0897143 C41.3130899,18.6708571 40.4441333,23.268 40.4441333,28.3811429 L40.4441333,28.3811429 L27.3466413,25.0805714 L43.1888775,5.84857145 L39.7970505,8.37371429 L32.4659538,14.6142857 L24.8272466,18.0737143 L20.2785489,23.2988572 L8.60730406,20.3571428 C21.4296266,15.9337143 30.7338339,11.58 37.3257381,7.72742858 C34.1230738,5.33276707 30.2131849,4.03916076 26.194405,4.0445377 Z M33.0995164,31.154068 C33.6904078,31.154068 34.1703626,31.3263227 34.5393952,31.6708374 C34.7590575,31.8745127 34.9238017,32.1670208 35.0336328,32.5483704 L34.0682221,32.7758789 C34.0111099,32.5288684 33.8919449,32.333863 33.7107235,32.1908569 C33.5295022,32.0478508 33.3092941,31.9763489 33.0500926,31.9763489 C32.6920432,31.9763489 32.4015442,32.1031024 32.178587,32.3566132 C31.9556298,32.6101239 31.8441529,33.0207186 31.8441529,33.5884094 C31.8441529,34.1907684 31.9539824,34.6197802 32.1736446,34.8754578 C32.3933069,35.1311353 32.6788635,35.2589722 33.0303231,35.2589722 C33.2895246,35.2589722 33.5124784,35.1777199 33.6991913,35.015213 C33.8859042,34.8527061 34.0198962,34.5970324 34.1011712,34.2481842 L35.0468125,34.5439453 C34.9018354,35.0639674 34.6607597,35.4501864 34.3235781,35.7026138 C33.9863966,35.9550412 33.5586108,36.0812531 33.0402079,36.0812531 C32.3987941,36.0812531 31.8716126,35.8651221 31.4586476,35.4328537 C31.0456826,35.0005853 30.8392031,34.4096107 30.8392031,33.6599121 C30.8392031,32.8668784 31.0467809,32.2509864 31.4619425,31.8122177 C31.8771042,31.373449 32.4229567,31.154068 33.0995164,31.154068 Z M20.9307558,31.235321 L22.8648722,36 L21.8039089,36 L21.3821595,34.9177094 L19.4513379,34.9177094 L19.052653,36 L18.0180489,36 L19.8994467,31.235321 L20.9307558,31.235321 Z M24.0292867,31.235321 L25.251701,34.7617035 L26.4345763,31.235321 L27.4691803,31.235321 L25.7393488,36 L24.6981549,36 L22.9716183,31.235321 L24.0292867,31.235321 Z M29.4968631,31.235321 L29.4968631,36 L28.5215676,36 L28.5215676,31.235321 L29.4968631,31.235321 Z M20.403569,32.3468628 L19.7511754,34.1149292 L21.0691423,34.1149292 L20.403569,32.3468628 Z M41.4584953,7.49485716 L40.2998865,8.89942855 L26.0588477,26.1902856 L18.1420744,26.1902856 L24.9483212,18.3331429 L32.6241039,14.8571429 L39.986483,8.59028573 L41.4584953,7.49485716 Z" id="形状结合备份-2"></path>
            </g>
        </g>
    </g>
</svg>