<?xml version="1.0" encoding="UTF-8"?>
<svg width="24px" height="24px" viewBox="0 0 24 24" version="1.1" xmlns="http://www.w3.org/2000/svg" xmlns:xlink="http://www.w3.org/1999/xlink">
    <!-- Generator: Sketch 63 (92445) - https://sketch.com -->
    <title>Icon/会议/主题备份 86</title>
    <desc>Created with Sketch.</desc>
    <g id="页面-1" stroke="none" stroke-width="1" fill="none" fill-rule="evenodd">
        <g id="会务工作台" transform="translate(-219.000000, -674.000000)">
            <g id="编组-5备份-2" transform="translate(0.000000, 406.000000)">
                <g id="编组-4" transform="translate(0.000000, 130.000000)">
                    <g id="Box/应用备份-13" transform="translate(188.000000, 126.000000)">
                        <g id="Icon/会议/主题" transform="translate(31.000000, 12.000000)">
                            <g id="占位/24x24备份-6">
                                <path d="M19,2 L6,2 C4.34314575,2 3,3.34314575 3,5 L3,15 L3.00509269,15.1762728 C3.09633912,16.75108 4.40231912,18 6,18 L9.585,18 L12.2928932,20.7071068 L12.3858753,20.7893779 C12.8047124,21.1163346 13.418662,21.0596556 13.7682213,20.6401844 L15.968,18 L19,18 C20.6568542,18 22,16.6568542 22,15 L22,5 C22,3.34314575 20.6568542,2 19,2 Z M6,4 L19,4 C19.5522847,4 20,4.44771525 20,5 L20,15 C20,15.5522847 19.5522847,16 19,16 L15.5,16 L15.3739693,16.0079669 C15.124673,16.0396264 14.8946306,16.1643934 14.7317787,16.3598156 L12.932,18.517 L10.7071068,16.2928932 C10.5195704,16.1053568 10.2652165,16 10,16 L6,16 C5.44771525,16 5,15.5522847 5,15 L5,5 C5,4.44771525 5.44771525,4 6,4 Z" id="矩形" fill="#191F24" fill-rule="nonzero"></path>
                                <path d="M17.1648859,7.30092488 C17.5661191,7.70215804 17.5661191,8.35268554 17.1648859,8.7539187 L12.2539187,13.6648859 C11.8882979,14.0305067 11.3156724,14.0629582 10.9133052,13.7622405 C10.7957968,13.7119028 10.6861162,13.63911 10.5905717,13.5435656 L7.80092488,10.7539187 C7.39969171,10.3526855 7.39969171,9.70215804 7.80092488,9.30092488 C8.20215804,8.89969171 8.85268554,8.89969171 9.2539187,9.30092488 L11.482,11.529 L15.7118921,7.30092488 C16.1131252,6.89969171 16.7636527,6.89969171 17.1648859,7.30092488 Z" id="形状结合" fill="#1E89FF"></path>
                            </g>
                        </g>
                    </g>
                </g>
            </g>
        </g>
    </g>
</svg>