<?xml version="1.0" encoding="UTF-8"?>
<svg width="24px" height="24px" viewBox="0 0 24 24" version="1.1" xmlns="http://www.w3.org/2000/svg" xmlns:xlink="http://www.w3.org/1999/xlink">
    <title>Icon/System/search</title>
    <g id="会务组" stroke="none" stroke-width="1" fill="none" fill-rule="evenodd">
        <g id="会务工作台" transform="translate(-305.000000, -468.000000)">
            <g id="编组-5备份-2" transform="translate(0.000000, 406.000000)">
                <g id="Box/应用备份-8" transform="translate(274.000000, 50.000000)">
                    <g id="Icon/System/search" transform="translate(31.000000, 12.000000)">
                        <path d="M10.2065278,2.61300685 L7.91,7.266 L2.77574288,8.01178815 C2.34046881,8.07503717 1.93818399,8.28001153 1.63116678,8.5949788 L1.51596947,8.72367638 C0.864014214,9.51786115 0.917978821,10.6927516 1.66731613,11.4231749 L5.382,15.044 L4.50562342,20.1585865 C4.43126974,20.5921018 4.50189909,21.038038 4.70657723,21.4273589 L4.78463556,21.5629038 C5.33522083,22.4388295 6.47638978,22.7564649 7.40752232,22.2669395 L12,19.852 L16.5924777,22.2669395 C16.9817986,22.4716176 17.4277348,22.542247 17.86125,22.4678933 L18.0074369,22.4372545 C19.014497,22.1870662 19.6726112,21.1977743 19.4943766,20.1585865 L18.617,15.044 L22.3326839,11.4231749 C22.6476511,11.1161577 22.8526255,10.7138729 22.9158745,10.2785988 L22.9319095,10.1300989 C23.0051649,9.09501545 22.267661,8.1634036 21.2242571,8.01178815 L16.089,7.266 L13.7934722,2.61300685 C13.5988117,2.21858164 13.2795566,1.8993266 12.8851314,1.70466612 C11.8946241,1.21582154 10.6953724,1.62249953 10.2065278,2.61300685 Z M9.23842004,9.09371046 L12,3.499 L14.76158,9.09371046 L20.9366605,9.99100218 L16.4683302,14.3465477 L17.5231599,20.4966767 L12,17.5929797 L6.47684007,20.4966767 L7.53166975,14.3465477 L3.06333951,9.99100218 L9.23842004,9.09371046 Z" id="星形" fill="#191F24"></path>
                        <rect id="矩形" fill="#1E89FF" transform="translate(11.211309, 10.546846) rotate(-65.000000) translate(-11.211309, -10.546846) " x="8.71130913" y="9.54684611" width="5" height="2" rx="1"></rect>
                    </g>
                </g>
            </g>
        </g>
    </g>
</svg>