<?xml version="1.0" encoding="UTF-8"?>
<svg width="13px" height="13px" viewBox="0 0 13 13" version="1.1" xmlns="http://www.w3.org/2000/svg" xmlns:xlink="http://www.w3.org/1999/xlink">
    <title>进行中</title>
    <g id="会务组" stroke="none" stroke-width="1" fill="none" fill-rule="evenodd">
        <g id="会务大厅" transform="translate(-23.000000, -279.000000)" fill="#FFFFFF">
            <g id="编组-3备份-9" transform="translate(16.000000, 276.000000)">
                <g id="icon/system/my-work备份" transform="translate(7.500000, 3.500000)">
                    <path d="M10.5,0.5 L10.5,1.5 L9.5,1.5 L9.5,3.03875031 C9.5,3.585561 9.27629466,4.10568897 8.88569378,4.48093431 L8.7493901,4.60048792 L7,6 L8.7493901,7.39951208 C9.22382056,7.77905645 9.5,8.35368225 9.5,8.96124969 L9.5,10.5 L10.5,10.5 L10.5,11.5 L1.5,11.5 L1.5,10.5 L2.5,10.5 L2.5,8.96124969 C2.5,8.35368225 2.77617944,7.77905645 3.2506099,7.39951208 L5,6 L3.2506099,4.60048792 C2.77617944,4.22094355 2.5,3.64631775 2.5,3.03875031 L2.5,3.03875031 L2.5,1.5 L1.5,1.5 L1.5,0.5 L10.5,0.5 Z M6,6.49442717 L5.35,7 L3.87530495,8.18038089 C3.66181124,8.35117585 3.5286092,8.6009788 3.50410373,8.87068977 L3.5,8.96124969 L3.5,10.1330518 L5.88867185,9.01343152 C5.95878185,8.98048936 6.04019871,8.98197412 6.10909416,9.01738612 C7.70303139,9.83666367 8.5,10.2054035 8.5,10.1236057 L8.5,8.96124969 L8.5,8.96124969 C8.5,8.68784435 8.38814733,8.42778036 8.19284689,8.24015769 L8.12469505,8.18038089 L6.6495,7 L6,6.49442717 Z M8.5,1.5 L3.5,1.5 L3.5,2.84366114 C3.5,2.93539577 3.54992609,3.01772126 3.62684632,3.06125108 L3.68923958,3.0861651 L7.31828376,3.99543784 C7.59979462,4.06597161 7.8980939,4.00093457 8.12469505,3.81961911 L8.12469505,3.81961911 L8.19284689,3.75984231 C8.38814733,3.57221964 8.5,3.31215565 8.5,3.03875031 L8.5,3.03875031 L8.5,1.5 Z" id="形状结合"></path>
                </g>
            </g>
        </g>
    </g>
</svg>