<?xml version="1.0" encoding="UTF-8"?>
<svg width="24px" height="24px" viewBox="0 0 24 24" version="1.1" xmlns="http://www.w3.org/2000/svg" xmlns:xlink="http://www.w3.org/1999/xlink">
    <title>接机</title>
    <g id="会务组" stroke="none" stroke-width="1" fill="none" fill-rule="evenodd">
        <g id="会务工作台" transform="translate(-218.000000, -949.000000)" fill-rule="nonzero">
            <g id="Box/应用备份-9" transform="translate(187.000000, 937.000000)">
                <g id="接机" transform="translate(31.000000, 12.000000)">
                    <path d="M13.5,17.5071336 L13.5,22.5071336 C13.5,23.0594184 13.0522847,23.5071336 12.5,23.5071336 L11.5,23.5071336 C10.9477153,23.5071336 10.5,23.0594184 10.5,22.5071336 L10.5,17.5071336 L13.5,17.5071336 Z M20,1.50713363 C21.6568542,1.50713363 23,2.85027938 23,4.50713363 L23,4.50713363 L23,13.5071336 C23,15.1639879 21.6568542,16.5071336 20,16.5071336 L20,16.5071336 L4,16.5071336 C2.34314575,16.5071336 1,15.1639879 1,13.5071336 L1,13.5071336 L1,4.50713363 C1,2.85027938 2.34314575,1.50713363 4,1.50713363 L4,1.50713363 Z M20,3.50713363 L4,3.50713363 C3.44771525,3.50713363 3,3.95484888 3,4.50713363 L3,4.50713363 L3,13.5071336 C3,14.0594184 3.44771525,14.5071336 4,14.5071336 L4,14.5071336 L20,14.5071336 C20.5522847,14.5071336 21,14.0594184 21,13.5071336 L21,13.5071336 L21,4.50713363 C21,3.95484888 20.5522847,3.50713363 20,3.50713363 L20,3.50713363 Z" id="矩形" fill="#191F24"></path>
                    <path d="M12.02,8.512 L12.02,7.72 L10.892,7.72 C11.052,7.44 11.196,7.136 11.324,6.8 L10.924,6.656 L11.876,6.656 L11.876,5.904 L10.14,5.904 C10.06,5.648 9.988,5.408 9.908,5.2 L9.044,5.344 C9.14,5.52 9.22,5.704 9.3,5.904 L7.676,5.904 L7.676,6.656 L8.756,6.656 L8.164,6.944 C8.308,7.176 8.452,7.432 8.58,7.72 L7.484,7.72 L7.484,8.512 L12.02,8.512 Z M5.812,12.6 C6.356,12.6 6.636,12.328 6.636,11.784 L6.636,9.576 C6.82,9.488 7.004,9.4 7.196,9.304 L7.196,8.456 C7.012,8.552 6.828,8.648 6.636,8.744 L6.636,7.52 L7.212,7.52 L7.212,6.712 L6.636,6.712 L6.636,5.296 L5.788,5.296 L5.788,6.712 L4.9,6.712 L4.9,7.52 L5.788,7.52 L5.788,9.096 C5.444,9.224 5.092,9.32 4.732,9.4 L4.948,10.24 C5.228,10.144 5.508,10.048 5.788,9.944 L5.788,11.568 C5.788,11.744 5.7,11.84 5.524,11.84 C5.332,11.84 5.132,11.824 4.924,11.792 L5.108,12.6 L5.812,12.6 Z M10.012,7.72 L9.372,7.72 C9.212,7.336 9.044,6.984 8.86,6.656 L10.492,6.656 C10.356,7.024 10.196,7.384 10.012,7.72 Z M7.636,12.72 C8.748,12.496 9.572,12.208 10.108,11.84 C10.732,12.128 11.244,12.408 11.66,12.664 L12.116,12 C11.66,11.744 11.188,11.512 10.7,11.296 C11.004,10.928 11.22,10.496 11.34,9.984 L12.156,9.984 L12.156,9.184 L9.54,9.184 C9.604,9.024 9.676,8.864 9.74,8.696 L8.932,8.6 C8.868,8.784 8.788,8.976 8.692,9.184 L7.38,9.184 L7.38,9.984 L8.292,9.984 C8.132,10.256 7.964,10.544 7.772,10.84 C8.284,11.04 8.756,11.24 9.204,11.432 C8.732,11.648 8.1,11.824 7.316,11.968 L7.636,12.72 Z M9.94,10.96 C9.564,10.8 9.18,10.648 8.796,10.512 C8.908,10.344 9.02,10.168 9.132,9.984 L10.556,9.984 C10.428,10.368 10.22,10.688 9.94,10.96 Z M14.36,12.64 L14.36,8.704 C14.528,8.984 14.72,9.328 14.944,9.728 L15.432,8.992 C15.072,8.576 14.712,8.192 14.36,7.848 L14.36,7.552 L15.256,7.552 L15.256,6.744 L14.36,6.744 L14.36,5.272 L13.528,5.272 L13.528,6.744 L12.432,6.744 L12.432,7.552 L13.488,7.552 C13.224,8.448 12.816,9.24 12.256,9.928 L12.616,10.84 C12.976,10.28 13.28,9.672 13.528,9.016 L13.528,12.64 L14.36,12.64 Z M15.448,12.736 C15.824,12.144 16.08,11.52 16.216,10.88 C16.36,10.24 16.432,9.472 16.432,8.568 L16.432,6.304 L17.568,6.304 L17.568,11.688 C17.568,12.216 17.872,12.488 18.488,12.488 L18.848,12.488 C19.128,12.488 19.336,12.432 19.464,12.328 C19.592,12.2 19.672,11.992 19.704,11.688 C19.736,11.384 19.76,10.92 19.76,10.312 L18.992,10.072 C18.992,10.92 18.976,11.408 18.944,11.52 C18.928,11.576 18.912,11.624 18.88,11.656 C18.848,11.688 18.8,11.704 18.736,11.704 L18.496,11.704 C18.44,11.704 18.416,11.664 18.416,11.592 L18.416,5.52 L15.6,5.52 L15.6,8.568 C15.6,9.472 15.544,10.152 15.44,10.608 C15.312,11.136 15.08,11.648 14.76,12.128 L15.448,12.736 Z" fill="#1E89FF"></path>
                </g>
            </g>
        </g>
    </g>
</svg>