<?xml version="1.0" encoding="UTF-8"?>
<svg width="18px" height="24px" viewBox="0 0 18 24" version="1.1" xmlns="http://www.w3.org/2000/svg" xmlns:xlink="http://www.w3.org/1999/xlink">
    <title>picture备份</title>
    <g id="icon篇" stroke="none" stroke-width="1" fill="none" fill-rule="evenodd">
        <g id="编组" transform="translate(-3.000000, 0.000000)" fill-rule="nonzero">
            <g id="icon／File／picture2" transform="translate(3.000000, 0.000000)">
                <path d="M18,6 L18,21.4361148 L17.9996186,21.532863 C17.9930122,22.3515843 17.9007186,22.6629911 17.7328673,22.9768457 C17.5585602,23.3027717 17.3027717,23.5585602 16.9768457,23.7328673 L16.9406135,23.7518988 C16.6322398,23.9108072 16.307361,23.9966612 15.4850626,24 L2.5638852,24 C1.67236646,24 1.34908022,23.9071744 1.0231543,23.7328673 C0.69722837,23.5585602 0.441439795,23.3027717 0.267132705,22.9768457 L0.247741745,22.9399158 C0.089063375,22.6317495 0.003336295,22.3067409 0,21.4850626 L0,2.5638852 C0,1.67236646 0.09282561,1.34908022 0.267132705,1.0231543 C0.441439795,0.69722837 0.69722837,0.441439796 1.0231543,0.267132704 L1.06008414,0.247741744 C1.36825057,0.089063376 1.69325912,0.00333629384 2.51493735,0 L12,0 L18,6 Z" id="路径" fill="#DE6300"></path>
                <path d="M12,0 L18,6 L13.6665254,6 C13.0870382,6 12.8769021,5.93966335 12.6650503,5.82636375 C12.4531985,5.71306415 12.2869359,5.54680155 12.1736362,5.3349497 L12.1570394,5.3031384 C12.0544538,5.10116085 12,4.88398744 12,4.33347462 L12,0 Z" id="矩形" fill-opacity="0.209295953" fill="#000000"></path>
                <path d="M11.1709868,12.7666128 C11.2732227,12.821562 11.3570342,12.9053736 11.4119834,13.0076094 L14.1830295,18.1632871 C14.3137624,18.4065226 14.2225611,18.7096839 13.9793256,18.8404168 C13.9065554,18.8795289 13.8252277,18.9 13.7426127,18.9 L12.2587394,18.8995 L12.2595405,18.9 L4.25729006,18.9 C3.98114771,18.9 3.75729006,18.6761423 3.75729006,18.4 C3.75729006,18.2966082 3.78934196,18.1957589 3.84903246,18.111338 L6.54482761,14.298647 C6.73343731,14.0318943 7.10258151,13.9685469 7.36933426,14.1571567 C7.39441531,14.1748905 7.41807691,14.1945509 7.44010446,14.2159596 L8.93773941,15.6715 L10.3698929,13.0076094 C10.5245595,12.7198441 10.8832215,12.6119462 11.1709868,12.7666128 Z M6.91076721,9.9 C7.63120091,9.9 8.21522781,10.4907926 8.21522781,11.2195722 C8.21522781,11.9483519 7.63120091,12.5391445 6.91076721,12.5391445 C6.19033346,12.5391445 5.60630656,11.9483519 5.60630656,11.2195722 C5.60630656,10.4907926 6.19033346,9.9 6.91076721,9.9 Z" id="形状结合" fill="#FFFFFF"></path>
            </g>
        </g>
    </g>
</svg>