<?xml version="1.0" encoding="utf-8"?>
<!DOCTYPE svg PUBLIC "-//W3C//DTD SVG 1.1//EN" "http://www.w3.org/Graphics/SVG/1.1/DTD/svg11.dtd">
<svg version="1.1" id="图层_1" xmlns="http://www.w3.org/2000/svg" xmlns:xlink="http://www.w3.org/1999/xlink" x="0px" y="0px"
	 width="64px" height="64px" viewBox="0 0 64 64" enable-background="new 0 0 64 64" xml:space="preserve">
<g>
	<path fill="#979A9C" d="M32,15.839c-5.632,0-10.214,4.581-10.214,10.214S26.368,36.267,32,36.267
		c5.633,0,10.214-4.581,10.214-10.214S37.633,15.839,32,15.839z M32,31.095c-2.78,0-5.042-2.262-5.042-5.042S29.22,21.01,32,21.01
		c2.781,0,5.043,2.263,5.043,5.043S34.781,31.095,32,31.095z"/>
	<path fill="#979A9C" d="M32,0C17.635,0,5.947,11.687,5.947,26.053c0,5.979,5.028,15.685,9.733,22.774C19.44,54.494,26.561,64,32,64
		s12.56-9.506,16.32-15.173c4.705-7.09,9.732-16.795,9.732-22.774C58.053,11.687,46.366,0,32,0z M44.072,45.877
		C37.719,55.477,33.124,58.788,32,58.828c-1.124-0.04-5.718-3.352-12.071-12.951c-5.27-7.962-8.81-15.928-8.81-19.824
		c0-11.514,9.368-20.881,20.881-20.881c11.515,0,20.881,9.367,20.881,20.881C52.881,29.949,49.341,37.916,44.072,45.877z"/>
</g>
</svg>
