<?xml version="1.0" encoding="UTF-8"?>
<svg width="24px" height="24px" viewBox="0 0 24 24" version="1.1" xmlns="http://www.w3.org/2000/svg" xmlns:xlink="http://www.w3.org/1999/xlink">
    <title>Icon/System/search</title>
    <g id="会务组" stroke="none" stroke-width="1" fill="none" fill-rule="evenodd">
        <g id="会务工作台" transform="translate(-219.000000, -468.000000)">
            <g id="编组-5备份-2" transform="translate(0.000000, 406.000000)">
                <g id="Box/应用备份-6" transform="translate(188.000000, 50.000000)">
                    <g id="Icon/System/search" transform="translate(31.000000, 12.000000)">
                        <path d="M10.4564918,1 C15.6791681,1 19.9129837,5.19584624 19.9129837,10.3716849 C19.9129837,12.654511 19.089384,14.7467002 17.7205949,16.3723393 L23,21.604888 L21.5922633,23 L16.2914609,17.7471246 C14.6843163,18.9976349 12.65828,19.7433698 10.4564918,19.7433698 C5.2338156,19.7433698 1,15.5475235 1,10.3716849 C1,5.19584624 5.2338156,1 10.4564918,1 Z M10.4564918,2.97298629 C6.33332639,2.97298629 2.99084038,6.28549648 2.99084038,10.3716849 C2.99084038,14.4578733 6.33332639,17.7703835 10.4564918,17.7703835 C14.5796573,17.7703835 17.9221433,14.4578733 17.9221433,10.3716849 C17.9221433,6.28549648 14.5796573,2.97298629 10.4564918,2.97298629 Z" id="形状结合" fill="#191F24"></path>
                        <path d="M10.5,5 C11.0522847,5 11.5,5.44771525 11.5,6 C11.5,6.55228475 11.0522847,7 10.5,7 C8.56700338,7 7,8.56700338 7,10.5 C7,11.0522847 6.55228475,11.5 6,11.5 C5.44771525,11.5 5,11.0522847 5,10.5 C5,7.46243388 7.46243388,5 10.5,5 Z" id="路径" fill="#1E89FF" fill-rule="nonzero"></path>
                    </g>
                </g>
            </g>
        </g>
    </g>
</svg>