<?xml version="1.0" encoding="UTF-8"?>
<svg width="24px" height="24px" viewBox="0 0 24 24" version="1.1" xmlns="http://www.w3.org/2000/svg" xmlns:xlink="http://www.w3.org/1999/xlink">
    <title>Icon/会议/主题备份 89</title>
    <g id="会务组" stroke="none" stroke-width="1" fill="none" fill-rule="evenodd">
        <g id="会务工作台" transform="translate(-133.000000, -804.000000)">
            <g id="编组-5备份-2" transform="translate(0.000000, 406.000000)">
                <g id="编组-3备份" transform="translate(0.000000, 336.000000)">
                    <g id="Box/应用备份-4" transform="translate(102.000000, 50.000000)">
                        <g id="占位/24x24备份-3" transform="translate(31.000000, 12.000000)">
                            <path d="M11.3311576,1.25670585 C11.711393,0.914431382 12.288607,0.914431382 12.6688424,1.25670585 L12.6688424,1.25670585 L22.6670143,10.2567059 C23.2253445,10.759295 23.0345879,11.6093777 22.4429059,11.8994934 C21.5444636,10.7884648 20.3136924,9.9591667 18.9020499,9.56150844 L12,3.345 L4.99455321,9.6497757 L5.00127971,20 L8.00073126,20 L8.00073126,15.1666667 C8.00073126,14.5223345 8.52306572,14 9.16739793,14 L9.16739793,14 L10.3863541,14.0007846 C10.167342,14.630845 10.0358236,15.3018488 10.0063443,15.9992508 L10.0003656,16 L10.0003656,20 L11.0570612,20.0006361 C11.5465574,20.7850685 12.1870445,21.4655663 12.9378497,22.0014569 L4.00146253,22 C3.44927874,22 3.00164534,21.5522847 3.00164534,21 L3.00164534,21 L3.00164534,12 L2.00182816,12 C1.12369141,12 0.688865857,10.9620225 1.2536092,10.3359169 L1.2536092,10.3359169 L1.33298572,10.2567059 Z" id="形状结合" fill="#191F24"></path>
                            <path d="M17,11.3 C19.7614237,11.3 22,13.5385763 22,16.3 C22,17.7135623 21.4134086,18.9901188 20.4703671,19.8995284 L22.1589186,22.824944 L20.4268678,23.824944 L18.7808127,20.9735654 C18.2275964,21.1844845 17.6272882,21.3 17,21.3 C14.2385763,21.3 12,19.0614237 12,16.3 C12,13.5385763 14.2385763,11.3 17,11.3 Z M17,13.3 C15.3431458,13.3 14,14.6431458 14,16.3 C14,17.9568542 15.3431458,19.3 17,19.3 C18.6568542,19.3 20,17.9568542 20,16.3 C20,14.6431458 18.6568542,13.3 17,13.3 Z" id="形状结合" fill="#1E89FF"></path>
                        </g>
                    </g>
                </g>
            </g>
        </g>
    </g>
</svg>