<?xml version="1.0" encoding="UTF-8"?>
<svg width="24px" height="24px" viewBox="0 0 24 24" version="1.1" xmlns="http://www.w3.org/2000/svg" xmlns:xlink="http://www.w3.org/1999/xlink">
    <title>用车查询</title>
    <g id="会务组" stroke="none" stroke-width="1" fill="none" fill-rule="evenodd">
        <g id="会务工作台" transform="translate(-47.000000, -804.000000)">
            <g id="编组-5备份-2" transform="translate(0.000000, 406.000000)">
                <g id="编组-3备份" transform="translate(0.000000, 336.000000)">
                    <g id="Box/应用备份-3" transform="translate(16.000000, 50.000000)">
                        <g id="Icon/会议/主题" transform="translate(31.000000, 12.000000)">
                            <path d="M16.5584816,3 C17.8497728,3 18.9961893,3.82629028 19.4045315,5.0513167 L19.4045315,5.0513167 L20.6630465,8.82435923 C19.9542139,8.5325442 19.1869456,8.35372655 18.3836714,8.31033616 L17.5071649,5.68377223 C17.3834248,5.31255211 17.0563585,5.05117665 16.6745258,5.00672177 L16.6745258,5.00672177 L16.5584816,5 L7.44151844,5 C7.01108803,5 6.62894919,5.27543009 6.49283514,5.68377223 L6.49283514,5.68377223 L5.387,9 L14.9452266,8.99994446 C13.9760814,9.47073577 13.1318821,10.1585659 12.4758255,11.000238 L4,11 C3.44771525,11 3,11.4477153 3,12 L3,12 L3,16 C3,16.5522847 3.44771525,17 4,17 L4,17 L11.2080331,17.0006969 C11.3869328,17.7174639 11.6763221,18.3904902 12.0570612,19.0006361 L6,19 L6,20.8333333 C6,21.4776655 5.47766554,22 4.83333333,22 L4.16666667,22 C3.52233446,22 3,21.4776655 3,20.8333333 L3.00008893,18.8293257 C1.8348501,18.4175144 1,17.3062521 1,16 L1,16 L1,12 C1,10.6032921 1.95447757,9.42951433 3.24674718,9.09535229 L4.59546855,5.0513167 C5.00381069,3.82629028 6.15022722,3 7.44151844,3 L7.44151844,3 Z" id="形状结合" fill="#191F24"></path>
                            <path d="M18,10.3 C20.7614237,10.3 23,12.5385763 23,15.3 C23,16.7135623 22.4134086,17.9901188 21.4703671,18.8995284 L23.1589186,21.824944 L21.4268678,22.824944 L19.7808127,19.9735654 C19.2275964,20.1844845 18.6272882,20.3 18,20.3 C15.2385763,20.3 13,18.0614237 13,15.3 C13,12.5385763 15.2385763,10.3 18,10.3 Z M18,12.3 C16.3431458,12.3 15,13.6431458 15,15.3 C15,16.9568542 16.3431458,18.3 18,18.3 C19.6568542,18.3 21,16.9568542 21,15.3 C21,13.6431458 19.6568542,12.3 18,12.3 Z M7.5,13 C8.32842712,13 9,13.6715729 9,14.5 C9,15.3284271 8.32842712,16 7.5,16 C6.67157288,16 6,15.3284271 6,14.5 C6,13.6715729 6.67157288,13 7.5,13 Z" id="形状结合" fill="#1E89FF"></path>
                        </g>
                    </g>
                </g>
            </g>
        </g>
    </g>
</svg>