<?xml version="1.0" encoding="UTF-8"?>
<svg width="24px" height="24px" viewBox="0 0 24 24" version="1.1" xmlns="http://www.w3.org/2000/svg" xmlns:xlink="http://www.w3.org/1999/xlink">
    <title>Icon/会议/主题备份 90</title>
    <g id="会务组" stroke="none" stroke-width="1" fill="none" fill-rule="evenodd">
        <g id="会务工作台" transform="translate(-305.000000, -804.000000)">
            <g id="编组-5备份-2" transform="translate(0.000000, 406.000000)">
                <g id="编组-3备份" transform="translate(0.000000, 336.000000)">
                    <g id="Box/应用备份-8" transform="translate(274.000000, 50.000000)">
                        <g id="占位/24x24备份-8" transform="translate(31.000000, 12.000000)">
                            <path d="M17,1 C18.6568542,1 20,2.31426401 20,3.93549083 L20.0007361,9.6739809 C19.3788264,9.37845466 18.7064292,9.1719365 18.0000082,9.07089004 L18,3.93549083 C18,3.40424136 17.5673329,2.97187372 17.0279905,2.9573698 L17,2.95699389 L5,2.95699389 C4.45707601,2.95699389 4.01520683,3.3803573 4.00038418,3.90810222 L4,3.93549083 L4,19.5156084 L10.0252677,16.8952712 L10.0552924,16.8840566 C10.1398788,17.5552628 10.3195061,18.1968717 10.5802696,18.7949787 L3.40613847,21.9154207 C2.90145428,22.1349015 2.31049253,21.912496 2.08618845,21.4186641 C2.02936223,21.2935545 2,21.1581685 2,21.0212588 L2,3.93549083 C2,2.31426401 3.34314575,1 5,1 L17,1 Z M12.9725782,9.88281912 C13.1322548,9.88281912 13.2834237,9.91924497 13.4182287,9.98424041 C12.5835025,10.4827515 11.8617603,11.1490484 11.299252,11.9368566 L7.02742179,11.9376627 C6.4599924,11.9376627 6,11.4776703 6,10.9102409 C6,10.3428115 6.4599924,9.88281912 7.02742179,9.88281912 L12.9725782,9.88281912 Z M14.9725782,5.87098166 C15.5400076,5.87098166 16,6.33097406 16,6.89840345 C16,7.46583283 15.5400076,7.92582524 14.9725782,7.92582524 L7.02742179,7.92582524 C6.4599924,7.92582524 6,7.46583283 6,6.89840345 C6,6.33097406 6.4599924,5.87098166 7.02742179,5.87098166 L14.9725782,5.87098166 Z" id="形状结合" fill="#191F24"></path>
                            <path d="M17,11 C19.7614237,11 22,13.2385763 22,16 C22,17.4135623 21.4134086,18.6901188 20.4703671,19.5995284 L22.1589186,22.524944 L20.4268678,23.524944 L18.7808127,20.6735654 C18.2275964,20.8844845 17.6272882,21 17,21 C14.2385763,21 12,18.7614237 12,16 C12,13.2385763 14.2385763,11 17,11 Z M17,13 C15.3431458,13 14,14.3431458 14,16 C14,17.6568542 15.3431458,19 17,19 C18.6568542,19 20,17.6568542 20,16 C20,14.3431458 18.6568542,13 17,13 Z" id="形状结合" fill="#1E89FF"></path>
                        </g>
                    </g>
                </g>
            </g>
        </g>
    </g>
</svg>