<?xml version="1.0" encoding="UTF-8"?>
<svg width="19px" height="19px" viewBox="0 0 19 19" version="1.1" xmlns="http://www.w3.org/2000/svg" xmlns:xlink="http://www.w3.org/1999/xlink">
    <!-- Generator: Sketch 63 (92445) - https://sketch.com -->
    <title>扫码</title>
    <desc>Created with Sketch.</desc>
    <g id="页面-1" stroke="none" stroke-width="1" fill="none" fill-rule="evenodd">
        <g id="202108版-会议首页备份" transform="translate(-407.000000, -470.000000)" fill="#191F24">
            <g id="编组-40" transform="translate(92.000000, 389.000000)">
                <g id="Second-Bar/Search" transform="translate(0.000000, 64.000000)">
                    <g id="扫码" transform="translate(313.000000, 15.000000)">
                        <path d="M20.3333333,13.9166667 L20.3333333,17.5833333 C20.3333333,19.1021164 19.1021164,20.3333333 17.5833333,20.3333333 L13.9166667,20.3333333 L13.9166667,18.5 L17.5833333,18.5 C18.0534329,18.5 18.4408816,18.1461298 18.4938329,17.690236 L18.5,17.5833333 L18.5,13.9166667 L20.3333333,13.9166667 Z M3.83333333,13.9166667 L3.83333333,17.5833333 C3.83333333,18.0534329 4.18720351,18.4408816 4.6430973,18.4938329 L4.75,18.5 L8.41666667,18.5 L8.41666667,20.3333333 L4.75,20.3333333 C3.23121694,20.3333333 2,19.1021164 2,17.5833333 L2,13.9166667 L3.83333333,13.9166667 Z M18.5,10.25 L18.5,12.0833333 L3.83333333,12.0833333 L3.83333333,10.25 L18.5,10.25 Z M17.5833333,2 C19.1021164,2 20.3333333,3.23121694 20.3333333,4.75 L20.3333333,8.41666667 L18.5,8.41666667 L18.5,4.75 C18.5,4.27990048 18.1461298,3.89245177 17.690236,3.83950042 L17.5833333,3.83333333 L13.9166667,3.83333333 L13.9166667,2 L17.5833333,2 Z M8.41666667,2 L8.41666667,3.83333333 L4.75,3.83333333 C4.27990048,3.83333333 3.89245177,4.18720351 3.83950042,4.6430973 L3.83333333,4.75 L3.83333333,8.41666667 L2,8.41666667 L2,4.75 C2,3.23121694 3.23121694,2 4.75,2 L8.41666667,2 Z" id="形状"></path>
                    </g>
                </g>
            </g>
        </g>
    </g>
</svg>