<?xml version="1.0" encoding="UTF-8"?>
<svg width="20px" height="20px" viewBox="0 0 20 20" version="1.1" xmlns="http://www.w3.org/2000/svg" xmlns:xlink="http://www.w3.org/1999/xlink">
    <title>占位/24x24</title>
    <defs>
        <filter id="filter-1">
            <feColorMatrix in="SourceGraphic" type="matrix" values="0 0 0 0 1.000000 0 0 0 0 1.000000 0 0 0 0 1.000000 0 0 0 1.000000 0"></feColorMatrix>
        </filter>
    </defs>
    <g id="会议工作台" stroke="none" stroke-width="1" fill="none" fill-rule="evenodd">
        <g id="会务组" transform="translate(-343.000000, -76.000000)">
            <g id="占位/24x24" transform="translate(0.000000, 64.000000)" filter="url(#filter-1)">
                <g transform="translate(343.000000, 12.000000)">
                    <path d="M18.3333333,12.5 L18.3333333,15.8333333 C18.3333333,17.2140452 17.2140452,18.3333333 15.8333333,18.3333333 L12.5,18.3333333 L12.5,16.6666667 L15.8333333,16.6666667 C16.2606965,16.6666667 16.6129226,16.3449665 16.6610602,15.9305176 L16.6666667,15.8333333 L16.6666667,12.5 L18.3333333,12.5 Z M3.33333333,12.5 L3.33333333,15.8333333 C3.33333333,16.2606965 3.65503349,16.6129226 4.0694824,16.6610602 L4.16666667,16.6666667 L7.5,16.6666667 L7.5,18.3333333 L4.16666667,18.3333333 C2.78595479,18.3333333 1.66666667,17.2140452 1.66666667,15.8333333 L1.66666667,12.5 L3.33333333,12.5 Z M16.6666667,9.16666667 L16.6666667,10.8333333 L3.33333333,10.8333333 L3.33333333,9.16666667 L16.6666667,9.16666667 Z M15.8333333,1.66666667 C17.2140452,1.66666667 18.3333333,2.78595479 18.3333333,4.16666667 L18.3333333,7.5 L16.6666667,7.5 L16.6666667,4.16666667 C16.6666667,3.73930347 16.3449665,3.38707737 15.9305176,3.33893978 L15.8333333,3.33333333 L12.5,3.33333333 L12.5,1.66666667 L15.8333333,1.66666667 Z M7.5,1.66666667 L7.5,3.33333333 L4.16666667,3.33333333 C3.73930347,3.33333333 3.38707737,3.65503349 3.33893978,4.0694824 L3.33333333,4.16666667 L3.33333333,7.5 L1.66666667,7.5 L1.66666667,4.16666667 C1.66666667,2.78595479 2.78595479,1.66666667 4.16666667,1.66666667 L7.5,1.66666667 Z" id="形状" fill="#191F24"></path>
                </g>
            </g>
        </g>
    </g>
</svg>