<?xml version="1.0" encoding="UTF-8"?>
<svg width="16px" height="16px" viewBox="0 0 16 16" version="1.1" xmlns="http://www.w3.org/2000/svg" xmlns:xlink="http://www.w3.org/1999/xlink">
    <title>Icon/Other/展开</title>
    <g id="会务组" stroke="none" stroke-width="1" fill="none" fill-rule="evenodd" opacity="0.480485462">
        <g id="搜索历史" transform="translate(-343.000000, -180.000000)" fill="#191F24">
            <g id="Table-Cell-Copy-2备份-23" transform="translate(0.000000, 160.000000)">
                <g id="占位/24x24" transform="translate(351.000000, 28.000000) rotate(-360.000000) translate(-351.000000, -28.000000) translate(343.000000, 20.000000)">
                    <path d="M13.1380712,2.86192881 C13.3936871,3.11754471 13.3983346,3.52909235 13.1520139,3.79037849 L13.1380712,3.80473785 L8.94266667,7.99966667 L13.1380712,12.1952621 C13.3984207,12.4556117 13.3984207,12.8777217 13.1380712,13.1380712 C12.8824553,13.3936871 12.4709077,13.3983346 12.2096215,13.1520139 L7.99966667,8.94266667 L3.80473785,13.1380712 C3.54438833,13.3984207 3.12227834,13.3984207 2.86192881,13.1380712 C2.60631291,12.8824553 2.60166535,12.4709077 2.84798613,12.2096215 L7.05666667,7.99966667 L2.86192881,3.80473785 C2.60157928,3.54438833 2.60157928,3.12227834 2.86192881,2.86192881 C3.11754471,2.60631291 3.52909235,2.60166535 3.79037849,2.84798613 L3.80473785,2.86192881 L7.99966667,7.05666667 L12.1952621,2.86192881 C12.4556117,2.60157928 12.8777217,2.60157928 13.1380712,2.86192881 Z" id="形状结合"></path>
                </g>
            </g>
        </g>
    </g>
</svg>