<?xml version="1.0" encoding="UTF-8"?>
<svg width="19px" height="19px" viewBox="0 0 19 19" version="1.1" xmlns="http://www.w3.org/2000/svg" xmlns:xlink="http://www.w3.org/1999/xlink">
    <!-- Generator: Sketch 63 (92445) - https://sketch.com -->
    <title>icon/system/search</title>
    <desc>Created with Sketch.</desc>
    <g id="页面-1" stroke="none" stroke-width="1" fill="none" fill-rule="evenodd">
        <g id="202108版-会议首页备份" transform="translate(-342.000000, -470.000000)" fill="#191F24">
            <g id="编组-40" transform="translate(92.000000, 389.000000)">
                <g id="Second-Bar/Search" transform="translate(0.000000, 64.000000)">
                    <g id="编组" transform="translate(248.000000, 16.000000)">
                        <g id="icon/system/search">
                            <path d="M9.88040986,1 C14.23264,1 17.7608197,4.49653853 17.7608197,8.8097374 C17.7608197,10.7124012 17.0742639,12.4561494 15.9332737,13.8109422 L20.3333333,18.17074 L19.1602194,19.3333333 L14.7422676,14.9564168 C13.4030788,15.9982198 11.7149518,16.6194748 9.88040986,16.6194748 C5.52817967,16.6194748 2,13.1229363 2,8.8097374 C2,4.49653853 5.52817967,1 9.88040986,1 Z M9.88040986,2.64415524 C6.44443866,2.64415524 3.65903365,5.4045804 3.65903365,8.8097374 C3.65903365,12.2148944 6.44443866,14.9753196 9.88040986,14.9753196 C13.3163811,14.9753196 16.1017861,12.2148944 16.1017861,8.8097374 C16.1017861,5.4045804 13.3163811,2.64415524 9.88040986,2.64415524 Z" id="形状结合"></path>
                        </g>
                    </g>
                </g>
            </g>
        </g>
    </g>
</svg>