<?xml version="1.0" encoding="UTF-8"?>
<svg width="16px" height="16px" viewBox="0 0 16 16" version="1.1" xmlns="http://www.w3.org/2000/svg" xmlns:xlink="http://www.w3.org/1999/xlink">
    <title>隐藏</title>
    <g id="会务组" stroke="none" stroke-width="1" fill="none" fill-rule="evenodd">
        <g id="报到" transform="translate(-208.000000, -310.000000)" fill="#191F24">
            <g id="编组-9备份-5" transform="translate(12.000000, 234.000000)">
                <g id="Icon/表单/隐藏" transform="translate(196.000000, 76.000000)">
                    <path d="M1.83891754,4.90456588 C3.80116863,7.19238547 5.2190603,7.99209747 7.9389817,8.00509307 L8,8 L8,8 L8.06220586,8.00390915 L8.28792309,8.00242461 C10.8673403,7.94932133 12.2492223,7.14104176 14.1610191,4.92068845 C14.4012589,4.64167486 14.8221969,4.61024252 15.1012105,4.85048234 C15.3802241,5.09072216 15.4116565,5.51166022 15.1714166,5.7906738 L14.8341881,6.1737255 C14.427893,6.62441083 14.0341886,7.02041467 13.6406756,7.36577837 L14.4710123,8.19520323 L14.5264792,8.25800119 C14.7298618,8.51950324 14.7114227,8.89765959 14.4711301,9.13801227 C14.2108131,9.39839433 13.7887031,9.39844709 13.5283211,9.1381301 L13.5283211,9.1381301 L12.5679572,8.17921065 C12.1934414,8.4182332 11.8094502,8.61671583 11.4060499,8.77789628 L11.9651854,10.4560379 L11.9854938,10.53122 C12.0537101,10.8579631 11.8676737,11.1911675 11.5432954,11.2991854 C11.1939649,11.4155125 10.816475,11.2266259 10.7001479,10.8772954 L10.7001479,10.8772954 L10.1260492,9.15309422 C9.67265283,9.24305857 9.18974918,9.29878542 8.66732714,9.32353775 L8.66666667,11.3333333 C8.66666667,11.7015232 8.36818983,12 8,12 C7.65810944,12 7.37632856,11.7426399 7.33781849,11.4110808 L7.33333333,11.3333333 L7.33336321,9.32279718 C6.8112968,9.29734319 6.32830892,9.24067397 5.87455966,9.14959521 L5.2991222,10.8774852 C5.18269035,11.2267807 4.8051437,11.415554 4.45584816,11.2991222 C4.13150229,11.1910069 3.94556589,10.8577467 4.01388023,10.5310242 L4.03421113,10.4558482 L4.59499784,8.7714685 C4.19319095,8.6099892 3.81048641,8.41154917 3.43729184,8.17303447 L2.47146345,9.13801225 C2.21114647,9.39839432 1.78903649,9.39844709 1.52865442,9.13813012 C1.28830173,8.89783752 1.2697681,8.5196858 1.47308533,8.25813291 L1.52853655,8.19532108 L2.366059,7.36007654 C1.86119815,6.91672194 1.35667653,6.39034111 0.826851499,5.77260972 C0.587147812,5.4931354 0.61938828,5.07225847 0.898862601,4.83255478 C1.17833692,4.5928511 1.59921385,4.62509156 1.83891754,4.90456588 Z" id="形状结合"></path>
                </g>
            </g>
        </g>
    </g>
</svg>