<?xml version="1.0" encoding="utf-8"?>
<!DOCTYPE svg PUBLIC "-//W3C//DTD SVG 1.1//EN" "http://www.w3.org/Graphics/SVG/1.1/DTD/svg11.dtd">
<svg version="1.1" id="图层_1" xmlns="http://www.w3.org/2000/svg" xmlns:xlink="http://www.w3.org/1999/xlink" x="0px" y="0px"
	 width="16px" height="16px" viewBox="0 0 16 16" enable-background="new 0 0 16 16" xml:space="preserve">
<title>不可见</title>
<g id="资源组">
	<g id="车辆分配" transform="translate(-219.000000, -165.000000)">
		<g id="编组-2" transform="translate(0.000000, 64.000000)">
			<g id="不可见" transform="translate(219.000000, 101.000000)">
				<path id="路径" fill="#FFFFFF" d="M8.061,12.628L8.061,12.628c-0.306,0-0.555-0.248-0.556-0.554V9.598L7.327,9.586l0,0
					c-0.612-0.042-1.219-0.146-1.81-0.311L5.361,9.23l-1.298,2.798l0,0c-0.063,0.134-0.176,0.237-0.315,0.286l0,0
					c-0.059,0.021-0.122,0.033-0.185,0.033l0,0c-0.082,0-0.163-0.019-0.237-0.054l0,0c-0.278-0.132-0.4-0.461-0.274-0.741
					l1.261-2.715L4.138,8.756l0,0C3.771,8.582,3.419,8.38,3.084,8.15l-0.133-0.09l-2.003,2.016l0,0
					c-0.103,0.104-0.243,0.162-0.389,0.162l0,0c-0.149,0-0.292-0.061-0.397-0.166l0,0c-0.214-0.22-0.216-0.569-0.003-0.791
					l1.928-1.938L1.95,7.207C1.82,7.075,1.694,6.941,1.583,6.81l0,0C1.06,6.204,0.652,5.509,0.377,4.758l0,0
					C0.268,4.471,0.412,4.149,0.699,4.04C0.763,4.015,0.832,4.003,0.9,4.003l0,0c0.032,0,0.064,0.003,0.096,0.008l0,0
					c0.196,0.035,0.359,0.172,0.426,0.36l0,0c0.231,0.625,0.573,1.202,1.009,1.706l0,0c2.835,3.049,7.605,3.224,10.655,0.389
					c0.134-0.125,0.264-0.255,0.389-0.389l0,0c0.437-0.502,0.776-1.081,1.005-1.706l0,0c0.081-0.222,0.291-0.37,0.527-0.371l0,0
					c0.064,0,0.128,0.012,0.188,0.035l0,0c0.29,0.107,0.439,0.429,0.333,0.72l0,0c-0.275,0.75-0.684,1.445-1.205,2.052
					c-0.104,0.121-0.211,0.24-0.322,0.354l-0.133,0.137l1.969,1.982l0,0c0.212,0.221,0.211,0.569-0.004,0.788l0,0
					c-0.213,0.219-0.563,0.223-0.781,0.01c-0.002-0.002-0.004-0.004-0.005-0.005l-2.04-2.053l-0.133,0.091l0,0
					c-0.354,0.245-0.728,0.461-1.117,0.646l-0.174,0.083l1.262,2.71l0,0c0.124,0.281,0.002,0.609-0.275,0.742l0,0
					c-0.074,0.035-0.154,0.055-0.236,0.055l0,0c-0.216,0.001-0.412-0.124-0.502-0.32l-1.297-2.794l-0.156,0.044l0,0
					C9.861,9.422,9.331,9.52,8.795,9.568L8.621,9.584v2.488l0,0C8.617,12.379,8.368,12.627,8.061,12.628L8.061,12.628z"/>
			</g>
		</g>
	</g>
</g>
</svg>
