<?xml version="1.0" encoding="UTF-8"?>
<svg width="264px" height="221px" viewBox="0 0 264 221" version="1.1" xmlns="http://www.w3.org/2000/svg" xmlns:xlink="http://www.w3.org/1999/xlink">
    <!-- Generator: Sketch 55 (78076) - https://sketchapp.com -->
    <title>申请已提交</title>
    <desc>Created with Sketch.</desc>
    <g id="页面1" stroke="none" stroke-width="1" fill="none" fill-rule="evenodd">
        <g id="审核完成" transform="translate(-243.000000, -241.000000)" fill-rule="nonzero">
            <g id="申请已提交" transform="translate(243.000000, 241.000000)">
                <path d="M99.2182824,48.9043679 C99.2182824,50.1304369 99.1073267,51.2450466 98.8854155,52.1367251 C98.3306381,55.9264041 96.9991705,57.3753782 96.9991705,58.3785262 C96.9991705,59.3816743 98.1087277,59.6045952 99.1073285,59.6045952 C105.320836,59.6045952 118.857441,53.0284113 138.607449,53.0284113 C144.377151,53.0284113 161.242399,53.8086384 161.242399,59.4931517 C161.242399,70.6392495 114.862856,85.6865481 114.862856,85.6865481 C114.862856,85.6865478 114.862856,85.7980091 114.973811,85.7980091 L118.080578,85.7980091 C126.180348,85.3521647 146.374265,77.8842945 182.767802,77.8842945 C206.512317,77.8842945 241.463421,82.2312693 241.463421,90.4793665 C241.463421,95.2721935 230.034981,105.303674 217.940834,114.889302 C207.510996,123.137399 193.197718,130.493818 193.197718,138.630471 C193.197718,144.092064 199.411225,144.983742 205.069963,144.983742 C216.276474,144.983742 233.030784,141.08262 244.015392,141.08262 C248.786493,141.08262 255,141.862847 255,146.544212 C255,154.123544 202.295985,221 123.739393,221 C114.862951,221 103.212609,219.662469 103.212609,210.96852 C103.212609,202.38604 114.308181,189.233646 123.961322,181.765679 C131.617261,175.858261 137.608865,174.074878 137.608865,172.96026 C137.608865,172.291495 135.389754,172.180033 134.613063,172.180033 C128.177628,172.180033 112.31098,175.41239 97.6648357,184.440722 C86.4583249,191.351289 83.3515583,194.13782 73.2545866,199.26503 C66.9301152,202.385943 60.3837412,206.732918 51.0634676,206.732918 C38.5254892,206.732918 32.2010178,199.153586 32.2010178,187.896019 C32.2010178,175.078008 44.4061293,171.511268 44.4061293,159.139109 C44.4061293,147.324246 17,155.572369 17,141.75121 C17,135.732322 22.4368349,128.487373 23.7683026,126.70399 C46.7361197,96.0523318 69.2600276,97.8355319 74.8079829,94.9376358 C81.1324542,91.7052787 74.2532055,89.8104261 69.7040148,89.8104261 C65.4877093,89.8104261 60.4947055,91.4823395 56.0564713,93.2657225 C54.1702264,94.0459496 51.6182371,96.4980796 47.9567011,96.4980796 C44.9608988,96.4980796 44.0732624,93.4886355 44.0732624,90.4791915 C43.9623069,71.8652314 82.7968668,44 95.0019003,44 C98.1086669,44 99.2182059,45.7833751 99.2182059,48.9042705 L99.2182824,48.9043679 Z" id="路径" fill="#EEF6FD"></path>
                <path d="M188.968178,55 L76.0318218,55 C73.2363565,55 71,57.215384 71,59.8738381 L71,194.126162 C71,196.784624 73.2363644,199 76.0318218,199 L188.968178,199 C191.651817,199 194,196.784616 194,194.126162 L194,59.8738381 C194,57.2153762 191.763636,55 188.968178,55" id="路径" fill="#ACD5FD"></path>
                <path d="M176.967427,187 L84.0325733,187 C81.3485342,187 79,184.777777 79,182.111116 L79,71.8888845 C79,69.2222155 81.2366984,67 84.0325733,67 L176.967427,67 C179.651466,67 182,69.2222233 182,71.8888845 L182,182.111116 C182,184.777785 179.763302,187 176.967427,187 Z" id="路径" fill="#FFFFFF"></path>
                <path d="M17.2950758,173.901641 L13.991793,173.901641 L13.991793,170.598359 C13.991793,169.745902 13.2458915,169 12.3934344,169 C11.5409773,169 10.7950758,169.745902 10.7950758,170.598359 L10.7950758,173.901641 L7.59835861,173.901641 C6.74590152,173.901641 6,174.647543 6,175.5 C6,176.352457 6.74590152,177.098359 7.59835861,177.098359 L10.9016414,177.098359 L10.9016414,180.401641 C10.9016414,181.254098 11.6475429,182 12.5,182 C13.3524571,182 14.0983586,181.254098 14.0983586,180.401641 L14.0983586,177.098359 L17.4016414,177.098359 C18.2540985,177.098359 19,176.352457 19,175.5 C19,174.647543 18.2540985,173.901641 17.2950833,173.901641 L17.2950758,173.901641 Z" id="路径" fill="#00C9B8"></path>
                <path d="M169.643933,60.9999748 L94.3560674,60.9999748 C92.4542967,60.9999748 91,59.5999748 91,57.8769081 L91,50.1230666 C91,48.3999899 92.4542967,47 94.3560674,47 L169.643933,47 C171.545703,47 173,48.4 173,50.1230666 L173,57.9846088 C173,59.5999924 171.545703,61 169.643933,61 L169.643933,60.9999748 Z" id="路径" fill="#8CC7FE"></path>
                <path d="M143.574802,51.9999735 L121.425198,51.9999735 C119.598425,51.9999735 118,50.5282745 118,48.7169634 L118,37.28301 C118,35.4716884 119.484253,34 121.425198,34 L143.574802,34 C145.401575,34 147,35.471699 147,37.28301 L147,48.8301798 C147,50.528293 145.401575,52 143.574802,52 L143.574802,51.9999735 Z" id="路径" fill="#8CC7FE"></path>
                <path d="M99.380277,153.608335 L156.619723,153.608335 C158.535212,153.608335 160,155.043752 160,156.920834 L160,158.687501 C160,160.564583 158.535212,162 156.619723,162 L99.380277,162 C97.4647876,162 96,160.564583 96,158.687501 L96,156.920834 C96,155.154167 97.5774617,153.608335 99.380277,153.608335 L99.380277,153.608335 Z M99.380277,131.304168 L145.239281,131.304168 C147.15477,131.304168 148.619558,132.739585 148.619558,134.616667 L148.619558,136.383333 C148.619558,138.260415 147.15477,139.695832 145.239281,139.695832 L99.380277,139.695832 C97.4647876,139.695832 96,138.260415 96,136.383333 L96,134.616667 C96,132.739585 97.5774617,131.304168 99.380277,131.304168 Z M99.380277,109 L145.239281,109 C147.15477,109 148.619558,110.435417 148.619558,112.312499 L148.619558,114.079166 C148.619558,115.956248 147.15477,117.391665 145.239281,117.391665 L99.380277,117.391665 C97.4647876,117.391665 96,115.956248 96,114.079166 L96,112.312499 C96,110.435417 97.5774617,109 99.380277,109 L99.380277,109 Z" id="形状" fill="#DCEDFB"></path>
                <path d="M99.380277,87 L156.619723,87 C158.535212,87 160,88.3684217 160,90.1578944 L160,91.8421056 C160,93.6315783 158.535212,95 156.619723,95 L99.380277,95 C97.4647876,95 96,93.6315783 96,91.8421056 L96,90.1578944 C96,88.3684217 97.5774617,87 99.380277,87 L99.380277,87 Z" id="路径" fill="#DCEDFB"></path>
                <path d="M184.158683,0.168638817 L181.997005,3.99112895 C181.314371,5.22781321 180.176645,6.35207331 178.925149,7.02662884 L175.170659,9.16272223 C174.943114,9.27514824 174.943114,9.72485097 175.170659,9.83727777 L178.925149,11.9733712 C180.176645,12.6479267 181.314371,13.7721868 181.997005,15.0088711 L184.158683,18.8313612 C184.272455,19.0562129 184.727544,19.0562129 184.841317,18.8313612 L187.002995,15.0088711 C187.685629,13.7721868 188.823355,12.6479267 190.074851,11.9733712 L193.829341,9.83727777 C194.056886,9.72485176 194.056886,9.27514903 193.829341,9.16272223 L190.074851,7.02662884 C188.823355,6.35207331 187.685629,5.22781321 187.002995,3.99112895 L184.841317,0.168638817 C184.727545,-0.056212939 184.386227,-0.056212939 184.158683,0.168638817 Z" id="路径" fill="#8CC7FE"></path>
                <path d="M187,91 C206.833893,91 223,107.044933 223,127 C223,146.955067 206.834021,163 187,163 C167.166107,163 151,146.955067 151,127 C151,107.044933 167.030152,91 187,91 L187,91 Z" id="路径" fill="#FFFFFF"></path>
                <path d="M187,97 C203.528244,97 217,110.370778 217,127 C217,143.629222 203.52835,157 187,157 C170.471756,157 157,143.629222 157,127 C157,110.370778 170.35846,97 187,97 L187,97 Z" id="路径" fill="#66DFD4"></path>
                <g id="对好20x20" transform="translate(173.000000, 117.000000)" fill="#FFFFFF">
                    <path d="M29.25,0.75 C28.25,-0.25 26.75,-0.25 25.75,0.75 L11.5,14.25 L4.25,7.5 C3.25,6.5 1.75,6.5 0.75,7.5 C-0.25,8.5 -0.25,10 0.75,10.75 L9.75,19.25 C10.25,19.75 10.75,20 11.5,20 C12.25,20 12.75,19.75 13.25,19.25 L29.25,4 C30.25,3.25 30.25,1.75 29.25,0.75 L29.25,0.75 Z" id="路径"></path>
                </g>
                <path d="M260.112731,98.1819189 C261.780869,97.7399327 263.449006,98.7343997 263.893851,100.28135 C264.338688,101.938795 263.337806,103.59624 261.780876,104.038234 L239.650248,109.894531 C237.982111,110.336517 236.313974,109.34205 235.869129,107.7951 C235.424292,106.137655 236.425174,104.48021 237.982104,104.038216 L260.112731,98.1819189 Z M0.105671451,80.0605285 C0.550508887,78.4030835 2.21864601,77.5191137 3.88679095,77.9610973 L26.0174188,83.8173944 C27.6855559,84.2593806 28.5752282,85.9168257 28.1303934,87.5742785 C27.6855559,89.2317235 26.0174188,90.1156933 24.3492739,89.6737097 L2.32986384,83.7069076 C0.661726717,83.2649214 -0.339155558,81.6074763 0.105681877,80.0605285 L0.105671451,80.0605285 Z M83.5125277,14.4257053 C84.9582474,13.5417355 86.8488019,14.0942163 87.7384663,15.5306695 L99.1930166,35.1990259 C100.082689,36.6354791 99.526644,38.5139159 98.0809243,39.2873989 C96.6352046,40.1713687 94.7446501,39.6188879 93.8549856,38.1824347 L82.4004354,18.5140784 C81.5107631,17.0776251 82.0668079,15.1991883 83.5125277,14.4257053 Z" id="形状" fill="#EEF6FD"></path>
                <path d="M243.611569,152 L253.388431,152 C254.247934,152 255,152.933334 255,154 C255,155.066666 254.247934,156 253.388431,156 L243.611569,156 C242.752066,156 242,155.066666 242,154 C242,152.933334 242.644628,152 243.611569,152 Z" id="路径" fill="#8CC7FE"></path>
                <path d="M246,158.388431 L246,148.611569 C246,147.752066 246.933334,147 248,147 C249.066666,147 250,147.752066 250,148.611569 L250,158.388431 C250,159.247934 249.066666,160 248,160 C246.933334,160 246,159.247934 246,158.388431 Z" id="路径" fill="#8CC7FE"></path>
                <path d="M219.5,51.131144 C221.883334,51.131144 223.833342,53.0491743 223.833342,55.4999825 C223.833342,57.9507982 221.883342,59.8688211 219.5,59.8688211 C217.116666,59.8688213 215.166658,57.9507907 215.166658,55.4999825 C215.058325,53.0491668 217.008324,51.131144 219.5,51.131144 L219.5,51.131144 Z M219.5,49 C215.925,49 213,51.8770455 213,55.5 C213,59.1229545 215.925,62 219.5,62 C223.075,62 226,59.1229545 226,55.5 C226,51.8770455 223.075,49 219.5,49 Z" id="形状" fill="#66DFD4"></path>
                <path d="M135,43.5 C135,45.9146396 133.024386,48 130.5,48 C127.975606,48.0000003 126,46.0243865 126,43.5 C126,41.0853604 127.975614,39 130.5,39 C133.024394,39 135,40.9756135 135,43.5 Z" id="路径" fill="#FFFFFF"></path>
                <path d="M39.6470591,37.1764704 L37.6470619,40.7058789 C36.9411802,41.8823493 36.0000055,42.9411719 34.7058789,43.6470619 L31.1764704,45.6470591 C30.9411765,45.7647062 30.9411765,46.1176479 31.1764704,46.3529409 L34.7058789,48.3529381 C35.8823493,49.0588198 36.9411719,49.9999945 37.6470619,51.2941211 L39.6470591,54.8235296 C39.7647062,55.0588235 40.1176479,55.0588235 40.3529409,54.8235296 L42.3529381,51.2941211 C43.0588198,50.1176507 43.9999945,49.0588281 45.2941211,48.3529381 L48.8235296,46.3529409 C49.0588235,46.2352938 49.0588235,45.8823521 48.8235296,45.6470591 L45.2941211,43.6470619 C44.1176507,42.9411802 43.0588281,42.0000055 42.3529381,40.7058789 L40.3529409,37.1764704 C40.117647,36.9411765 39.764707,36.9411765 39.6470591,37.1764704 L39.6470591,37.1764704 Z" id="路径" fill="#66DFD4"></path>
            </g>
        </g>
    </g>
</svg>