<?xml version="1.0" encoding="UTF-8"?>
<svg width="24px" height="24px" viewBox="0 0 24 24" version="1.1" xmlns="http://www.w3.org/2000/svg" xmlns:xlink="http://www.w3.org/1999/xlink">
    <title>报到</title>
    <g id="会务组" stroke="none" stroke-width="1" fill="none" fill-rule="evenodd">
        <g id="会务工作台" transform="translate(-132.000000, -1021.000000)">
            <g id="Box/应用备份-11" transform="translate(101.000000, 1009.000000)">
                <g id="占位/24x24备份" transform="translate(31.000000, 12.000000)">
                    <path d="M8,1 L8,3 L16,3 L16,1 L18,1 L18,3 L20,3 C21.6568542,3 23,4.34314575 23,6 L23,19 C23,20.6568542 21.6568542,22 20,22 L4,22 C2.34314575,22 1,20.6568542 1,19 L1,6 C1,4.34314575 2.34314575,3 4,3 L6,3 L6,1 L8,1 Z M21,9 L3,9 L3,19 C3,19.5128358 3.38604019,19.9355072 3.88337887,19.9932723 L4,20 L20,20 C20.5128358,20 20.9355072,19.6139598 20.9932723,19.1166211 L21,19 L21,9 Z M20,5 L4,5 C3.48716416,5 3.06449284,5.38604019 3.00672773,5.88337887 L3,6 L3,7 L21,7 L21,6 C21,5.48716416 20.6139598,5.06449284 20.1166211,5.00672773 L20,5 Z" id="形状" fill="#191F24"></path>
                    <path d="M15.3535534,17.7497475 L9.35355339,17.7497475 L9.35355339,15.7497475 L13.3525534,15.7497475 L13.3535534,7.74974747 L15.3535534,7.74974747 L15.3535534,17.7497475 Z" id="形状结合" fill="#1E89FF" transform="translate(12.353553, 12.749747) rotate(-315.000000) translate(-12.353553, -12.749747) "></path>
                </g>
            </g>
        </g>
    </g>
</svg>