<?xml version="1.0" encoding="UTF-8"?>
<svg width="24px" height="24px" viewBox="0 0 24 24" version="1.1" xmlns="http://www.w3.org/2000/svg" xmlns:xlink="http://www.w3.org/1999/xlink">
    <title>Icon/会议/主题备份 89</title>
    <g id="会务组" stroke="none" stroke-width="1" fill="none" fill-rule="evenodd">
        <g id="会务工作台" transform="translate(-133.000000, -598.000000)">
            <g id="编组-5备份-2" transform="translate(0.000000, 406.000000)">
                <g id="编组-4" transform="translate(0.000000, 130.000000)">
                    <g id="Box/应用备份-3" transform="translate(102.000000, 50.000000)">
                        <g id="占位/24x24备份-3" transform="translate(31.000000, 12.000000)">
                            <path d="M1.33298572,10.2567059 L1.2536092,10.3359169 C0.688865857,10.9620225 1.12369141,12 2.00182816,12 L3.00164534,12 L3.00164534,21 C3.00164534,21.5522847 3.44927874,22 4.00146253,22 L19.9985375,22 L20.1151373,21.9932723 C20.612385,21.9355072 20.9983547,21.5128358 20.9983547,21 L20.9983547,12 L21.9981718,12 C22.9144884,12 23.348107,10.8698014 22.6670143,10.2567059 L12.6688424,1.25670585 C12.288607,0.914431382 11.711393,0.914431382 11.3311576,1.25670585 L1.33298572,10.2567059 Z M12,3.345 L18.9987203,9.6497757 L18.9987203,20 L5.00127971,20 L4.99455321,9.6497757 L12,3.345 Z" id="形状结合" fill="#191F24"></path>
                            <path d="M8.00073126,15.1666667 L8.00073126,20 L8.00073126,20 L15.9992687,20 L15.9992687,15.1666667 C15.9992687,14.5223345 15.4769343,14 14.8326021,14 L9.16739793,14 C8.52306572,14 8.00073126,14.5223345 8.00073126,15.1666667 Z M10.0003656,16 L13.9996344,16 L13.9996344,20 L10.0003656,20 L10.0003656,16 Z" id="矩形" fill="#1E89FF" fill-rule="nonzero"></path>
                        </g>
                    </g>
                </g>
            </g>
        </g>
    </g>
</svg>