<?xml version="1.0" encoding="UTF-8"?>
<svg width="16px" height="16px" viewBox="0 0 16 16" version="1.1" xmlns="http://www.w3.org/2000/svg" xmlns:xlink="http://www.w3.org/1999/xlink">
    <title>Icon/会议/时间</title>
    <g id="资源组" stroke="none" stroke-width="1" fill="none" fill-rule="evenodd">
        <g id="住宿分配" transform="translate(-26.000000, -309.000000)" fill="#F8B700">
            <g id="编组-2备份" transform="translate(10.000000, 214.000000)">
                <g id="占位/24x24备份-10" transform="translate(16.000000, 95.000000)">
                    <path d="M8,0.666666667 C12.0500882,0.666666667 15.3333333,3.94991183 15.3333333,8 C15.3333333,12.0500882 12.0500882,15.3333333 8,15.3333333 C3.94991183,15.3333333 0.666666667,12.0500882 0.666666667,8 C0.666666667,3.94991183 3.94991183,0.666666667 8,0.666666667 Z M8,2 C4.6862915,2 2,4.6862915 2,8 C2,11.3137085 4.6862915,14 8,14 C11.3137085,14 14,11.3137085 14,8 C14,4.6862915 11.3137085,2 8,2 Z M8,3.33333333 C8.36818983,3.33333333 8.66666667,3.63181017 8.66666667,4 L8.66566667,7.99966667 L10.6666667,8 C11.0348565,8 11.3333333,8.29847683 11.3333333,8.66666667 C11.3333333,9.0348565 11.0348565,9.33333333 10.6666667,9.33333333 L8,9.33333333 L8,9.33333333 C7.63181017,9.33333333 7.33333333,9.0348565 7.33333333,8.66666667 L7.33333333,4 C7.33333333,3.63181017 7.63181017,3.33333333 8,3.33333333 Z" id="形状结合"></path>
                </g>
            </g>
        </g>
    </g>
</svg>