<?xml version="1.0" encoding="UTF-8"?>
<svg width="18px" height="24px" viewBox="0 0 18 24" version="1.1" xmlns="http://www.w3.org/2000/svg" xmlns:xlink="http://www.w3.org/1999/xlink">
    <title>Unknow备份</title>
    <g id="icon篇" stroke="none" stroke-width="1" fill="none" fill-rule="evenodd">
        <g id="编组" transform="translate(-3.000000, 0.000000)">
            <g id="编组-5" transform="translate(3.000000, 0.000000)">
                <path d="M18,6 L18,21.4361148 L17.9996186,21.532863 C17.9930123,22.3515843 17.9007186,22.6629911 17.7328673,22.9768457 C17.5585602,23.3027716 17.3027716,23.5585602 16.9768457,23.7328673 L16.9406136,23.7518989 C16.6322397,23.9108072 16.307361,23.9966613 15.4850626,24 L2.5638852,24 C1.67236646,24 1.34908022,23.9071744 1.0231543,23.7328673 C0.697228371,23.5585602 0.441439796,23.3027716 0.267132704,22.9768457 L0.247741744,22.9399159 C0.0890633758,22.6317494 0.00333629384,22.3067409 0,21.4850626 L0,2.5638852 C0,1.67236646 0.0928256111,1.34908022 0.267132704,1.0231543 C0.441439796,0.697228371 0.697228371,0.441439796 1.0231543,0.267132704 L1.06008414,0.247741744 C1.36825057,0.0890633758 1.69325912,0.00333629384 2.51493736,0 L12,0 L18,6 Z" id="路径" fill="#EDEDEE"></path>
                <path d="M9.50355495,16.8132747 L9.50355495,16.675044 C9.50355495,16.4380769 9.55292308,16.2307308 9.65165934,16.0332582 C9.74052198,15.855533 9.86887912,15.6876813 10.0466044,15.5395769 C10.5205385,15.1248846 10.8068736,14.8582967 10.8957363,14.7595604 C11.1327033,14.4436044 11.2610604,14.0387857 11.2610604,13.5451044 C11.2610604,12.9428132 11.0635879,12.4688791 10.6686429,12.1233022 C10.2736978,11.7678516 9.7503956,11.6 9.10860989,11.6 C8.37796154,11.6 7.80529121,11.8073462 7.38072527,12.2220385 C6.94628571,12.6367308 6.73893956,13.2094011 6.73893956,13.9400495 L7.86453297,13.9400495 C7.86453297,13.5253571 7.94352198,13.1995275 8.11137363,12.9724341 C8.29897253,12.6959725 8.60505495,12.5676154 9.03949451,12.5676154 C9.3751978,12.5676154 9.64178571,12.656478 9.82938462,12.8440769 C10.0071099,13.0316758 10.1058462,13.2883901 10.1058462,13.6142198 C10.1058462,13.8610604 10.0169835,14.0980275 9.83925824,14.3152473 L9.72077473,14.453478 C9.07898901,15.0261484 8.69391758,15.4408407 8.56556044,15.7074286 C8.42732967,15.9740165 8.36808791,16.2998462 8.36808791,16.675044 L8.36808791,16.8132747 L9.50355495,16.8132747 Z M8.93088462,18.788 C9.1481044,18.788 9.32582967,18.7188846 9.47393407,18.5806538 C9.62203846,18.4424231 9.70102747,18.2548242 9.70102747,18.0376044 C9.70102747,17.8203846 9.62203846,17.6426593 9.48380769,17.5044286 C9.3357033,17.3661978 9.1481044,17.2970824 8.93088462,17.2970824 C8.71366484,17.2970824 8.53593956,17.3661978 8.38783516,17.5044286 C8.23973077,17.6426593 8.17061538,17.8203846 8.17061538,18.0376044 C8.17061538,18.2548242 8.23973077,18.4325495 8.38783516,18.5707802 C8.53593956,18.709011 8.71366484,18.788 8.93088462,18.788 Z" id="？" fill="#919191" fill-rule="nonzero"></path>
                <path d="M12,0 L18,6 L13.6665254,6 C13.0870382,6 12.8769021,5.93966335 12.6650503,5.82636374 C12.4531984,5.71306413 12.2869359,5.54680156 12.1736363,5.33494971 L12.1570395,5.30313841 C12.0544538,5.10116087 12,4.88398744 12,4.33347462 L12,0 Z" id="矩形" fill="#CCCDCF"></path>
            </g>
        </g>
    </g>
</svg>