<?xml version="1.0" encoding="UTF-8"?>
<svg width="13px" height="13px" viewBox="0 0 13 13" version="1.1" xmlns="http://www.w3.org/2000/svg" xmlns:xlink="http://www.w3.org/1999/xlink">
    <title>未开始</title>
    <g id="会务组" stroke="none" stroke-width="1" fill="none" fill-rule="evenodd">
        <g id="会务大厅" transform="translate(-23.000000, -578.000000)" fill="#FFFFFF">
            <g id="编组-3备份-10" transform="translate(16.000000, 575.000000)">
                <g id="占位/24x24备份-10" transform="translate(7.500000, 3.500000)">
                    <path d="M6,0.5 C9.03756612,0.5 11.5,2.96243388 11.5,6 C11.5,9.03756612 9.03756612,11.5 6,11.5 C2.96243388,11.5 0.5,9.03756612 0.5,6 C0.5,2.96243388 2.96243388,0.5 6,0.5 Z M6,1.5 C3.51471863,1.5 1.5,3.51471863 1.5,6 C1.5,8.48528137 3.51471863,10.5 6,10.5 C8.48528137,10.5 10.5,8.48528137 10.5,6 C10.5,3.51471863 8.48528137,1.5 6,1.5 Z M6.25,2.5 C6.38807119,2.5 6.5,2.61192881 6.5,2.75 L6.5,6 L8.25,6 C8.38807119,6 8.5,6.11192881 8.5,6.25 L8.5,6.75 C8.5,6.88807119 8.38807119,7 8.25,7 L5.75,7 C5.61192881,7 5.5,6.88807119 5.5,6.75 L5.5,2.75 C5.5,2.61192881 5.61192881,2.5 5.75,2.5 L6.25,2.5 Z" id="形状结合"></path>
                </g>
            </g>
        </g>
    </g>
</svg>