<?xml version="1.0" encoding="UTF-8"?>
<svg width="24px" height="24px" viewBox="0 0 24 24" version="1.1" xmlns="http://www.w3.org/2000/svg" xmlns:xlink="http://www.w3.org/1999/xlink">
    <title>Icon/会议/主题备份 87</title>
    <g id="会务组" stroke="none" stroke-width="1" fill="none" fill-rule="evenodd">
        <g id="会务工作台" transform="translate(-47.000000, -598.000000)">
            <g id="编组-5备份-2" transform="translate(0.000000, 406.000000)">
                <g id="编组-4" transform="translate(0.000000, 130.000000)">
                    <g id="Box/应用备份-5" transform="translate(16.000000, 50.000000)">
                        <g id="占位/24x24备份-3" transform="translate(31.000000, 12.000000)">
                            <path d="M18.0046494,2 C19.6620172,2 21.0055793,3.33729847 21.0055793,4.98693973 L21.0055793,19.917285 C21.0055793,21.5669262 19.6620172,22.9042247 18.0046494,22.9042247 L6.00092989,22.9042247 C4.34356207,22.9042247 3,21.5669262 3,19.917285 L3,4.98693973 C3,3.33763322 4.34301685,2.00054275 5.99992097,2.00000017 L5.999,3.991 L5.88621904,3.99776849 C5.39687336,4.05337555 5.01477238,4.4604334 5.00100422,4.9590711 L5.00061992,4.98693973 L5.00061992,19.9983481 C5.00061992,20.5389085 5.43342111,20.9788541 5.97293073,20.9936122 L18.0046494,20.9939947 C18.5477417,20.9939947 18.9897478,20.5632112 19.0045751,20.0262167 L19.0049594,4.98693973 C19.0049594,4.44637932 18.5721582,4.00643378 18.0326486,3.99167566 L18,3.991 L18,2 L18.0046494,2 Z M8,1 C8.55228475,1 9,1.44771525 9,2 L9,2 L9,4 C9,4.55228475 8.55228475,5 8,5 C7.44771525,5 7,4.55228475 7,4 L7,4 L7,2 C7,1.44771525 7.44771525,1 8,1 Z M16,1 C16.5522847,1 17,1.44771525 17,2 L17,2 L17,4 C17,4.55228475 16.5522847,5 16,5 C15.4477153,5 15,4.55228475 15,4 L15,4 L15,2 C15,1.44771525 15.4477153,1 16,1 Z M14,2 L14,3.991 L9.999,3.991 L9.999,2 L14,2 Z" id="形状结合" fill="#191F24"></path>
                            <path d="M13.007763,16 C13.5576434,16 14.0034096,16.4457662 14.0034096,16.9956466 C14.0034096,17.545527 13.5576434,17.9912932 13.007763,17.9912932 L7.99688642,17.9912932 C7.447006,17.9912932 7.00123985,17.545527 7.00123985,16.9956466 C7.00123985,16.4457662 7.447006,16 7.99688642,16 L13.007763,16 Z M16.0086929,12 C16.5585733,12 17.0043395,12.4457662 17.0043395,12.9956466 C17.0043395,13.545527 16.5585733,13.9912932 16.0086929,13.9912932 L7.99688642,13.9912932 C7.447006,13.9912932 7.00123985,13.545527 7.00123985,12.9956466 C7.00123985,12.4457662 7.447006,12 7.99688642,12 L16.0086929,12 Z M16.0086929,7.97387946 C16.5585733,7.97387946 17.0043395,8.41964562 17.0043395,8.96952604 C17.0043395,9.51940646 16.5585733,9.96517262 16.0086929,9.96517262 L7.99688642,9.96517262 C7.447006,9.96517262 7.00123985,9.51940646 7.00123985,8.96952604 C7.00123985,8.41964562 7.447006,7.97387946 7.99688642,7.97387946 L16.0086929,7.97387946 Z" id="形状结合" fill="#1E89FF"></path>
                        </g>
                    </g>
                </g>
            </g>
        </g>
    </g>
</svg>