<?xml version="1.0" encoding="UTF-8"?>
<svg width="48px" height="48px" viewBox="0 0 48 48" version="1.1" xmlns="http://www.w3.org/2000/svg" xmlns:xlink="http://www.w3.org/1999/xlink">
    <title>vip卡头像</title>
    <defs>
        <radialGradient cx="50%" cy="50%" fx="50%" fy="50%" r="99.9098558%" id="radialGradient-1">
            <stop stop-color="#414953" offset="0.0901442308%"></stop>
            <stop stop-color="#171A1E" offset="51.6786432%"></stop>
            <stop stop-color="#000000" offset="100%"></stop>
        </radialGradient>
        <path d="M10.2555408,1.39933216e-15 L37.7444592,4.14336123e-16 C41.3105342,-2.4074122e-16 42.6036791,0.371302445 43.9073828,1.06853082 C45.2110865,1.76575919 46.2342408,2.78891348 46.9314692,4.09261719 C47.6286976,5.39632089 48,6.68946584 48,10.2555408 L48,37.7444592 C48,41.3105342 47.6286976,42.6036791 46.9314692,43.9073828 C46.2342408,45.2110865 45.2110865,46.2342408 43.9073828,46.9314692 C42.6036791,47.6286976 41.3105342,48 37.7444592,48 L10.2555408,48 C6.68946584,48 5.39632089,47.6286976 4.09261719,46.9314692 C2.78891348,46.2342408 1.76575919,45.2110865 1.06853082,43.9073828 C0.371302445,42.6036791 -8.93299353e-16,41.3105342 1.5374442e-15,37.7444592 L2.76224082e-16,10.2555408 C-1.60494146e-16,6.68946584 0.371302445,5.39632089 1.06853082,4.09261719 C1.76575919,2.78891348 2.78891348,1.76575919 4.09261719,1.06853082 C5.39632089,0.371302445 6.68946584,-8.1305228e-16 10.2555408,1.39933216e-15 Z" id="path-2"></path>
        <radialGradient cx="40.2885129%" cy="50%" fx="40.2885129%" fy="50%" r="179.611596%" gradientTransform="translate(0.402885,0.500000),scale(0.311111,1.000000),rotate(90.000000),translate(-0.402885,-0.500000)" id="radialGradient-4">
            <stop stop-color="#FFFFFF" stop-opacity="0.100005463" offset="0%"></stop>
            <stop stop-color="#FFFFFF" stop-opacity="0" offset="100%"></stop>
        </radialGradient>
        <radialGradient cx="50%" cy="50%" fx="50%" fy="50%" r="219.819338%" gradientTransform="translate(0.500000,0.500000),scale(0.916667,1.000000),rotate(180.000000),translate(-0.500000,-0.500000)" id="radialGradient-5">
            <stop stop-color="#FFEBBC" offset="0%"></stop>
            <stop stop-color="#CAB78B" offset="100%"></stop>
        </radialGradient>
        <path d="M26.8782887,34.9999523 L24.8977952,34.9999523 L24.8977952,25.6008238 L26.8782887,25.6008238 L26.8782887,34.9999523 M35.4490698,30.4276784 C34.920919,31.2140396 34.0985107,31.6035258 32.9781232,31.6035258 L30.7071659,31.6035258 L30.7071659,34.9999762 L28.7266724,34.9999762 L28.7266724,25.6008477 L33.0573842,25.6008477 C33.9740606,25.6008477 34.6945412,25.8704681 35.2152246,26.405967 C35.7396056,26.941442 35.9999445,27.6754379 35.9999445,28.6116015 C36.003681,29.2706605 35.8188426,29.8773304 35.4491419,30.4277737 M13.844662,35 L13.844662,14.9846373 C13.844662,14.90224 13.7767343,14.8348588 13.6937755,14.8348588 L12.1508865,14.8348588 C12.0678797,14.8348588 12,14.7674298 12,14.6850802 L12,13.1497786 C12,13.0673813 12.0679277,13 12.1508865,13 L19.2354452,13 C19.3184519,13 19.3863317,13.067429 19.3863317,13.1497786 L19.3863317,22.1669765 L28.6399679,13.0449288 C28.6663803,13.0187104 28.7078957,13 28.7456173,13 L35.6452655,13 C35.781049,13 35.8451829,13.1610286 35.7509149,13.2546521 L13.84471,35 M33.6156931,27.525564 C33.3440782,27.3271146 32.8989342,27.2260308 32.2802851,27.2260308 L30.7071899,27.2260308 L30.7071899,29.9783666 L32.5443364,29.9783666 C33.1781126,29.9783666 33.6081536,29.7873536 33.8382771,29.4054469 C33.9627753,29.1957713 34.0231155,28.8999086 34.0231155,28.5179542 C34.0231155,28.0573446 33.887332,27.7278509 33.6157171,27.5256355" id="path-6"></path>
        <filter x="-4.2%" y="-4.5%" width="108.3%" height="118.2%" filterUnits="objectBoundingBox" id="filter-7">
            <feOffset dx="0" dy="2" in="SourceAlpha" result="shadowOffsetOuter1"></feOffset>
            <feColorMatrix values="0 0 0 0 0   0 0 0 0 0   0 0 0 0 0  0 0 0 0.602054196 0" type="matrix" in="shadowOffsetOuter1"></feColorMatrix>
        </filter>
        <radialGradient cx="50%" cy="50%" fx="50%" fy="50%" r="182.920383%" id="radialGradient-8">
            <stop stop-color="#FFF7E3" offset="0%"></stop>
            <stop stop-color="#B7A16F" offset="100%"></stop>
        </radialGradient>
        <path d="M10.2555408,1.39933216e-15 L37.7444592,4.14336123e-16 C41.3105342,-2.4074122e-16 42.6036791,0.371302445 43.9073828,1.06853082 C45.2110865,1.76575919 46.2342408,2.78891348 46.9314692,4.09261719 C47.6286976,5.39632089 48,6.68946584 48,10.2555408 L48,37.7444592 C48,41.3105342 47.6286976,42.6036791 46.9314692,43.9073828 C46.2342408,45.2110865 45.2110865,46.2342408 43.9073828,46.9314692 C42.6036791,47.6286976 41.3105342,48 37.7444592,48 L10.2555408,48 C6.68946584,48 5.39632089,47.6286976 4.09261719,46.9314692 C2.78891348,46.2342408 1.76575919,45.2110865 1.06853082,43.9073828 C0.371302445,42.6036791 -8.93299353e-16,41.3105342 1.5374442e-15,37.7444592 L2.76224082e-16,10.2555408 C-1.60494146e-16,6.68946584 0.371302445,5.39632089 1.06853082,4.09261719 C1.76575919,2.78891348 2.78891348,1.76575919 4.09261719,1.06853082 C5.39632089,0.371302445 6.68946584,-8.1305228e-16 10.2555408,1.39933216e-15 Z" id="path-9"></path>
    </defs>
    <g id="资源组" stroke="none" stroke-width="1" fill="none" fill-rule="evenodd">
        <g id="证件管理-人证" transform="translate(-26.000000, -146.000000)">
            <g id="编组-2备份-5" transform="translate(10.000000, 130.000000)">
                <g id="vip卡头像" transform="translate(16.000000, 16.000000)">
                    <mask id="mask-3" fill="white">
                        <use xlink:href="#path-2"></use>
                    </mask>
                    <use id="蒙版" fill="url(#radialGradient-1)" xlink:href="#path-2"></use>
                    <path d="M-13.6637575,-15 L-13.3201791,-14.7468281 L-60.6564215,61 L-61,60.7468281 L-13.6637575,-15 Z M-11.7945988,-15 L-11.4510203,-14.7468281 L-58.7872628,61 L-59.1308412,60.7468281 L-11.7945988,-15 Z M-9.71851418,-15 L-9.37493571,-14.7468281 L-56.7111782,61 L-57.0547566,60.7468281 L-9.71851418,-15 Z M-7.64242959,-15 L-7.29885112,-14.7468281 L-54.6350936,61 L-54.9786721,60.7468281 L-7.64242959,-15 Z M-5.566345,-15 L-5.22276652,-14.7468281 L-52.559009,61 L-52.9025875,60.7468281 L-5.566345,-15 Z M-3.49026041,-15 L-3.14668193,-14.7468281 L-50.4829244,61 L-50.8265029,60.7468281 L-3.49026041,-15 Z M-1.41417582,-15 L-1.07059734,-14.7468281 L-48.4068398,61 L-48.7504183,60.7468281 L-1.41417582,-15 Z M0.66190877,-15 L1.00548725,-14.7468281 L-46.3307552,61 L-46.6743337,60.7468281 L0.66190877,-15 Z M2.73799336,-15 L3.08157184,-14.7468281 L-44.2546706,61 L-44.5982491,60.7468281 L2.73799336,-15 Z M4.81407795,-15 L5.15765643,-14.7468281 L-42.178586,61 L-42.5221645,60.7468281 L4.81407795,-15 Z M6.89016254,-15 L7.23374102,-14.7468281 L-40.1025014,61 L-40.4460799,60.7468281 L6.89016254,-15 Z M8.96624713,-15 L9.30982561,-14.7468281 L-38.0264169,61 L-38.3699953,60.7468281 L8.96624713,-15 Z M11.0423317,-15 L11.3859102,-14.7468281 L-35.9503323,61 L-36.2939107,60.7468281 L11.0423317,-15 Z M13.1184163,-15 L13.4619948,-14.7468281 L-33.8742477,61 L-34.2178262,60.7468281 L13.1184163,-15 Z M15.1945009,-15 L15.5380794,-14.7468281 L-31.7981631,61 L-32.1417416,60.7468281 L15.1945009,-15 Z M17.2705855,-15 L17.614164,-14.7468281 L-29.7220785,61 L-30.065657,60.7468281 L17.2705855,-15 Z M19.3466701,-15 L19.6902486,-14.7468281 L-27.6459939,61 L-27.9895724,60.7468281 L19.3466701,-15 Z M21.4227547,-15 L21.7663332,-14.7468281 L-25.5699093,61 L-25.9134878,60.7468281 L21.4227547,-15 Z M23.4988393,-15 L23.8424177,-14.7468281 L-23.4938247,61 L-23.8374032,60.7468281 L23.4988393,-15 Z M25.5749239,-15 L25.9185023,-14.7468281 L-21.4177401,61 L-21.7613186,60.7468281 L25.5749239,-15 Z M27.6510084,-15 L27.9945869,-14.7468281 L-19.3416555,61 L-19.685234,60.7468281 L27.6510084,-15 Z M29.727093,-15 L30.0706715,-14.7468281 L-17.265571,61 L-17.6091494,60.7468281 L29.727093,-15 Z M31.8031776,-15 L32.1467561,-14.7468281 L-15.1894864,61 L-15.5330648,60.7468281 L31.8031776,-15 Z M33.8792622,-15 L34.2228407,-14.7468281 L-13.1134018,61 L-13.4569802,60.7468281 L33.8792622,-15 Z M35.9553468,-15 L36.2989253,-14.7468281 L-11.0373172,61 L-11.3808957,60.7468281 L35.9553468,-15 Z M38.0314314,-15 L38.3750099,-14.7468281 L-8.96123259,61 L-9.30481107,60.7468281 L38.0314314,-15 Z M40.107516,-15 L40.4510945,-14.7468281 L-6.885148,61 L-7.22872648,60.7468281 L40.107516,-15 Z M42.1836006,-15 L42.5271791,-14.7468281 L-4.80906341,61 L-5.15264189,60.7468281 L42.1836006,-15 Z M44.2596852,-15 L44.6032636,-14.7468281 L-2.73297882,61 L-3.0765573,60.7468281 L44.2596852,-15 Z M46.3357698,-15 L46.6793482,-14.7468281 L-0.656894229,61 L-1.00047271,60.7468281 L46.3357698,-15 Z M48.4118543,-15 L48.7554328,-14.7468281 L1.41919036,61 L1.07561188,60.7468281 L48.4118543,-15 Z M50.4879389,-15 L50.8315174,-14.7468281 L3.49527495,61 L3.15169648,60.7468281 L50.4879389,-15 Z M52.3557324,-15 L52.6993109,-14.7468281 L5.36306845,61 L5.01948998,60.7468281 L52.3557324,-15 Z M54.2248912,-15 L54.5684697,-14.7468281 L7.23222721,61 L6.88864874,60.7468281 L54.2248912,-15 Z M56.3009758,-15 L56.6445543,-14.7468281 L9.3083118,61 L8.96473333,60.7468281 L56.3009758,-15 Z M58.3770604,-15 L58.7206389,-14.7468281 L11.3843964,61 L11.0408179,60.7468281 L58.3770604,-15 Z M60.453145,-15 L60.7967235,-14.7468281 L13.460481,61 L13.1169025,60.7468281 L60.453145,-15 Z M62.5292296,-15 L62.872808,-14.7468281 L15.5365656,61 L15.1929871,60.7468281 L62.5292296,-15 Z M64.6053142,-15 L64.9488926,-14.7468281 L17.6126502,61 L17.2690717,60.7468281 L64.6053142,-15 Z M66.6813987,-15 L67.0249772,-14.7468281 L19.6887348,61 L19.3451563,60.7468281 L66.6813987,-15 Z M68.7574833,-15 L69.1010618,-14.7468281 L21.7648193,61 L21.4212409,60.7468281 L68.7574833,-15 Z M70.8335679,-15 L71.1771464,-14.7468281 L23.8409039,61 L23.4973255,60.7468281 L70.8335679,-15 Z M72.9096525,-15 L73.253231,-14.7468281 L25.9169885,61 L25.5734101,60.7468281 L72.9096525,-15 Z M74.9857371,-15 L75.3293156,-14.7468281 L27.9930731,61 L27.6494946,60.7468281 L74.9857371,-15 Z M77.0618217,-15 L77.4054002,-14.7468281 L30.0691577,61 L29.7255792,60.7468281 L77.0618217,-15 Z M79.1379063,-15 L79.4814848,-14.7468281 L32.1452423,61 L31.8016638,60.7468281 L79.1379063,-15 Z M81.2139909,-15 L81.5575694,-14.7468281 L34.2213269,61 L33.8777484,60.7468281 L81.2139909,-15 Z M83.2900755,-15 L83.6336539,-14.7468281 L36.2974115,61 L35.953833,60.7468281 L83.2900755,-15 Z M85.3661601,-15 L85.7097385,-14.7468281 L38.3734961,61 L38.0299176,60.7468281 L85.3661601,-15 Z M87.4422446,-15 L87.7858231,-14.7468281 L40.4495807,61 L40.1060022,60.7468281 L87.4422446,-15 Z M89.5183292,-15 L89.8619077,-14.7468281 L42.5256653,61 L42.1820868,60.7468281 L89.5183292,-15 Z M91.5944138,-15 L91.9379923,-14.7468281 L44.6017498,61 L44.2581714,60.7468281 L91.5944138,-15 Z M93.6704984,-15 L94.0140769,-14.7468281 L46.6778344,61 L46.334256,60.7468281 L93.6704984,-15 Z M95.746583,-15 L96.0901615,-14.7468281 L48.753919,61 L48.4103405,60.7468281 L95.746583,-15 Z M97.8226676,-15 L98.1662461,-14.7468281 L50.8300036,61 L50.4864251,60.7468281 L97.8226676,-15 Z M99.8987522,-15 L100.242331,-14.7468281 L52.9060882,61 L52.5625097,60.7468281 L99.8987522,-15 Z M101.974837,-15 L102.318415,-14.7468281 L54.9821728,61 L54.6385943,60.7468281 L101.974837,-15 Z M104.050921,-15 L104.3945,-14.7468281 L57.0582574,61 L56.7146789,60.7468281 L104.050921,-15 Z M106.127006,-15 L106.470584,-14.7468281 L59.134342,61 L58.7907635,60.7468281 L106.127006,-15 Z M108.203091,-15 L108.546669,-14.7468281 L61.2104266,61 L60.8668481,60.7468281 L108.203091,-15 Z M110.279175,-15 L110.622754,-14.7468281 L63.2865112,61 L62.9429327,60.7468281 L110.279175,-15 Z M112.35526,-15 L112.698838,-14.7468281 L65.3625957,61 L65.0190173,60.7468281 L112.35526,-15 Z M114.431344,-15 L114.774923,-14.7468281 L67.4386803,61 L67.0951019,60.7468281 L114.431344,-15 Z M116.507429,-15 L116.851007,-14.7468281 L69.5147649,61 L69.1711865,60.7468281 L116.507429,-15 Z M118.790439,-15 L119.134018,-14.7468281 L71.7977753,61 L71.4541969,60.7468281 L118.790439,-15 Z M120.659598,-15 L121.003177,-14.7468281 L73.6669341,61 L73.3233556,60.7468281 L120.659598,-15 Z M122.735683,-15 L123.079261,-14.7468281 L75.7430187,61 L75.3994402,60.7468281 L122.735683,-15 Z M124.811767,-15 L125.155346,-14.7468281 L77.8191033,61 L77.4755248,60.7468281 L124.811767,-15 Z M126.887852,-15 L127.23143,-14.7468281 L79.8951879,61 L79.5516094,60.7468281 L126.887852,-15 Z M128.963936,-15 L129.307515,-14.7468281 L81.9712725,61 L81.627694,60.7468281 L128.963936,-15 Z M131.040021,-15 L131.3836,-14.7468281 L84.0473571,61 L83.7037786,60.7468281 L131.040021,-15 Z M133.116106,-15 L133.459684,-14.7468281 L86.1234417,61 L85.7798632,60.7468281 L133.116106,-15 Z M135.19219,-15 L135.535769,-14.7468281 L88.1995262,61 L87.8559478,60.7468281 L135.19219,-15 Z M137.268275,-15 L137.611853,-14.7468281 L90.2756108,61 L89.9320324,60.7468281 L137.268275,-15 Z M139.344359,-15 L139.687938,-14.7468281 L92.3516954,61 L92.0081169,60.7468281 L139.344359,-15 Z M141.420444,-15 L141.764022,-14.7468281 L94.42778,61 L94.0842015,60.7468281 L141.420444,-15 Z M143.496529,-15 L143.840107,-14.7468281 L96.5038646,61 L96.1602861,60.7468281 L143.496529,-15 Z M145.572613,-15 L145.916192,-14.7468281 L98.5799492,61 L98.2363707,60.7468281 L145.572613,-15 Z M147.648698,-15 L147.992276,-14.7468281 L100.656034,61 L100.312455,60.7468281 L147.648698,-15 Z M149.724782,-15 L150.068361,-14.7468281 L102.732118,61 L102.38854,60.7468281 L149.724782,-15 Z M151.800867,-15 L152.144445,-14.7468281 L104.808203,61 L104.464624,60.7468281 L151.800867,-15 Z M153.876952,-15 L154.22053,-14.7468281 L106.884288,61 L106.540709,60.7468281 L153.876952,-15 Z M155.953036,-15 L156.296615,-14.7468281 L108.960372,61 L108.616794,60.7468281 L155.953036,-15 Z M158.029121,-15 L158.372699,-14.7468281 L111.036457,61 L110.692878,60.7468281 L158.029121,-15 Z M160.105205,-15 L160.448784,-14.7468281 L113.112541,61 L112.768963,60.7468281 L160.105205,-15 Z M162.18129,-15 L162.524868,-14.7468281 L115.188626,61 L114.845047,60.7468281 L162.18129,-15 Z M164.257374,-15 L164.600953,-14.7468281 L117.264711,61 L116.921132,60.7468281 L164.257374,-15 Z M166.333459,-15 L166.677038,-14.7468281 L119.340795,61 L118.997217,60.7468281 L166.333459,-15 Z M168.409544,-15 L168.753122,-14.7468281 L121.41688,61 L121.073301,60.7468281 L168.409544,-15 Z M170.485628,-15 L170.829207,-14.7468281 L123.492964,61 L123.149386,60.7468281 L170.485628,-15 Z M172.561713,-15 L172.905291,-14.7468281 L125.569049,61 L125.22547,60.7468281 L172.561713,-15 Z M174.637797,-15 L174.981376,-14.7468281 L127.645133,61 L127.301555,60.7468281 L174.637797,-15 Z M176.713882,-15 L177.057461,-14.7468281 L129.721218,61 L129.37764,60.7468281 L176.713882,-15 Z M178.789967,-15 L179.133545,-14.7468281 L131.797303,61 L131.453724,60.7468281 L178.789967,-15 Z M180.866051,-15 L181.20963,-14.7468281 L133.873387,61 L133.529809,60.7468281 L180.866051,-15 Z M182.942136,-15 L183.285714,-14.7468281 L135.949472,61 L135.605893,60.7468281 L182.942136,-15 Z" id="形状结合" fill="url(#radialGradient-4)" fill-rule="nonzero" mask="url(#mask-3)"></path>
                    <g id="形状" mask="url(#mask-3)">
                        <use fill="black" fill-opacity="1" filter="url(#filter-7)" xlink:href="#path-6"></use>
                        <use fill="url(#radialGradient-5)" fill-rule="evenodd" xlink:href="#path-6"></use>
                    </g>
                    <mask id="mask-10" fill="white">
                        <use xlink:href="#path-9"></use>
                    </mask>
                    <path stroke="url(#radialGradient-8)" d="M37.7444592,0.5 C41.1689355,0.5 42.4177606,0.838885677 43.6715834,1.50943741 C44.886864,2.15937661 45.8406234,3.11313597 46.4905626,4.32841662 C47.1611143,5.58223935 47.5,6.83106445 47.5,10.2555408 L47.5,10.2555408 L47.5,37.7444592 C47.5,41.1689355 47.1611143,42.4177606 46.4905626,43.6715834 C45.8406234,44.886864 44.886864,45.8406234 43.6715834,46.4905626 C42.4177606,47.1611143 41.1689355,47.5 37.7444592,47.5 L37.7444592,47.5 L10.2555408,47.5 C6.83106445,47.5 5.58223935,47.1611143 4.32841662,46.4905626 C3.11313597,45.8406234 2.15937661,44.886864 1.50943741,43.6715834 C0.838885677,42.4177606 0.5,41.1689355 0.5,37.7444592 L0.5,37.7444592 L0.5,10.2555408 C0.5,6.83106445 0.838885677,5.58223935 1.50943741,4.32841662 C2.15937661,3.11313597 3.11313597,2.15937661 4.32841662,1.50943741 C5.58223935,0.838885677 6.83106445,0.5 10.2555408,0.5 L10.2555408,0.5 Z"></path>
                </g>
            </g>
        </g>
    </g>
</svg>