<?xml version="1.0" encoding="UTF-8"?>
<svg width="18px" height="24px" viewBox="0 0 18 24" version="1.1" xmlns="http://www.w3.org/2000/svg" xmlns:xlink="http://www.w3.org/1999/xlink">
    <title>voice备份</title>
    <g id="icon篇" stroke="none" stroke-width="1" fill="none" fill-rule="evenodd">
        <g id="icon/File/zip" transform="translate(-3.000000, 0.000000)">
            <path d="M21,6 L21,21.4361148 L20.9996186,21.532863 C20.9930123,22.3515843 20.9007186,22.6629911 20.7328673,22.9768457 C20.5585602,23.3027716 20.3027716,23.5585602 19.9768457,23.7328673 L19.9406136,23.7518989 C19.6322397,23.9108072 19.307361,23.9966613 18.4850626,24 L5.5638852,24 C4.67236646,24 4.34908022,23.9071744 4.0231543,23.7328673 C3.69722837,23.5585602 3.4414398,23.3027716 3.2671327,22.9768457 L3.24774174,22.9399159 C3.08906338,22.6317494 3.00333629,22.3067409 3,21.4850626 L3,2.5638852 C3,1.67236646 3.09282561,1.34908022 3.2671327,1.0231543 C3.4414398,0.697228371 3.69722837,0.441439796 4.0231543,0.267132704 L4.06008414,0.247741744 C4.36825057,0.0890633758 4.69325912,0.00333629384 5.51493736,0 L15,0 L21,6 Z" id="路径" fill="#6E4DF0"></path>
            <path d="M15,0 L21,6 L16.6665254,6 C16.0870382,6 15.8769021,5.93966335 15.6650503,5.82636374 C15.4531984,5.71306413 15.2869359,5.54680156 15.1736363,5.33494971 L15.1570395,5.30313841 C15.0544538,5.10116087 15,4.88398744 15,4.33347462 L15,0 Z" id="矩形" fill-opacity="0.260025131" fill="#000000"></path>
            <path d="M12.0000253,10.4951265 C12.0006068,10.4358905 12.0112114,10.3798568 12.0300083,10.3282578 C12.0331218,10.3207445 12.0362204,10.3128934 12.039509,10.3051425 C12.0470039,10.2864985 12.0557288,10.2689638 12.0653999,10.2520911 C12.0699171,10.2449619 12.0745254,10.2373711 12.0793265,10.2299161 C12.0897975,10.2130482 12.1014432,10.1971986 12.1139389,10.1821246 C12.1187427,10.1767043 12.1231677,10.1715663 12.1276938,10.1665208 C12.1402697,10.1522572 12.1539814,10.1386934 12.1684028,10.125966 C12.1781599,10.1173899 12.1883332,10.1090536 12.1988292,10.1011217 C12.2103815,10.0924483 12.2221249,10.084361 12.2341898,10.0767802 C12.2444063,10.0702767 12.2550445,10.0641138 12.2659213,10.0583408 C12.2805254,10.0506389 12.2955779,10.0435571 12.3109679,10.0372281 C12.3199116,10.0335903 12.3289324,10.0302059 12.3380725,10.027079 C12.3576677,10.0202144 12.3778008,10.014628 12.3982983,10.0103209 C12.4047999,10.0092763 12.4118237,10.0079741 12.4188974,10.0068203 C12.4408995,10.0028131 12.4626776,10.0006691 12.4846837,10 C12.4891111,10.0003635 12.4945453,10.0002762 12.5,10.0002762 C12.5272915,10.0001276 12.5479303,10.0017134 12.5686335,10.0046485 L12.5,10.0002762 C12.5328483,10.0002762 12.5649568,10.0034438 12.5960366,10.0094902 C12.6264529,10.0153553 12.6574184,10.024548 12.6881173,10.037014 L12.6373928,10.0193896 C12.6535635,10.024001 12.6693997,10.0294059 12.6848565,10.0355597 C12.6941683,10.0394711 12.700215,10.0419871 12.7062571,10.0445605 C12.7238894,10.0527089 12.7399805,10.0611506 12.7555267,10.0704118 C13.187672,10.2734585 13.5941872,10.7579591 13.9120872,11.0254113 C14.24646,11.3067223 14.436503,11.4256429 14.6323034,11.4912944 C14.9359171,11.5930956 15.4482084,11.5930956 16.1691771,11.4912944 C16.1128312,11.8640318 15.9925927,12.1659277 15.8084616,12.3969822 C15.5322649,12.7435639 14.991107,13.2121428 14.3159587,13.2121428 C13.9276881,13.2121428 13.658806,13.1219068 13.3611625,12.9286049 C13.3603853,12.9281002 13.3180794,12.8994377 13.2647918,12.8637266 L13.1526257,12.7891613 C13.1163903,12.7653432 13.0843252,12.7446472 13.0654815,12.7333277 L13.0654815,12.7333277 L13.0351243,12.715476 C13.0238137,12.7089684 13.0124346,12.7025826 13.0009681,12.6963153 L13,17.5002762 C12.931675,18.558484 11.8387194,19.4002762 10.5,19.4002762 C9.11928813,19.4002762 8,18.5048457 8,17.4002762 C8,16.2957067 9.11928813,15.4002762 10.5,15.4002762 C11.0633481,15.4002762 11.5831759,15.5493425 12.001214,15.8008596 Z" id="形状结合" fill="#FFFFFF"></path>
        </g>
    </g>
</svg>