<?xml version="1.0" encoding="UTF-8"?>
<svg width="18px" height="24px" viewBox="0 0 18 24" version="1.1" xmlns="http://www.w3.org/2000/svg" xmlns:xlink="http://www.w3.org/1999/xlink">
    <title>Web备份</title>
    <g id="icon篇" stroke="none" stroke-width="1" fill="none" fill-rule="evenodd">
        <g id="编组" transform="translate(-3.000000, 0.000000)" fill-rule="nonzero">
            <g id="icon／File／link" transform="translate(3.000000, 0.000000)">
                <path d="M18,6 L18,21.4361148 L17.9996186,21.532863 C17.9930122,22.3515843 17.9007186,22.6629911 17.7328673,22.9768457 C17.5585602,23.3027717 17.3027717,23.5585602 16.9768457,23.7328673 L16.9406135,23.7518988 C16.6322398,23.9108072 16.307361,23.9966612 15.4850626,24 L2.5638852,24 C1.67236646,24 1.34908022,23.9071744 1.0231543,23.7328673 C0.69722837,23.5585602 0.441439795,23.3027717 0.267132705,22.9768457 L0.247741745,22.9399158 C0.089063375,22.6317495 0.003336295,22.3067409 0,21.4850626 L0,2.5638852 C0,1.67236646 0.09282561,1.34908022 0.267132705,1.0231543 C0.441439795,0.69722837 0.69722837,0.441439796 1.0231543,0.267132704 L1.06008414,0.247741744 C1.36825057,0.089063376 1.69325912,0.00333629384 2.51493735,0 L12,0 L18,6 Z" id="路径" fill="#1E89FF"></path>
                <path d="M13.041873,10.4062041 C11.9669343,9.33126531 10.2139635,9.33126531 9.13902475,10.4062041 L8.5354063,11.0098225 C8.237732,11.3488406 8.24600075,11.8615027 8.56848125,12.1757197 C8.89096185,12.4982003 9.4036239,12.506469 9.73437845,12.2087946 L10.3710719,11.5721012 C10.8010464,11.1421267 11.5038857,11.1421267 11.9338654,11.5721012 C12.3638399,12.0020756 12.3638399,12.704915 11.9338654,13.1348947 L10.1643529,14.912678 C9.73437845,15.3426524 9.0315391,15.3426524 8.6015594,14.912678 C8.57675325,14.8878717 8.55194695,14.8630655 8.53540945,14.8382592 L7.32816845,16.0455002 L7.3612434,16.0785752 C8.43618215,17.1535139 10.189153,17.1535139 11.2640917,16.0785752 L13.041875,14.3090627 C14.1168138,13.2341239 14.1168138,11.4811532 13.041875,10.4062144 L13.041873,10.4062041 Z M9.2795978,17.575202 C8.95711725,17.2527214 8.44445515,17.2444527 8.1137006,17.5421271 L7.47700715,18.1788205 C7.0470327,18.608795 6.34419335,18.608795 5.9142137,18.1788205 C5.48423925,17.7488461 5.48423925,17.0460067 5.9142137,16.616027 L7.68372615,14.8382437 C8.1137006,14.4082693 8.81654,14.4082693 9.24651965,14.8382437 C9.2713258,14.8630499 9.2961321,14.8878562 9.3126696,14.9126625 L10.5199106,13.7054215 L10.4868357,13.6723465 C9.4118969,12.5974078 7.65892615,12.5974078 6.5839874,13.6723465 L4.80620405,15.441859 C3.7312653,16.5167978 3.7312653,18.2697686 4.80620405,19.3447073 C5.8811428,20.4196461 7.6341136,20.4196461 8.70905235,19.3447073 L9.31267075,18.7410889 C9.61034505,18.4103395 9.6020763,17.8976775 9.27959585,17.5751917 L9.2795978,17.575202 Z" id="形状" fill="#FFFFFF"></path>
                <path d="M12,0 L18,6 L13.6665254,6 C13.0870382,6 12.8769021,5.93966335 12.6650503,5.82636375 C12.4531985,5.71306415 12.2869359,5.54680155 12.1736362,5.3349497 L12.1570394,5.3031384 C12.0544538,5.10116085 12,4.88398744 12,4.33347462 L12,0 Z" id="矩形" fill-opacity="0.260025131" fill="#000000"></path>
            </g>
        </g>
    </g>
</svg>