<?xml version="1.0" encoding="UTF-8"?>
<svg width="20px" height="20px" viewBox="0 0 20 20" version="1.1" xmlns="http://www.w3.org/2000/svg" xmlns:xlink="http://www.w3.org/1999/xlink">
    <title>Icon/状态/Safe</title>
    <g id="会议工作台" stroke="none" stroke-width="1" fill="none" fill-rule="evenodd">
        <g id="参会人报名成功" transform="translate(-118.000000, -76.000000)">
            <g id="Navigition-Bar/icon+icon" transform="translate(0.000000, 64.000000)">
                <g id="编组-6" transform="translate(50.000000, 8.000000)">
                    <g id="Safe" transform="translate(68.000000, 4.000000)">
                        <path d="M10,1.25 C14.8324916,1.25 18.75,5.16750844 18.75,10 C18.75,14.8324916 14.8324916,18.75 10,18.75 C5.16750844,18.75 1.25,14.8324916 1.25,10 C1.25,5.16750844 5.16750844,1.25 10,1.25 Z" id="路径" fill="#03BE1C"></path>
                        <path d="M8.62796116,13.8005501 C8.16772387,13.8005501 7.79462783,13.4274541 7.79462783,12.9672168 C7.79462783,12.5069795 8.16772387,12.1338835 8.62796116,12.1338835 L11.1276278,12.1338835 L11.1279612,5.46721681 C11.1279612,5.00697952 11.5010572,4.63388348 11.9612945,4.63388348 C12.4215318,4.63388348 12.7946278,5.00697952 12.7946278,5.46721681 L12.7946278,12.9672168 L12.7946278,12.9672168 C12.7946278,13.3920512 12.4767235,13.7426351 12.0658261,13.7940573 L11.9612945,13.8005501 L11.9612945,13.8005501 L8.62796116,13.8005501 Z" id="形状结合" fill="#FFFFFF" transform="translate(10.294628, 9.217217) rotate(-315.000000) translate(-10.294628, -9.217217) "></path>
                    </g>
                </g>
            </g>
        </g>
    </g>
</svg>