<?xml version="1.0" encoding="UTF-8"?>
<svg width="56px" height="56px" viewBox="0 0 56 56" version="1.1" xmlns="http://www.w3.org/2000/svg" xmlns:xlink="http://www.w3.org/1999/xlink">
    <title>编组 4</title>
    <defs>
        <path d="M10.2555408,-3.51363273e-15 L45.7444592,-4.68828315e-15 C49.3105342,-2.89291511e-15 50.6036791,0.371302445 51.9073828,1.06853082 C53.2110865,1.76575919 54.2342408,2.78891348 54.9314692,4.09261719 C55.6286976,5.39632089 56,6.68946584 56,10.2555408 L56,45.7444592 C56,49.3105342 55.6286976,50.6036791 54.9314692,51.9073828 C54.2342408,53.2110865 53.2110865,54.2342408 51.9073828,54.9314692 C50.6036791,55.6286976 49.3105342,56 45.7444592,56 L10.2555408,56 C6.68946584,56 5.39632089,55.6286976 4.09261719,54.9314692 C2.78891348,54.2342408 1.76575919,53.2110865 1.06853082,51.9073828 C0.371302445,50.6036791 1.06103393e-15,49.3105342 -1.82612968e-15,45.7444592 L7.29641152e-16,10.2555408 C-4.23942521e-16,6.68946584 0.371302445,5.39632089 1.06853082,4.09261719 C1.76575919,2.78891348 2.78891348,1.76575919 4.09261719,1.06853082 C5.39632089,0.371302445 6.68946584,-3.57542083e-15 10.2555408,-3.51363273e-15 Z" id="path-1"></path>
    </defs>
    <g id="会议工作台" stroke="none" stroke-width="1" fill="none" fill-rule="evenodd">
        <g id="参会人报名成功备份-6" transform="translate(-24.000000, -467.000000)">
            <g id="编组-7" transform="translate(12.000000, 353.000000)">
                <g id="形状" transform="translate(12.000000, 114.000000)">
                    <g id="编组-4" transform="translate(0.000000, -0.000000)">
                        <g id="编组-18" transform="translate(0.000000, -0.000000)">
                            <mask id="mask-2" fill="white">
                                <use xlink:href="#path-1"></use>
                            </mask>
                            <g id="蒙版备份-3"></g>
                            <path d="M10.136875,55.9678052 C9.7405,55.9153052 9.32575,55.8260552 9.07375,55.7420552 C8.5015,55.5530552 8.026375,55.2144302 7.7455,54.7918052 C7.693,54.7104302 7.627375,54.6159302 7.60375,54.5791802 C7.553875,54.5030552 7.315,54.0148052 7.315,53.9859302 C7.315,53.9754302 7.280875,53.8756802 7.238875,53.7680552 C7.133875,53.4924302 7,53.0330552 7,52.9464302 L7,52.8729302 L49,52.8729302 L49,52.9464302 C49,53.0330552 48.866125,53.4924302 48.761125,53.7680552 C48.719125,53.8756802 48.685,53.9754302 48.685,53.9885552 C48.685,54.0016802 48.629875,54.1250552 48.561625,54.2641802 C48.031375,55.3456802 47.35675,55.7709302 45.842125,55.9704302 C45.590125,56.0019302 10.378375,56.0019302 10.136875,55.9678052 Z M9.373,51.3110552 C9.32575,51.2900552 9.26275,51.2323052 9.23125,51.1798052 C9.17875,51.0931802 9.170875,51.0275552 9.13675,50.3581802 C9.11575,49.9591802 9.065875,48.9459302 9.02125,48.1085552 C8.97925,47.2711802 8.908375,45.8825552 8.86375,45.0241802 C8.819125,44.1658052 8.7535,42.9136802 8.71675,42.2416802 C8.677375,41.5696802 8.638,40.7611802 8.6275,40.4435552 C8.617,40.1259302 8.577625,39.2990552 8.53825,38.6060552 C8.386,35.8366802 8.309875,34.4165552 8.29675,34.0910552 C8.2915,33.9046802 8.2495,33.0883052 8.2075,32.2798052 C8.1655,31.4713052 8.094625,30.1063052 8.05,29.2479302 C8.005375,28.3895552 7.9345,27.0245552 7.889875,26.2160552 C7.819,24.8851802 7.735,22.3441802 7.735,21.5435552 C7.735,21.2495552 7.74025,21.2206802 7.800625,21.1314302 C7.837375,21.0763052 7.889875,21.0211802 7.91875,21.0054302 C7.9555,20.9870552 9.99775,20.9791802 14.552125,20.9791802 C18.363625,20.9791802 21.16975,20.9713052 21.214375,20.9581802 C21.259,20.9450552 21.343,20.9083052 21.403375,20.8768052 C21.46375,20.8479302 21.532,20.8216802 21.553,20.8216802 C21.574,20.8216802 21.613375,20.7954302 21.639625,20.7639302 C21.665875,20.7298052 21.7315,20.6799302 21.786625,20.6536802 C21.860125,20.6143052 21.907375,20.5591802 21.9835,20.4174302 C22.1305,20.1339302 22.3195,19.7113052 22.435,19.3910552 C22.4665,19.3044302 22.5295,19.1390552 22.5715,19.0235552 C22.7815,18.4591802 22.857625,18.2203052 22.883875,18.0523052 C22.899625,17.9525552 22.946875,17.7215552 22.988875,17.5430552 C23.030875,17.3645552 23.065,17.1965552 23.065,17.1650552 C23.065,17.0338052 23.351125,16.0599302 23.4745,15.7685552 C23.67925,15.2881802 23.863,15.0073052 24.170125,14.7054302 C24.4405,14.4376802 24.490375,14.4009302 24.745,14.2723052 C24.9445,14.1725552 25.04425,14.1384302 25.403875,14.0465552 C25.598125,13.9993052 25.74775,13.9966802 30.23125,14.0019302 L34.859125,14.0098052 L34.9405,14.1095552 L35.021875,14.2119302 L35.02975,15.1070552 C35.035,15.6898052 35.027125,16.0389302 35.011375,16.0993052 C34.993,16.1596802 34.94575,16.2253052 34.88275,16.2699302 L34.785625,16.3460552 L30.205,16.3591802 C26.343625,16.3696802 25.613875,16.3775552 25.5535,16.4090552 C25.4485,16.4615552 25.38025,16.6269302 25.335625,16.9261802 C25.314625,17.0679302 25.267375,17.3409302 25.23325,17.5273052 C25.1965,17.7163052 25.130875,18.0628052 25.088875,18.3016802 C24.94975,19.0813052 24.84475,19.6456802 24.7555,20.1076802 C24.705625,20.3570552 24.66625,20.5906802 24.66625,20.6248052 C24.66625,20.7166802 24.7135,20.8006802 24.805375,20.8741802 C24.878875,20.9345552 24.91825,20.9424302 25.2175,20.9581802 C25.398625,20.9660552 25.963,20.9739302 26.47225,20.9765552 C27.519625,20.9791802 27.519625,20.9791802 27.608875,21.1708052 C27.656125,21.2784302 27.65875,21.4543052 27.65875,27.8146802 L27.65875,34.3483052 L27.713875,34.4375552 C27.813625,34.5976802 27.99475,34.6475552 28.144375,34.5556802 C28.189,34.5268052 28.391125,34.3430552 28.595875,34.1409302 C29.302,33.4479302 29.47525,33.2904302 29.745625,33.1040552 C30.034375,32.9019302 30.52,32.7129302 30.879625,32.6604302 C31.1185,32.6263052 44.030875,32.6263052 44.30125,32.6604302 C44.870875,32.7339302 45.443125,32.9964302 45.868375,33.3796802 C46.0285,33.5266802 46.312,33.8679302 46.417,34.0438052 C46.86325,34.7919302 47.14675,35.5584302 47.427625,36.7580552 L47.488,37.0126802 L47.422375,37.1386802 C47.380375,37.2253052 47.327875,37.2830552 47.2675,37.3119302 C47.180875,37.3565552 46.64275,37.3591802 37.153375,37.3591802 L27.13375,37.3591802 L27.034,37.4484302 L26.936875,37.5376802 L26.92375,39.5431802 C26.910625,41.3413052 26.90275,41.6064302 26.852875,42.1366802 C26.81875,42.4621802 26.77675,42.9399302 26.75575,43.1998052 C26.73475,43.4596802 26.69275,43.9453052 26.663875,44.2760552 C26.635,44.6094302 26.574625,45.3103052 26.53,45.8379302 C26.485375,46.3655552 26.4145,47.1871802 26.3725,47.6623052 C26.327875,48.1400552 26.29375,48.5758052 26.29375,48.6335552 C26.29375,48.6913052 26.259625,49.1296802 26.217625,49.6048052 C26.173,50.0825552 26.128375,50.6075552 26.11525,50.7781802 C26.096875,51.0485552 26.086375,51.0958052 26.02075,51.1876802 C25.97875,51.2480552 25.918375,51.3005552 25.879,51.3110552 C25.839625,51.3189302 22.127875,51.3320552 17.63125,51.3373052 C10.535875,51.3478052 9.443875,51.3451802 9.373,51.3110552 Z M25.40125,26.6780552 C25.40125,25.0479302 25.393375,23.6803052 25.3855,23.6356802 C25.377625,23.5910552 25.335625,23.5175552 25.29625,23.4676802 L25.22275,23.3810552 L24.689875,23.3731802 C24.2935,23.3679302 24.138625,23.3758052 24.08875,23.3994302 C23.98375,23.4545552 23.912875,23.5910552 23.87875,23.7958052 C23.863,23.8981802 23.81575,24.1554302 23.771125,24.3654302 C23.729125,24.5754302 23.695,24.7696802 23.695,24.7985552 C23.695,24.8274302 23.660875,25.0164302 23.618875,25.2185552 C23.46925,25.9351802 23.351125,26.6360552 23.272375,27.2529302 C23.256625,27.3763052 23.23825,27.9013052 23.230375,28.4210552 L23.21725,29.3660552 L23.28025,29.4579302 C23.403625,29.6390552 23.414125,29.6416802 24.464125,29.6416802 L25.40125,29.6416802 L25.40125,26.6780552 L25.40125,26.6780552 Z M17.962,29.5104302 L20.064625,29.5104302 L20.096125,29.2820552 C20.111875,29.1534302 20.167,28.7728052 20.2195,28.4341802 C20.34025,27.6230552 20.447875,26.9169302 20.545,26.2554302 C20.6395,25.6044302 20.7655,24.7644302 20.820625,24.3995552 C20.873125,24.0451802 20.8705,23.9218052 20.8075,23.7511802 C20.762875,23.6383052 20.7235,23.5858052 20.605375,23.4939302 L20.458375,23.3810552 L15.36325,23.3731802 C11.92975,23.3679302 10.23925,23.3731802 10.17625,23.3915552 C10.110625,23.4125552 10.068625,23.4493052 10.026625,23.5228052 L9.96625,23.6278052 L9.96625,26.4444302 C9.96625,29.2085552 9.96625,29.2636802 10.01875,29.3476802 C10.047625,29.3949302 10.108,29.4579302 10.15525,29.4868052 L10.241875,29.5419302 L13.050625,29.5261802 C14.59675,29.5183052 16.804375,29.5104302 17.962,29.5104302 L17.962,29.5104302 Z M30.33625,51.3110552 C30.060625,51.2743052 29.656375,51.1456802 29.462125,51.0301802 C29.393875,50.9908052 29.32825,50.9566802 29.315125,50.9566802 C29.267875,50.9566802 28.86625,50.6338052 28.706125,50.4684302 C28.53025,50.2873052 28.23625,49.9145552 28.23625,49.8778052 C28.23625,49.8646802 28.21,49.8174302 28.175875,49.7701802 C28.013125,49.5260552 27.677125,48.7306802 27.60625,48.4104302 C27.59575,48.3605552 27.5485,48.1768052 27.5065,48.0035552 C27.41725,47.6491802 27.299125,47.0086802 27.278125,46.7698052 C27.23875,46.3235552 27.18625,45.6095552 27.173125,45.3601802 L27.157375,45.0766802 L47.11,45.0766802 L47.11,46.3183052 C47.11,47.7436802 47.089,48.0061802 46.944625,48.4104302 C46.771375,48.8908052 46.592875,49.2241802 46.246375,49.6966802 C46.12825,49.8594302 45.637375,50.3634302 45.42475,50.5393052 C45.136,50.7808052 44.666125,51.0485552 44.30125,51.1824302 C43.820875,51.3609302 44.230375,51.3504302 37.072,51.3478052 C32.095,51.3451802 30.527875,51.3373052 30.33625,51.3110552 Z M44.38,44.3259302 C44.2435,44.3206802 43.563625,44.2813052 42.870625,44.2366802 C40.67875,44.1001802 40.48975,44.0949302 39.36625,44.1316802 C37.935625,44.1789302 29.194375,44.2078052 29.00275,44.1658052 C28.79275,44.1211802 28.5145,43.9400552 28.2625,43.6880552 C28.139125,43.5646802 28.0105,43.4281802 27.979,43.3835552 C27.9475,43.3415552 27.887125,43.2601802 27.8425,43.2024302 C27.8005,43.1473052 27.76375,43.0895552 27.76375,43.0738052 C27.76375,43.0580552 27.745375,43.0265552 27.727,43.0055552 C27.58,42.8428052 27.31225,42.1865552 27.230875,41.7954302 C27.136375,41.3334302 27.167875,40.4776802 27.293875,39.9999302 C27.351625,39.7820552 27.503875,39.5169302 27.65875,39.3541802 C27.871375,39.1389302 28.14175,39.0076802 28.55125,38.9289302 L28.853125,38.8685552 L37.135,38.8685552 C43.50325,38.8685552 45.453625,38.8764302 45.574375,38.9000552 C45.661,38.9184302 45.800125,38.9446802 45.884125,38.9578052 C46.06,38.9893052 46.335625,39.1153052 46.514125,39.2465552 C46.687375,39.3751802 46.858,39.6350552 46.9525,39.9185552 C47.0365,40.1653052 47.11,40.7401802 47.11,41.1523052 C47.11,41.7901802 46.921,42.4359302 46.55875,43.0265552 C46.493125,43.1315552 46.424875,43.2444302 46.4065,43.2759302 C46.3225,43.4176802 45.97075,43.7956802 45.77125,43.9558052 C45.647875,44.0555552 45.464125,44.1763052 45.359125,44.2288052 C45.18325,44.3128052 45.149125,44.3206802 44.89975,44.3285552 C44.750125,44.3311802 44.5165,44.3311802 44.38,44.3259302 L44.38,44.3259302 Z" id="形状" fill="#FFBD79" fill-rule="nonzero" mask="url(#mask-2)"></path>
                        </g>
                    </g>
                </g>
            </g>
        </g>
    </g>
</svg>