<?xml version="1.0" encoding="UTF-8"?>
<svg width="56px" height="56px" viewBox="0 0 56 56" version="1.1" xmlns="http://www.w3.org/2000/svg" xmlns:xlink="http://www.w3.org/1999/xlink">
    <title>编组</title>
    <defs>
        <path d="M10.2555408,3.90809465e-17 L45.7444592,-1.13556947e-15 C49.3105342,6.59798564e-16 50.6036791,0.371302445 51.9073828,1.06853082 C53.2110865,1.76575919 54.2342408,2.78891348 54.9314692,4.09261719 C55.6286976,5.39632089 56,6.68946584 56,10.2555408 L56,45.7444592 C56,49.3105342 55.6286976,50.6036791 54.9314692,51.9073828 C54.2342408,53.2110865 53.2110865,54.2342408 51.9073828,54.9314692 C50.6036791,55.6286976 49.3105342,56 45.7444592,56 L10.2555408,56 C6.68946584,56 5.39632089,55.6286976 4.09261719,54.9314692 C2.78891348,54.2342408 1.76575919,53.2110865 1.06853082,51.9073828 C0.371302445,50.6036791 1.06103393e-15,49.3105342 -1.82612968e-15,45.7444592 L7.29641152e-16,10.2555408 C-4.23942521e-16,6.68946584 0.371302445,5.39632089 1.06853082,4.09261719 C1.76575919,2.78891348 2.78891348,1.76575919 4.09261719,1.06853082 C5.39632089,0.371302445 6.68946584,-2.27071554e-17 10.2555408,3.90809465e-17 Z" id="path-1"></path>
    </defs>
    <g id="会议工作台" stroke="none" stroke-width="1" fill="none" fill-rule="evenodd">
        <g id="参会人报名成功备份-6" transform="translate(-24.000000, -401.000000)">
            <g id="编组-7" transform="translate(12.000000, 353.000000)">
                <g id="编组" transform="translate(12.000000, 48.000000)">
                    <mask id="mask-2" fill="white">
                        <use xlink:href="#path-1"></use>
                    </mask>
                    <g id="蒙版备份-2"></g>
                    <path d="M50.8817945,34.0316406 C50.8817945,34.0271484 50.8773031,34.0226562 50.8773031,34.0181641 C50.2485077,32.0550781 49.3232802,30.5367187 46.9608061,30.8511719 C46.6733568,30.8871094 46.1478635,30.2492188 45.9906647,29.8179687 C45.1822135,27.5988281 44.3153741,25.3841797 43.7404755,23.0931641 C42.7793168,19.2523438 40.1293934,17.7025391 36.7428811,17.0197266 C35.4673248,16.7636719 34.1782943,16.5974609 32.8937551,16.3908203 C31.1376194,16.1302734 29.5296998,16.0044922 27.9622028,16 L27.9442372,16 C26.3767401,16.0044922 24.7688205,16.1302734 23.0126848,16.3908203 C21.7326371,16.5974609 20.4391151,16.7636719 19.1635588,17.0197266 C15.7860293,17.7025391 13.1361059,19.2523438 12.1704559,23.1021484 C11.5955572,25.3931641 10.7287179,27.6078125 9.92026666,29.8269531 C9.76306782,30.2582031 9.23757453,30.8960937 8.95461661,30.8601562 C6.59214253,30.5457031 5.67140643,32.0595703 5.03811965,34.0271484 C5.03811965,34.0316406 5.03811965,34.0361328 5.03362826,34.040625 C4.88092081,34.6695312 5.26268943,35.3074219 5.88699342,35.478125 C6.18791692,35.5634766 6.47985764,35.6443359 6.74934137,35.7162109 C7.18500675,35.8375 7.48143885,36.2373047 7.47694746,36.6865234 C7.4365249,40.0152344 7.38711955,43.3304687 7.35567978,46.6412109 C7.3377142,48.5638672 7.26585187,50.4865234 7.39161094,52.4001953 C7.45449048,53.2851562 7.76439678,54.6597656 8.22251913,55.0011719 C8.5593738,55.4728516 14.6317406,55.459375 15.7635723,55.0011719 C16.1947463,54.8259766 16.4462645,52.8449219 16.7696449,51.2232422 C16.872947,50.6976562 17.3355608,50.3203125 17.8700369,50.3203125 L38.0364031,50.3203125 C38.5708791,50.3203125 39.0334929,50.6976562 39.136795,51.2232422 C39.4601755,52.8449219 39.7072022,54.8259766 40.1428676,55.0011719 C41.2746993,55.459375 47.3470661,55.4728516 47.6839208,55.0011719 C48.1420432,54.6597656 48.4564408,53.2851562 48.514829,52.4001953 C48.6405881,50.4865234 48.5687257,48.559375 48.5507602,46.6412109 C48.5193204,43.3304687 48.4744064,40.0197266 48.4294925,36.6865234 C48.4250011,36.2373047 48.7214332,35.8375 49.1570986,35.7162109 C49.4265823,35.6398437 49.718523,35.5589844 50.0194465,35.478125 C50.6527333,35.2984375 51.0389933,34.6605469 50.8817945,34.0316406 Z M18.7413676,41.8480469 C18.5617118,42.3556641 17.8475799,42.8363281 17.281664,42.9755859 C16.5046526,43.1642578 12.4174826,43.0294922 11.2452284,42.7734375 C9.72264526,42.4410156 9.29596267,41.2505859 9.75408502,39.1212891 C10.0684827,37.6613281 11.1554004,37.5984375 12.1300333,37.9353516 C14.0927732,38.6226562 15.3323984,39.0583984 17.1873447,39.9882812 C18.6245913,40.7025391 18.8671267,41.4841797 18.7413676,41.8480469 L18.7413676,41.8480469 Z M27.9487286,33.2769531 C22.9677709,33.2679687 17.9688476,32.7019531 12.8576394,31.5923828 C13.9804883,28.2861328 14.9506297,25.2314453 16.0869528,22.2486328 C16.3025398,21.678125 17.1379394,21.1705078 17.7757176,21.0087891 C19.3162662,20.6224609 20.9107117,20.2316406 22.4827001,20.2451172 C24.3062067,20.2585937 26.125222,20.2945312 27.9487286,20.3439453 L27.9666942,20.3439453 C29.7902008,20.2945312 31.609216,20.2585937 33.4327226,20.2451172 C35.004711,20.2316406 36.5991565,20.6224609 38.1397052,21.0087891 C38.7729919,21.1705078 39.6128829,21.678125 39.8284699,22.2486328 C40.964793,25.2314453 41.9349344,28.2861328 43.0577833,31.5923828 C37.9510666,32.7019531 32.9476519,33.2679687 27.9666942,33.2769531 L27.9487286,33.2769531 Z M44.6746858,42.7734375 C43.5069229,43.0294922 39.4152615,43.1642578 38.6382501,42.9755859 C38.0723342,42.8363281 37.3582023,42.3556641 37.1785465,41.8480469 C37.0527874,41.4886719 37.2953228,40.7025391 38.7325694,39.9837891 C40.5920072,39.0539062 41.8316323,38.6181641 43.7898808,37.9308594 C44.7645137,37.5939453 45.8514314,37.6568359 46.1658291,39.1167969 C46.6239514,41.2505859 46.1927775,42.4410156 44.6746858,42.7734375 L44.6746858,42.7734375 Z" id="形状" fill="#A3D8D5" fill-rule="nonzero" mask="url(#mask-2)"></path>
                </g>
            </g>
        </g>
    </g>
</svg>