<?xml version="1.0" encoding="UTF-8"?>
<svg width="20px" height="20px" viewBox="0 0 20 20" version="1.1" xmlns="http://www.w3.org/2000/svg" xmlns:xlink="http://www.w3.org/1999/xlink">
    <title>占位/24x24</title>
    <defs>
        <filter id="filter-1">
            <feColorMatrix in="SourceGraphic" type="matrix" values="0 0 0 0 1.000000 0 0 0 0 1.000000 0 0 0 0 1.000000 0 0 0 1.000000 0"></feColorMatrix>
        </filter>
    </defs>
    <g id="会议工作台" stroke="none" stroke-width="1" fill="none" fill-rule="evenodd">
        <g id="会务组" transform="translate(-298.000000, -76.000000)">
            <g id="占位/24x24" transform="translate(0.000000, 64.000000)" filter="url(#filter-1)">
                <g transform="translate(298.000000, 12.000000)">
                    <path d="M17.5,15.8333333 C17.9602373,15.8333333 18.3333333,16.2064294 18.3333333,16.6666667 L18.3333333,17.5 C18.3333333,17.9602373 17.9602373,18.3333333 17.5,18.3333333 L16.6666667,18.3333333 C16.2064294,18.3333333 15.8333333,17.9602373 15.8333333,17.5 L15.8333333,16.6666667 C15.8333333,16.2064294 16.2064294,15.8333333 16.6666667,15.8333333 L17.5,15.8333333 Z M12.5,15.8333333 C12.9602373,15.8333333 13.3333333,16.2064294 13.3333333,16.6666667 L13.3333333,17.5 C13.3333333,17.9602373 12.9602373,18.3333333 12.5,18.3333333 L11.6666667,18.3333333 C11.2064294,18.3333333 10.8333333,17.9602373 10.8333333,17.5 L10.8333333,16.6666667 C10.8333333,16.2064294 11.2064294,15.8333333 11.6666667,15.8333333 L12.5,15.8333333 Z M7.91666667,10.8333333 C8.6070226,10.8333333 9.16666667,11.3929774 9.16666667,12.0833333 L9.16666667,17.0833333 C9.16666667,17.7736893 8.6070226,18.3333333 7.91666667,18.3333333 L2.91666667,18.3333333 C2.22631073,18.3333333 1.66666667,17.7736893 1.66666667,17.0833333 L1.66666667,12.0833333 C1.66666667,11.3929774 2.22631073,10.8333333 2.91666667,10.8333333 L7.91666667,10.8333333 Z M7.5,12.5 L3.33333333,12.5 L3.33333333,16.6666667 L7.5,16.6666667 L7.5,12.5 Z M15,13.3333333 C15.4602373,13.3333333 15.8333333,13.7064294 15.8333333,14.1666667 L15.8333333,15 C15.8333333,15.4602373 15.4602373,15.8333333 15,15.8333333 L14.1666667,15.8333333 C13.7064294,15.8333333 13.3333333,15.4602373 13.3333333,15 L13.3333333,14.1666667 C13.3333333,13.7064294 13.7064294,13.3333333 14.1666667,13.3333333 L15,13.3333333 Z M6.66666667,13.3333333 L6.66666667,15.8333333 L4.16666667,15.8333333 L4.16666667,13.3333333 L6.66666667,13.3333333 Z M17.5,10.8333333 C17.9602373,10.8333333 18.3333333,11.2064294 18.3333333,11.6666667 L18.3333333,12.5 C18.3333333,12.9602373 17.9602373,13.3333333 17.5,13.3333333 L16.6666667,13.3333333 C16.2064294,13.3333333 15.8333333,12.9602373 15.8333333,12.5 L15.8333333,11.6666667 C15.8333333,11.2064294 16.2064294,10.8333333 16.6666667,10.8333333 L17.5,10.8333333 Z M12.5,10.8333333 C12.9602373,10.8333333 13.3333333,11.2064294 13.3333333,11.6666667 L13.3333333,12.5 C13.3333333,12.9602373 12.9602373,13.3333333 12.5,13.3333333 L11.6666667,13.3333333 C11.2064294,13.3333333 10.8333333,12.9602373 10.8333333,12.5 L10.8333333,11.6666667 C10.8333333,11.2064294 11.2064294,10.8333333 11.6666667,10.8333333 L12.5,10.8333333 Z M7.91666667,1.66666667 C8.6070226,1.66666667 9.16666667,2.22631073 9.16666667,2.91666667 L9.16666667,7.91666667 C9.16666667,8.6070226 8.6070226,9.16666667 7.91666667,9.16666667 L2.91666667,9.16666667 C2.22631073,9.16666667 1.66666667,8.6070226 1.66666667,7.91666667 L1.66666667,2.91666667 C1.66666667,2.22631073 2.22631073,1.66666667 2.91666667,1.66666667 L7.91666667,1.66666667 Z M17.0833333,1.66666667 C17.7736893,1.66666667 18.3333333,2.22631073 18.3333333,2.91666667 L18.3333333,7.91666667 C18.3333333,8.6070226 17.7736893,9.16666667 17.0833333,9.16666667 L12.0833333,9.16666667 C11.3929774,9.16666667 10.8333333,8.6070226 10.8333333,7.91666667 L10.8333333,2.91666667 C10.8333333,2.22631073 11.3929774,1.66666667 12.0833333,1.66666667 L17.0833333,1.66666667 Z M7.5,3.33333333 L3.33333333,3.33333333 L3.33333333,7.5 L7.5,7.5 L7.5,3.33333333 Z M16.6666667,3.33333333 L12.5,3.33333333 L12.5,7.5 L16.6666667,7.5 L16.6666667,3.33333333 Z M6.66666667,4.16666667 L6.66666667,6.66666667 L4.16666667,6.66666667 L4.16666667,4.16666667 L6.66666667,4.16666667 Z M15.8333333,4.16666667 L15.8333333,6.66666667 L13.3333333,6.66666667 L13.3333333,4.16666667 L15.8333333,4.16666667 Z" id="形状结合备份" fill="#191F24"></path>
                </g>
            </g>
        </g>
    </g>
</svg>