<?xml version="1.0" encoding="UTF-8"?>
<svg width="20px" height="20px" viewBox="0 0 20 20" version="1.1" xmlns="http://www.w3.org/2000/svg" xmlns:xlink="http://www.w3.org/1999/xlink">
    <title>占位/24x24</title>
    <defs>
        <filter id="filter-1">
            <feColorMatrix in="SourceGraphic" type="matrix" values="0 0 0 0 1.000000 0 0 0 0 1.000000 0 0 0 0 1.000000 0 0 0 1.000000 0"></feColorMatrix>
        </filter>
    </defs>
    <g id="会议工作台" stroke="none" stroke-width="1" fill="none" fill-rule="evenodd">
        <g id="会务组" transform="translate(-12.000000, -76.000000)">
            <g id="占位/24x24" transform="translate(0.000000, 64.000000)" filter="url(#filter-1)">
                <g transform="translate(12.000000, 12.000000)">
                    <path d="M15.8333333,14.6666667 C16.2935706,14.6666667 16.6666667,15.0397627 16.6666667,15.5 L16.6666667,15.8333333 C16.6666667,16.2935706 16.2935706,16.6666667 15.8333333,16.6666667 L2.5,16.6666667 C2.03976271,16.6666667 1.66666667,16.2935706 1.66666667,15.8333333 L1.66666667,15.5 C1.66666667,15.0397627 2.03976271,14.6666667 2.5,14.6666667 L15.8333333,14.6666667 Z M10.8333333,9 C11.2935706,9 11.6666667,9.37309604 11.6666667,9.83333333 L11.6666667,10.1666667 C11.6666667,10.626904 11.2935706,11 10.8333333,11 L2.5,11 C2.03976271,11 1.66666667,10.626904 1.66666667,10.1666667 L1.66666667,9.83333333 C1.66666667,9.37309604 2.03976271,9 2.5,9 L10.8333333,9 Z M17.5,3.33333333 C17.9602373,3.33333333 18.3333333,3.70642938 18.3333333,4.16666667 L18.3333333,4.5 C18.3333333,4.96023729 17.9602373,5.33333333 17.5,5.33333333 L2.5,5.33333333 C2.03976271,5.33333333 1.66666667,4.96023729 1.66666667,4.5 L1.66666667,4.16666667 C1.66666667,3.70642938 2.03976271,3.33333333 2.5,3.33333333 L17.5,3.33333333 Z" id="形状结合" fill="#191F24"></path>
                </g>
            </g>
        </g>
    </g>
</svg>