<?xml version="1.0" encoding="UTF-8"?>
<svg width="14px" height="14px" viewBox="0 0 14 14" version="1.1" xmlns="http://www.w3.org/2000/svg" xmlns:xlink="http://www.w3.org/1999/xlink">
    <title>Icon/会议/地址</title>
    <g id="会议工作台" stroke="none" stroke-width="1" fill="none" fill-rule="evenodd" opacity="0.719133">
        <g id="参会人报名成功" transform="translate(-16.000000, -357.000000)" fill="#191F24">
            <g id="编组备份" transform="translate(0.000000, 235.000000)">
                <g id="占位/24x24备份-9" transform="translate(16.000000, 122.000000)">
                    <path d="M7,0 C10.0611792,0 12.5416667,2.5609388 12.5416667,5.71864407 C12.5416667,7.46712598 11.6811651,9.43783825 10.3148336,11.2508246 C9.13083144,12.821878 7.77338295,14 7,14 C6.22661705,14 4.86916856,12.821878 3.68516645,11.2508246 C2.31883492,9.43783825 1.45833333,7.46712598 1.45833333,5.71864407 C1.45833333,2.5609388 3.93882083,0 7,0 Z M7,1.18644068 C4.57764361,1.18644068 2.61284722,3.21496261 2.61284722,5.71864407 C2.61284722,7.15728006 3.37382979,8.90007484 4.59794279,10.5243514 C5.1093758,11.2029722 5.66866703,11.8109785 6.17350001,12.2491202 C6.40427494,12.4494085 6.61409832,12.6054622 6.78597416,12.7068369 C6.86131555,12.7512743 6.92564894,12.7829493 6.97539686,12.8014561 L6.97539686,12.8014561 L7,12.8102966 C7.00216678,12.8095048 7.00476916,12.8085892 7.00781932,12.8075125 L7.00781932,12.8075125 L7.03852969,12.7960826 C7.08613902,12.7770847 7.14553367,12.7472346 7.21402584,12.7068369 C7.38590168,12.6054622 7.59572506,12.4494085 7.82649999,12.2491202 C8.33133297,11.8109785 8.8906242,11.2029722 9.40205721,10.5243514 C10.6261702,8.90007484 11.3871528,7.15728006 11.3871528,5.71864407 C11.3871528,3.21496261 9.42235639,1.18644068 7,1.18644068 Z M7,3.44067797 C8.27524083,3.44067797 9.30902778,4.50305314 9.30902778,5.81355932 C9.30902778,7.12406551 8.27524083,8.18644068 7,8.18644068 C5.72475917,8.18644068 4.69097222,7.12406551 4.69097222,5.81355932 C4.69097222,4.50305314 5.72475917,3.44067797 7,3.44067797 Z M7,4.62711864 C6.36237959,4.62711864 5.84548611,5.15830623 5.84548611,5.81355932 C5.84548611,6.46881241 6.36237959,7 7,7 C7.63762041,7 8.15451389,6.46881241 8.15451389,5.81355932 C8.15451389,5.15830623 7.63762041,4.62711864 7,4.62711864 Z" id="形状结合"></path>
                </g>
            </g>
        </g>
    </g>
</svg>