<?xml version="1.0" encoding="UTF-8"?>
<svg width="16px" height="16px" viewBox="0 0 16 16" version="1.1" xmlns="http://www.w3.org/2000/svg" xmlns:xlink="http://www.w3.org/1999/xlink">
    <title>Icon/System/日历</title>
    <g id="会议工作台" stroke="none" stroke-width="1" fill="none" fill-rule="evenodd" opacity="0.557018462">
        <g id="参会人报名成功" transform="translate(-16.000000, -558.000000)" fill="#191F24">
            <g id="编组-3备份-4" transform="translate(0.000000, 545.000000)">
                <g id="占位/24x24备份" transform="translate(16.000000, 13.000000)">
                    <path d="M5.33333333,0.666666667 L5.33333333,2 L10.6666667,2 L10.6666667,0.666666667 L12,0.666666667 L12,2 L13.3333333,2 C14.4379028,2 15.3333333,2.8954305 15.3333333,4 L15.3333333,12.6666667 C15.3333333,13.7712362 14.4379028,14.6666667 13.3333333,14.6666667 L2.66666667,14.6666667 C1.56209717,14.6666667 0.666666667,13.7712362 0.666666667,12.6666667 L0.666666667,4 C0.666666667,2.8954305 1.56209717,2 2.66666667,2 L4,2 L4,0.666666667 L5.33333333,0.666666667 Z M14,6 L2,6 L2,12.6666667 C2,13.0348565 2.29847683,13.3333333 2.66666667,13.3333333 L2.66666667,13.3333333 L13.3333333,13.3333333 C13.7015232,13.3333333 14,13.0348565 14,12.6666667 L14,12.6666667 L14,6 Z M5.33333333,10 L5.33333333,11.3333333 L4,11.3333333 L4,10 L5.33333333,10 Z M8.66666667,10 L8.66666667,11.3333333 L7.33333333,11.3333333 L7.33333333,10 L8.66666667,10 Z M5.33333333,7.33333333 L5.33333333,8.66666667 L4,8.66666667 L4,7.33333333 L5.33333333,7.33333333 Z M8.66666667,7.33333333 L8.66666667,8.66666667 L7.33333333,8.66666667 L7.33333333,7.33333333 L8.66666667,7.33333333 Z M12,7.33333333 L12,8.66666667 L10.6666667,8.66666667 L10.6666667,7.33333333 L12,7.33333333 Z M13.3333333,3.33333333 L2.66666667,3.33333333 C2.29847683,3.33333333 2,3.63181017 2,4 L2,4 L2,4.66666667 L14,4.66666667 L14,4 C14,3.63181017 13.7015232,3.33333333 13.3333333,3.33333333 L13.3333333,3.33333333 Z" id="矩形备份-77"></path>
                </g>
            </g>
        </g>
    </g>
</svg>