<?xml version="1.0" encoding="UTF-8"?>
<svg width="40px" height="40px" viewBox="0 0 40 40" version="1.1" xmlns="http://www.w3.org/2000/svg" xmlns:xlink="http://www.w3.org/1999/xlink">
    <title>接受</title>
    <defs>
        <linearGradient x1="100%" y1="50%" x2="0%" y2="50%" id="linearGradient-1">
            <stop stop-color="#F8F0DE" offset="0%"></stop>
            <stop stop-color="#EEDDBA" offset="100%"></stop>
        </linearGradient>
        <path d="M20,2.5 C29.6649831,2.5 37.5,10.3350169 37.5,20 C37.5,29.6649831 29.6649831,37.5 20,37.5 C10.3350169,37.5 2.5,29.6649831 2.5,20 C2.5,10.3350169 10.3350169,2.5 20,2.5 Z" id="path-2"></path>
        <filter x="-0.7%" y="-0.7%" width="101.4%" height="101.4%" filterUnits="objectBoundingBox" id="filter-3">
            <feOffset dx="0" dy="0.5" in="SourceAlpha" result="shadowOffsetInner1"></feOffset>
            <feComposite in="shadowOffsetInner1" in2="SourceAlpha" operator="arithmetic" k2="-1" k3="1" result="shadowInnerInner1"></feComposite>
            <feColorMatrix values="0 0 0 0 0.0980392157   0 0 0 0 0.121568627   0 0 0 0 0.141176471  0 0 0 0.0751748252 0" type="matrix" in="shadowInnerInner1"></feColorMatrix>
        </filter>
        <linearGradient x1="100%" y1="50%" x2="0%" y2="50%" id="linearGradient-4">
            <stop stop-color="#FFF9EA" offset="0%"></stop>
            <stop stop-color="#EDDCB7" offset="100%"></stop>
        </linearGradient>
    </defs>
    <g id="邀请函" stroke="none" stroke-width="1" fill="none" fill-rule="evenodd">
        <g id="邀请函（外部人员）备份-4" transform="translate(-187.000000, -538.000000)">
            <g id="编组-4备份" transform="translate(153.000000, 538.000000)">
                <g id="Safe" transform="translate(34.000000, 0.000000)">
                    <g id="路径">
                        <use fill="black" fill-opacity="1" filter="url(#filter-3)" xlink:href="#path-2"></use>
                        <path stroke="url(#linearGradient-1)" stroke-width="1" d="M20,3 C24.6944204,3 28.9444204,4.90278981 32.0208153,7.97918472 C35.0972102,11.0555796 37,15.3055796 37,20 C37,24.6944204 35.0972102,28.9444204 32.0208153,32.0208153 C28.9444204,35.0972102 24.6944204,37 20,37 C15.3055796,37 11.0555796,35.0972102 7.97918472,32.0208153 C4.90278981,28.9444204 3,24.6944204 3,20 C3,15.3055796 4.90278981,11.0555796 7.97918472,7.97918472 C11.0555796,4.90278981 15.3055796,3 20,3 Z" stroke-linejoin="square"></path>
                    </g>
                    <path d="M17.2559223,27.6011003 C16.3354477,27.6011003 15.5892557,26.8549082 15.5892557,25.9344336 C15.5892557,25.013959 16.3354477,24.267767 17.2559223,24.267767 L22.2552557,24.267767 L22.2559223,10.9344336 C22.2559223,10.6276088 22.3388325,10.3401486 22.4834712,10.093235 C22.6281098,9.84632146 22.8344768,9.63995444 23.0813904,9.49531581 C23.328304,9.35067718 23.6157641,9.26776695 23.922589,9.26776695 C24.2294138,9.26776695 24.516874,9.35067718 24.7637876,9.49531581 C25.0107011,9.63995444 25.2170682,9.84632146 25.3617068,10.093235 C25.5063454,10.3401486 25.5892557,10.6276088 25.5892557,10.9344336 L25.5892557,25.9344336 L25.5892557,25.9344336 C25.5892557,25.9870322 25.5868191,26.0390616 25.5820527,26.0904153 L25.5892557,25.9344336 C25.5892557,26.0139292 25.58369,26.0921248 25.5729272,26.1686521 C25.5686744,26.1988554 25.5636648,26.228531 25.5578823,26.2579292 C25.5538149,26.2786377 25.5492601,26.2996468 25.5443133,26.3205043 C25.5358486,26.3561765 25.5262918,26.3912291 25.5156404,26.4258019 C25.5107164,26.4417853 25.5055528,26.4576825 25.5001588,26.473473 C25.4662284,26.5727977 25.4231893,26.6678841 25.3720339,26.7577494 C25.3685235,26.7639135 25.3651324,26.7697842 25.3617068,26.7756322 L25.3446981,26.8040177 C25.3262972,26.8340461 25.3069719,26.8634468 25.2867618,26.8921802 L25.3617068,26.7756322 C25.3282115,26.8328122 25.2914059,26.8878177 25.2515528,26.9403857 C25.2306572,26.9679565 25.2087618,26.9950447 25.186055,27.0214143 C25.1753584,27.0338391 25.1643555,27.0462425 25.1531726,27.0584785 C25.1189414,27.0959261 25.0831425,27.1316971 25.0457867,27.165791 C25.0368478,27.1739466 25.0280268,27.1818254 25.0191222,27.189611 C24.9865676,27.2180893 24.9525442,27.2455831 24.9174568,27.2717286 C24.9099684,27.2773068 24.9026518,27.282665 24.8952902,27.2879647 C24.8562866,27.3160518 24.8158206,27.3426134 24.7741822,27.3674117 C24.7706863,27.3694935 24.7672409,27.3715285 24.7637876,27.3735514 C24.6646326,27.4311219 24.565445,27.4765386 24.461643,27.5119984 C24.4462813,27.5172468 24.4307565,27.5222963 24.4151335,27.5271222 C24.3768497,27.5389434 24.3381585,27.5493802 24.2989378,27.5584327 C24.2871229,27.5611633 24.2747986,27.563864 24.2624241,27.5664276 C24.2170443,27.5758193 24.1713177,27.5833257 24.1250057,27.5889328 C24.1151282,27.5901318 24.1047263,27.5912954 24.0942959,27.5923629 C24.084656,27.5933465 24.0755362,27.5942014 24.0663954,27.5949826 L23.922589,27.6011003 L23.922589,27.6011003 L17.2559223,27.6011003 Z" id="形状结合" fill="url(#linearGradient-4)" fill-rule="nonzero" transform="translate(20.589256, 18.434434) rotate(-315.000000) translate(-20.589256, -18.434434) "></path>
                </g>
            </g>
        </g>
    </g>
</svg>