<?xml version="1.0" encoding="UTF-8"?>
<svg width="40px" height="40px" viewBox="0 0 40 40" version="1.1" xmlns="http://www.w3.org/2000/svg" xmlns:xlink="http://www.w3.org/1999/xlink">
    <title>拒绝</title>
    <defs>
        <linearGradient x1="100%" y1="50%" x2="0%" y2="50%" id="linearGradient-1">
            <stop stop-color="#F8F0DE" offset="0%"></stop>
            <stop stop-color="#EEDDBA" offset="100%"></stop>
        </linearGradient>
        <path d="M20,2.5 C29.6649831,2.5 37.5,10.3350169 37.5,20 C37.5,29.6649831 29.6649831,37.5 20,37.5 C10.3350169,37.5 2.5,29.6649831 2.5,20 C2.5,10.3350169 10.3350169,2.5 20,2.5 Z" id="path-2"></path>
        <filter x="-0.7%" y="-0.7%" width="101.4%" height="101.4%" filterUnits="objectBoundingBox" id="filter-3">
            <feOffset dx="0" dy="0.5" in="SourceAlpha" result="shadowOffsetInner1"></feOffset>
            <feComposite in="shadowOffsetInner1" in2="SourceAlpha" operator="arithmetic" k2="-1" k3="1" result="shadowInnerInner1"></feComposite>
            <feColorMatrix values="0 0 0 0 0.0980392157   0 0 0 0 0.121568627   0 0 0 0 0.141176471  0 0 0 0.0751748252 0" type="matrix" in="shadowInnerInner1"></feColorMatrix>
        </filter>
        <linearGradient x1="100%" y1="50%" x2="0%" y2="50%" id="linearGradient-4">
            <stop stop-color="#FFF9EA" offset="0%"></stop>
            <stop stop-color="#EDDCB7" offset="100%"></stop>
        </linearGradient>
    </defs>
    <g id="邀请函" stroke="none" stroke-width="1" fill="none" fill-rule="evenodd">
        <g id="邀请函（外部人员）备份-5" transform="translate(-187.000000, -538.000000)">
            <g id="编组-4备份" transform="translate(153.000000, 538.000000)">
                <g id="Safe" transform="translate(34.000000, 0.000000)">
                    <g id="路径">
                        <use fill="black" fill-opacity="1" filter="url(#filter-3)" xlink:href="#path-2"></use>
                        <path stroke="url(#linearGradient-1)" stroke-width="1" d="M20,3 C24.6944204,3 28.9444204,4.90278981 32.0208153,7.97918472 C35.0972102,11.0555796 37,15.3055796 37,20 C37,24.6944204 35.0972102,28.9444204 32.0208153,32.0208153 C28.9444204,35.0972102 24.6944204,37 20,37 C15.3055796,37 11.0555796,35.0972102 7.97918472,32.0208153 C4.90278981,28.9444204 3,24.6944204 3,20 C3,15.3055796 4.90278981,11.0555796 7.97918472,7.97918472 C11.0555796,4.90278981 15.3055796,3 20,3 Z" stroke-linejoin="square"></path>
                    </g>
                    <path d="M26.4280904,13.3096441 C26.6450484,13.526602 26.789687,13.7884934 26.8620063,14.0653626 C26.9343256,14.3422318 26.9343256,14.6340789 26.8620063,14.9109481 C26.789687,15.1878173 26.6450484,15.4497087 26.4280904,15.6666667 L22.3030652,19.7912205 L26.4280904,23.9162458 C26.6450484,24.1332037 26.789687,24.3950951 26.8620063,24.6719643 C26.9343256,24.9488336 26.9343256,25.2406806 26.8620063,25.5175498 C26.789687,25.794419 26.6450484,26.0563104 26.4280904,26.2732684 C26.2111325,26.4902263 25.9492411,26.634865 25.6723719,26.7071843 C25.3955026,26.7795036 25.1036556,26.7795036 24.8267864,26.7071843 C24.5499172,26.634865 24.2880258,26.4902263 24.0710678,26.2732684 L19.9462783,22.1480074 L15.8214887,26.2732684 C15.6045308,26.4902263 15.3426394,26.634865 15.0657701,26.7071843 C14.7889009,26.7795036 14.4970539,26.7795036 14.2201847,26.7071843 C13.9433154,26.634865 13.681424,26.4902263 13.4644661,26.2732684 C13.2475082,26.0563104 13.1028695,25.794419 13.0305502,25.5175498 C12.9582309,25.2406806 12.9582309,24.9488336 13.0305502,24.6719643 C13.1028695,24.3950951 13.2475082,24.1332037 13.4644661,23.9162458 L17.5894914,19.7912205 L13.4644661,15.6666667 C13.2475082,15.4497087 13.1028695,15.1878173 13.0305502,14.9109481 C12.9582309,14.6340789 12.9582309,14.3422318 13.0305502,14.0653626 C13.1028695,13.7884934 13.2475082,13.526602 13.4644661,13.3096441 C13.681424,13.0926861 13.9433154,12.9480475 14.2201847,12.8757282 C14.4970539,12.8034089 14.7889009,12.8034089 15.0657701,12.8757282 C15.3426394,12.9480475 15.6045308,13.0926861 15.8214887,13.3096441 L19.9462783,17.4344336 L24.0710678,13.3096441 C24.2880258,13.0926861 24.5499172,12.9480475 24.8267864,12.8757282 C25.1036556,12.8034089 25.3955026,12.8034089 25.6723719,12.8757282 C25.9492411,12.9480475 26.2111325,13.0926861 26.4280904,13.3096441 Z" id="路径" fill="url(#linearGradient-4)" fill-rule="nonzero"></path>
                </g>
            </g>
        </g>
    </g>
</svg>