<?xml version="1.0" encoding="UTF-8"?>
<svg width="20px" height="20px" viewBox="0 0 20 20" version="1.1" xmlns="http://www.w3.org/2000/svg" xmlns:xlink="http://www.w3.org/1999/xlink">
    <title>Icon/System/more</title>
    <g id="资源组" stroke="none" stroke-width="1" fill="none" fill-rule="evenodd">
        <g id="车辆分配" transform="translate(-329.000000, -224.000000)" fill="#191F24">
            <g id="Icon/System/more" transform="translate(329.000000, 224.000000)">
                <path d="M16.6666667,8.33333333 C17.5871412,8.33333333 18.3333333,9.07952542 18.3333333,10 C18.3333333,10.9204746 17.5871412,11.6666667 16.6666667,11.6666667 C15.7461921,11.6666667 15,10.9204746 15,10 C15,9.07952542 15.7461921,8.33333333 16.6666667,8.33333333 Z M10,8.33333333 C10.9204746,8.33333333 11.6666667,9.07952542 11.6666667,10 C11.6666667,10.9204746 10.9204746,11.6666667 10,11.6666667 C9.07952542,11.6666667 8.33333333,10.9204746 8.33333333,10 C8.33333333,9.07952542 9.07952542,8.33333333 10,8.33333333 Z M3.33333333,8.33333333 C4.25380792,8.33333333 5,9.07952542 5,10 C5,10.9204746 4.25380792,11.6666667 3.33333333,11.6666667 C2.41285875,11.6666667 1.66666667,10.9204746 1.66666667,10 C1.66666667,9.07952542 2.41285875,8.33333333 3.33333333,8.33333333 Z" id="Combined-Shape"></path>
            </g>
        </g>
    </g>
</svg>