<?xml version="1.0" encoding="UTF-8"?>
<svg width="56px" height="56px" viewBox="0 0 56 56" version="1.1" xmlns="http://www.w3.org/2000/svg" xmlns:xlink="http://www.w3.org/1999/xlink">
    <title>编组 14</title>
    <defs>
        <path d="M10.2555408,-3.51363273e-15 L45.7444592,-4.68828315e-15 C49.3105342,-2.89291511e-15 50.6036791,0.371302445 51.9073828,1.06853082 C53.2110865,1.76575919 54.2342408,2.78891348 54.9314692,4.09261719 C55.6286976,5.39632089 56,6.68946584 56,10.2555408 L56,45.7444592 C56,49.3105342 55.6286976,50.6036791 54.9314692,51.9073828 C54.2342408,53.2110865 53.2110865,54.2342408 51.9073828,54.9314692 C50.6036791,55.6286976 49.3105342,56 45.7444592,56 L10.2555408,56 C6.68946584,56 5.39632089,55.6286976 4.09261719,54.9314692 C2.78891348,54.2342408 1.76575919,53.2110865 1.06853082,51.9073828 C0.371302445,50.6036791 1.06103393e-15,49.3105342 -1.82612968e-15,45.7444592 L7.29641152e-16,10.2555408 C-4.23942521e-16,6.68946584 0.371302445,5.39632089 1.06853082,4.09261719 C1.76575919,2.78891348 2.78891348,1.76575919 4.09261719,1.06853082 C5.39632089,0.371302445 6.68946584,-3.57542083e-15 10.2555408,-3.51363273e-15 Z" id="path-1"></path>
    </defs>
    <g id="会议工作台" stroke="none" stroke-width="1" fill="none" fill-rule="evenodd">
        <g id="参会人报名成功备份-6" transform="translate(-194.000000, -467.000000)">
            <g id="编组-7" transform="translate(12.000000, 353.000000)">
                <g id="形状" transform="translate(182.000000, 114.000000)">
                    <g id="编组-14" transform="translate(0.000000, -0.000000)">
                        <mask id="mask-2" fill="white">
                            <use xlink:href="#path-1"></use>
                        </mask>
                        <g id="蒙版备份"></g>
                        <path d="M33.2258444,49.1714286 C33.2258444,44.9428571 36.6156555,41.5142857 40.7964225,41.5142857 L46.7568404,41.5142857 C47.5195479,41.5142857 48.1410133,40.8857143 48.1410133,40.1142857 L48.1410133,24.9714286 C48.1410133,23.6285714 47.0675731,22.5428571 45.7398971,22.5428571 L32.8868633,22.5428571 L32.8868633,20.4285714 C32.8868633,19.0857143 31.8134231,18 30.4857471,18 L25.6835147,18 C24.3558386,18 23.2823984,19.0857143 23.2823984,20.4285714 L23.2823984,22.5428571 L10.4011162,22.5428571 C9.07344019,22.5428571 8,23.6285714 8,24.9714286 L8,53.6 C8,54.9428571 9.07344019,56.0285714 10.4011162,56.0285714 L31.7569262,56.0285714 C32.5761306,56.0285714 33.2258444,55.3714286 33.2258444,54.5428571 L33.2258444,49.1714286 L33.2258444,49.1714286 Z M29.3275616,49.2 C29.3275616,49.9142857 28.7625931,50.4857143 28.0563824,50.4857143 L14.1581569,50.4857143 C13.4519462,50.4857143 12.8869777,49.9142857 12.8869777,49.2 L12.8869777,45.2857143 C12.8869777,42.1428571 14.6101317,39.4 17.1807384,38 C15.9095593,36.8571429 15.1186033,35.2285714 15.1468518,33.3714286 C15.2033486,30.2571429 17.6892101,27.6285714 20.7682885,27.4571429 C24.1863481,27.2571429 27.0676875,30.0571429 27.0676875,33.4857143 C27.0676875,35.2857143 26.2767316,36.8857143 25.0338009,38 C27.5761592,39.4285714 29.3275616,42.1714286 29.3275616,45.2857143 L29.3275616,49.2 L29.3275616,49.2 Z M30.1750144,22.6285714 C30.1750144,23.6 29.3840585,24.4 28.423612,24.4 L27.7738982,24.4 C26.8134517,24.4 26.0224958,23.6 26.0224958,22.6285714 L26.0224958,21.2571429 C26.0224958,21 26.2484832,20.7714286 26.502719,20.7714286 L29.6947911,20.7714286 C29.949027,20.7714286 30.1750144,21 30.1750144,21.2571429 L30.1750144,22.6285714 Z M30.4010018,31.0285714 C30.5422439,30.4285714 31.1354609,30 31.7569262,30 L41.0789068,30 C41.8416143,30 42.4348313,30.6285714 42.4348313,31.3714286 C42.4348313,32.1142857 41.8416143,32.7428571 41.0789068,32.7428571 L31.7286778,32.7428571 C30.8247282,32.7428571 30.1750144,31.9142857 30.4010018,31.0285714 L30.4010018,31.0285714 Z M47.7172869,51.9142857 C48.4234976,51.9142857 48.9884661,52.5142857 48.9884661,53.2285714 C48.9884661,53.9428571 48.4234976,54.5142857 47.7172869,54.5142857 L47.7172869,54.5142857 L40.1749572,54.5142857 L41.4461363,55.8 C41.954608,56.3142857 41.954608,57.1142857 41.4461363,57.6285714 C41.1919005,57.8857143 40.8811678,58 40.5421867,58 C40.2032056,58 39.8924729,57.8857143 39.6382371,57.6285714 L39.6382371,57.6285714 L36.1636807,54.1142857 C35.7964512,53.7428571 35.6834574,53.2 35.8811964,52.7142857 C36.0789354,52.2285714 36.5591587,51.9142857 37.0676303,51.9142857 L37.0676303,51.9142857 Z M43.3387809,43.3428571 C43.8472526,42.8285714 44.6382085,42.8285714 45.1466801,43.3428571 L45.1466801,43.3428571 L48.6212365,46.8571429 C48.9884661,47.2285714 49.1014598,47.7714286 48.9037208,48.2571429 C48.7059818,48.7428571 48.2257586,49.0571429 47.7172869,49.0571429 L47.7172869,49.0571429 L37.0676303,49.0571429 C36.3614197,49.0571429 35.7964512,48.4571429 35.7964512,47.7428571 C35.7964512,47.0285714 36.3614197,46.4571429 37.0676303,46.4571429 L37.0676303,46.4571429 L44.6099601,46.4571429 L43.3387809,45.1714286 C42.8303092,44.6571429 42.8303092,43.8571429 43.3387809,43.3428571 Z M21.0790212,39.5428571 C24.2145965,39.5428571 26.7569548,42.1142857 26.7569548,45.2857143 L26.7569548,45.2857143 L26.7569548,47.8857143 L15.429336,47.8857143 L15.4010876,45.2857143 C15.4010876,42.1142857 17.9434459,39.5428571 21.0790212,39.5428571 Z M41.0506584,36.6571429 C41.8133659,36.6571429 42.4065828,37.2857143 42.4065828,38.0285714 C42.4348313,38.8 41.8133659,39.4 41.0506584,39.4 L33.2258444,39.4 C32.4631369,39.4 31.8699199,38.7714286 31.8699199,38.0285714 C31.8699199,37.2571429 32.4913853,36.6571429 33.2258444,36.6571429 L41.0506584,36.6571429 Z M19.4123524,30.5164502 C20.4611695,29.9039857 21.7533698,29.9039857 22.8021869,30.5164502 C23.8510041,31.1289146 24.4970808,32.2607939 24.4970808,33.4857143 C24.4970808,34.7106346 23.8510041,35.842514 22.8021869,36.4549784 C21.7533698,37.0674428 20.4611695,37.0674428 19.4123524,36.4549784 C18.3635352,35.842514 17.7174585,34.7106346 17.7174585,33.4857143 C17.7174585,32.2607939 18.3635352,31.1289146 19.4123524,30.5164502 Z" id="形状" fill="#95DB95" fill-rule="nonzero" mask="url(#mask-2)"></path>
                    </g>
                </g>
            </g>
        </g>
    </g>
</svg>