<?xml version="1.0" encoding="UTF-8"?>
<svg width="24px" height="24px" viewBox="0 0 24 24" version="1.1" xmlns="http://www.w3.org/2000/svg" xmlns:xlink="http://www.w3.org/1999/xlink">
    <title>住宿备份 2</title>
    <g id="会议工作台" stroke="none" stroke-width="1" fill="none" fill-rule="evenodd">
        <g id="参会人报名成功" transform="translate(-133.000000, -211.000000)" fill="#F8B700">
            <g id="编组备份-2" transform="translate(16.000000, 195.000000)">
                <g id="占位/24x24备份-3" transform="translate(117.000000, 16.000000)">
                    <path d="M4.00146253,22 C3.44927874,22 3.00164534,21.5522847 3.00164534,21 L3.00164534,21 L3.00164534,12 L2.00182816,12 C1.12369141,12 0.688865857,10.9620225 1.2536092,10.3359169 L1.2536092,10.3359169 L1.33298572,10.2567059 L11.3311576,1.25670585 C11.711393,0.914431382 12.288607,0.914431382 12.6688424,1.25670585 L12.6688424,1.25670585 L22.6670143,10.2567059 C23.348107,10.8698014 22.9144884,12 21.9981718,12 L21.9981718,12 L20.9983547,12 L20.9983547,21 C20.9983547,21.5128358 20.612385,21.9355072 20.1151373,21.9932723 L20.1151373,21.9932723 L19.9985375,22 Z M12,3.345 L4.99455321,9.6497757 L5.00127971,20 L8,20 L8.00073126,15.1666667 C8.00073126,14.5652899 8.45574261,14.0701868 9.04027674,14.0068458 L9.16739793,14 L14.8326021,14 C15.4769343,14 15.9992687,14.5223345 15.9992687,15.1666667 L15.9992687,15.1666667 L15.999,20 L18.9987203,20 L18.9987203,9.6497757 L12,3.345 Z M13.9996344,16 L10.0003656,16 L10.0003656,20 L13.9996344,20 L13.9996344,16 Z" id="形状结合"></path>
                </g>
            </g>
        </g>
    </g>
</svg>