<?xml version="1.0" encoding="utf-8"?>
<!DOCTYPE svg PUBLIC "-//W3C//DTD SVG 1.1//EN" "http://www.w3.org/Graphics/SVG/1.1/DTD/svg11.dtd">
<svg version="1.1" id="图层_1" xmlns="http://www.w3.org/2000/svg" xmlns:xlink="http://www.w3.org/1999/xlink" x="0px" y="0px"
	 width="255.38px" height="64px" viewBox="0 0 255.38 64" enable-background="new 0 0 255.38 64" xml:space="preserve">
<g>
	<path fill="#0080CC" d="M52.604,7.524C47.037,2.832,39.851,0,32,0C14.327,0,0,14.327,0,32s14.327,32,32,32s32-14.327,32-32
		c0-6.657-2.036-12.837-5.515-17.957C59.976,8.168,61.867,2.83,64,0C62.805,1.313,58.375,4.166,52.604,7.524z M60.937,29.438
		c0,14.261-11.561,25.821-25.82,25.821c-14.261,0-25.821-11.56-25.821-25.821c0-14.261,11.56-25.821,25.821-25.821
		c5.775,0,11.101,1.905,15.401,5.111c-13.689,7.82-33.143,17.623-36.858,17.623l13.005,3.313l8.403-7.803
		C36.9,21.283,52.569,11.029,55.142,9.25C55.605,8.928,57.9,7.359,57.9,7.359l-2.096,2.817L37.873,32.518l17.151,4.369
		c0-4.251,1.026-12.213,2.743-19.841C59.786,20.724,60.937,24.946,60.937,29.438z"/>
	<path fill="#0080CC" d="M26.486,41.088l-2.816,6.99h1.778l0.566-1.602h2.796l0.576,1.602h1.788l-2.762-6.99H26.486z M26.372,45.325
		l0.879-2.441c0.07-0.189,0.114-0.386,0.134-0.591h0.044c0.023,0.253,0.063,0.456,0.12,0.609l0.874,2.423H26.372z"/>
	<path fill="#0080CC" d="M34.488,46.012c-0.087,0.249-0.143,0.485-0.169,0.708h-0.03c-0.02-0.217-0.071-0.446-0.154-0.69
		l-1.664-4.941h-1.768l2.638,6.99h1.853l2.672-6.99h-1.714L34.488,46.012z"/>
	<rect x="38.804" y="41.088" fill="#0080CC" width="1.64" height="6.99"/>
	<path fill="#0080CC" d="M42.879,42.024c-0.76,0.702-1.14,1.605-1.14,2.71c0,1.05,0.34,1.89,1.021,2.521
		c0.681,0.63,1.601,0.945,2.76,0.945c0.9,0,1.63-0.125,2.19-0.375v-1.367c-0.563,0.301-1.188,0.451-1.873,0.451
		c-0.729,0-1.307-0.209-1.733-0.627s-0.641-0.971-0.641-1.656c0-0.704,0.225-1.274,0.676-1.71c0.45-0.437,1.051-0.654,1.803-0.654
		c0.659,0,1.248,0.138,1.769,0.415v-1.439c-0.507-0.178-1.137-0.267-1.888-0.267C44.62,40.971,43.639,41.322,42.879,42.024z"/>
	<path fill="#0080CC" d="M36.932,31.811l17.789-21.417c-1.521,1.043-3.405,2.308-5.741,3.846
		c-6.946,4.579-11.215,7.176-12.726,7.744L23.549,34.351h11.218L36.932,31.811z"/>
	<path fill="#0080CC" d="M74.408,28.588l1.802,3.359c1.242-0.222,2.293-0.361,3.154-0.417c5.727-0.314,10.492-0.537,14.297-0.666
		c0.48,0.647,0.941,1.268,1.382,1.86l3.664-2.054c-2.202-2.666-4.255-5.062-6.157-7.191h7.479v-3.498H72.456v3.498h7.419
		C78.072,25.665,76.25,27.367,74.408,28.588z M85.101,23.48h6.338l-2.583,1.444c0.721,0.87,1.401,1.703,2.043,2.499
		c-4.186,0.167-7.439,0.25-9.762,0.25C82.738,26.099,84.06,24.702,85.101,23.48z"/>
	<path fill="#0080CC" d="M78.163,15.596v2.054h16.099v-1.888c1.302,0.814,2.703,1.592,4.205,2.332
		c0.741-0.981,1.643-2.073,2.703-3.276c-5.747-2.462-9.911-5.442-12.494-8.94l0.841-0.944h-5.166
		c-2.163,3.35-6.528,6.626-13.096,9.828c1.221,1.425,2.122,2.517,2.703,3.276C75.46,17.225,76.861,16.41,78.163,15.596z
		 M86.212,8.933c1.582,1.888,3.505,3.646,5.768,5.275H80.205C82.788,12.412,84.791,10.654,86.212,8.933z"/>
	<path fill="#0080CC" d="M103.693,19.732c5.025-0.676,9.477-1.647,13.351-2.916c3.675,1.259,8.075,2.11,13.201,2.554
		c0.46-1.092,1.001-2.323,1.622-3.692c-3.465-0.064-6.618-0.389-9.462-0.972c2.704-1.295,5.017-2.785,6.938-4.47V7.239h-15.648
		c0.65-0.758,1.262-1.545,1.832-2.36h-4.535c-1.902,2.536-4.796,4.831-8.681,6.885c0.941,1.018,1.752,1.953,2.433,2.804
		c1.322-0.759,2.568-1.578,3.74-2.457c1.081,0.953,2.327,1.823,3.739,2.61c-3.034,0.703-6.418,1.217-10.152,1.541
		C102.732,17.594,103.272,18.751,103.693,19.732z M111.638,10.321h11.699c-1.742,1.129-3.77,2.105-6.082,2.929
		C115.152,12.463,113.279,11.487,111.638,10.321z"/>
	<path fill="#0080CC" d="M115.918,24.285h8.771c-0.07,1.333-0.163,2.217-0.278,2.651c-0.115,0.435-0.412,0.773-0.894,1.014
		c-0.48,0.241-1.151,0.361-2.012,0.361c-1.652,0-3.585-0.083-5.797-0.25c0.46,1.407,0.78,2.656,0.961,3.748
		c1.111,0.046,2.167,0.069,3.169,0.069c2.894,0,4.836-0.165,5.827-0.493c0.991-0.329,1.771-0.835,2.343-1.52
		c0.57-0.685,0.905-1.555,1.006-2.61l0.511-6.33h-12.69c0.17-0.851,0.306-1.721,0.405-2.609h-4.295
		c-0.12,0.925-0.275,1.795-0.466,2.609h-9.386v3.359h8.109c-1.502,2.24-4.556,3.869-9.161,4.886
		c1.102,1.147,2.043,2.212,2.823,3.193C110.701,30.883,114.386,28.191,115.918,24.285z"/>
	<path fill="#0080CC" d="M133.729,12.431v3.998h4.085v-1.166h19.943v1.166h4.085v-3.998h-4.896l2.103-1.416
		c-0.521-0.537-1.052-1.073-1.592-1.61h4.505V6.767h-6.938c0.301-0.611,0.571-1.25,0.812-1.916h-4.175
		c-0.922,2.018-2.103,3.757-3.545,5.219c1.542,0.944,2.604,1.62,3.185,2.027c0.82-0.833,1.562-1.73,2.223-2.693h1.352l-0.932,0.667
		c0.621,0.611,1.342,1.397,2.163,2.36h-6.908c-0.221-0.685-0.441-1.351-0.661-1.999l-3.395,0.527c0.181,0.5,0.36,0.991,0.541,1.472
		h-2.913l1.742-1.194c-0.581-0.611-1.172-1.222-1.772-1.833h5.767V6.767h-7.749c0.36-0.611,0.7-1.25,1.021-1.916h-4.146
		c-0.981,1.888-2.563,3.572-4.745,5.053c1.141,1.129,1.941,1.971,2.402,2.526H133.729z M138.775,9.404h1.982l-1.231,0.889
		c0.721,0.796,1.352,1.508,1.893,2.138h-6.067C136.633,11.542,137.774,10.534,138.775,9.404z"/>
	<path fill="#0080CC" d="M140.638,31.448h15.258v0.888h3.905v-7.579h-19.163v-1.222h18.202v-6.607h-22.287v15.408h4.085V31.448z
		 M140.638,19.482h14.297v1.499h-14.297V19.482z M140.638,27.312h15.258v1.61h-15.258V27.312z"/>
	<path fill="#0080CC" d="M163.495,26.839l0.841,3.942c3.044-0.907,5.887-1.698,8.53-2.374v2.929h20.604v-3.165h-8.17v-2.415h6.849
		v-3.165h-6.849v-1.999h6.698V6.184h-17.24v14.409h6.697v1.999h-6.848v3.165h6.848v2.415h-7.448
		c-0.061-1.221-0.051-2.489,0.029-3.803c-1.011,0.277-2.052,0.551-3.123,0.819V19.26h2.793v-3.442h-2.793V9.987h3.003V6.489h-9.852
		v3.498h3.004v5.831h-2.884v3.442h2.884v6.83L163.495,26.839z M185.301,9.293h2.943v2.637h-2.943V9.293z M185.301,14.818h2.943
		v2.665h-2.943V14.818z M178.513,9.293h2.943v2.637h-2.943V9.293z M178.513,17.483v-2.665h2.943v2.665H178.513z"/>
	<path fill="#0080CC" d="M214.105,25.868c2.684,1.87,5.096,3.655,7.238,5.358l2.764-2.666c-2.764-2.017-5.256-3.729-7.479-5.136
		L214.105,25.868z"/>
	<path fill="#0080CC" d="M204.434,26.173l-3.033-2.471c-2.163,1.907-4.535,3.535-7.118,4.886c0.9,0.889,1.812,1.879,2.732,2.971
		C199.698,29.93,202.171,28.135,204.434,26.173z"/>
	<path fill="#0080CC" d="M203.833,9.835c-2.362,1.295-4.636,2.318-6.818,3.067l1.111,3.387c2.163-0.287,5.231-0.542,9.206-0.763
		c-3.935,1.86-7.594,3.382-10.978,4.567l1.051,3.442c2.383-0.259,5.817-0.495,10.303-0.708v4.484c0,0.463-0.13,0.777-0.391,0.944
		s-0.796,0.25-1.606,0.25c-1.111,0-2.158-0.037-3.14-0.111c0.341,1.166,0.602,2.425,0.781,3.776c2.022,0,3.64-0.021,4.851-0.063
		c1.212-0.042,2.112-0.308,2.703-0.798c0.591-0.49,0.887-1.203,0.887-2.138v-6.524l7.254-0.264c0.66,0.648,1.346,1.337,2.057,2.068
		l2.854-2.415c-3.344-3.109-5.787-5.284-7.328-6.524l-2.794,2.082c0.691,0.574,1.422,1.213,2.193,1.916
		c-4.376,0.287-8.721,0.518-13.036,0.694c6.327-2.202,12.295-4.738,17.901-7.607l-2.823-2.61c-1.562,0.87-3.089,1.694-4.58,2.471
		l-9.928,0.417c2.333-1.055,4.541-2.166,6.623-3.332c4.396-0.222,8.605-0.509,12.631-0.861l-0.602-3.054
		c-7.989,0.759-16.89,1.12-26.701,1.083c0.3,1.166,0.521,2.276,0.66,3.332L203.833,9.835z"/>
	<path fill="#0080CC" d="M251.38,23.73c-0.149,2.092-0.3,3.364-0.45,3.817c-0.15,0.454-0.461,0.68-0.932,0.68h-0.27
		c-0.521,0-0.781-0.361-0.781-1.083v-7.996l1.457-0.07c0.37,0.574,0.726,1.143,1.066,1.708l3.273-1.832
		c-1.521-2.24-3.344-4.655-5.467-7.246l-3.003,1.582c0.761,0.981,1.481,1.948,2.162,2.901c-3.033,0.167-5.807,0.292-8.319,0.375
		c1.712-1.833,3.224-3.692,4.535-5.581h9.611V7.822h-7.554c-0.491-1.045-1.007-2.073-1.547-3.082l-4.476,0.75
		c0.42,0.814,0.796,1.592,1.126,2.332h-6.652v3.165h5.076c-1.843,2.999-3.555,4.96-5.137,5.886l1.081,3.387
		c0.671-0.129,1.567-0.254,2.688-0.375c-0.09,4.026-1.227,6.709-3.409,8.051c0.01-0.796,0.04-1.541,0.09-2.235
		c-4.846,0.537-8.26,0.87-10.242,1l0.331,3.692c2.362-0.333,4.886-0.625,7.568-0.875c1.142,1.055,2.133,2.022,2.974,2.901
		c1.752-0.814,3.244-2.149,4.476-4.005s1.902-4.814,2.013-8.877l2.433-0.167v8.856c0.021,2.351,1.182,3.526,3.484,3.526h1.772
		c1.461,0,2.53-0.398,3.206-1.194s1.148-2.609,1.419-5.441C253.783,24.748,252.582,24.285,251.38,23.73z"/>
	<path fill="#0080CC" d="M229.965,16.456c-1.652,2.286-3.054,3.961-4.205,5.025l0.931,3.082c2.223-0.37,4.956-0.629,8.2-0.777
		c-0.021-0.962,0.05-2.018,0.21-3.165l-4.445,0.472c1.942-2.554,3.955-5.349,6.037-8.385l-3.123-1.555l-1.367,2.096
		c-1.062,0.056-2.008,0.088-2.838,0.097c1.701-2.239,3.283-4.627,4.745-7.163l-3.935-1.444c-1.542,3.554-3.264,6.534-5.166,8.939
		l1.081,3.137C227.111,16.678,228.402,16.558,229.965,16.456z"/>
	<path fill="#0080CC" d="M80.613,44.349h-2.116c0.229-0.54,0.441-1.074,0.64-1.604l-2.192-0.124
		c-0.117,0.618-0.249,1.194-0.396,1.729h-1.294c0,3.168-0.003,4.907-0.008,5.219h-0.692v1.745h0.662
		c-0.046,2.098-0.313,3.759-0.8,4.984c0.508,0.561,1,1.184,1.477,1.869c0.7-1.475,1.066-3.447,1.097-5.919
		c0.396,1.049,0.675,1.905,0.837,2.57l1.005-0.358c-0.213-0.696-0.533-1.563-0.959-2.602l-0.883,0.358l0.015-0.903h1.842v3.816
		c0,0.29-0.095,0.494-0.285,0.611c-0.19,0.116-0.399,0.167-0.628,0.151l-0.853-0.063l0.396,2.025c0.563,0,1.112-0.031,1.647-0.094
		c0.535-0.062,0.917-0.262,1.146-0.6c0.229-0.337,0.343-0.802,0.343-1.394V44.349z M78.847,49.567h-1.826V46h1.826V49.567z"/>
	<path fill="#0080CC" d="M78.786,48.742c-0.111-0.405-0.391-1.138-0.837-2.196l-0.883,0.357c0.294,0.79,0.537,1.527,0.73,2.212
		L78.786,48.742z"/>
	<path fill="#0080CC" d="M81.039,46.623h8.129v-1.869h-4.057l0.951-0.312c-0.325-0.623-0.66-1.241-1.005-1.854l-2.04,0.607
		c0.32,0.54,0.611,1.06,0.876,1.558h-2.854V46.623z"/>
	<path fill="#0080CC" d="M88.129,55.437c-0.063,0.241-0.185,0.362-0.361,0.362c-0.214,0-0.32-0.161-0.32-0.483v-7.29h-5.586V50.3
		c0,2.731-0.416,4.735-1.248,6.013c0.588,0.654,1.121,1.267,1.598,1.838c1.065-1.869,1.599-4.372,1.599-7.508v-0.748h1.689v6.013
		c0,1.215,0.477,1.823,1.431,1.823h0.853c0.467,0,0.832-0.098,1.097-0.293c0.264-0.194,0.438-0.552,0.521-1.07
		c0.084-0.52,0.169-1.722,0.256-3.606c-0.325-0.114-0.782-0.307-1.37-0.576C88.244,54.111,88.192,55.194,88.129,55.437z"/>
	<path fill="#0080CC" d="M98.728,52.636h4.049v-1.993h-9.658c1.31-0.748,2.555-1.573,3.737-2.478l-1.416-1.511
		c-1.451,1.205-3.242,2.254-5.373,3.146c0.365,0.562,0.726,1.189,1.081,1.885c0.451-0.223,0.897-0.454,1.339-0.692v1.643h4.049
		v2.727h-6.286v1.994h14.766v-1.994h-6.287V52.636z"/>
	<path fill="#0080CC" d="M98.393,48.259c2.029,0.986,3.953,2.046,5.77,3.178l1.035-1.885c-1.705-0.976-3.593-1.957-5.663-2.944
		L98.393,48.259z"/>
	<path fill="#0080CC" d="M104.862,47.776v-3.489h-5.929c-0.147-0.53-0.313-1.075-0.495-1.636l-2.299,0.28
		c0.152,0.478,0.289,0.93,0.411,1.355h-6.104v3.489h2.132v-1.527h10.153v1.527H104.862z"/>
	<polygon fill="#0080CC" points="114.437,46.094 119.855,46.094 119.855,43.882 106.643,43.882 106.643,46.094 111.939,46.094 
		111.939,55.02 105.82,55.02 105.82,57.231 120.632,57.231 120.632,55.02 114.437,55.02 	"/>
	<path fill="#0080CC" d="M133.586,52.854c1.076-2.306,1.999-4.445,2.771-6.418l-1.964-0.856c-0.786,2.196-1.593,4.136-2.42,5.817
		v-8.419h-2.192v12.243h-1.948V42.979h-2.223v8.209c-0.705-1.869-1.496-3.812-2.374-5.826l-1.827,0.857
		c0.832,2.024,1.664,4.247,2.497,6.667l1.704-0.748v3.084h-4.292v2.135h15.039v-2.135h-4.384v-3.139L133.586,52.854z"/>
	<path fill="#0080CC" d="M148.93,46.125h-2.466c-0.193,0.26-0.479,0.623-0.86,1.09h-2.42l-0.8-1.09h-2.481l0.868,1.09h-3.014v10.749
		h2.009v-6.036c0.391,0.519,0.594,0.792,0.609,0.817l0.974-0.709v4.417h1.857v-0.748h4.277v-3.863l1.111,0.794l0.487-0.631v2.813
		c0,0.872-0.462,1.309-1.386,1.309c-0.548,0-1.111-0.031-1.689-0.094c0.122,0.467,0.254,1.116,0.396,1.947
		c1.604-0.016,2.65-0.085,3.14-0.207c0.49-0.122,0.873-0.396,1.149-0.825s0.415-1.004,0.415-1.726v-8.007h-3.144
		C148.282,46.862,148.604,46.499,148.93,46.125z M145.626,53.991h-2.42v-1.23h2.42V53.991z M149.082,48.866v1.986
		c-0.984-0.634-1.994-1.249-3.029-1.846l-0.989,1.184l1.415,0.95h-3.935c0.411-0.312,0.819-0.628,1.226-0.95l-1.097-1.23
		c-0.872,0.67-1.842,1.373-2.907,2.11v-2.204H149.082z"/>
	<polygon fill="#0080CC" points="145.398,42.667 142.841,42.76 143.16,44.037 137.178,44.037 137.178,45.751 151.639,45.751 
		151.639,44.037 145.55,44.037 	"/>
	<path fill="#0080CC" d="M153.055,57.995h2.04v-2.586c0.365,0.307,0.675,0.581,0.929,0.825c0.64-0.971,1.251-2.02,1.834-3.146
		l1.18,2.866l0.814-0.413c0.224,0.167,0.449,0.341,0.678,0.522c0.538-0.935,1.053-1.9,1.545-2.897l0.921,2.274l1.72-0.873
		l-1.598-3.645c0.624-1.434,1.192-2.929,1.705-4.486l-1.645-0.717c-0.35,1.008-0.715,1.976-1.096,2.905l-1.233-2.733l-0.814,0.373
		l-1.027-0.482c-0.355,1.007-0.733,1.976-1.134,2.905l-1.348-2.827l-1.431,0.763v-1.354h9.758v9.688
		c0,0.654-0.325,0.981-0.975,0.981c-0.74,0-1.472-0.036-2.191-0.109c0.172,0.613,0.329,1.34,0.472,2.182
		c1.477,0,2.484-0.037,3.025-0.109c0.54-0.073,0.96-0.326,1.26-0.76c0.299-0.434,0.449-1.053,0.449-1.857V43.321h-13.838V57.995z
		 M160.02,48.282l1.104,2.594c-0.376,0.825-0.762,1.62-1.157,2.384l-1.058-2.329C159.294,50.084,159.664,49.201,160.02,48.282z
		 M155.095,46.935c0.594,1.236,1.19,2.534,1.789,3.895c-0.559,1.138-1.154,2.21-1.789,3.217V46.935z"/>
	<path fill="#0080CC" d="M171.474,48.944l-1.873-0.592c-0.497,1.651-1.045,3.095-1.644,4.33c0.518,0.167,1.137,0.432,1.857,0.795
		C170.362,52.211,170.915,50.699,171.474,48.944z"/>
	<path fill="#0080CC" d="M180.036,48.929l0.068-3.707h-5.184l0.084-2.462h-2.146l-0.076,2.462h-3.927v2.009h3.828
		c-0.097,1.646-0.242,2.957-0.438,3.934s-0.614,1.896-1.256,2.761c-0.642,0.865-1.496,1.624-2.562,2.278
		c0.528,0.571,1.061,1.205,1.599,1.9c0.954-0.664,1.761-1.412,2.42-2.243c0.66-0.83,1.152-1.693,1.477-2.59
		c0.325-0.896,0.541-1.795,0.647-2.698s0.192-2.018,0.259-3.342h3.112c-0.061,3.656-0.128,5.969-0.201,6.94
		c-0.073,0.971-0.605,1.456-1.595,1.456c-0.467,0-1.183-0.025-2.146-0.078c0.173,0.654,0.351,1.423,0.533,2.306
		c1.756,0,2.895-0.084,3.417-0.253s0.948-0.489,1.275-0.962s0.522-0.989,0.586-1.55s0.131-2.21,0.201-4.946
		c0.482,0.997,0.975,2.077,1.477,3.24l1.781-0.919c-0.599-1.412-1.269-2.788-2.009-4.128L180.036,48.929z"/>
	<path fill="#0080CC" d="M194.322,42.963l-1.994,0.966c1.319,2.814,2.877,5.073,4.673,6.775c0.416-0.478,0.995-1.095,1.735-1.854
		C196.94,47.304,195.469,45.341,194.322,42.963z"/>
	<path fill="#0080CC" d="M191.947,52.013c0.705,0.94,1.353,1.841,1.941,2.703c-1.832,0.083-3.742,0.147-5.731,0.194
		c1.096-1.256,2.507-3.25,4.231-5.981l-2.253-1.028c-0.588,1.174-1.452,2.617-2.591,4.331c-1.14,1.713-2.052,2.772-2.736,3.178
		l0.943,2.103c0.538-0.135,1.063-0.23,1.576-0.288l7.931-0.421c0.284,0.457,0.55,0.901,0.799,1.332l1.994-1.417
		c-1.269-1.942-2.699-3.899-4.293-5.873L191.947,52.013z"/>
	<path fill="#0080CC" d="M189.999,44.021l-2.085-0.903c-0.984,2.285-2.4,4.264-4.247,5.936c0.67,0.747,1.177,1.35,1.521,1.807
		C187.279,48.888,188.883,46.607,189.999,44.021z"/>
	<path fill="#0080CC" d="M208.57,49.536l1.553,1.293c1.197-1.277,2.334-2.575,3.41-3.895l-1.797-1.246
		C210.803,47.008,209.748,48.29,208.57,49.536z"/>
	<polygon fill="#0080CC" points="207.886,45.377 213.503,45.377 213.503,43.321 200.046,43.321 200.046,45.377 205.572,45.377 
		205.572,51.094 199.376,51.094 199.376,53.15 205.572,53.15 205.572,57.995 207.886,57.995 207.886,53.15 214.172,53.15 
		214.172,51.094 207.886,51.094 	"/>
	<path fill="#0080CC" d="M201.857,45.673l-1.598,1.106c0.832,1.08,1.76,2.414,2.785,4.003l1.842-1.246
		C203.842,48.124,202.832,46.836,201.857,45.673z"/>
	<path fill="#0080CC" d="M216.471,58.042h2.07v-0.92h7.58v0.92h2.07v-7.307h-11.721V58.042z M218.541,52.667h7.58v2.523h-7.58
		V52.667z"/>
	<path fill="#0080CC" d="M224.173,45.688l1.553,1.745l-7.322,0.265c1.604-1.329,3.126-2.689,4.566-4.081l-1.993-1.106
		c-1.959,2.326-3.938,4.123-5.938,5.39l0.808,1.839c3.217-0.302,7.007-0.488,11.37-0.562l1.188,1.434l1.689-1.465
		c-1.329-1.506-2.775-3.037-4.338-4.595L224.173,45.688z"/>
</g>
</svg>
