<?xml version="1.0" encoding="utf-8"?>
<!DOCTYPE svg PUBLIC "-//W3C//DTD SVG 1.1//EN" "http://www.w3.org/Graphics/SVG/1.1/DTD/svg11.dtd">
<svg version="1.1" id="图层_1" xmlns="http://www.w3.org/2000/svg" xmlns:xlink="http://www.w3.org/1999/xlink" x="0px" y="0px"
	 width="445.95px" height="64px" viewBox="0 0 445.95 64" enable-background="new 0 0 445.95 64" xml:space="preserve">
<path fill="#0080CC" d="M52.604,7.524C47.037,2.832,39.851,0,32,0C14.327,0,0,14.327,0,32s14.327,32,32,32s32-14.327,32-32
	c0-6.657-2.036-12.837-5.515-17.957C59.976,8.168,61.867,2.83,64,0C62.805,1.313,58.375,4.166,52.604,7.524z M60.937,29.438
	c0,14.261-11.561,25.821-25.82,25.821c-14.261,0-25.821-11.56-25.821-25.821S20.856,3.617,35.117,3.617
	c5.775,0,11.101,1.905,15.401,5.111c-13.689,7.82-33.143,17.623-36.858,17.623l13.005,3.313l8.403-7.803
	C36.9,21.283,52.569,11.029,55.142,9.25C55.605,8.928,57.9,7.359,57.9,7.359l-2.096,2.817L37.873,32.518l17.151,4.369
	c0-4.251,1.026-12.213,2.743-19.841C59.786,20.724,60.937,24.946,60.937,29.438z"/>
<path fill="#0080CC" d="M26.486,41.088l-2.816,6.99h1.778l0.566-1.602h2.796l0.576,1.602h1.788l-2.762-6.99H26.486z M26.372,45.325
	l0.879-2.441c0.07-0.188,0.114-0.386,0.134-0.591h0.044c0.023,0.253,0.063,0.456,0.12,0.609l0.874,2.423H26.372z"/>
<path fill="#0080CC" d="M34.488,46.012c-0.087,0.249-0.143,0.485-0.169,0.709h-0.03c-0.02-0.218-0.071-0.447-0.154-0.691
	l-1.664-4.94h-1.768l2.638,6.99h1.853l2.672-6.99h-1.714L34.488,46.012z"/>
<rect x="38.804" y="41.088" fill="#0080CC" width="1.64" height="6.99"/>
<path fill="#0080CC" d="M42.879,42.023c-0.76,0.703-1.14,1.605-1.14,2.711c0,1.05,0.34,1.89,1.021,2.521
	c0.681,0.63,1.601,0.945,2.76,0.945c0.9,0,1.63-0.125,2.19-0.375v-1.367c-0.563,0.301-1.188,0.451-1.873,0.451
	c-0.729,0-1.307-0.209-1.733-0.627s-0.641-0.972-0.641-1.656c0-0.704,0.225-1.274,0.676-1.71c0.45-0.438,1.051-0.654,1.803-0.654
	c0.659,0,1.248,0.139,1.769,0.415v-1.438c-0.507-0.178-1.137-0.268-1.888-0.268C44.62,40.971,43.639,41.322,42.879,42.023z"/>
<path fill="#0080CC" d="M36.932,31.811l17.789-21.417c-1.521,1.043-3.405,2.308-5.741,3.846c-6.946,4.579-11.215,7.176-12.726,7.744
	L23.549,34.352h11.218L36.932,31.811z"/>
<g>
	<path fill="#0080CC" d="M75.653,23.125h14.35c0.169-2.653,0.242-5.722,0.218-9.203h5.522c-0.073,3.615-0.17,6.684-0.291,9.203
		h15.003v5.04H95.869c2.083,8.132,7.114,13.599,15.094,16.4c-1.719,1.971-3.1,3.652-4.141,5.039
		c-6.6-3.117-11.195-8.139-13.787-15.064c-2.01,6.342-6.654,11.449-13.932,15.32c-0.969-1.242-2.337-2.801-4.105-4.676
		c8.816-4.016,13.642-9.689,14.477-17.019H75.653V23.125z"/>
	<path fill="#0080CC" d="M112.49,24.512h4.305c0.036-0.486,0.055-2.143,0.055-4.967h-3.342v-4.236h19.181v4.236h-2.979v4.967h3.705
		v4.237h-3.705v3.944h3.16v3.798h12.352v4.455H132.87v3.361h15.33v4.383h-35.783v-4.383h15.257v-3.361h-12.278v-4.455h12.278v-1.898
		h-2.397V28.75h-4.595c-0.715,2.922-2.016,5.344-3.905,7.268c-0.824-0.682-2.01-1.631-3.56-2.85
		c1.199-1.265,2.101-2.739,2.706-4.418h-3.433V24.512z M121.281,24.512h3.996v-4.967h-3.959
		C121.317,21.834,121.305,23.49,121.281,24.512z M134.287,16.478h4.359v12.345h-4.359V16.478z M146.275,14.432v15.596
		c0,1.582-0.409,2.788-1.227,3.615c-0.817,0.828-2.089,1.273-3.814,1.334s-3.327,0.092-4.804,0.092
		c-0.146-1.461-0.376-2.947-0.69-4.457c1.235,0.073,2.519,0.109,3.851,0.109c1.308,0,1.962-0.548,1.962-1.644V14.432H146.275z"/>
	<path fill="#0080CC" d="M171.414,13.848l-1.017,1.241c3.124,4.603,8.161,8.522,15.112,11.761c-1.284,1.583-2.374,3.02-3.27,4.31
		c-1.816-0.974-3.512-1.996-5.086-3.067v2.483h-19.472v-2.703c-1.574,1.071-3.27,2.143-5.086,3.214
		c-0.702-0.998-1.792-2.435-3.27-4.31c7.943-4.212,13.224-8.521,15.839-12.929H171.414z M150.78,33.643h33.349v4.604h-9.045
		c2.3,2.799,4.782,5.953,7.447,9.459l-4.433,2.703c-0.533-0.779-1.09-1.596-1.671-2.447c-4.602,0.17-10.365,0.461-17.292,0.875
		c-1.042,0.074-2.313,0.256-3.814,0.549l-2.18-4.42c2.228-1.605,4.432-3.846,6.611-6.719h-8.973V33.643z M167.417,19.107
		c-1.719,2.265-4.141,4.578-7.266,6.939h14.241C171.656,23.904,169.332,21.59,167.417,19.107z M170.615,40.145l3.124-1.898h-7.665
		c-1.26,1.605-2.858,3.445-4.795,5.514c2.809,0,6.744-0.109,11.807-0.328C172.31,42.385,171.487,41.289,170.615,40.145z"/>
	<path fill="#0080CC" d="M199.059,35.98c0.242,2.363,0.521,4.213,0.835,5.553c-3.802,2.824-6.405,4.967-7.811,6.428l-2.615-3.617
		c0.533-0.633,0.812-1.631,0.836-2.994V30.393h-3.561v-4.931h8.501v13.659C196.431,38.221,197.703,37.174,199.059,35.98z
		 M192.447,14.176c1.769,2.338,3.367,4.59,4.796,6.757l-4.577,2.813c-1.623-2.873-3.101-5.26-4.433-7.158L192.447,14.176z
		 M221.219,17.829c-1.248,8.559-3.905,15.511-7.975,20.855c2.725,2.557,5.903,4.59,9.536,6.1c-1.234,1.631-2.373,3.273-3.414,4.93
		c-3.718-1.752-6.981-4.061-9.791-6.92c-2.797,2.701-6.157,5.119-10.081,7.25c-1.017-1.682-2.155-3.24-3.415-4.676
		c3.899-1.826,7.254-4.055,10.063-6.684c-3.657-5.199-6.346-11.956-8.065-20.27l4.505-1.534c1.526,7.293,3.911,13.228,7.157,17.804
		c3.535-4.833,5.8-10.816,6.793-17.951L221.219,17.829z M209.703,13.628c1.356,2.776,2.604,5.54,3.742,8.291l-4.214,1.862
		c-1.114-2.849-2.313-5.709-3.597-8.582L209.703,13.628z"/>
	<path fill="#0080CC" d="M226.705,23.782c2.422,1.875,4.662,3.714,6.721,5.516l-3.379,3.761c-2.252-2.118-4.359-4.017-6.321-5.697
		L226.705,23.782z M228.34,34.082c1.646,0.656,3.27,1.205,4.867,1.643c-1.283,5.406-2.566,10.02-3.85,13.842
		c-1.721-0.559-3.391-1.047-5.014-1.461C225.65,44.332,226.982,39.658,228.34,34.082z M228.049,14.724
		c2.35,1.754,4.42,3.396,6.213,4.931l-3.344,3.579c-1.258-1.192-3.221-2.945-5.885-5.259L228.049,14.724z M233.824,24.293h10.209
		v-4.291l-9.01,0.347c-0.145-1.267-0.363-2.666-0.654-4.2c8.066-0.171,15.791-0.597,23.178-1.278l0.617,4.236
		c-2.906,0.231-5.92,0.438-9.045,0.621v4.565H259.4v4.383h-10.281v4.601h8.828v16.582h-4.941v-1.826h-12.824v1.863h-4.939V33.277
		h8.791v-4.601h-10.209V24.293z M253.006,37.588h-12.824v6.137h12.824V37.588z"/>
	<path fill="#0080CC" d="M274.768,32.182l3.869,9.205c1.658-3.02,2.469-8.547,2.434-16.582h-3.688v-4.821h3.797l0.055-6.209h4.83
		l-0.072,6.209h9.518l-0.418,20.635c-0.072,2.775-0.189,4.51-0.354,5.205c-0.164,0.693-0.5,1.311-1.008,1.854
		c-0.508,0.541-1.176,0.934-1.998,1.178c-0.824,0.242-2.992,0.383-6.502,0.42c-0.389-1.852-0.824-3.678-1.309-5.479
		c1.598,0.098,2.924,0.146,3.979,0.146c0.701,0,1.24-0.141,1.615-0.42c0.375-0.281,0.598-0.686,0.664-1.215s0.145-2.398,0.236-5.607
		c0.09-3.207,0.154-7.172,0.189-11.896h-4.703c-0.109,5.43-0.328,9.316-0.654,11.66c-0.328,2.344-1,4.715-2.016,7.113
		c-1.018,2.398-2.338,4.527-3.961,6.391c-1.381-1.096-2.857-2.117-4.432-3.068c0.701-0.717,1.344-1.479,1.926-2.281l-10.082,0.857
		c-1.514,0.184-2.67,0.438-3.469,0.768l-2.252-4.42c1.271-1.035,2.826-4.857,4.668-11.468h-4.523v-4.675h16.783v4.675h-6.975
		c-1.125,3.494-2.324,6.892-3.596,10.191c2.203-0.061,4.195-0.141,5.975-0.238c-0.871-2.447-1.725-4.705-2.561-6.775L274.768,32.182
		z M276.619,21.153H262.67v-4.675h13.949V21.153z"/>
	<path fill="#0080CC" d="M299.289,23.709h1.889c-0.557-0.73-1.525-1.839-2.906-3.324c2.641-1.947,4.553-4.163,5.74-6.646h5.014
		c-0.389,0.876-0.801,1.716-1.236,2.52h9.373v3.47h-6.975c0.727,0.804,1.441,1.607,2.143,2.41l-2.107,1.571h3.525
		c-0.219-0.633-0.438-1.278-0.654-1.937l4.105-0.693c0.266,0.853,0.531,1.729,0.799,2.63h8.355
		c-0.994-1.267-1.865-2.302-2.615-3.104l1.125-0.877h-1.635c-0.799,1.267-1.695,2.447-2.688,3.543
		c-0.703-0.536-1.986-1.425-3.852-2.666c1.744-1.924,3.174-4.213,4.287-6.866h5.049c-0.289,0.876-0.617,1.716-0.98,2.52h8.393v3.47
		h-5.449c0.654,0.706,1.295,1.412,1.926,2.118l-2.543,1.863h5.92v5.259h-4.939v-1.534h-24.123v1.534h-4.939V23.709z M301.25,23.709
		h7.338c-0.652-0.828-1.416-1.766-2.287-2.813l1.488-1.169h-2.396C304.182,21.213,302.801,22.541,301.25,23.709z M329.658,29.625
		v8.693h-22.014v1.607h23.178v9.971H326.1v-1.17h-18.455v1.17h-4.941V29.625H329.658z M324.936,34.959v-1.973h-17.291v1.973H324.936
		z M326.1,43.285h-18.455v2.119H326.1V43.285z"/>
	<path fill="#0080CC" d="M336.307,47.852l-1.016-5.188l4.322-0.986v-8.984h-3.488v-4.529h3.488v-7.67h-3.633v-4.602h11.916v4.602
		h-3.633v7.67h3.379v4.529h-3.379v7.798c1.295-0.354,2.555-0.713,3.777-1.078c-0.098,1.729-0.109,3.396-0.035,5.004h9.008V41.24
		h-8.281v-4.164h8.281v-2.629h-8.1V15.492h20.852v18.956h-8.102v2.629h8.283v4.164h-8.283v3.178h9.881v4.164h-24.92v-3.854
		C343.428,45.617,339.988,46.658,336.307,47.852z M353.455,23.051h3.559v-3.47h-3.559V23.051z M353.455,30.356h3.559V26.85h-3.559
		V30.356z M365.225,19.582h-3.561v3.47h3.561V19.582z M365.225,30.356V26.85h-3.561v3.506H365.225z"/>
	<path fill="#0080CC" d="M381.135,38.537l3.67,3.25c-2.736,2.582-5.729,4.943-8.973,7.086c-1.115-1.436-2.217-2.738-3.307-3.908
		C375.65,43.188,378.52,41.045,381.135,38.537z M374.016,16.185c11.867,0.049,22.633-0.426,32.295-1.424l0.727,4.018
		c-4.867,0.463-9.959,0.84-15.275,1.132c-2.52,1.534-5.189,2.995-8.01,4.383l12.006-0.548c1.805-1.022,3.65-2.106,5.539-3.251
		l3.416,3.434c-6.781,3.774-13.998,7.11-21.652,10.007c5.219-0.23,10.475-0.535,15.768-0.914c-0.934-0.924-1.816-1.764-2.652-2.519
		l3.379-2.739c1.863,1.632,4.818,4.492,8.863,8.583l-3.451,3.178c-0.859-0.961-1.689-1.869-2.488-2.721l-8.773,0.348v8.582
		c0,1.23-0.357,2.166-1.072,2.813c-0.715,0.645-1.805,0.994-3.27,1.049c-1.465,0.057-3.42,0.084-5.867,0.084
		c-0.217-1.779-0.533-3.434-0.943-4.969c1.186,0.098,2.451,0.146,3.795,0.146c0.982,0,1.629-0.109,1.945-0.328
		c0.314-0.219,0.471-0.633,0.471-1.242v-5.898c-5.424,0.281-9.578,0.592-12.459,0.932l-1.271-4.529
		c4.092-1.558,8.518-3.561,13.277-6.007c-4.809,0.292-8.52,0.627-11.135,1.004l-1.344-4.456c2.639-0.985,5.389-2.331,8.246-4.035
		l-9.264,0.273C374.645,19.18,374.379,17.719,374.016,16.185z M399.555,38.172c2.688,1.852,5.703,4.104,9.045,6.758l-3.342,3.506
		c-2.592-2.24-5.51-4.59-8.756-7.049L399.555,38.172z"/>
	<path fill="#0080CC" d="M416.52,35.104l5.377-0.621c-0.195,1.51-0.279,2.898-0.256,4.164c-3.922,0.195-7.229,0.537-9.916,1.023
		l-1.127-4.055c1.393-1.4,3.088-3.603,5.086-6.61c-1.889,0.134-3.451,0.292-4.686,0.475l-1.309-4.127
		c2.301-3.166,4.383-7.086,6.248-11.761l4.76,1.899c-1.768,3.336-3.682,6.477-5.74,9.423c1.006-0.012,2.15-0.055,3.434-0.128
		l1.652-2.758l3.777,2.046C421.303,28.068,418.869,31.744,416.52,35.104z M441.586,38.574c1.453,0.73,2.906,1.34,4.359,1.826
		c-0.328,3.725-0.9,6.111-1.717,7.158c-0.818,1.047-2.109,1.57-3.879,1.57h-2.143c-2.785,0-4.189-1.547-4.215-4.639V32.839
		l-2.941,0.219c-0.133,5.346-0.945,9.238-2.434,11.678c-1.49,2.441-3.295,4.197-5.414,5.27c-1.018-1.156-2.215-2.43-3.596-3.816
		c-3.246,0.328-6.297,0.711-9.154,1.15l-0.4-4.857c2.398-0.17,6.527-0.609,12.389-1.314c-0.061,0.912-0.098,1.893-0.109,2.939
		c2.639-1.766,4.014-5.297,4.123-10.592c-1.355,0.158-2.439,0.322-3.252,0.492l-1.307-4.455c1.912-1.218,3.982-3.799,6.211-7.743
		h-6.139v-4.164h8.047c-0.4-0.974-0.854-1.996-1.363-3.067l5.414-0.986c0.652,1.327,1.277,2.679,1.871,4.054h9.135v4.164h-11.625
		c-1.586,2.483-3.414,4.931-5.484,7.341c3.039-0.109,6.393-0.273,10.063-0.493c-0.824-1.254-1.695-2.525-2.615-3.816l3.633-2.082
		c2.566,3.409,4.771,6.587,6.611,9.532l-3.959,2.412c-0.412-0.742-0.842-1.492-1.291-2.247l-1.762,0.091v10.519
		c0,0.949,0.314,1.424,0.945,1.424h0.326c0.57,0,0.945-0.297,1.127-0.895C441.223,43,441.404,41.326,441.586,38.574z"/>
</g>
</svg>
