<?xml version="1.0" encoding="utf-8"?>
<!DOCTYPE svg PUBLIC "-//W3C//DTD SVG 1.1//EN" "http://www.w3.org/Graphics/SVG/1.1/DTD/svg11.dtd">
<svg version="1.1" id="图层_1" xmlns="http://www.w3.org/2000/svg" xmlns:xlink="http://www.w3.org/1999/xlink" x="0px" y="0px"
	 width="64px" height="64px" viewBox="0 0 64 64" enable-background="new 0 0 64 64" xml:space="preserve">
<path fill="#FF8200" d="M42.041,0H11.958c-3.313,0-6,2.687-6,6v52c0,3.313,2.687,6,6,6h40.084c3.313,0,6-2.687,6-6V16.001L42.041,0z
	"/>
<polygon fill="#FFAF5B" points="58.042,16.001 42.041,16.001 42.041,0 "/>
<path fill="#FFE3C8" d="M46.822,45.887l-5.274-5.274c1.561-2.135,2.493-4.755,2.493-7.596c0-7.123-5.795-12.917-12.917-12.917
	c-7.123,0-12.917,5.794-12.917,12.917c0,7.122,5.794,12.917,12.917,12.917c2.84,0,5.461-0.933,7.596-2.493l5.274,5.274
	c0.391,0.391,0.902,0.586,1.414,0.586s1.023-0.195,1.414-0.586C47.604,47.934,47.604,46.668,46.822,45.887z M22.207,33.017
	c0-4.917,4-8.917,8.917-8.917s8.917,4,8.917,8.917s-4,8.917-8.917,8.917S22.207,37.934,22.207,33.017z"/>
</svg>
