<?xml version="1.0" encoding="utf-8"?>
<!DOCTYPE svg PUBLIC "-//W3C//DTD SVG 1.1//EN" "http://www.w3.org/Graphics/SVG/1.1/DTD/svg11.dtd">
<svg version="1.1" id="图层_1" xmlns="http://www.w3.org/2000/svg" xmlns:xlink="http://www.w3.org/1999/xlink" x="0px" y="0px"
	 width="210px" height="50px" viewBox="0 0 210 50" enable-background="new 0 0 210 50" xml:space="preserve">
<rect fill="#1E89FF" width="210" height="50"/>
<g>
	<g>
		<path fill="#FFFFFF" d="M32.761,14.419c-2.407-2.028-5.513-3.252-8.907-3.252c-7.64,0-13.833,6.193-13.833,13.833
			s6.193,13.833,13.833,13.833c7.64,0,13.833-6.193,13.833-13.833c0-2.878-0.88-5.55-2.384-7.763
			c0.645-2.539,1.462-4.848,2.384-6.07C37.171,11.734,35.256,12.968,32.761,14.419z M36.364,23.893
			c0,6.164-4.998,11.162-11.162,11.162c-6.166,0-11.163-4.998-11.163-11.162c0-6.165,4.997-11.162,11.163-11.162
			c2.496,0,4.798,0.823,6.657,2.209c-5.917,3.381-14.327,7.618-15.933,7.618l5.622,1.433l3.632-3.373
			c0.792-0.25,7.565-4.683,8.678-5.452c0.2-0.139,1.192-0.817,1.192-0.817l-0.906,1.218l-7.752,9.658l7.414,1.889
			c0-1.837,0.443-5.279,1.186-8.577C35.866,20.126,36.364,21.95,36.364,23.893z"/>
		<path fill="#FFFFFF" d="M21.471,28.929l-1.217,3.021h0.769l0.245-0.692h1.208l0.249,0.692h0.773l-1.194-3.021H21.471z
			 M21.421,30.76l0.38-1.055c0.03-0.082,0.049-0.167,0.058-0.256h0.019c0.01,0.109,0.027,0.197,0.052,0.264l0.378,1.047H21.421z"/>
		<path fill="#FFFFFF" d="M24.93,31.057c-0.038,0.107-0.062,0.21-0.073,0.307h-0.013c-0.008-0.094-0.031-0.193-0.066-0.299
			l-0.719-2.136h-0.765l1.141,3.022h0.8l1.156-3.022h-0.741L24.93,31.057z"/>
		<rect x="26.796" y="28.929" fill="#FFFFFF" width="0.708" height="3.021"/>
		<path fill="#FFFFFF" d="M28.557,29.333c-0.328,0.304-0.493,0.694-0.493,1.172c0,0.454,0.147,0.817,0.442,1.089
			c0.294,0.273,0.692,0.409,1.193,0.409c0.389,0,0.705-0.054,0.947-0.162V31.25c-0.244,0.13-0.514,0.195-0.81,0.195
			c-0.315,0-0.565-0.091-0.75-0.271s-0.277-0.42-0.277-0.716c0-0.305,0.097-0.552,0.292-0.739c0.195-0.189,0.454-0.283,0.779-0.283
			c0.285,0,0.54,0.061,0.765,0.18v-0.622c-0.219-0.077-0.491-0.116-0.816-0.116C29.31,28.877,28.886,29.029,28.557,29.333z"/>
		<path fill="#FFFFFF" d="M25.986,24.918l7.69-9.258c-0.657,0.45-1.472,0.998-2.481,1.662c-3.003,1.979-4.848,3.103-5.502,3.348
			l-5.492,5.346h4.85L25.986,24.918z"/>
	</g>
</g>
<g>
	<path fill="#FFFFFF" d="M44.958,26.816h3.618c-0.879,1.152-1.768,2.051-2.666,2.695l0.879,1.771
		c0.605-0.117,1.118-0.189,1.538-0.219c2.793-0.166,5.117-0.283,6.973-0.352c0.234,0.342,0.459,0.668,0.674,0.98l1.787-1.083
		c-1.074-1.406-2.075-2.671-3.003-3.794h3.647v-1.846H44.958V26.816z M51.125,26.816h3.091l-1.26,0.762
		c0.352,0.459,0.684,0.898,0.996,1.318c-2.041,0.088-3.628,0.132-4.761,0.132C49.973,28.198,50.617,27.461,51.125,26.816z"/>
	<path fill="#FFFFFF" d="M52.868,17.529l0.41-0.498h-2.52c-1.055,1.768-3.184,3.496-6.387,5.186
		c0.596,0.752,1.035,1.328,1.318,1.729c0.732-0.43,1.416-0.859,2.051-1.289v1.084h7.852v-0.996c0.635,0.43,1.318,0.84,2.051,1.23
		c0.361-0.518,0.801-1.094,1.318-1.729C56.159,20.947,54.128,19.375,52.868,17.529z M48.737,21.924
		c1.26-0.947,2.236-1.875,2.93-2.783c0.771,0.996,1.709,1.924,2.813,2.783H48.737z"/>
	<path fill="#FFFFFF" d="M64.774,25.908c-0.547,0.479-1.06,0.898-1.538,1.26v-5.479h-3.428v1.978h1.436v4.395
		c-0.01,0.547-0.122,0.947-0.337,1.201l1.055,1.45c0.566-0.586,1.616-1.445,3.149-2.578C64.984,27.598,64.872,26.855,64.774,25.908z
		"/>
	<path fill="#FFFFFF" d="M73.709,18.628l-1.89-0.439c-0.4,2.861-1.313,5.261-2.739,7.2c-1.309-1.836-2.271-4.216-2.886-7.141
		l-1.816,0.615c0.693,3.335,1.777,6.045,3.252,8.13c-1.133,1.055-2.485,1.948-4.058,2.681c0.508,0.576,0.967,1.2,1.377,1.874
		c1.582-0.854,2.937-1.822,4.065-2.906c1.133,1.146,2.449,2.072,3.948,2.775c0.42-0.664,0.879-1.323,1.377-1.978
		c-1.465-0.605-2.747-1.421-3.845-2.446C72.135,24.849,73.207,22.061,73.709,18.628z"/>
	<path fill="#FFFFFF" d="M64.042,19.873c-0.576-0.869-1.221-1.772-1.934-2.71l-1.699,0.967c0.537,0.762,1.133,1.719,1.787,2.871
		L64.042,19.873z"/>
	<path fill="#FFFFFF" d="M70.575,20.269c-0.459-1.104-0.962-2.212-1.509-3.325l-1.641,0.63c0.518,1.152,1.001,2.3,1.45,3.442
		L70.575,20.269z"/>
	<path fill="#FFFFFF" d="M75.061,30.771c0.654,0.166,1.328,0.361,2.021,0.586c0.518-1.533,1.035-3.384,1.553-5.552
		c-0.645-0.176-1.299-0.396-1.963-0.659C76.125,27.383,75.588,29.258,75.061,30.771z"/>
	<path fill="#FFFFFF" d="M85.051,19.39c1.26-0.073,2.476-0.156,3.647-0.249l-0.249-1.699c-2.979,0.273-6.094,0.444-9.346,0.513
		c0.117,0.615,0.205,1.177,0.264,1.685L83,19.5v1.721h-4.116v1.758H83v1.846h-3.545v6.664h1.992v-0.746h5.171v0.732h1.992v-6.65
		h-3.56v-1.846h4.146v-1.758h-4.146V19.39z M86.618,26.553v2.461h-5.171v-2.461H86.618z"/>
	<path fill="#FFFFFF" d="M79.06,19.36c-0.723-0.615-1.558-1.274-2.505-1.978l-1.216,1.304c1.074,0.928,1.865,1.631,2.373,2.109
		L79.06,19.36z"/>
	<path fill="#FFFFFF" d="M74.812,22.451c0.791,0.674,1.641,1.436,2.549,2.285l1.362-1.509c-0.83-0.723-1.733-1.46-2.71-2.212
		L74.812,22.451z"/>
	<path fill="#FFFFFF" d="M100.199,17.002h-1.948l-0.021,2.49h-1.531v1.934h1.486c0.016,3.223-0.313,5.439-0.98,6.65l-1.561-3.691
		l-1.626,0.542c0.337,0.83,0.681,1.735,1.032,2.718c-0.717,0.039-1.521,0.07-2.409,0.095c0.513-1.323,0.996-2.686,1.45-4.087h2.813
		v-1.875h-6.768v1.875h1.824c-0.743,2.651-1.37,4.185-1.883,4.6l0.908,1.772c0.322-0.132,0.788-0.234,1.398-0.308l4.065-0.344
		c-0.234,0.322-0.493,0.627-0.776,0.915c0.635,0.38,1.23,0.79,1.787,1.229c0.654-0.746,1.187-1.601,1.597-2.563
		s0.681-1.912,0.813-2.854c0.131-0.939,0.219-2.498,0.264-4.676h1.896c-0.015,1.895-0.04,3.485-0.077,4.771
		c-0.036,1.287-0.068,2.037-0.095,2.248c-0.027,0.213-0.116,0.375-0.268,0.488c-0.151,0.111-0.369,0.168-0.652,0.168
		c-0.424,0-0.959-0.02-1.604-0.059c0.195,0.723,0.371,1.455,0.527,2.197c1.416-0.016,2.29-0.07,2.622-0.168s0.601-0.256,0.806-0.473
		c0.205-0.218,0.341-0.465,0.406-0.744c0.066-0.277,0.113-0.974,0.143-2.087l0.169-8.276h-3.838L100.199,17.002z"/>
	<rect x="90.766" y="18.086" fill="#FFFFFF" width="5.625" height="1.875"/>
	<polygon fill="#FFFFFF" points="109.502,20.928 108.286,20.928 108.286,17.134 106.44,17.134 106.44,20.928 105.151,20.928 
		105.151,22.686 106.44,22.686 106.44,31.416 108.286,31.416 108.286,22.686 109.502,22.686 	"/>
	<path fill="#FFFFFF" d="M118.086,19.551h-3.706c0.01-0.781,0.015-1.611,0.015-2.49h-1.992v2.49h-2.432v1.904h2.409
		c-0.083,3.862-1.257,6.699-3.522,8.511c0.625,0.557,1.162,1.083,1.611,1.581c2.505-2.235,3.796-5.6,3.874-10.092h1.736
		c-0.015,4.57-0.099,7.021-0.253,7.354c-0.153,0.332-0.577,0.498-1.271,0.498c-0.352,0-0.845-0.02-1.479-0.059
		c0.215,0.654,0.391,1.323,0.527,2.006c1.074-0.01,1.885-0.041,2.432-0.098s0.993-0.293,1.341-0.711
		c0.346-0.418,0.529-1.02,0.549-1.805l0.066-3.296c0.395,0.425,0.813,0.886,1.252,1.384l0.454-2.388
		c-0.498-0.425-1.055-0.884-1.67-1.377L118.086,19.551z"/>
	<path fill="#FFFFFF" d="M111.685,22.759l-1.611-0.396c-0.361,1.318-0.806,2.573-1.333,3.765c0.586,0.186,1.138,0.391,1.655,0.615
		C110.884,25.435,111.313,24.106,111.685,22.759z"/>
	<path fill="#FFFFFF" d="M120.828,31.357h1.963V19.419h9.287v9.097c0,0.244-0.05,0.439-0.15,0.586c-0.1,0.146-0.23,0.24-0.392,0.281
		c-0.161,0.043-0.438,0.063-0.828,0.063c-0.508,0-1.066-0.031-1.677-0.095c0.156,0.576,0.308,1.255,0.454,2.036
		c0.947,0,1.754-0.006,2.421-0.018c0.666-0.014,1.188-0.23,1.567-0.652c0.378-0.423,0.567-1.059,0.567-1.908V17.588h-13.213V31.357z
		"/>
	<path fill="#FFFFFF" d="M130.804,23.418h-6.797v6.064h1.904v-0.938h4.893V23.418z M128.899,26.904h-2.988v-1.846h2.988V26.904z"/>
	<rect x="123.509" y="20.605" fill="#FFFFFF" width="7.852" height="1.67"/>
	<path fill="#FFFFFF" d="M138.994,26.846h8.877v-3.486h-10.869v8.129h1.992V31.02h7.441v0.469h1.904V27.49h-9.346V26.846z
		 M138.994,24.707h6.973v0.791h-6.973V24.707z M146.436,28.838v0.85h-7.441v-0.85H146.436z"/>
	<path fill="#FFFFFF" d="M146.406,16.987h-2.036c-0.449,1.064-1.025,1.982-1.729,2.754c0.752,0.498,1.27,0.854,1.553,1.069
		c0.4-0.439,0.762-0.913,1.084-1.421h0.659l-0.454,0.352c0.303,0.322,0.654,0.737,1.055,1.245h-3.369
		c-0.107-0.361-0.215-0.713-0.322-1.055l-1.655,0.278c0.088,0.264,0.176,0.522,0.264,0.776h-1.421l0.85-0.63
		c-0.283-0.322-0.571-0.645-0.864-0.967h2.813v-1.392h-3.779c0.176-0.322,0.342-0.659,0.498-1.011h-2.021
		c-0.479,0.996-1.25,1.885-2.314,2.666c0.557,0.596,0.947,1.04,1.172,1.333h-0.762v2.109h1.992V22.48h9.727v0.615h1.992v-2.109
		h-2.388l1.025-0.747c-0.254-0.283-0.513-0.566-0.776-0.85h2.197v-1.392h-3.384C146.157,17.676,146.289,17.339,146.406,16.987z
		 M136.416,20.986c0.625-0.469,1.182-1.001,1.67-1.597h0.967l-0.601,0.469c0.352,0.42,0.659,0.796,0.923,1.128H136.416z"/>
	<path fill="#FFFFFF" d="M160.854,28.018h3.34v-1.67h-3.34v-1.055h3.267V17.69h-8.408v7.603h3.267v1.055h-3.34v1.67h3.34v1.274
		h-3.633c-0.029-0.645-0.024-1.313,0.015-2.007c-0.493,0.146-1.001,0.291-1.523,0.432V24.59h1.362v-1.816h-1.362v-3.076h1.465
		v-1.846h-4.805v1.846h1.465v3.076h-1.406v1.816h1.406v3.604l-1.743,0.396l0.41,2.079c1.484-0.478,2.871-0.895,4.16-1.252v1.545
		h10.049v-1.669h-3.984V28.018z M160.854,19.331h1.436v1.392h-1.436V19.331z M160.854,22.246h1.436v1.406h-1.436V22.246z
		 M158.979,23.652h-1.436v-1.406h1.436V23.652z M158.979,20.723h-1.436v-1.392h1.436V20.723z"/>
	<path fill="#FFFFFF" d="M175.303,28.076c1.309,0.986,2.485,1.929,3.53,2.826l1.348-1.405c-1.348-1.064-2.563-1.968-3.647-2.71
		L175.303,28.076z"/>
	<path fill="#FFFFFF" d="M169.106,26.934c-1.055,1.006-2.212,1.865-3.472,2.578c0.439,0.469,0.884,0.991,1.333,1.566
		c1.309-0.858,2.515-1.806,3.618-2.841L169.106,26.934z"/>
	<path fill="#FFFFFF" d="M178.716,27.329l1.392-1.274c-1.631-1.641-2.822-2.788-3.574-3.442l-1.362,1.099
		c0.337,0.303,0.693,0.64,1.069,1.011c-2.134,0.151-4.253,0.273-6.357,0.366c3.086-1.162,5.996-2.5,8.73-4.014l-1.377-1.377
		c-0.762,0.459-1.507,0.894-2.233,1.304l-4.842,0.22c1.138-0.557,2.214-1.143,3.23-1.758c2.143-0.117,4.196-0.269,6.159-0.454
		l-0.293-1.611c-3.896,0.4-8.237,0.591-13.022,0.571c0.146,0.615,0.254,1.201,0.322,1.758l3.735-0.11
		c-1.152,0.684-2.261,1.223-3.325,1.619l0.542,1.787c1.055-0.151,2.551-0.286,4.489-0.403c-1.918,0.981-3.703,1.785-5.354,2.41
		l0.513,1.816c1.162-0.137,2.837-0.262,5.024-0.373v2.365c0,0.244-0.063,0.41-0.19,0.498s-0.388,0.132-0.784,0.132
		c-0.541,0-1.052-0.02-1.53-0.059c0.166,0.615,0.293,1.278,0.381,1.991c0.986,0,1.774-0.01,2.366-0.031
		c0.59-0.023,1.029-0.164,1.318-0.422c0.287-0.26,0.432-0.635,0.432-1.128v-3.442l3.537-0.139
		C178.034,26.58,178.369,26.943,178.716,27.329z"/>
	<path fill="#FFFFFF" d="M193.747,26.948c-0.073,1.104-0.146,1.774-0.22,2.015c-0.073,0.238-0.225,0.358-0.454,0.358h-0.132
		c-0.254,0-0.381-0.19-0.381-0.571v-4.219l0.71-0.037c0.181,0.303,0.354,0.603,0.521,0.901l1.597-0.967
		c-0.742-1.182-1.631-2.456-2.666-3.823l-1.465,0.835c0.371,0.518,0.723,1.028,1.055,1.531c-1.479,0.088-2.832,0.154-4.058,0.198
		c0.835-0.967,1.572-1.948,2.212-2.944h4.688v-1.67h-3.684c-0.24-0.552-0.491-1.094-0.755-1.626l-2.183,0.396
		c0.205,0.43,0.389,0.84,0.549,1.23h-3.244v1.67h2.476c-0.898,1.582-1.733,2.617-2.505,3.105l0.527,1.787
		c0.327-0.068,0.764-0.134,1.311-0.198c-0.043,2.124-0.598,3.54-1.662,4.249c0.005-0.42,0.02-0.813,0.044-1.18
		c-2.363,0.283-4.028,0.459-4.995,0.527l0.161,1.948c1.152-0.176,2.383-0.329,3.691-0.462c0.557,0.557,1.04,1.066,1.45,1.531
		c0.854-0.43,1.582-1.135,2.183-2.113s0.928-2.54,0.981-4.684l1.187-0.088v4.673c0.01,1.24,0.576,1.86,1.699,1.86h0.864
		c0.713,0,1.234-0.211,1.563-0.63c0.33-0.42,0.561-1.377,0.692-2.871C194.919,27.485,194.333,27.241,193.747,26.948z"/>
	<path fill="#FFFFFF" d="M183.303,23.11c-0.806,1.206-1.489,2.09-2.051,2.651l0.454,1.626c1.084-0.195,2.417-0.332,3.999-0.41
		c-0.01-0.508,0.024-1.064,0.103-1.67l-2.168,0.249c0.947-1.348,1.929-2.822,2.944-4.424l-1.523-0.82l-0.667,1.106
		c-0.518,0.029-0.979,0.046-1.384,0.051c0.83-1.182,1.602-2.441,2.314-3.779l-1.919-0.762c-0.752,1.875-1.592,3.447-2.52,4.717
		l0.527,1.655C181.911,23.228,182.541,23.164,183.303,23.11z"/>
</g>
</svg>
