<?xml version="1.0" encoding="utf-8"?>
<!DOCTYPE svg PUBLIC "-//W3C//DTD SVG 1.1//EN" "http://www.w3.org/Graphics/SVG/1.1/DTD/svg11.dtd">
<svg version="1.1" id="图层_1" xmlns="http://www.w3.org/2000/svg" xmlns:xlink="http://www.w3.org/1999/xlink" x="0px" y="0px"
	 width="24px" height="24px" viewBox="0 0 24 24" enable-background="new 0 0 24 24" xml:space="preserve">
<g>
	<path fill="#E95942" d="M14.985,10.066c-0.667-0.125-1.312,0.323-1.434,0.993c-0.428,2.348-2.575,5.075-4.707,5.075
		c-2.224,0-4.032-1.81-4.032-4.03c0-2.224,1.809-4.032,4.032-4.032c0.166,0,0.33,0.024,0.493,0.045l1.477-2.184
		c-0.637-0.204-1.295-0.329-1.97-0.329c-3.584,0-6.501,2.916-6.501,6.5c0,0.477,0.057,0.941,0.155,1.392
		C1.093,13.664,0,14.849,0,16.298c0,1.568,1.271,2.839,2.838,2.839c1.105,0,2.051-0.639,2.52-1.559
		c1.01,0.644,2.203,1.022,3.487,1.022c3.813,0,6.595-4.123,7.134-7.1C16.102,10.83,15.656,10.187,14.985,10.066z"/>
	<path fill="#60BEEE" d="M9.014,13.936c0.668,0.124,1.312-0.322,1.436-0.994c0.426-2.347,2.576-5.074,4.706-5.074
		c2.225,0,4.031,1.808,4.031,4.03c0,2.223-1.807,4.031-4.031,4.031c-0.167,0-0.33-0.023-0.493-0.044l-1.477,2.185
		c0.637,0.203,1.295,0.326,1.97,0.326c3.583,0,6.5-2.914,6.5-6.498c0-0.478-0.057-0.942-0.154-1.392
		C22.906,10.335,24,9.153,24,7.702c0-1.567-1.271-2.838-2.838-2.838c-1.104,0-2.051,0.638-2.52,1.559
		c-1.011-0.644-2.204-1.023-3.487-1.023c-3.813,0-6.594,4.125-7.134,7.101C7.897,13.17,8.344,13.813,9.014,13.936z"/>
</g>
</svg>
