<?xml version="1.0" encoding="utf-8"?>
<!DOCTYPE svg PUBLIC "-//W3C//DTD SVG 1.1//EN" "http://www.w3.org/Graphics/SVG/1.1/DTD/svg11.dtd">
<svg version="1.1" id="图层_1" xmlns="http://www.w3.org/2000/svg" xmlns:xlink="http://www.w3.org/1999/xlink" x="0px" y="0px"
	 width="64px" height="64px" viewBox="0 0 64 64" enable-background="new 0 0 64 64" xml:space="preserve">
<circle fill="#FFF5EA" cx="32" cy="32" r="32"/>
<g>
	<g>
		<path fill="#FF8200" d="M32,13.625c-10.132,0-18.375,8.243-18.375,18.375S21.868,50.375,32,50.375S50.375,42.132,50.375,32
			S42.132,13.625,32,13.625z M32,47.375c-8.478,0-15.375-6.897-15.375-15.375c0-8.478,6.897-15.375,15.375-15.375
			c8.478,0,15.375,6.897,15.375,15.375C47.375,40.478,40.478,47.375,32,47.375z"/>
		<polygon fill="#FF8200" points="33.5,22.125 30.5,22.125 30.5,33.5 39.75,33.5 39.75,30.5 33.5,30.5 		"/>
	</g>
</g>
</svg>
