<?xml version="1.0" encoding="utf-8"?>
<!DOCTYPE svg PUBLIC "-//W3C//DTD SVG 1.1//EN" "http://www.w3.org/Graphics/SVG/1.1/DTD/svg11.dtd">
<svg version="1.1" id="图层_1" xmlns="http://www.w3.org/2000/svg" xmlns:xlink="http://www.w3.org/1999/xlink" x="0px" y="0px"
	 width="64px" height="64px" viewBox="0 0 64 64" enable-background="new 0 0 64 64" xml:space="preserve">
<g>
	<g>
		<path fill="#FAF2D5" d="M61.746,30.648H48.647c-1.244,0-2.253,1.009-2.253,2.253c0,1.245,1.009,2.254,2.253,2.254h13.099
			c1.245,0,2.254-1.009,2.254-2.254C64,31.657,62.991,30.648,61.746,30.648z"/>
		<path fill="#FAF2D5" d="M19.408,32.901c0-1.245-1.009-2.253-2.254-2.253H4.056c-1.245,0-2.253,1.009-2.253,2.253
			c0,1.245,1.009,2.254,2.253,2.254h13.098C18.399,35.155,19.408,34.146,19.408,32.901z"/>
		<path fill="#FAF2D5" d="M44.036,24.021c0.576,0,1.153-0.22,1.594-0.66l9.262-9.262c0.881-0.88,0.881-2.307,0-3.187
			c-0.88-0.88-2.307-0.88-3.187,0l-9.263,9.262c-0.88,0.88-0.88,2.307,0,3.187C42.883,23.801,43.46,24.021,44.036,24.021z"/>
		<path fill="#FAF2D5" d="M20.173,42.442l-9.262,9.262c-0.88,0.88-0.88,2.307,0,3.187c0.439,0.44,1.017,0.66,1.593,0.66
			s1.154-0.22,1.593-0.66l9.262-9.261c0.88-0.88,0.88-2.307,0-3.188C22.48,41.563,21.053,41.563,20.173,42.442z"/>
		<path fill="#FAF2D5" d="M32.902,19.408c1.245,0,2.253-1.009,2.253-2.254V4.056c0-1.245-1.009-2.253-2.253-2.253
			s-2.253,1.009-2.253,2.253v13.099C30.648,18.399,31.657,19.408,32.902,19.408z"/>
		<path fill="#FAF2D5" d="M32.901,46.395c-1.245,0-2.253,1.009-2.253,2.253v13.099c0,1.245,1.009,2.254,2.253,2.254
			s2.254-1.009,2.254-2.254V48.647C35.155,47.403,34.146,46.395,32.901,46.395z"/>
		<path fill="#FAF2D5" d="M20.171,23.358c0.439,0.44,1.017,0.66,1.593,0.66s1.153-0.22,1.593-0.66c0.88-0.88,0.88-2.307,0-3.187
			l-9.26-9.26c-0.879-0.88-2.307-0.88-3.187,0c-0.88,0.88-0.88,2.307,0,3.187L20.171,23.358z"/>
		<path fill="#FAF2D5" d="M45.628,42.441c-0.881-0.881-2.307-0.881-3.187,0c-0.881,0.879-0.881,2.306,0,3.187l9.263,9.264
			c0.44,0.44,1.017,0.66,1.594,0.66c0.576,0,1.153-0.22,1.593-0.66c0.881-0.879,0.881-2.307,0-3.187L45.628,42.441z"/>
		<circle fill="#FAF2D5" cx="32.901" cy="32.902" r="11.155"/>
	</g>
</g>
<g>
	<path fill="#FFD329" d="M59.943,28.845H46.845c-1.244,0-2.253,1.009-2.253,2.253s1.009,2.253,2.253,2.253h13.099
		c1.245,0,2.254-1.008,2.254-2.253S61.188,28.845,59.943,28.845z"/>
	<path fill="#FFD329" d="M17.605,31.099c0-1.245-1.009-2.253-2.253-2.253H2.253C1.009,28.845,0,29.854,0,31.099
		s1.009,2.253,2.253,2.253h13.098C16.596,33.352,17.605,32.343,17.605,31.099z"/>
	<path fill="#FFD329" d="M42.233,22.218c0.576,0,1.153-0.22,1.593-0.66l9.263-9.262c0.88-0.88,0.88-2.307,0-3.187
		c-0.88-0.88-2.307-0.88-3.187,0l-9.263,9.262c-0.88,0.879-0.88,2.306,0,3.187C41.08,21.998,41.656,22.218,42.233,22.218z"/>
	<path fill="#FFD329" d="M18.371,40.64l-9.262,9.262c-0.88,0.88-0.88,2.307,0,3.187c0.439,0.44,1.017,0.66,1.593,0.66
		s1.153-0.22,1.593-0.66l9.262-9.262c0.88-0.879,0.88-2.306,0-3.187C20.678,39.76,19.25,39.76,18.371,40.64z"/>
	<path fill="#FFD329" d="M31.099,17.605c1.244,0,2.252-1.009,2.252-2.253V2.253C33.352,1.009,32.343,0,31.099,0
		c-1.245,0-2.253,1.009-2.253,2.253v13.099C28.846,16.597,29.854,17.605,31.099,17.605z"/>
	<path fill="#FFD329" d="M31.098,44.592c-1.245,0-2.253,1.009-2.253,2.253v13.099c0,1.245,1.009,2.254,2.253,2.254
		c1.244,0,2.253-1.009,2.253-2.254V46.845C33.352,45.601,32.342,44.592,31.098,44.592z"/>
	<path fill="#FFD329" d="M18.368,21.556c0.44,0.44,1.017,0.66,1.594,0.66c0.576,0,1.153-0.22,1.593-0.66
		c0.88-0.88,0.88-2.308,0-3.187l-9.26-9.26c-0.879-0.88-2.307-0.88-3.187,0c-0.88,0.88-0.88,2.307,0,3.187L18.368,21.556z"/>
	<path fill="#FFD329" d="M43.825,40.639c-0.881-0.881-2.307-0.881-3.187,0c-0.881,0.879-0.881,2.306,0,3.187l9.263,9.264
		c0.44,0.44,1.017,0.66,1.594,0.66c0.576,0,1.152-0.22,1.593-0.66c0.881-0.879,0.881-2.307,0-3.187L43.825,40.639z"/>
	<circle fill="#FFD329" cx="31.099" cy="31.099" r="11.155"/>
</g>
</svg>
