<?xml version="1.0" encoding="UTF-8"?>
<svg width="306px" height="38px" viewBox="0 0 306 38" version="1.1" xmlns="http://www.w3.org/2000/svg" xmlns:xlink="http://www.w3.org/1999/xlink">
    <title>云会务蓝</title>
    <g id="控件" stroke="none" stroke-width="1" fill="none" fill-rule="evenodd">
        <g id="logo备份-2" fill="#0080CC" fill-rule="nonzero">
            <path d="M35,3 C33.7413649,6.0807619 32.5785079,8.89219046 31.685993,11.6906667 C33.1978692,14.1009233 33.9968441,16.8799672 33.992783,19.7142858 C33.992783,28.1561904 27.0546477,35 18.4963914,35 C9.93774892,35 3,28.1561904 3,19.7142858 C3,11.272 9.93774892,4.42857144 18.4963914,4.42857144 C22.0796815,4.4234098 25.5530895,5.64852933 28.3206209,7.89371429 C31.4249198,6.04419046 33.5853389,4.37561906 35,3 Z M20.4629367,5.69635846 C13.6646069,5.69635846 8.15310534,11.1329524 8.15310534,17.8392381 C8.15310534,24.5455238 13.6642207,29.9820952 20.4629367,29.9820952 C27.2612664,29.9820952 32.7731658,24.5455238 32.7731658,17.8392381 C32.7750263,15.9478902 32.3268577,14.0825084 31.4646986,12.3931428 C30.6035692,15.2436317 30.0415221,18.1034125 29.9704097,21.2434974 L29.9627555,21.9207619 L21.2310942,19.720381 L31.792585,6.89904763 L29.531367,8.58247619 L24.6439692,12.7428572 L19.5514977,15.0491428 L16.5190326,18.5325714 L8.73820271,16.5714286 C17.2864177,13.6224762 23.4892226,10.72 27.8838254,8.15161906 C25.7487159,6.55517805 23.1421232,5.69277384 20.4629367,5.69635846 Z M296.163431,10.4953333 L296.562431,12.4333333 L300.742431,12.4333333 L300.742431,14.6373333 L295.669431,14.6373333 C294.871431,15.8913333 293.845431,17.3733333 293.408431,17.7153333 L293.408431,17.7153333 L297.284431,17.5633333 C296.885431,16.9743333 296.505431,16.4803333 296.220431,16.1193333 L296.220431,16.1193333 L297.892431,14.9793333 C298.804431,15.9863333 300.305431,18.0763333 301.065431,19.2923333 L301.065431,19.2923333 L299.374431,20.7553333 C299.165431,20.3943333 298.918431,19.9953333 298.633431,19.5583333 C298.386431,19.5773333 298.063431,19.5963333 297.702431,19.5963333 L297.702431,19.5963333 L297.702431,24.8023333 C297.702431,25.3343333 297.740431,25.3723333 298.177431,25.3723333 L298.177431,25.3723333 L298.576431,25.3723333 C299.127431,25.3723333 299.241431,25.2963333 299.374431,24.7073333 C299.469431,24.1753333 299.507431,23.6813333 299.526431,22.9213333 L299.526431,22.9213333 L301.426431,23.5673333 C301.369431,24.4223333 301.331431,25.0113333 301.236431,25.5243333 C300.989431,26.8923333 300.533431,27.4813333 298.823431,27.4813333 L298.823431,27.4813333 L297.740431,27.4813333 C296.296431,27.4813333 295.593431,27.0063333 295.593431,25.2013333 L295.593431,25.2013333 L295.593431,19.7103333 L294.567431,19.7673333 C294.567431,20.0523333 294.548431,20.3563333 294.548431,20.6033333 C294.396431,24.1753333 293.883431,26.1133333 290.634431,28.1463333 L290.634431,28.1463333 L289.247431,26.3413333 C289.722431,26.0563333 290.121431,25.7903333 290.444431,25.5433333 C289.076431,25.7903333 285.941431,26.5693333 284.763431,26.8163333 L284.763431,26.8163333 L284.364431,24.3843333 C285.542431,24.2323333 289.171431,23.4723333 290.463431,23.0923333 L290.463431,23.0923333 L290.577431,24.3273333 L290.691431,25.3343333 C292.059431,24.1753333 292.211431,22.9973333 292.363431,20.3943333 C292.363431,20.2613333 292.382431,20.1093333 292.382431,19.9003333 C291.774431,19.9573333 291.204431,19.9953333 290.843431,20.0523333 L290.843431,20.0523333 L290.216431,17.9813333 C290.615431,17.8483333 290.767431,17.6203333 290.976431,17.4873333 C291.356431,17.1643333 292.306431,15.8723333 293.123431,14.6373333 L293.123431,14.6373333 L291.014431,14.6373333 L291.242431,14.7513333 C290.996892,15.2884487 290.703151,15.8778984 290.393837,16.4655471 L290.393837,16.4655471 L290.125658,16.9675424 C289.359323,18.3814576 288.556123,19.6935256 288.183431,20.1283333 C288.810431,19.9953333 289.836431,19.8813333 290.425431,19.7483333 L290.425431,19.7483333 L290.444431,22.0093333 C290.178431,22.0456061 289.150704,22.2357631 288.110386,22.4084333 L288.110386,22.4084333 L287.665948,22.4808645 C287.225108,22.5512259 286.801613,22.6138788 286.454431,22.6553333 C286.074431,22.7123333 285.675431,22.7883333 285.390431,22.8453333 L285.390431,22.8453333 L284.839431,20.6603333 C285.067431,20.5273333 285.542431,20.2803333 285.770431,19.9003333 C286.017431,19.4633333 286.511431,18.6843333 287.062431,17.7533333 C286.663431,17.8103333 286.264431,17.8293333 285.960431,17.8483333 C285.523431,17.8863333 285.200431,17.9433333 284.972431,18.0003333 L284.972431,18.0003333 L284.478431,15.7773333 C284.687431,15.7013333 284.877431,15.5683333 285.029431,15.3593333 C285.428431,14.8083333 286.663431,12.4903333 287.366431,10.6093333 L287.366431,10.6093333 L289.513431,11.2363333 C288.848431,12.7753333 287.613431,15.0743333 287.100431,15.6443333 C287.461431,15.5873333 287.917431,15.6063333 288.373431,15.5493333 C288.734431,14.9223333 289.019431,14.3143333 289.304431,13.7633333 L289.304431,13.7633333 L290.634431,14.4473333 L290.634431,12.4333333 L294.263431,12.4333333 L293.845431,10.6093333 L296.163431,10.4953333 Z M148.514431,11.9773333 L150.832431,12.5093333 C149.958431,16.9553333 149.065431,19.9193333 147.488431,22.3703333 C148.723431,23.6053333 150.281431,24.7263333 152.124431,25.7523333 L152.124431,25.7523333 L150.870431,28.0513333 C148.970431,26.8543333 147.336431,25.6383333 145.968431,24.2703333 C144.657431,25.6383333 142.966431,26.8543333 140.743431,28.1463333 L140.743431,28.1463333 L139.394431,25.9803333 C141.522431,24.7643333 143.099431,23.6243333 144.315431,22.4083333 C142.358431,19.9193333 141.066431,16.9933333 140.249431,13.1173333 L140.249431,13.1173333 L142.453431,12.3573333 C143.080431,15.6063333 144.125431,18.2283333 145.854431,20.5273333 C147.260431,18.4183333 147.963431,15.7773333 148.514431,11.9773333 L148.514431,11.9773333 Z M182.258431,10.6663333 L184.538431,10.7803333 L184.537577,11.7992826 C184.533681,12.2923177 184.517056,12.9344583 184.500431,13.6493333 L184.500431,13.6493333 L188.376431,13.6493333 L188.034431,25.0873333 C187.939431,26.7213333 187.255431,27.1203333 185.754431,27.2723333 L185.754431,27.2723333 L184.120431,27.4433333 L183.417431,25.1633333 L184.918431,25.0113333 C185.450431,24.9353333 185.697431,24.8213333 185.754431,23.8333333 C185.906431,21.3823333 186.001431,17.9243333 186.058431,15.9673333 L186.058431,15.9673333 L184.443431,15.9673333 C184.443431,16.1383333 184.424431,16.3093333 184.424431,16.4803333 C184.272431,20.4893333 184.842431,23.9473333 181.137431,27.9943333 L181.137431,27.9943333 L179.085431,26.7213333 C179.598431,26.2083333 180.054431,25.6953333 180.415431,25.2203333 L180.415431,25.2203333 L179.275431,25.8093333 L179.009431,25.0493333 C177.128431,25.4103333 175.361431,25.6383333 173.974431,25.8663333 C173.765431,25.9233333 173.556431,25.9423333 173.347431,25.9993333 L173.347431,25.9993333 L172.701431,23.6813333 C173.214431,23.4343333 173.290431,23.1873333 173.461431,22.8833333 C173.727431,22.4273333 174.620431,20.6413333 175.171431,18.5703333 L175.171431,18.5703333 L172.777431,18.5703333 L172.777431,16.2333333 L180.548431,16.2333333 L180.548431,18.5703333 L177.546431,18.5703333 C177.033431,20.2423333 176.178431,22.3893333 175.722431,23.3393333 C176.539431,23.2063333 177.356431,23.0923333 178.211431,22.8833333 C177.907431,21.9903333 177.584431,21.1733333 177.299431,20.5083333 L177.299431,20.5083333 L179.332431,19.6343333 C179.940431,20.9453333 180.453431,22.2943333 181.137431,24.0423333 C182.144431,22.0283333 182.068431,19.9383333 182.163431,16.6513333 C182.163431,16.4423333 182.182431,16.2523333 182.182431,15.9673333 L182.182431,15.9673333 L180.510431,15.9673333 L180.510431,13.6493333 L182.220431,13.6493333 L182.258431,10.6663333 Z M132.041431,19.5963333 L132.041431,21.8193333 L124.859431,21.8193333 C123.852431,23.1303333 122.807431,24.3083333 122.123431,24.7833333 C123.700431,24.7263333 125.581431,24.6123333 127.329431,24.4603333 C126.930431,23.9283333 126.569431,23.4723333 126.246431,23.0733333 L126.246431,23.0733333 L128.089431,21.8383333 C129.020431,22.9213333 130.559431,24.8593333 131.585431,26.4933333 L131.585431,26.4933333 L129.704431,27.9373333 C129.419431,27.4623333 129.096431,26.9873333 128.773431,26.4743333 C127.709431,26.5703889 126.435668,26.6578241 125.140994,26.7411087 L124.030556,26.8115833 C122.370431,26.9160833 120.764931,27.0158333 119.615431,27.1203333 C119.311431,27.1773333 119.026431,27.1963333 118.779431,27.2533333 L118.779431,27.2533333 L118.266431,25.0683333 C118.855431,24.8213333 118.988431,24.7263333 119.368431,24.4413333 C120.109431,23.8903333 121.078431,22.9023333 121.914431,21.8193333 L121.914431,21.8193333 L117.392431,21.8193333 L117.392431,19.5963333 L132.041431,19.5963333 Z M44.6604308,10.6853333 L46.9784308,10.7613333 L46.5794308,12.0723333 L48.9544308,12.0723333 L48.9544308,25.3343333 C48.9544308,25.4863333 48.9544308,25.6383333 48.9354308,25.7713333 C50.2084308,24.1563333 50.3224308,23.2633333 50.3224308,19.6723333 L50.3224308,16.5183333 L55.9274308,16.5183333 L55.9279875,24.6561718 L55.9279875,24.6561718 L55.933983,24.8641868 C55.947687,25.1400937 55.9878853,25.3913333 56.0984308,25.3913333 L56.0984308,25.3913333 L56.3074308,25.3913333 C56.4404308,25.3913333 56.5164308,25.1823333 56.5734308,24.7453333 C56.6304308,24.3083333 56.6874308,23.2823333 56.7444308,22.5793333 L56.7444308,22.5793333 L58.5494308,23.2253333 C58.5494308,23.2808718 58.5471823,23.3584458 58.5431695,23.4521745 L58.5263229,23.7759442 C58.4945669,24.3166529 58.4368923,25.0654103 58.3974308,25.4863333 C58.2644308,27.0633333 57.7514308,27.5193333 56.4404308,27.5003333 L56.4404308,27.5003333 L55.6143335,27.4998963 C54.5462693,27.4746701 53.9704308,26.9390417 53.9704308,25.3913333 L53.9704308,25.3913333 L53.9704308,18.7603333 L52.3554308,18.7603333 L52.3554308,20.1663333 C52.3554308,24.1373333 51.9754308,25.6573333 50.2464308,27.8803333 L50.2464308,27.8803333 L48.7264308,26.5883333 C48.4224308,27.1963333 47.7764308,27.3483333 46.6174308,27.4813333 L46.6174308,27.4813333 L45.6674308,27.5763333 L45.0594308,25.4293333 L46.0284308,25.3533333 C46.7884308,25.2963333 46.8834308,25.1633333 46.8834308,24.6693333 L46.8834308,24.6693333 L46.8834308,22.9403333 L45.6484308,23.6813333 C45.4964308,23.2253333 45.0404308,22.1423333 44.7364308,21.5913333 C44.5274308,24.6883333 43.9384308,26.0183333 43.0264308,27.7283333 L43.0264308,27.7283333 L41.0884308,26.6263333 L41.2896618,26.224072 C42.1338185,24.532068 42.6152165,23.4356905 42.7034308,20.2423333 L42.7034308,20.2423333 L41.6584308,20.2423333 L41.6584308,18.0573333 L42.7224308,18.0573333 L42.7224308,12.0723333 L44.2614308,12.0723333 L44.6604308,10.6853333 Z M199.567431,10.6283333 L201.752431,10.7233333 L201.695431,13.5163333 L205.818431,13.5163333 C205.818431,13.8203333 205.704431,15.3783333 205.609431,17.2973333 C206.502431,18.2473333 207.851431,19.9193333 208.421431,20.7933333 L208.421431,20.7933333 L206.977431,22.2373333 C206.578431,21.5533333 206.027431,20.7363333 205.476431,19.9763333 C205.324431,22.2753333 205.210431,24.3843333 205.210431,24.7833333 C205.115431,26.9493333 204.583431,27.3483333 202.683431,27.5573333 L202.683431,27.5573333 L201.372431,27.7093333 L200.669431,25.3343333 L201.866431,25.2013333 C202.740431,25.1063333 202.873431,24.8403333 202.968431,23.8523333 C203.044431,23.1683333 203.386431,16.6133333 203.462431,15.8533333 L203.462431,15.8533333 L201.619431,15.8533333 C201.410431,21.8763333 200.479431,24.3463333 197.211431,27.8043333 L197.211431,27.8043333 L195.387431,26.3793333 C198.484431,23.3393333 199.111431,20.7933333 199.415431,15.8533333 L199.415431,15.8533333 L196.698431,15.8533333 L196.698431,13.5163333 L199.510431,13.5163333 L199.567431,10.6283333 Z M225.616431,11.2743333 L225.616431,24.9923333 C225.616431,26.9873333 225.046431,27.4053333 223.450431,27.5573333 L223.450431,27.5573333 L221.816431,27.7283333 L221.075431,25.5813333 L222.348431,25.4483333 C223.127431,25.3723333 223.260431,25.1633333 223.260431,24.3843333 L223.260431,24.3843333 L223.260431,13.4973333 L212.886431,13.4973333 L212.886431,27.5953333 L210.549431,27.5953333 L210.549431,11.2743333 L225.616431,11.2743333 Z M281.001431,10.8373333 L281.362431,13.0413333 C280.469431,13.1363333 279.367431,13.2313333 278.094431,13.3263333 L278.094431,13.3263333 L279.576431,15.1123333 C277.505431,17.0313333 274.826431,18.9123333 273.154431,19.7293333 C274.598431,19.6723333 276.175431,19.5773333 277.752431,19.5203333 C277.353431,19.0833333 277.011431,18.7413333 276.726431,18.4943333 L276.726431,18.4943333 L278.436431,17.0503333 C279.500431,18.0763333 281.305431,19.9953333 282.312431,21.1543333 L282.312431,21.1543333 L280.735431,22.9023333 C280.450431,22.5413333 280.089431,22.0853333 279.652431,21.6103333 L279.652431,21.6103333 L275.643431,21.7813333 L275.643431,25.1253333 C275.643431,27.0063333 275.168431,27.4433333 273.249431,27.5953333 L273.249431,27.5953333 L271.843431,27.7093333 L271.159431,25.4483333 L272.280431,25.3343333 C273.116431,25.2583333 273.268431,25.0683333 273.268431,24.5553333 L273.268431,24.5553333 L273.268431,21.9143333 L270.513431,22.0663333 L271.843431,23.7573333 C270.380431,24.9733333 268.537431,26.3223333 266.960431,27.2343333 L266.960431,27.2343333 L265.630431,25.3533333 C266.998431,24.5363333 268.936431,23.2253333 270.228431,22.0853333 L270.228431,22.0853333 L268.917431,22.1613333 C268.480431,22.1803333 268.043431,22.1993333 267.568431,22.2563333 L267.568431,22.2563333 L267.150431,19.8433333 C267.853431,19.7863333 268.233431,19.7103333 268.974431,19.5583333 C269.867431,19.3113333 271.026431,18.7033333 272.318431,17.8863333 C271.349431,17.9433333 270.342431,17.9243333 269.601431,17.9813333 C268.936431,18.0383333 268.290431,18.0383333 267.853431,18.0953333 L267.853431,18.0953333 L267.416431,15.9863333 C268.309431,15.8533333 268.689431,15.7013333 268.936431,15.5683333 C269.392431,15.3403333 270.418431,14.5993333 271.482431,13.7063333 C269.829431,13.8013333 268.366431,13.8583333 267.302431,13.8773333 L267.302431,13.8773333 L267.074431,11.6733333 C270.722431,11.5973333 277.334431,11.2933333 281.001431,10.8373333 L281.001431,10.8373333 Z M192.575431,10.6663333 L194.855431,10.7613333 L194.855431,15.0933333 L196.280431,15.0933333 L196.280431,17.3923333 L194.855431,17.3923333 L194.855431,27.6143333 L192.575431,27.6143333 L192.575431,17.3923333 L191.017431,17.3923333 L191.017431,15.0933333 L192.575431,15.0933333 L192.575431,10.6663333 Z M156.209431,20.4133333 L157.235431,20.7933333 L158.470431,21.1923333 C158.014431,22.8073333 157.064431,25.5243333 156.152431,27.4053333 L156.152431,27.4053333 L153.872431,26.5883333 C154.480431,25.2583333 155.753431,21.9143333 156.209431,20.4133333 L156.209431,20.4133333 Z M168.825431,10.9513333 L169.243431,13.2123333 C168.198431,13.3833333 166.868431,13.5353333 165.367431,13.6873333 L165.367431,13.6873333 L165.367431,15.7583333 L170.326431,15.7583333 L170.326431,18.1333333 L165.367431,18.1333333 L165.367431,20.0713333 L169.186431,20.0713333 L169.186431,27.3483333 L159.211431,27.3483333 L159.211431,20.0713333 L162.973431,20.0713333 L162.973431,18.1333333 L158.584431,18.1333333 L158.584431,15.7583333 L162.973431,15.7583333 L162.973431,13.8773333 C161.681431,13.9723333 160.446431,14.0293333 159.325431,14.0863333 L159.325431,14.0863333 L159.192431,11.8063333 C162.384431,11.7493333 166.526431,11.3503333 168.825431,10.9513333 L168.825431,10.9513333 Z M231.316431,10.4003333 L233.653431,10.7423333 C233.501431,11.1033333 233.330431,11.4073333 233.121431,11.7683333 L233.121431,11.7683333 L237.092431,11.7683333 L237.092431,12.9653333 C237.567431,12.1483333 237.852431,11.3503333 238.213431,10.4383333 L238.213431,10.4383333 L240.550431,10.7043333 L240.113431,11.7683333 L244.977431,11.7683333 L244.977431,13.7823333 L242.184431,13.7823333 L242.735431,14.7323333 L240.778431,15.4543333 C240.550431,14.9793333 240.208431,14.3333333 239.904431,13.7823333 L239.904431,13.7823333 L239.106431,13.7823333 C238.897431,14.1623333 238.650431,14.5423333 238.403431,14.9033333 L238.403431,14.9033333 L237.795431,14.6373333 L237.985431,15.5493333 L244.597431,15.5493333 L244.597431,18.3423333 L242.773431,18.3423333 L242.773431,22.2373333 L233.045431,22.2373333 L233.045431,23.0353333 L243.210431,23.0353333 L243.210431,27.3103333 L230.613431,27.3103333 L230.613431,18.3423333 L229.055431,18.3423333 L229.055431,15.5493333 L229.511431,15.5493333 L228.200431,14.6183333 C229.416431,13.3453333 230.708431,11.7873333 231.316431,10.4003333 L231.316431,10.4003333 Z M277.676431,21.9713333 C279.025431,22.7313333 281.362431,24.2133333 282.768431,25.1633333 L282.768431,25.1633333 L281.647431,27.3103333 C280.184431,26.2083333 277.657431,24.6313333 276.441431,23.9283333 L276.441431,23.9283333 Z M262.970431,11.2743333 L262.970431,20.5083333 L259.322431,20.5083333 L259.322431,21.6863333 L262.970431,21.6863333 L262.970431,23.8143333 L259.322431,23.8143333 L259.322431,24.9923333 L263.825431,24.9923333 L263.825431,27.1583333 L252.710431,27.1583333 L252.710431,25.2393333 C251.171431,25.5433333 248.112431,26.2463333 247.333431,26.4553333 L247.333431,26.4553333 L246.991431,24.2133333 C247.428431,24.1563333 248.321431,23.9663333 249.328431,23.7573333 L249.328431,23.7573333 L249.328431,19.5963333 L247.656431,19.5963333 L247.656431,17.3923333 L249.328431,17.3923333 L249.328431,14.0483333 L247.523431,14.0483333 L247.523431,11.8443333 L253.090431,11.8443333 L253.090431,14.0483333 L251.494431,14.0483333 L251.494431,17.3923333 L252.976431,17.3923333 L252.976431,19.5963333 L251.494431,19.5963333 L251.494431,23.2633333 C252.235431,23.0923333 252.843431,22.9593333 253.147431,22.8643333 L253.147431,22.8643333 L253.261431,24.0803333 L253.318431,24.9923333 L257.175431,24.9923333 L257.175431,23.8143333 L253.584431,23.8143333 L253.584431,21.6863333 L257.175431,21.6863333 L257.175431,20.5083333 L253.508431,20.5083333 L253.508431,11.2743333 L262.970431,11.2743333 Z M66.4534308,14.9223333 L67.7264308,16.9933333 C66.4534308,17.8293333 64.9144308,18.7793333 63.3184308,19.6343333 L63.3184308,19.6343333 L74.3764308,19.6343333 L74.3764308,21.8953333 L69.8164308,21.8953333 L69.8164308,24.8213333 L76.3714308,24.8213333 L76.3714308,27.1203333 L60.7534308,27.1203333 L60.7534308,24.8213333 L67.3274308,24.8213333 L67.3274308,21.8953333 L62.7294308,21.8953333 L62.7294308,19.9383333 C62.2734308,20.1853333 61.8174308,20.4133333 61.3804308,20.6223333 L61.3804308,20.6223333 L60.3354308,18.4373333 C62.3874308,17.5633333 64.8384308,16.1383333 66.4534308,14.9223333 L66.4534308,14.9223333 Z M25.0663443,23.7693787 C25.4602719,23.7693787 25.7802418,23.8842152 26.0262635,24.1138916 C26.172705,24.2496752 26.2825345,24.4446805 26.3557552,24.6989136 L25.712148,24.8505859 C25.6740732,24.6859123 25.5946299,24.5559087 25.4738157,24.4605713 C25.3530015,24.3652339 25.2061961,24.3175659 25.0333951,24.3175659 C24.7946954,24.3175659 24.6010295,24.4020682 24.4523913,24.5710754 C24.3037532,24.7400826 24.2294353,25.0138124 24.2294353,25.3922729 C24.2294353,25.7938456 24.3026549,26.0798535 24.4490964,26.2503052 C24.5955379,26.4207569 24.785909,26.5059814 25.0202154,26.5059814 C25.1930164,26.5059814 25.3416523,26.4518133 25.4661276,26.3434753 C25.5906028,26.2351374 25.6799308,26.0646883 25.7341142,25.8321228 L26.3645417,26.0292969 C26.2678903,26.3759783 26.1071731,26.6334576 25.8823854,26.8017426 C25.6575977,26.9700275 25.3724072,27.0541687 25.0268052,27.0541687 C24.5991961,27.0541687 24.2477417,26.9100814 23.9724317,26.6219025 C23.6971217,26.3337235 23.5594688,25.9397405 23.5594688,25.4399414 C23.5594688,24.9112522 23.6978539,24.5006576 23.9746283,24.2081451 C24.2514028,23.9156327 24.6153044,23.7693787 25.0663443,23.7693787 Z M106.752431,10.7993333 L109.203431,10.9133333 L109.203431,20.8693333 C110.115431,18.6843333 111.179431,15.1883333 111.483431,13.5163333 L111.483431,13.5163333 L113.839431,14.0863333 C113.440431,15.9103333 112.281431,19.9953333 111.255431,22.2943333 L111.255431,22.2943333 L109.203431,21.5153333 L109.203431,24.6883333 L114.048431,24.6883333 L114.048431,27.0063333 L97.9174308,27.0063333 L97.9174308,24.6883333 L102.743431,24.6883333 L102.743431,21.4583333 L100.691431,22.2943333 C99.9314308,19.3683333 99.0574308,16.4803333 98.1834308,14.5043333 L98.1834308,14.5043333 L100.558431,13.7253333 C101.202847,15.3973333 101.927091,17.4205694 102.570177,19.6047888 L102.570177,19.6047888 L102.742,20.202 L102.743431,10.7993333 L105.194431,10.9133333 L105.194431,24.6883333 L106.752431,24.6883333 L106.752431,10.7993333 Z M16.9538372,23.8235474 L18.2432482,27 L17.5359392,27 L17.254773,26.2784729 L15.9675586,26.2784729 L15.7017686,27 L15.0120326,27 L16.2662978,23.8235474 L16.9538372,23.8235474 Z M19.0195245,23.8235474 L19.8344673,26.174469 L20.6230509,23.8235474 L21.3127869,23.8235474 L20.1595658,27 L19.4654366,27 L18.3144122,23.8235474 L19.0195245,23.8235474 Z M22.6645754,23.8235474 L22.6645754,27 L22.0143784,27 L22.0143784,23.8235474 L22.6645754,23.8235474 Z M139.185431,16.0243333 L139.185431,22.8263333 C139.603431,22.4653333 140.382431,21.7813333 140.781431,21.3823333 L140.781431,21.3823333 L141.522431,23.7193333 C141.421097,23.808 141.199431,24.0001111 140.916542,24.2435926 L140.916542,24.2435926 L140.615435,24.5022689 C140.456867,24.6382401 140.287919,24.7827143 140.115981,24.9291824 L140.115981,24.9291824 L139.770306,25.2228484 C139.48257,25.466571 139.200209,25.7037778 138.957431,25.9043333 C138.672431,26.2083333 138.349431,26.4743333 138.121431,26.7593333 L138.121431,26.7593333 L136.620431,25.1253333 C136.943431,24.6693333 136.962431,24.2323333 136.962431,23.7003333 L136.962431,23.7003333 L136.962431,18.3613333 L135.233431,18.3613333 L135.233431,16.0243333 L139.185431,16.0243333 Z M94.0224308,11.6163333 L94.0224308,14.1623333 L88.5504308,14.1623333 L88.5504308,24.2323333 L95.4094308,24.2323333 L95.4094308,26.6643333 L79.1074308,26.6643333 L79.1074308,24.2323333 L85.9664308,24.2323333 L85.9664308,14.1623333 L80.5514308,14.1623333 L80.5514308,11.6163333 L94.0224308,11.6163333 Z M16.6023794,24.5645752 L16.1674503,25.7432861 L17.0460949,25.7432861 L16.6023794,24.5645752 Z M240.759431,24.7643333 L233.045431,24.7643333 L233.045431,25.5813333 L240.759431,25.5813333 L240.759431,24.7643333 Z M166.792431,22.4083333 L161.548431,22.4083333 L161.548431,25.0493333 L166.792431,25.0493333 L166.792431,22.4083333 Z M221.835431,18.0763333 L221.835431,24.7453333 L214.178431,24.7453333 L214.178431,18.0763333 L221.835431,18.0763333 Z M46.8834308,20.2423333 L44.7934308,20.2423333 L44.7364308,21.3633333 L45.8764308,20.7553333 C46.1044308,21.0973333 46.6364308,22.1423333 46.8834308,22.7503333 L46.8834308,22.7503333 L46.8834308,20.2423333 Z M196.945431,16.9363333 L198.921431,17.6393333 C198.465431,19.2733333 197.667431,21.3443333 197.002431,22.7313333 L197.002431,22.7313333 L195.083431,21.7433333 C195.938431,20.2423333 196.508431,18.5893333 196.945431,16.9363333 L196.945431,16.9363333 Z M219.688431,20.1473333 L216.325431,20.1473333 L216.325431,22.7123333 L219.688431,22.7123333 L219.688431,20.1473333 Z M240.360431,19.7293333 L233.045431,19.7293333 L233.045431,20.5843333 L240.360431,20.5843333 L240.360431,19.7293333 Z M30.6389969,7.99657144 L29.866591,8.93295237 L20.3725652,20.4601904 L15.0947163,20.4601904 L19.6322141,15.2220952 L24.7494026,12.9047619 L29.6576553,8.72685715 L30.6389969,7.99657144 Z M70.4814308,14.9033333 C71.062996,15.1941159 72.1964951,15.7891141 73.3810116,16.4243593 L73.3810116,16.4243593 L74.0291604,16.7732616 C75.1078051,17.3561292 76.1533438,17.9325942 76.7894308,18.3043333 L76.7894308,18.3043333 L75.6874308,20.4323333 C75.3074308,20.1853333 74.8514308,19.9193333 74.3764308,19.6343333 C72.6854308,18.6653333 70.5954308,17.5253333 69.4174308,16.9553333 L69.4174308,16.9553333 Z M154.651431,15.0363333 C155.601431,15.7013333 157.254431,16.8983333 158.204431,17.7153333 L158.204431,17.7153333 L156.950431,19.8053333 C156.038431,18.9883333 154.271431,17.6013333 153.302431,16.9933333 L153.302431,16.9933333 Z M125.600431,10.1913333 C127.576431,13.2313333 130.103431,14.7323333 133.390431,16.2523333 L133.390431,16.2523333 L132.231431,18.4753333 C130.958431,17.8103333 129.856431,17.1833333 128.868431,16.5183333 L128.868431,16.5183333 L128.868431,18.0953333 L120.413431,18.0953333 L120.413431,16.6893333 C119.501431,17.2783333 118.475431,17.8863333 117.316431,18.4753333 L117.316431,18.4753333 L115.929431,16.3473333 C119.900431,14.6563333 122.313431,12.4903333 123.833431,10.1913333 L123.833431,10.1913333 Z M260.842431,16.9553333 L259.322431,16.9553333 L259.322431,18.3803333 L260.842431,18.3803333 L260.842431,16.9553333 Z M257.175431,16.9553333 L255.693431,16.9553333 L255.693431,18.3803333 L257.175431,18.3803333 L257.175431,16.9553333 Z M46.8834308,14.2003333 L44.8124308,14.2003333 L44.8124308,15.2453333 L45.8954308,14.6563333 C46.1044308,14.9983333 46.7124308,16.2333333 46.8644308,16.7273333 L46.8644308,16.7273333 L45.6484308,17.4493333 C45.4964308,17.0883333 45.0594308,16.0623333 44.8124308,15.5303333 L44.8124308,15.5303333 L44.8124308,18.0573333 L46.8834308,18.0573333 L46.8834308,14.2003333 Z M242.108431,17.3353333 L231.525431,17.3353333 L231.525431,18.0193333 L242.108431,18.0193333 L242.108431,17.3353333 Z M222.519431,14.8273333 L222.519431,16.9173333 L213.513431,16.9173333 L213.513431,14.8273333 L222.519431,14.8273333 Z M69.4744308,10.5143333 L69.8354308,12.2623333 L76.2574308,12.2623333 L76.2574308,16.4423333 L73.8634308,16.4423333 L73.8634308,14.5043333 L63.2234308,14.5043333 L63.2234308,16.4233333 L60.8674308,16.4233333 L60.8674308,12.2623333 L67.3464308,12.2623333 L66.9474308,10.5903333 L69.4744308,10.5143333 Z M124.726431,12.6613333 C123.814431,13.9533333 122.750431,14.9983333 121.439431,15.9673333 L121.439431,15.9673333 L128.089431,15.9673333 C126.702431,14.9603333 125.581431,13.8583333 124.726431,12.6613333 Z M278.056431,13.3263333 C276.707431,13.4213333 275.263431,13.5163333 273.800431,13.5923333 L273.800431,13.5923333 L274.218431,14.0863333 C273.249431,14.9793333 272.470431,15.5683333 271.881431,15.8913333 C272.793431,15.8343333 274.123431,15.8153333 275.263431,15.7583333 C276.251431,14.9793333 277.201431,14.1433333 278.056431,13.3263333 Z M145.227431,10.5333333 C145.778431,11.5023333 146.766431,13.3453333 147.222431,14.4853333 L147.222431,14.4853333 L145.151431,15.8343333 C144.676431,14.6943333 143.764431,12.6803333 143.175431,11.6353333 L143.175431,11.6353333 Z M232.475431,13.7823333 L231.791431,13.7823333 C231.335431,14.4093333 230.841431,14.9983333 230.385431,15.5493333 L230.385431,15.5493333 L235.724431,15.5493333 L235.515431,14.6563333 L237.624431,14.5613333 L236.389431,14.0293333 L236.579431,13.7823333 L234.717431,13.7823333 L235.192431,14.8273333 L233.178431,15.4733333 C232.969431,14.9413333 232.703431,14.2953333 232.475431,13.7823333 L232.475431,13.7823333 Z M155.525431,10.8563333 C156.361431,11.4263333 157.995431,12.6233333 158.869431,13.3453333 L158.869431,13.3453333 L157.615431,15.3403333 C156.836431,14.6753333 155.088431,13.3263333 154.233431,12.7753333 L154.233431,12.7753333 Z M137.722431,10.6663333 C138.330431,11.4453333 139.375431,12.8323333 139.983431,13.8013333 L139.983431,13.8013333 L138.235431,15.3403333 C137.779431,14.4663333 136.620431,12.8133333 135.936431,11.9773333 L135.936431,11.9773333 Z M54.3314308,10.7993333 L54.7494308,12.9083333 L57.9224308,12.9083333 L57.9224308,15.1313333 L49.3914308,15.1313333 L49.3914308,12.9083333 L52.4314308,12.9083333 L52.0134308,10.8753333 L54.3314308,10.7993333 Z M257.175431,13.4403333 L255.693431,13.4403333 L255.693431,14.8653333 L257.175431,14.8653333 L257.175431,13.4403333 Z M260.842431,13.4403333 L259.322431,13.4403333 L259.322431,14.8653333 L260.842431,14.8653333 L260.842431,13.4403333 Z M179.978431,11.6163333 L179.978431,13.8963333 L173.594431,13.8963333 L173.594431,11.6163333 L179.978431,11.6163333 Z" id="wps云文档"></path>
        </g>
    </g>
</svg>