<?xml version="1.0" encoding="UTF-8"?>
<svg width="16px" height="16px" viewBox="0 0 16 16" version="1.1" xmlns="http://www.w3.org/2000/svg" xmlns:xlink="http://www.w3.org/1999/xlink">
    <title>参会人管理</title>
    <g id="会议概况" stroke="none" stroke-width="1" fill="none" fill-rule="evenodd">
        <g id="画板" transform="translate(-49.000000, -137.000000)" fill="#FFFFFF">
            <g id="占位/24x24备份-5" transform="translate(49.000000, 137.000000)">
                <path d="M9.29430679,8.53333333 C10.9573079,8.53333333 12.3857474,8.77862631 13.4291881,9.26275528 C14.6324208,9.82102349 15.3333333,10.7070892 15.3333333,11.84 C15.3333333,12.995022 14.6106693,13.7810711 13.3577778,14.2041298 C12.3871028,14.5318936 11.0727095,14.6666667 9.29430679,14.6666667 L9.29430679,14.6666667 L9.22526885,14.6665984 C7.48226953,14.6631345 6.19184405,14.5276717 5.23595689,14.2039363 C3.98658042,13.7808034 3.26666667,12.9945319 3.26666667,11.84 C3.26666667,10.7074987 3.96570591,9.82137631 5.16627088,9.26301195 C6.20769424,8.77866192 7.63352508,8.53333333 9.29430679,8.53333333 Z M9.29430679,9.86666667 C6.35055845,9.86666667 4.6,10.6808246 4.6,11.84 C4.6,12.3492241 4.90737129,12.6849272 5.66366062,12.9410637 C6.46131021,13.2112079 7.65039741,13.3333333 9.29430679,13.3333333 L9.29430679,13.3333333 L9.35899371,13.3332698 C10.9702939,13.3300917 12.1413902,13.2075682 12.9312182,12.9408702 C13.6909217,12.6843443 14,12.3481566 14,11.84 C14,10.6816093 12.2435583,9.86666667 9.29430679,9.86666667 Z M5.69536763,7 C6.06355747,7 6.3620343,7.29847683 6.3620343,7.66666667 C6.3620343,8.0348565 6.06355747,8.33333333 5.69536763,8.33333333 C3.36016862,8.33333333 2,8.97042051 2,9.83 C2,10.074461 2.08726545,10.2374131 2.29934427,10.3864358 L2.31896904,10.3999469 C2.62416968,10.6058991 2.7046264,11.0202704 2.49867417,11.325471 C2.29272193,11.6306716 1.87835065,11.7111284 1.57315001,11.5051761 C0.988224704,11.1104631 0.666666667,10.5365068 0.666666667,9.83 C0.666666667,8.85113214 1.26595139,8.08606512 2.28250619,7.60992267 C3.14889101,7.20411808 4.32684202,7 5.69536763,7 Z M9.33333333,1.46666667 C11.1374635,1.46666667 12.6,2.92920315 12.6,4.73333333 C12.6,6.53746352 11.1374635,8 9.33333333,8 C7.52920315,8 6.06666667,6.53746352 6.06666667,4.73333333 C6.06666667,2.92920315 7.52920315,1.46666667 9.33333333,1.46666667 Z M9.33333333,2.8 C8.26558282,2.8 7.4,3.66558282 7.4,4.73333333 C7.4,5.80108385 8.26558282,6.66666667 9.33333333,6.66666667 C10.4010838,6.66666667 11.2666667,5.80108385 11.2666667,4.73333333 C11.2666667,3.66558282 10.4010838,2.8 9.33333333,2.8 Z M5.73333333,1.33333333 C6.10152317,1.33333333 6.4,1.63181017 6.4,2 C6.4,2.36194933 6.11155528,2.65652878 5.75199366,2.66641055 L5.73333333,2.66666667 C4.99695367,2.66666667 4.4,3.26362033 4.4,4 C4.4,4.51089662 4.68964097,4.96919191 5.13756421,5.19332105 L5.16087313,5.20470418 C5.49326211,5.36307501 5.6343317,5.76091444 5.47596087,6.09330342 C5.31759004,6.4256924 4.91975061,6.56676198 4.58736163,6.40839116 C3.6662649,5.96952326 3.06666667,5.0387124 3.06666667,4 C3.06666667,2.52724067 4.260574,1.33333333 5.73333333,1.33333333 Z" id="形状结合"></path>
            </g>
        </g>
    </g>
</svg>