<?xml version="1.0" encoding="UTF-8"?>
<svg width="24px" height="24px" viewBox="0 0 24 24" version="1.1" xmlns="http://www.w3.org/2000/svg" xmlns:xlink="http://www.w3.org/1999/xlink">
    <title></title>
    <g id="表单" stroke="none" stroke-width="1" fill="none" fill-rule="evenodd">
        <g id="56" transform="translate(-146.000000, -52.000000)" fill="#191F24">
            <g id="Icon/表单/观察备份" transform="translate(146.000000, 52.000000)">
                <path d="M2.75837631,7.35684883 C5.69424204,10.7798211 7.8177306,11.9820096 11.8772775,12.0074673 C11.9181929,12.0024909 11.9588056,12 12,12 C12.0415622,12 12.0825323,12.0025356 12.1227639,12.0074604 L12.0103438,12.0078817 C16.1539656,12.0078817 18.2714157,10.8305101 21.2415286,7.38103267 C21.6018883,6.96251229 22.2332954,6.91536377 22.6518158,7.27572351 C23.0703362,7.63608324 23.1174847,8.26749032 22.757125,8.6860107 L22.2512822,9.26058825 C21.6420669,9.93636394 21.0517237,10.5301786 20.4616744,11.0480875 L21.7065184,12.2928048 L21.7897188,12.3870018 C22.0947927,12.7792549 22.0671341,13.3464894 21.7066952,13.7070184 C21.3162197,14.0975915 20.6830547,14.0976706 20.2924816,13.7071952 L20.2924816,13.7071952 L18.8531772,12.2680235 C18.2911755,12.626806 17.7149589,12.924721 17.1096072,13.1666317 L17.9477781,15.6840569 L17.9782407,15.79683 C18.0805651,16.2869446 17.8015105,16.7867512 17.3149431,16.9487781 C16.7909474,17.1232687 16.2247124,16.8399388 16.0502219,16.3159431 L16.0502219,16.3159431 L15.1881361,13.7298273 C14.5082929,13.8646688 13.7842199,13.9482002 13.0009197,13.98531 L13,17 C13,17.5522847 12.5522847,18 12,18 C11.4871642,18 11.0644928,17.6139598 11.0067277,17.1166211 L11,17 L10.9990583,13.9841476 C10.2163808,13.9459455 9.49225911,13.8609632 8.81195443,13.7244159 L7.9486833,16.3162278 C7.77403553,16.8401711 7.20771555,17.1233311 6.68377223,16.9486833 C6.19725344,16.7865104 5.91834884,16.2866201 6.02082035,15.7965362 L6.0513167,15.6837722 L6.89363869,13.1576616 C6.29039161,12.9153116 5.71585477,12.6174313 5.15560371,12.2593382 L3.70719518,13.7070184 C3.31671971,14.0975915 2.68355473,14.0976706 2.29298162,13.7071952 C1.9324526,13.3467563 1.90465215,12.7795287 2.209628,12.3871994 L2.29280482,12.2929816 L3.54739778,11.0386299 C2.79067082,10.3739076 2.03442336,9.58482209 1.24027725,8.65891458 C0.880721717,8.2397031 0.92908242,7.6083877 1.3482939,7.24883217 C1.76750538,6.88927664 2.39882078,6.93763735 2.75837631,7.35684883 Z" id="形状结合"></path>
            </g>
        </g>
    </g>
</svg>