<?xml version="1.0" encoding="UTF-8"?>
<svg width="16px" height="17px" viewBox="0 0 16 17" version="1.1" xmlns="http://www.w3.org/2000/svg" xmlns:xlink="http://www.w3.org/1999/xlink">
    <title>票证管理</title>
    <g id="会议概况" stroke="none" stroke-width="1" fill="none" fill-rule="evenodd">
        <g id="画板" transform="translate(-49.000000, -281.000000)" fill="#FFFFFF">
            <g id="票证管理" transform="translate(49.000000, 280.536585)">
                <g id="占位/24x24备份-8" transform="translate(0.000000, 1.000000)">
                    <path d="M12,1.33333333 C13.1045695,1.33333333 14,2.20950934 14,3.29032722 L14,14.6808392 C14,15.0411119 13.7015232,15.3331705 13.3333333,15.3331705 C13.2400544,15.3331705 13.1478137,15.3140166 13.0625744,15.2769471 L8.10830359,13.1223965 C8.03935283,13.0924107 7.96064717,13.0924107 7.89169641,13.1223965 L2.93742564,15.2769471 C2.60096952,15.4232677 2.20699502,15.2749974 2.05745897,14.9457761 C2.01957482,14.8623696 2,14.7721123 2,14.6808392 L2,3.29032722 C2,2.20950934 2.8954305,1.33333333 4,1.33333333 L12,1.33333333 Z M12.0186603,2.63824654 L4,2.63799592 C3.63805067,2.63799592 3.34347122,2.9202382 3.33358945,3.27206815 L3.33333333,13.6770723 L7.35017845,11.9301808 C7.75448064,11.7543548 8.21468203,11.7503588 8.62152509,11.9181927 L8.64982155,11.9301808 L12.6666667,13.6770723 L12.6666667,3.29032722 C12.6666667,2.93616091 12.3782219,2.64791581 12.0186603,2.63824654 Z M9.31505214,7.92187941 C9.6933384,7.92187941 10,8.22854102 10,8.60682727 C10,8.98511353 9.6933384,9.29177513 9.31505214,9.29177513 L5.35161453,9.29177513 C4.97332827,9.29177513 4.66666667,8.98511353 4.66666667,8.60682727 C4.66666667,8.22854102 4.97332827,7.92187941 5.35161453,7.92187941 L9.31505214,7.92187941 Z M10.6483855,5.2473211 C11.0266717,5.2473211 11.3333333,5.55398271 11.3333333,5.93226896 C11.3333333,6.31055522 11.0266717,6.61721682 10.6483855,6.61721682 L5.35161453,6.61721682 C4.97332827,6.61721682 4.66666667,6.31055522 4.66666667,5.93226896 C4.66666667,5.55398271 4.97332827,5.2473211 5.35161453,5.2473211 L10.6483855,5.2473211 Z" id="形状结合"></path>
                </g>
            </g>
        </g>
    </g>
</svg>