<?xml version="1.0" encoding="UTF-8"?>
<svg width="16px" height="16px" viewBox="0 0 16 16" version="1.1" xmlns="http://www.w3.org/2000/svg" xmlns:xlink="http://www.w3.org/1999/xlink">
    <title>详情</title>
    <g id="会议概况" stroke="none" stroke-width="1" fill="none" fill-rule="evenodd">
        <g id="画板" transform="translate(-49.000000, -377.000000)" fill="#FFFFFF">
            <g id="详情" transform="translate(49.000000, 377.000000)">
                <path d="M13.4957646,7.02173662 L15.7972077,8.02581793 C15.968918,8.10069897 16.0467437,8.29908138 15.9710363,8.46891745 C15.9368192,8.54567747 15.8748148,8.60700509 15.7972077,8.64084873 L12.4177646,10.1137366 L15.7972077,11.5882503 C15.968918,11.6631313 16.0467437,11.8615137 15.9710363,12.0313498 C15.9368192,12.1081098 15.8748148,12.1694374 15.7972077,12.2032811 L8.88165469,15.2190808 C8.53233036,15.3714175 8.1343363,15.3714175 7.78501198,15.2190808 L0.869458957,12.2032811 C0.697748685,12.1284 0.619922965,11.9300176 0.695630346,11.7601816 C0.729847462,11.6834215 0.791851856,11.6220939 0.869458957,11.5882503 L4.2477646,10.1137366 L0.869458957,8.64084873 C0.697748685,8.56596769 0.619922965,8.36758528 0.695630346,8.19774922 C0.729847462,8.12098919 0.791851856,8.05966157 0.869458957,8.02581793 L3.1697646,7.02173662 L4.8537646,7.75673662 L3.53328397,8.33333333 L8.33333333,10.4265869 L13.1333619,8.33333333 L11.8117646,7.75673662 L13.4957646,7.02173662 Z M10.7327646,10.8487366 L8.88165469,11.6566485 C8.53233036,11.8089852 8.1343363,11.8089852 7.78501198,11.6566485 L5.9327646,10.8487366 L3.53328397,11.8957321 L8.33333333,13.9890192 L13.1333619,11.8957321 L10.7327646,10.8487366 Z M8.8663111,1.44089465 L15.8017287,4.46535717 C15.9704759,4.53894604 16.047617,4.73539824 15.9740281,4.90414544 C15.9403972,4.98126465 15.8788479,5.04281395 15.8017287,5.07644482 L8.8663111,8.10090735 C8.52644803,8.24911805 8.14021864,8.24911805 7.80035557,8.10090735 L0.864937929,5.07644482 C0.696190733,5.00285595 0.619049671,4.80640375 0.692638545,4.63765656 C0.72626942,4.56053734 0.787818717,4.49898805 0.864937929,4.46535717 L7.80035557,1.44089465 C8.14021864,1.29268394 8.52644803,1.29268394 8.8663111,1.44089465 Z M8.33333333,2.6 L3.53328397,4.69325358 L8.33333333,6.78650715 L13.1333619,4.69325358 L8.33333333,2.6 Z" id="矩形备份-6"></path>
            </g>
        </g>
    </g>
</svg>