<?xml version="1.0" encoding="UTF-8"?>
<svg width="16px" height="16px" viewBox="0 0 16 16" version="1.1" xmlns="http://www.w3.org/2000/svg" xmlns:xlink="http://www.w3.org/1999/xlink">
    <title>大厅</title>
    <defs>
        <filter id="filter-1">
            <feColorMatrix in="SourceGraphic" type="matrix" values="0 0 0 0 1.000000 0 0 0 0 1.000000 0 0 0 0 1.000000 0 0 0 1.000000 0"></feColorMatrix>
        </filter>
    </defs>
    <g id="首页" stroke="none" stroke-width="1" fill="none" fill-rule="evenodd">
        <g id="会议活动大厅" transform="translate(-531.000000, -155.000000)">
            <g id="标题栏" transform="translate(0.000000, 129.000000)">
                <g id="编组-6" transform="translate(380.000000, 14.000000)">
                    <g id="大厅" transform="translate(135.000000, 0.000000)" filter="url(#filter-1)">
                        <g transform="translate(16.000000, 12.000000)" id="占位/24x24备份-8" fill="#1E89FF">
                            <path d="M6.47870493,8.66666667 C6.77587785,8.66666667 6.88363993,8.69760854 6.9922819,8.7557109 C7.10092388,8.81381327 7.18618673,8.89907612 7.2442891,9.0077181 C7.30239146,9.11636007 7.33333333,9.22412215 7.33333333,9.52129507 L7.33333333,12.1574628 C7.33333333,12.9833639 7.24050772,13.3175864 7.06620063,13.6435124 C6.89189354,13.9694383 6.63610496,14.2252269 6.31017904,14.399534 L6.17822039,14.4648842 C5.88638616,14.5969443 5.53991045,14.6666667 4.8241295,14.6666667 L3.84253716,14.6666667 C3.01663607,14.6666667 2.68241356,14.5738411 2.35648763,14.399534 C2.0305617,14.2252269 1.77477313,13.9694383 1.60046604,13.6435124 L1.53511577,13.5115537 C1.41321415,13.2421683 1.34442871,12.9262244 1.33456765,12.3162306 L1.33333333,11.1758705 C1.33333333,10.3499694 1.42615894,10.0157469 1.60046604,9.68982096 C1.77477313,9.36389504 2.0305617,9.10810646 2.35648763,8.93379937 L2.48844628,8.8684491 C2.75783172,8.74654748 3.07377558,8.67776204 3.68376944,8.66790098 L6.47870493,8.66666667 Z M9.52129507,8.66666667 L12.1574628,8.66666667 C12.9833639,8.66666667 13.3175864,8.75949228 13.6435124,8.93379937 C13.9694383,9.10810646 14.2252269,9.36389504 14.399534,9.68982096 L14.4648842,9.82177961 C14.5969443,10.1136138 14.6666667,10.4600895 14.6666667,11.1758705 L14.6666667,12.1574628 C14.6666667,12.9833639 14.5738411,13.3175864 14.399534,13.6435124 C14.2252269,13.9694383 13.9694383,14.2252269 13.6435124,14.399534 L13.5115537,14.4648842 C13.2197195,14.5969443 12.8732438,14.6666667 12.1574628,14.6666667 L11.1758705,14.6666667 C10.3499694,14.6666667 10.0157469,14.5738411 9.68982096,14.399534 C9.36389504,14.2252269 9.10810646,13.9694383 8.93379937,13.6435124 L8.8684491,13.5115537 C8.74654748,13.2421683 8.67776204,12.9262244 8.66790098,12.3162306 L8.66666667,9.52129507 C8.66666667,9.22412215 8.69760854,9.11636007 8.7557109,9.0077181 C8.81381327,8.89907612 8.89907612,8.81381327 9.0077181,8.7557109 C9.11636007,8.69760854 9.22412215,8.66666667 9.52129507,8.66666667 Z M6,10 L3.72116463,10.0005445 L3.50080651,10.0057035 C3.21186492,10.0177227 3.09736194,10.0496115 2.98528611,10.1095503 C2.89171815,10.159591 2.82625766,10.2250515 2.77621697,10.3186194 C2.70961829,10.4431481 2.67764929,10.5706733 2.66908841,10.9371503 L2.66666667,11.1758705 L2.66666667,12.1574628 C2.66666667,12.7136653 2.69685354,12.8663172 2.77621697,13.0147139 C2.82625766,13.1082819 2.89171815,13.1737423 2.98528611,13.223783 C3.10981481,13.2903817 3.23733999,13.3223507 3.60381701,13.3309116 L3.84253716,13.3333333 L4.8241295,13.3333333 C5.38033194,13.3333333 5.53298385,13.3031465 5.68138056,13.223783 C5.77494852,13.1737423 5.84040901,13.1082819 5.8904497,13.0147139 C5.95704838,12.8901852 5.98901738,12.76266 5.99757825,12.396183 L6,12.1574628 L6,10 Z M12.2788354,10.0005445 L10,10 L10.0005445,12.2788354 L10.0057035,12.4991935 C10.0177227,12.7881351 10.0496115,12.9026381 10.1095503,13.0147139 C10.159591,13.1082819 10.2250515,13.1737423 10.3186194,13.223783 C10.4431481,13.2903817 10.5706733,13.3223507 10.9371503,13.3309116 L11.1758705,13.3333333 L12.1574628,13.3333333 C12.7136653,13.3333333 12.8663172,13.3031465 13.0147139,13.223783 C13.1082819,13.1737423 13.1737423,13.1082819 13.223783,13.0147139 C13.2903817,12.8901852 13.3223507,12.76266 13.3309116,12.396183 L13.3333333,12.1574628 L13.3333333,11.1758705 C13.3333333,10.6196681 13.3031465,10.4670161 13.223783,10.3186194 C13.1737423,10.2250515 13.1082819,10.159591 13.0147139,10.1095503 C12.8777323,10.0362918 12.737125,10.0049351 12.2788354,10.0005445 Z M3.68376944,1.33456765 L4.8241295,1.33333333 C5.6500306,1.33333333 5.98425311,1.42615894 6.31017904,1.60046604 C6.63610496,1.77477313 6.89189354,2.0305617 7.06620063,2.35648763 L7.1315509,2.48844628 C7.26361099,2.78028051 7.33333333,3.12675621 7.33333333,3.84253716 L7.33333333,6.47870493 C7.33333333,6.77587785 7.30239146,6.88363993 7.2442891,6.9922819 C7.18618673,7.10092388 7.10092388,7.18618673 6.9922819,7.2442891 C6.88363993,7.30239146 6.77587785,7.33333333 6.47870493,7.33333333 L3.84253716,7.33333333 C3.01663607,7.33333333 2.68241356,7.24050772 2.35648763,7.06620063 C2.0305617,6.89189354 1.77477313,6.63610496 1.60046604,6.31017904 L1.53511577,6.17822039 C1.41321415,5.90883494 1.34442871,5.59289109 1.33456765,4.98289723 L1.33333333,3.84253716 C1.33333333,3.01663607 1.42615894,2.68241356 1.60046604,2.35648763 C1.77477313,2.0305617 2.0305617,1.77477313 2.35648763,1.60046604 L2.48844628,1.53511577 C2.75783172,1.41321415 3.07377558,1.34442871 3.68376944,1.33456765 Z M11.0171028,1.33456765 L12.1574628,1.33333333 C12.9833639,1.33333333 13.3175864,1.42615894 13.6435124,1.60046604 C13.9694383,1.77477313 14.2252269,2.0305617 14.399534,2.35648763 L14.4648842,2.48844628 C14.5969443,2.78028051 14.6666667,3.12675621 14.6666667,3.84253716 L14.6666667,4.8241295 C14.6666667,5.6500306 14.5738411,5.98425311 14.399534,6.31017904 C14.2252269,6.63610496 13.9694383,6.89189354 13.6435124,7.06620063 L13.5115537,7.1315509 C13.2197195,7.26361099 12.8732438,7.33333333 12.1574628,7.33333333 L9.52129507,7.33333333 C9.22412215,7.33333333 9.11636007,7.30239146 9.0077181,7.2442891 C8.89907612,7.18618673 8.81381327,7.10092388 8.7557109,6.9922819 C8.69760854,6.88363993 8.66666667,6.77587785 8.66666667,6.47870493 L8.66666667,3.84253716 C8.66666667,3.01663607 8.75949228,2.68241356 8.93379937,2.35648763 C9.10810646,2.0305617 9.36389504,1.77477313 9.68982096,1.60046604 L9.82177961,1.53511577 C10.0911651,1.41321415 10.4071089,1.34442871 11.0171028,1.33456765 Z M4.94550204,2.66721117 L3.84253716,2.66666667 C3.28633472,2.66666667 3.13368281,2.69685354 2.98528611,2.77621697 C2.89171815,2.82625766 2.82625766,2.89171815 2.77621697,2.98528611 C2.70961829,3.10981481 2.67764929,3.23733999 2.66908841,3.60381701 L2.66666667,3.84253716 L2.66666667,4.8241295 C2.66666667,5.38033194 2.69685354,5.53298385 2.77621697,5.68138056 C2.82625766,5.77494852 2.89171815,5.84040901 2.98528611,5.8904497 C3.10981481,5.95704838 3.23733999,5.98901738 3.60381701,5.99757825 L3.84253716,6 L6,6 L6,3.84253716 C6,3.37190433 5.97838691,3.19020412 5.92365629,3.05553301 L5.8904497,2.98528611 C5.84040901,2.89171815 5.77494852,2.82625766 5.68138056,2.77621697 L5.61113366,2.74301037 C5.48870537,2.69325527 5.32741007,2.67087002 4.94550204,2.66721117 Z M12.2788354,2.66721117 L11.1758705,2.66666667 C10.6196681,2.66666667 10.4670161,2.69685354 10.3186194,2.77621697 C10.2250515,2.82625766 10.159591,2.89171815 10.1095503,2.98528611 C10.0362918,3.12226768 10.0049351,3.26287499 10.0005445,3.72116463 L10,6 L12.1574628,6 C12.6280957,6 12.8097959,5.97838691 12.944467,5.92365629 L13.0147139,5.8904497 C13.1082819,5.84040901 13.1737423,5.77494852 13.223783,5.68138056 C13.2903817,5.55685185 13.3223507,5.42932667 13.3309116,5.06284966 L13.3333333,4.8241295 L13.3333333,3.84253716 C13.3333333,3.28633472 13.3031465,3.13368281 13.223783,2.98528611 C13.1737423,2.89171815 13.1082819,2.82625766 13.0147139,2.77621697 L12.944467,2.74301037 C12.8220387,2.69325527 12.6607434,2.67087002 12.2788354,2.66721117 Z" id="形状结合"></path>
                        </g>
                    </g>
                </g>
            </g>
        </g>
    </g>
</svg>