<?xml version="1.0" encoding="UTF-8"?>
<svg width="16px" height="17px" viewBox="0 0 16 17" version="1.1" xmlns="http://www.w3.org/2000/svg" xmlns:xlink="http://www.w3.org/1999/xlink">
    <title>餐饮管理</title>
    <g id="会议概况" stroke="none" stroke-width="1" fill="none" fill-rule="evenodd">
        <g id="画板" transform="translate(-49.000000, -329.000000)" fill="#FFFFFF">
            <g id="餐饮管理" transform="translate(49.000000, 328.536585)">
                <g id="占位/24x24备份-7" transform="translate(0.000000, 1.000000)">
                    <path d="M10.2329739,1.05539545 L10.2406632,1.07278491 L10.3905856,1.42503706 C10.6302132,1.98805742 10.5310832,2.63846853 10.1346663,3.10417177 C10.069866,3.18029797 10.0513476,3.28517967 10.0852599,3.37847346 L10.0907408,3.39237558 L10.2406632,3.74462773 C10.27328,3.82126301 10.2904991,3.90060436 10.2937107,3.97918768 L12,3.97929539 C12.3681898,3.97929539 12.6666667,4.27835158 12.6666667,4.64725609 L12.6666667,5.3152168 C14.139426,5.3152168 15.3333333,6.51144157 15.3333333,7.98705962 C15.3333333,9.11874235 14.3951647,11.0118633 13.3929693,11.6640564 L13.3929693,11.6640564 L12.6623333,12.1386667 L12.6614203,12.1637954 C12.5744151,13.5606896 11.4161147,14.6666667 10,14.6666667 L4,14.6666667 C2.52724067,14.6666667 1.33333333,13.4704419 1.33333333,11.9948238 L1.33333333,4.64725609 C1.33333333,4.27835158 1.63181017,3.97929539 2,3.97929539 L3.37433333,3.97866667 L3.34804739,3.91640419 C3.10841973,3.35338383 3.20754979,2.70297272 3.60396663,2.23726948 C3.66876692,2.16114328 3.68728532,2.05626158 3.65337301,1.96296779 L3.64789217,1.94906567 L3.49796978,1.59681352 C3.35354361,1.2574751 3.51101829,0.865079151 3.84969931,0.720372646 C4.18254101,0.578161081 4.56652716,0.728095703 4.71675302,1.05539545 L4.72444226,1.07278491 L4.87436465,1.42503706 C5.11399231,1.98805742 5.01486225,2.63846853 4.61844541,3.10417177 C4.55364512,3.18029797 4.53512672,3.28517967 4.56903903,3.37847346 L4.57451987,3.39237558 L4.72444226,3.74462773 C4.75705908,3.82126301 4.7742782,3.90060436 4.77748982,3.97918768 L6.13233333,3.97866667 L6.10615785,3.91640419 C5.86653019,3.35338383 5.96566025,2.70297272 6.36207709,2.23726948 C6.42687738,2.16114328 6.44539578,2.05626158 6.41148347,1.96296779 L6.40600263,1.94906567 L6.25608024,1.59681352 C6.11165407,1.2574751 6.26912875,0.865079151 6.60780978,0.720372646 C6.94065147,0.578161081 7.32463762,0.728095703 7.47486348,1.05539545 L7.48255272,1.07278491 L7.63247511,1.42503706 C7.87210277,1.98805742 7.77297271,2.63846853 7.37655587,3.10417177 C7.31175558,3.18029797 7.29323719,3.28517967 7.32714949,3.37847346 L7.33263033,3.39237558 L7.48255272,3.74462773 C7.51516954,3.82126301 7.53238866,3.90060436 7.53560028,3.97918768 L8.89033333,3.97866667 L8.86426831,3.91640419 C8.62464065,3.35338383 8.72377071,2.70297272 9.12018755,2.23726948 C9.18498784,2.16114328 9.20350624,2.05626158 9.16959393,1.96296779 L9.16411309,1.94906567 L9.0141907,1.59681352 C8.86976454,1.2574751 9.02723921,0.865079151 9.36592024,0.720372646 C9.69876193,0.578161081 10.0827481,0.728095703 10.2329739,1.05539545 Z M11.3333333,5.31517706 L2.66666667,5.31517706 L2.66666667,11.9948238 C2.66666667,12.7249474 3.25124857,13.3182694 3.97703404,13.3305511 L10,13.3307453 C10.728709,13.3307453 11.3208817,12.7450286 11.3331395,12.0178344 L11.3333333,5.31517706 Z M9.33333333,10.6459621 C9.70152317,10.6459621 10,10.9444389 10,11.3126287 C10,11.6808186 9.70152317,11.9792954 9.33333333,11.9792954 L4.66666667,11.9792954 C4.29847683,11.9792954 4,11.6808186 4,11.3126287 C4,10.9444389 4.29847683,10.6459621 4.66666667,10.6459621 L9.33333333,10.6459621 Z M12.6666667,6.65113821 L12.6667083,10.5437076 C13.3228618,10.1167063 14,8.61652833 14,7.98705962 C14,7.2492506 13.4030463,6.65113821 12.6666667,6.65113821 L12.6666667,6.65113821 Z" id="形状结合"></path>
                </g>
            </g>
        </g>
    </g>
</svg>