<?xml version="1.0" encoding="UTF-8"?>
<svg width="16px" height="17px" viewBox="0 0 16 17" version="1.1" xmlns="http://www.w3.org/2000/svg" xmlns:xlink="http://www.w3.org/1999/xlink">
    <title>会务组管理</title>
    <g id="会议概况" stroke="none" stroke-width="1" fill="none" fill-rule="evenodd">
        <g id="画板" transform="translate(-252.000000, -88.000000)" fill="#FFFFFF">
            <g id="会务组管理" transform="translate(252.000000, 87.536585)">
                <path d="M12.3333333,9.66666667 C12.7015232,9.66666667 13,9.9651435 13,10.3333333 L12.9996667,12.0563333 L14.6666667,12.0569107 C15.0348565,12.0569107 15.3333333,12.3553875 15.3333333,12.7235773 L15.3333333,12.7560977 C15.3333333,13.1242875 15.0348565,13.4227643 14.6666667,13.4227643 L12.9996667,13.4223333 L13,15.1463415 C13,15.5145313 12.7015232,15.8130081 12.3333333,15.8130081 C11.9651435,15.8130081 11.6666667,15.5145313 11.6666667,15.1463415 L11.6666667,13.4223333 L10,13.4227643 C9.63181017,13.4227643 9.33333333,13.1242875 9.33333333,12.7560977 L9.33333333,12.7235773 C9.33333333,12.3553875 9.63181017,12.0569107 10,12.0569107 L11.6666667,12.0563333 L11.6666667,10.3333333 C11.6666667,9.9651435 11.9651435,9.66666667 12.3333333,9.66666667 Z M9.2688961,9.50894309 C9.70309895,9.50894309 10.1222239,9.52635345 10.5229498,9.56113396 C10.8898252,9.59297646 11.1620376,9.92345506 11.1309532,10.2992786 C11.0998689,10.6751021 10.7772588,10.9539538 10.4103835,10.9221113 C10.0478948,10.8906496 9.66626496,10.8747967 9.2688961,10.8747967 C6.34035454,10.8747967 4.6,11.7078996 4.6,12.8962602 C4.6,13.4188596 4.90564633,13.7624493 5.65738562,14.0244966 C6.4400838,14.2973357 7.60232903,14.4226994 9.20457159,14.4259513 L9.2688961,14.4260163 C9.48303471,14.4260163 9.68874371,14.4239082 9.88671102,14.4196146 C10.2548184,14.4116309 10.5595463,14.7108471 10.5673399,15.0879327 C10.5751334,15.4650182 10.2830414,15.7771785 9.91493409,15.7851622 C9.70728886,15.7896657 9.49220001,15.7918699 9.2688961,15.7918699 L9.13189504,15.7915894 C7.43106659,15.7845631 6.1674099,15.6450531 5.22785589,15.317536 C3.98343611,14.8837462 3.26666667,14.0779961 3.26666667,12.8962602 C3.26666667,11.7370685 3.96246276,10.8292416 5.15799484,10.2569438 C6.19526733,9.76040437 7.61518152,9.50894309 9.2688961,9.50894309 Z M5.69536763,7.93821138 C6.06355747,7.93821138 6.3620343,8.24396814 6.3620343,8.62113821 C6.3620343,8.99830828 6.06355747,9.30406504 5.69536763,9.30406504 C3.36016862,9.30406504 2,9.95669093 2,10.8372358 C2,11.0876592 2.08726545,11.2545858 2.29934427,11.4072432 L2.31896904,11.4210838 C2.62416968,11.6320592 2.7046264,12.0565371 2.49867417,12.3691817 C2.29272193,12.6818262 1.87835065,12.7642453 1.57315001,12.5532699 C0.988224704,12.1489297 0.666666667,11.5609745 0.666666667,10.8372358 C0.666666667,9.83449308 1.26595139,9.0507659 2.28250619,8.56301021 C3.14889101,8.14730795 4.32684202,7.93821138 5.69536763,7.93821138 Z M9.33333333,2.2699187 C11.1374635,2.2699187 12.6,3.7681268 12.6,5.61626016 C12.6,7.46439352 11.1374635,8.96260163 9.33333333,8.96260163 C7.52920315,8.96260163 6.06666667,7.46439352 6.06666667,5.61626016 C6.06666667,3.7681268 7.52920315,2.2699187 9.33333333,2.2699187 Z M9.33333333,3.63577236 C8.26558282,3.63577236 7.4,4.52246695 7.4,5.61626016 C7.4,6.71005337 8.26558282,7.59674797 9.33333333,7.59674797 C10.4010838,7.59674797 11.2666667,6.71005337 11.2666667,5.61626016 C11.2666667,4.52246695 10.4010838,3.63577236 9.33333333,3.63577236 Z M5.73333333,2.13333333 C6.10152317,2.13333333 6.4,2.43909009 6.4,2.81626016 C6.4,3.18703752 6.11155528,3.48880184 5.75199366,3.49892463 L5.73333333,3.49918699 C4.99695367,3.49918699 4.4,4.1107005 4.4,4.86504065 C4.4,5.38839817 4.68964097,5.85787139 5.13756421,6.08746709 L5.16087313,6.09912786 C5.49326211,6.26136139 5.6343317,6.66890422 5.47596087,7.00940025 C5.31759004,7.34989628 4.91975061,7.49440658 4.58736163,7.33217305 C3.6662649,6.88260107 3.06666667,5.9290875 3.06666667,4.86504065 C3.06666667,3.35636036 4.260574,2.13333333 5.73333333,2.13333333 Z" id="椭圆形备份"></path>
            </g>
        </g>
    </g>
</svg>