<?xml version="1.0" encoding="UTF-8"?>
<svg width="16px" height="17px" viewBox="0 0 16 17" version="1.1" xmlns="http://www.w3.org/2000/svg" xmlns:xlink="http://www.w3.org/1999/xlink">
    <title>住宿管理</title>
    <g id="会议概况" stroke="none" stroke-width="1" fill="none" fill-rule="evenodd">
        <g id="画板" transform="translate(-252.000000, -40.000000)" fill="#FFFFFF">
            <g id="住宿管理" transform="translate(252.000000, 39.536585)">
                <g id="占位/24x24备份-3" transform="translate(0.000000, 1.000000)">
                    <path d="M2.66764168,14.6666667 C2.29951916,14.6666667 2.00109689,14.3681898 2.00109689,14 L2.00109689,14 L2.00109689,8 L1.33455211,8 C0.749127609,8 0.459243905,7.30801499 0.835739465,6.89061126 L0.835739465,6.89061126 L0.888657149,6.8378039 L7.55410504,0.837803903 C7.80759534,0.609620921 8.19240466,0.609620921 8.44589496,0.837803903 L8.44589496,0.837803903 L15.1113429,6.8378039 C15.5654047,7.24653429 15.2763256,8 14.6654479,8 L14.6654479,8 L13.9989031,8 L13.9989031,14 C13.9989031,14.3418906 13.74159,14.6236714 13.4100915,14.6621815 L13.4100915,14.6621815 L13.3323583,14.6666667 Z M8,2.23 L3.32970214,6.4331838 L3.33418647,13.3333333 L5.33366667,13.3326667 L5.33382084,10 C5.33382084,9.66528197 5.58049591,9.38817799 5.90197239,9.34056171 L6.00048751,9.33333333 L9.99951249,9.33333333 C10.3677023,9.33333333 10.6661792,9.63181017 10.6661792,10 L10.6661792,10 L10.6656667,13.3326667 L12.6658135,13.3333333 L12.6658135,6.4331838 L8,2.23 Z M9.33308958,10.6666667 L6.66691042,10.6666667 L6.66691042,13.3333333 L9.33308958,13.3333333 L9.33308958,10.6666667 Z" id="形状结合"></path>
                </g>
            </g>
        </g>
    </g>
</svg>