<?xml version="1.0" encoding="UTF-8"?>
<svg width="24px" height="24px" viewBox="0 0 24 24" version="1.1" xmlns="http://www.w3.org/2000/svg" xmlns:xlink="http://www.w3.org/1999/xlink">
    <title>Icon/会议/主题备份 15</title>
    <g id="首页" stroke="none" stroke-width="1" fill="none" fill-rule="evenodd">
        <g id="会议详情备份-5" transform="translate(-684.000000, -1343.000000)" fill="#1E89FF">
            <g id="编组-8" transform="translate(140.000000, 1342.000000)">
                <g id="编组-7" transform="translate(544.000000, 0.000000)">
                    <g id="占位/24x24备份" transform="translate(0.000000, 1.000000)">
                        <path d="M8,1 L8,3 L16,3 L16,1 L18,1 L18,3 L20,3 C21.6568542,3 23,4.34314575 23,6 L23,19 C23,20.6568542 21.6568542,22 20,22 L4,22 C2.34314575,22 1,20.6568542 1,19 L1,6 C1,4.34314575 2.34314575,3 4,3 L6,3 L6,1 L8,1 Z M21,9 L3,9 L3,19 C3,19.5522847 3.44771525,20 4,20 L4,20 L20,20 C20.5522847,20 21,19.5522847 21,19 L21,19 L21,9 Z M8,15 L8,17 L6,17 L6,15 L8,15 Z M13,15 L13,17 L11,17 L11,15 L13,15 Z M8,11 L8,13 L6,13 L6,11 L8,11 Z M13,11 L13,13 L11,13 L11,11 L13,11 Z M18,11 L18,13 L16,13 L16,11 L18,11 Z M20,5 L4,5 C3.44771525,5 3,5.44771525 3,6 L3,6 L3,7 L21,7 L21,6 C21,5.44771525 20.5522847,5 20,5 L20,5 Z" id="矩形备份-77"></path>
                    </g>
                </g>
            </g>
        </g>
    </g>
</svg>