<?xml version="1.0" encoding="UTF-8"?>
<svg width="24px" height="24px" viewBox="0 0 24 24" version="1.1" xmlns="http://www.w3.org/2000/svg" xmlns:xlink="http://www.w3.org/1999/xlink">
    <title>Icon/会议/主题备份 14</title>
    <g id="首页" stroke="none" stroke-width="1" fill="none" fill-rule="evenodd">
        <g id="会议详情备份-5" transform="translate(-664.000000, -694.000000)" fill="#FF8200">
            <g id="编组-10" transform="translate(140.000000, 693.000000)">
                <g id="编组-6" transform="translate(524.000000, 0.000000)">
                    <g id="占位/24x24备份-6" transform="translate(0.000000, 1.000000)">
                        <path d="M11.9904534,13 C14.7627966,13 17.1412518,13.4059525 18.8729969,14.2045614 C20.8533059,15.1177977 22,16.5586074 22,18.4 C22,20.2726478 20.8233394,21.5447483 18.7653636,22.2354401 C17.5536999,22.6420952 16.0140784,22.8693549 14.0630964,22.9571759 L15.8544065,21.2638197 C15.8814627,21.2382575 15.9048185,21.2090439 15.9237979,21.1770245 C15.9946273,21.0575313 15.9961145,20.9161602 15.9402139,20.7996647 C16.8031044,20.6927545 17.528953,20.5405627 18.1278583,20.3395599 C19.4446836,19.8976108 19.9980907,19.2993165 19.9980907,18.4 C19.9980907,17.4304324 19.3641007,16.6338303 18.0339901,16.0204386 C16.7982227,15.4505539 15.0660739,15.105208 13.0075677,15.0204971 L13.7045702,15.7195709 C13.8998323,15.914833 13.8998323,16.2314155 13.7045702,16.4266777 L12.731,17.399 L13.9844566,21.444135 C14.0295526,21.5898099 13.9878958,21.7484522 13.8770485,21.853179 L12.2597007,23.3812247 C12.1055292,23.5268836 11.8644687,23.5268836 11.7102973,23.3812247 L10.0929494,21.853179 C9.98210212,21.7484522 9.94044531,21.5898099 9.9855413,21.444135 L11.237,17.398 L10.2654284,16.4266777 C10.0701662,16.2314155 10.0701662,15.914833 10.2654284,15.7195709 L10.9625267,15.0210132 C8.91341643,15.1065836 7.18999027,15.4515468 5.96014943,16.0200565 C4.63400313,16.6330846 4.00190932,17.4294834 4.00190932,18.4 C4.00190932,19.3009686 4.55235789,19.8985069 5.86345093,20.3398475 C6.45750002,20.5398166 7.17724857,20.6914462 8.03213832,20.7986367 C7.95597473,20.9507242 7.98526104,21.140686 8.11559095,21.2638197 L8.11559095,21.2638197 L9.90554043,22.9565757 C7.9625612,22.8683211 6.43031216,22.641143 5.22423394,22.2351525 C3.17214485,21.5443774 2,20.271958 2,18.4 C2,16.5592061 3.14362306,15.1183122 5.11948745,14.2049435 C6.84781878,13.4060003 9.22186532,13 11.9904534,13 Z M12,1 C15.0375661,1 17.5,3.46243388 17.5,6.5 C17.5,9.53756612 15.0375661,12 12,12 C8.96243388,12 6.5,9.53756612 6.5,6.5 C6.5,3.46243388 8.96243388,1 12,1 Z M12,3 C10.0670034,3 8.5,4.56700338 8.5,6.5 C8.5,8.43299662 10.0670034,10 12,10 C13.9329966,10 15.5,8.43299662 15.5,6.5 C15.5,4.56700338 13.9329966,3 12,3 Z" id="形状结合"></path>
                    </g>
                </g>
            </g>
        </g>
    </g>
</svg>