<?xml version="1.0" encoding="UTF-8"?>
<svg width="24px" height="24px" viewBox="0 0 24 24" version="1.1" xmlns="http://www.w3.org/2000/svg" xmlns:xlink="http://www.w3.org/1999/xlink">
    <title>Icon/会议/主题备份 17</title>
    <g id="首页" stroke="none" stroke-width="1" fill="none" fill-rule="evenodd">
        <g id="会议详情备份-5" transform="translate(-664.000000, -1850.000000)" fill="#03BE1C">
            <g id="编组-12" transform="translate(222.000000, 1849.000000)">
                <g id="编组-9" transform="translate(442.000000, 0.000000)">
                    <g id="占位/24x24备份-5" transform="translate(0.000000, 1.000000)">
                        <path d="M13.9414602,12.8 C16.4359619,12.8 18.5786211,13.1679395 20.1437822,13.8941329 C21.9486312,14.7315352 23,16.0606338 23,17.76 C23,19.4925329 21.916004,20.6716067 20.0366668,21.3061947 C18.5806541,21.7978404 16.6090642,22 13.9414602,22 L13.9414602,22 L13.8379033,21.9998975 C11.2234043,21.9947017 9.28776608,21.7915075 7.85393533,21.3059045 C5.97987062,20.6712051 4.9,19.4917978 4.9,17.76 C4.9,16.0612481 5.94855886,14.7320645 7.74940633,13.8945179 C9.31154135,13.1679929 11.4502876,12.8 13.9414602,12.8 Z M13.9414602,14.8 C9.52583768,14.8 6.9,16.0212368 6.9,17.76 C6.9,18.5238361 7.36105694,19.0273908 8.49549092,19.4115955 C9.69196532,19.8168118 11.4755961,20 13.9414602,20 L13.9414602,20 L14.0384906,19.9999047 C16.4554409,19.9951375 18.2120853,19.8113523 19.3968273,19.4113053 C20.5363825,19.0265165 21,18.5222349 21,17.76 C21,16.0224139 18.3653374,14.8 13.9414602,14.8 Z M8.54305145,10.5 C9.0953362,10.5 9.54305145,10.9477153 9.54305145,11.5 C9.54305145,12.0522847 9.0953362,12.5 8.54305145,12.5 C5.04025293,12.5 3,13.4556308 3,14.745 C3,15.1116915 3.13089818,15.3561196 3.4490164,15.5796537 L3.47845356,15.5999203 C3.93625452,15.9088486 4.05693961,16.5304056 3.74801125,16.9882065 C3.43908289,17.4460075 2.81752598,17.5666926 2.35972502,17.2577642 C1.48233706,16.6656946 1,15.8047602 1,14.745 C1,13.2766982 1.89892708,12.1290977 3.42375928,11.414884 C4.72333652,10.8061771 6.49026302,10.5 8.54305145,10.5 Z M14,2.2 C16.7061953,2.2 18.9,4.39380473 18.9,7.1 C18.9,9.80619527 16.7061953,12 14,12 C11.2938047,12 9.1,9.80619527 9.1,7.1 C9.1,4.39380473 11.2938047,2.2 14,2.2 Z M14,4.2 C12.3983742,4.2 11.1,5.49837423 11.1,7.1 C11.1,8.70162577 12.3983742,10 14,10 C15.6016258,10 16.9,8.70162577 16.9,7.1 C16.9,5.49837423 15.6016258,4.2 14,4.2 Z M8.6,2 C9.15228475,2 9.6,2.44771525 9.6,3 C9.6,3.54292399 9.16733292,3.98479317 8.62799048,3.99961582 L8.6,4 C7.4954305,4 6.6,4.8954305 6.6,6 C6.6,6.76634493 7.03446146,7.45378786 7.70634631,7.78998158 L7.7413097,7.80705627 C8.23989317,8.04461251 8.45149755,8.64137166 8.2139413,9.13995513 C7.97638506,9.6385386 7.37962592,9.85014298 6.88104245,9.61258673 C5.49939735,8.9542849 4.6,7.55806861 4.6,6 C4.6,3.790861 6.390861,2 8.6,2 Z" id="形状结合"></path>
                    </g>
                </g>
            </g>
        </g>
    </g>
</svg>