<?xml version="1.0" encoding="UTF-8"?>
<svg width="24px" height="24px" viewBox="0 0 24 24" version="1.1" xmlns="http://www.w3.org/2000/svg" xmlns:xlink="http://www.w3.org/1999/xlink">
    <title>Icon/会议/主题备份 9</title>
    <g id="首页" stroke="none" stroke-width="1" fill="none" fill-rule="evenodd">
        <g id="会议详情备份-5" transform="translate(-664.000000, -469.000000)" fill="#F8B700">
            <g id="会议时间备份" transform="translate(140.000000, 468.000000)">
                <g id="编组-4" transform="translate(524.000000, 0.000000)">
                    <g id="占位/24x24备份-11" transform="translate(0.000000, 1.000000)">
                        <path d="M5,3 L5,5 L4,5 C3.48716416,5 3.06449284,5.38604019 3.00672773,5.88337887 L3,6 L3,19 C3,19.5522847 3.44771525,20 4,20 L4,20 L20,20 C20.5522847,20 21,19.5522847 21,19 L21,19 L21,6 C21,5.44771525 20.5522847,5 20,5 L20,5 L19,5 L19,3 L20,3 C21.6568542,3 23,4.34314575 23,6 L23,19 C23,20.6568542 21.6568542,22 20,22 L4,22 C2.34314575,22 1,20.6568542 1,19 L1,6 C1,4.34314575 2.34314575,3 4,3 L5,3 Z M12,12 C12.5522847,12 13,12.4477153 13,13 C13,13.5522847 12.5522847,14 12,14 L6,14 C5.44771525,14 5,13.5522847 5,13 C5,12.4477153 5.44771525,12 6,12 L12,12 Z M18,12 C18.5522847,12 19,12.4477153 19,13 C19,13.5522847 18.5522847,14 18,14 L16,14 C15.4477153,14 15,13.5522847 15,13 C15,12.4477153 15.4477153,12 16,12 L18,12 Z M18,8 C18.5522847,8 19,8.44771525 19,9 C19,9.55228475 18.5522847,10 18,10 L6,10 C5.44771525,10 5,9.55228475 5,9 C5,8.44771525 5.44771525,8 6,8 L18,8 Z M7,1 C7.55228475,1 8,1.44771525 8,2 L8,2 L8,5 C8,5.55228475 7.55228475,6 7,6 C6.44771525,6 6,5.55228475 6,5 L6,5 L6,2 C6,1.44771525 6.44771525,1 7,1 Z M17,1 C17.5522847,1 18,1.44771525 18,2 L18,2 L18,5 C18,5.55228475 17.5522847,6 17,6 C16.4477153,6 16,5.55228475 16,5 L16,5 L16,2 C16,1.44771525 16.4477153,1 17,1 Z M15,3 L15,5 L9,5 L9,3 L15,3 Z" id="矩形备份-77"></path>
                    </g>
                </g>
            </g>
        </g>
    </g>
</svg>