<?xml version="1.0" encoding="UTF-8"?>
<svg width="24px" height="24px" viewBox="0 0 24 24" version="1.1" xmlns="http://www.w3.org/2000/svg" xmlns:xlink="http://www.w3.org/1999/xlink">
    <title>Icon/System/附件</title>
    <g id="首页" stroke="none" stroke-width="1" fill="none" fill-rule="evenodd">
        <g id="会议详情备份-5" transform="translate(-664.000000, -2709.000000)" fill="#1E89FF">
            <g id="编组-4" transform="translate(420.000000, 2708.000000)">
                <g id="编组-13" transform="translate(244.000000, 0.000000)">
                    <g id="icon/system/附件" transform="translate(0.000000, 1.000000)">
                        <path d="M11.0359084,2.82827202 C13.4286924,0.43548798 17.3081618,0.43548798 19.7009459,2.82827202 C22.0405569,5.16788307 22.0925483,8.92883879 19.8569199,11.3316207 L19.7009459,11.4933095 L13.5291585,17.6650969 C11.948665,19.2455904 9.38617868,19.2455904 7.80568517,17.6650969 C6.2730854,16.1324972 6.22664298,13.6765176 7.66635792,12.0879554 L7.80568517,11.9416236 L10.7215283,9.02578049 C11.1120526,8.6352562 11.7452176,8.6352562 12.1357419,9.02578049 C12.4983716,9.38841019 12.5242737,9.96025558 12.2134482,10.3527732 L12.1357419,10.4399941 L9.21989873,13.3558372 C8.42045381,14.1552821 8.42045381,15.4514384 9.21989873,16.2508834 C9.98300525,17.0139899 11.1986938,17.0486766 12.0029442,16.3549434 L12.1149449,16.2508834 L18.2867323,10.079096 C19.8984678,8.46736051 19.8984678,5.85422103 18.2867323,4.24248558 C16.7238373,2.67959059 14.2193099,2.63223014 12.5993463,4.10040422 L12.4501219,4.24248558 L6.32248558,10.3701219 C3.8984596,12.7941479 3.8984596,16.7242705 6.32248558,19.1482965 C8.69264431,21.5184553 12.5027058,21.5711255 14.9368602,19.3063071 L15.1006602,19.1482965 L19.1487496,15.1002071 C19.5392739,14.7096828 20.1724388,14.7096828 20.5629631,15.1002071 C20.9255928,15.4628368 20.9514949,16.0346822 20.6406695,16.4271999 L20.5629631,16.5144207 L16.5148737,20.5625101 C13.3097992,23.7675847 8.11334658,23.7675847 4.90827202,20.5625101 C1.76255069,17.4167888 1.70429659,12.3527612 4.73350972,9.13599152 L4.90827202,8.95590837 L11.0359084,2.82827202 Z" id="路径"></path>
                    </g>
                </g>
            </g>
        </g>
    </g>
</svg>