<?xml version="1.0" encoding="UTF-8"?>
<svg width="24px" height="24px" viewBox="0 0 24 24" version="1.1" xmlns="http://www.w3.org/2000/svg" xmlns:xlink="http://www.w3.org/1999/xlink">
    <title>lei</title>
    <g id="icon篇" stroke="none" stroke-width="1" fill="none" fill-rule="evenodd">
        <g id="画板" transform="translate(-311.000000, -55.000000)" fill-rule="nonzero">
            <g id="雷阵雨备份" transform="translate(311.000000, 55.000000)">
                <rect id="矩形" fill="#000000" opacity="0" transform="translate(12.000000, 12.000000) scale(-1, 1) translate(-12.000000, -12.000000) " x="0" y="0" width="24" height="24"></rect>
                <path d="M12,3 C14.8808173,3 17.2443284,5.21485104 17.4805876,8.03460741 C17.6504319,8.0113815 17.8238868,8 18,8 C20.209139,8 22,9.790861 22,12 C22,14.209139 20.209139,16 18,16 L18,16 L16.537,16 L16.6231835,15.9060871 C17.1895066,15.2841457 16.9693228,14.3679948 16.2646197,13.9980776 L16.1406694,13.9407564 C15.9720727,13.8727859 15.7911413,13.8386872 15.6096903,13.8389513 L13.426,13.842 L14.1802812,10.9968253 C14.3804115,10.2420919 13.8347787,9.61894826 13.1576616,9.51544206 L13.0181125,9.50148826 L12.878227,9.50205067 C12.5524934,9.52024043 12.2351287,9.65636905 12.0039519,9.90616503 L7.32621528,14.9606506 C7.04230156,15.267431 6.95178906,15.6488505 7.01898577,16.0009761 L7,16 C4.51471863,16 2.5,13.9852814 2.5,11.5 C2.5,9.11446801 4.35623843,7.16248374 6.70312577,7.00963671 C7.35335172,4.69676758 9.47852521,3 12,3 Z" id="路径-2" fill="#D5E0F7"></path>
                <path d="M12.7378821,10.5853899 L8.06014551,15.6398755 C7.95514408,15.7533338 7.99116249,15.9099387 8.14059488,15.9896623 C8.19645069,16.019462 8.26308439,16.0354063 8.33135056,16.0353069 L11.8110259,16.0302435 L10.6895716,20.2594833 C10.6607342,20.3682351 10.7534706,20.4741452 10.896704,20.4960404 C11.000324,20.51188 11.1064171,20.4793689 11.1665267,20.4133561 L15.8837892,15.2328144 C15.9876506,15.1187528 15.950064,14.9623605 15.799837,14.8835024 C15.7443904,14.8543971 15.6785531,14.8388521 15.6111454,14.8389502 L12.1255724,14.8440222 L13.2136863,10.7405164 C13.2425236,10.6317646 13.1497873,10.5258545 13.0065538,10.5039594 C12.9036502,10.4882292 12.7982313,10.5201802 12.7378821,10.5853899 Z" id="路径-15备份" fill="#FAD105"></path>
            </g>
        </g>
    </g>
</svg>