<?xml version="1.0" encoding="UTF-8"?>
<svg width="24px" height="24px" viewBox="0 0 24 24" version="1.1" xmlns="http://www.w3.org/2000/svg" xmlns:xlink="http://www.w3.org/1999/xlink">
    <title>Icon/会议/主题备份 7</title>
    <g id="首页" stroke="none" stroke-width="1" fill="none" fill-rule="evenodd">
        <g id="会议详情备份-5" transform="translate(-664.000000, -2396.000000)" fill="#8B28F7">
            <g id="会议时间备份-6" transform="translate(420.000000, 2395.000000)">
                <g id="编组-13" transform="translate(244.000000, 0.000000)">
                    <g id="占位/24x24备份-2" transform="translate(0.000000, 1.000000)">
                        <path d="M4.84545069,1.37625391 L4.76769465,1.4320792 C2.01789337,3.41825797 0.720369128,5.59917708 1.05036716,7.94758763 C1.47175232,10.9463489 3.60644073,14.2874204 6.477338,17.1981758 L6.61179442,17.3335334 C9.59839851,20.3183583 13.2333336,22.6870375 16.1219726,22.9758034 C18.3376696,23.197298 20.4838622,21.894429 22.5720772,19.2193943 L22.5839485,19.2038769 L22.6195973,19.1560093 C23.2583238,18.2686081 23.0748311,17.0323689 22.2033437,16.3687925 C21.4708764,15.8110702 20.7394298,15.2846591 20.0089802,14.7895829 C19.4215249,14.3914239 18.8528932,14.0258531 18.3029492,13.6928631 C17.2990878,13.0850268 16.025449,13.1527771 15.0917877,13.8637019 L13.9511779,14.732205 C13.8572955,14.8036907 13.7300656,14.8135471 13.6262323,14.7573477 C12.7686704,14.2931955 11.9229814,13.6467891 11.0904287,12.814735 C10.2760579,12.0008518 9.66478453,11.1997542 9.2527326,10.4149098 C9.19879048,10.3121651 9.2092792,10.187564 9.27967553,10.0952228 L10.1599081,8.94059264 C10.871077,8.00772893 10.9393287,6.7350397 10.3319806,5.73151669 C9.98577333,5.1594771 9.61815564,4.58683139 9.22914854,4.01356623 C8.74621587,3.30188646 8.21224316,2.56261643 7.62720263,1.79556279 C6.96531495,0.927753944 5.7338019,0.742176192 4.84545069,1.37625391 Z M6.03703748,3.00844784 C6.60030748,3.74695788 7.1127329,4.45639629 7.57428595,5.1365697 C7.94401767,5.68142948 8.29292437,6.22492869 8.62102692,6.76705379 C8.80292427,7.0676033 8.78249004,7.44864012 8.56946602,7.72807076 L7.68923347,8.8827009 C7.14747541,9.59334282 7.06665768,10.5534203 7.48202828,11.3445859 C7.99386689,12.3194961 8.72672055,13.2799294 9.67671338,14.2293534 C10.6405614,15.1926243 11.6393336,15.9560406 12.6742933,16.5162086 C13.4695348,16.9466299 14.4433107,16.8711924 15.162727,16.3234015 L16.3033366,15.4548985 C16.583491,15.2415784 16.9658442,15.2212394 17.2671091,15.4036547 C17.7870705,15.7184904 18.3270629,16.0656492 18.8869504,16.4451236 C19.5866377,16.9193499 20.2882631,17.4242992 20.9918028,17.9599952 L20.9962703,17.9646515 C20.999983,17.9698385 21.0009038,17.9763838 20.9991371,17.9821829 L20.9968096,17.9866668 L20.9896099,17.9963665 L20.9956346,17.9887256 C19.2867624,20.1778164 17.7246756,21.1260978 16.3209009,20.9857679 C14.0132922,20.7550853 10.712047,18.6038528 8.02805529,15.9214681 L7.89866832,15.7912136 C5.30467627,13.1611986 3.37903575,10.147315 3.03082341,7.66928342 C2.82110325,6.1768229 3.73045235,4.64836064 5.93640501,3.05499926 L6.0095886,3.00245711 C6.01535205,2.99834721 6.02500637,2.99880635 6.03220147,3.00382709 L6.03703748,3.00844784 Z" id="路径-8备份-5"></path>
                    </g>
                </g>
            </g>
        </g>
    </g>
</svg>