<?xml version="1.0" encoding="utf-8"?>
<!DOCTYPE svg PUBLIC "-//W3C//DTD SVG 1.1//EN" "http://www.w3.org/Graphics/SVG/1.1/DTD/svg11.dtd">
<svg version="1.1" id="图层_1" xmlns="http://www.w3.org/2000/svg" xmlns:xlink="http://www.w3.org/1999/xlink" x="0px" y="0px"
	 width="84px" height="84px" viewBox="0 0 84 84" enable-background="new 0 0 84 84" xml:space="preserve">
<g>
	<polygon points="19.914,39.657 15.627,42.132 23.841,46.874 19.852,49.177 7.643,42.136 19.878,35.072 19.951,35.072 
		35.974,44.322 39.828,42.097 19.914,30.6 0,42.097 19.914,53.594 31.984,46.625 	"/>
	<polygon points="64.086,39.657 59.799,42.132 68.013,46.874 64.023,49.177 51.813,42.136 64.05,35.072 64.123,35.072 
		80.146,44.322 84,42.097 64.086,30.6 44.172,42.097 64.086,53.594 76.156,46.625 	"/>
	<g>
		<polygon points="42,26.674 37.713,29.149 45.927,33.892 41.938,36.194 29.729,29.153 41.964,22.089 42.037,22.089 58.06,31.339 
			61.914,29.114 42,17.617 22.086,29.114 42,40.611 54.07,33.643 		"/>
		<polygon points="42,52.445 37.713,54.921 45.927,59.662 41.938,61.966 29.729,54.925 41.964,47.86 42.037,47.86 58.06,57.111 
			61.914,54.886 42,43.389 22.086,54.886 42,66.383 54.07,59.414 		"/>
	</g>
</g>
</svg>
