<?xml version="1.0" encoding="UTF-8"?>
<svg width="38px" height="36px" viewBox="0 0 38 36" version="1.1" xmlns="http://www.w3.org/2000/svg" xmlns:xlink="http://www.w3.org/1999/xlink">
    <g id="会议概况" stroke="none" stroke-width="1" fill="none" fill-rule="evenodd">
        <g id="未开始1920备份-7" transform="translate(-1394.000000, -417.000000)">
            <g id="编组-4" transform="translate(216.000000, 401.000000)">
                <g id="编组-7备份-9" transform="translate(1088.000000, 0.000000)">
                    <g id="编组-11" transform="translate(89.919231, 16.000000)">
                        <path d="M9.55069815,5.96082047e-16 L30.167387,3.10752092e-16 C32.8419432,-1.80555915e-16 33.8118019,0.278476833 34.7895797,0.801398111 C35.7673574,1.32431939 36.5347232,2.09168511 37.0576444,3.06946289 C37.5805657,4.04724067 37.8590426,5.01709938 37.8590426,7.6916556 L37.8590426,28.3083444 C37.8590426,30.9829006 37.5805657,31.9527593 37.0576444,32.9305371 C36.5347232,33.9083149 35.7673574,34.6756806 34.7895797,35.1986019 C33.8118019,35.7215232 32.8419432,36 30.167387,36 L9.55069815,36 C6.87614193,36 5.90628322,35.7215232 4.92850544,35.1986019 C3.95072766,34.6756806 3.18336194,33.9083149 2.66044066,32.9305371 C2.13751939,31.9527593 1.85904255,30.9829006 1.85904255,28.3083444 L1.85904255,7.6916556 C1.85904255,5.01709938 2.13751939,4.04724067 2.66044066,3.06946289 C3.18336194,2.09168511 3.95072766,1.32431939 4.92850544,0.801398111 C5.90628322,0.278476833 6.87614193,-3.46340835e-16 9.55069815,5.96082047e-16 Z" id="矩形" fill="#8B28F7"></path>
                        <g id="占位/24x24备份-9" transform="translate(10.000000, 8.000000)" fill="#FFFFFF">
                            <path d="M15.8333333,1.66666667 C17.2140452,1.66666667 18.3333333,2.78595479 18.3333333,4.16666667 L18.3333333,15.8333333 C18.3333333,17.2140452 17.2140452,18.3333333 15.8333333,18.3333333 L5.83333333,18.3333333 C4.45262146,18.3333333 3.33333333,17.2140452 3.33333333,15.8333333 L3.33266667,14.1656667 L2.5,14.1666667 C2.03976271,14.1666667 1.66666667,13.7935706 1.66666667,13.3333333 C1.66666667,12.873096 2.03976271,12.5 2.5,12.5 L3.33266667,12.4996667 L3.33266667,10.8326667 L2.5,10.8333333 C2.03976271,10.8333333 1.66666667,10.4602373 1.66666667,10 C1.66666667,9.53976271 2.03976271,9.16666667 2.5,9.16666667 L3.33266667,9.16666667 L3.33266667,7.49966667 L2.5,7.5 C2.03976271,7.5 1.66666667,7.12690396 1.66666667,6.66666667 C1.66666667,6.20642938 2.03976271,5.83333333 2.5,5.83333333 L3.33266667,5.83266667 L3.33333333,4.16666667 C3.33333333,2.78595479 4.45262146,1.66666667 5.83333333,1.66666667 L15.8333333,1.66666667 Z M15.8333333,3.33333333 L5.83333333,3.33333333 C5.40597013,3.33333333 5.05374403,3.65503349 5.00560644,4.0694824 L5,4.16666667 L4.99966667,5.83266667 L5.83333333,5.83333333 C6.29357062,5.83333333 6.66666667,6.20642938 6.66666667,6.66666667 C6.66666667,7.12690396 6.29357062,7.5 5.83333333,7.5 L4.99966667,7.49966667 L4.99966667,9.16666667 L5.83333333,9.16666667 C6.29357062,9.16666667 6.66666667,9.53976271 6.66666667,10 C6.66666667,10.4602373 6.29357062,10.8333333 5.83333333,10.8333333 L4.99966667,10.8326667 L4.99966667,12.4996667 L5.83333333,12.5 C6.29357062,12.5 6.66666667,12.873096 6.66666667,13.3333333 C6.66666667,13.7935706 6.29357062,14.1666667 5.83333333,14.1666667 L4.99966667,14.1656667 L5,15.8333333 C5,16.2606965 5.32170016,16.6129226 5.73614906,16.6610602 L5.83333333,16.6666667 L15.8333333,16.6666667 C16.2606965,16.6666667 16.6129226,16.3449665 16.6610602,15.9305176 L16.6666667,15.8333333 L16.6666667,4.16666667 C16.6666667,3.73930347 16.3449665,3.38707737 15.9305176,3.33893978 L15.8333333,3.33333333 Z M14.75,5.83333333 C15.2102373,5.83333333 15.5833333,6.20642938 15.5833333,6.66666667 L15.5833333,13.3333333 C15.5833333,13.7935706 15.2102373,14.1666667 14.75,14.1666667 C14.2897627,14.1666667 13.9166667,13.7935706 13.9166667,13.3333333 L13.9166667,6.66666667 C13.9166667,6.20642938 14.2897627,5.83333333 14.75,5.83333333 Z" id="矩形"></path>
                        </g>
                    </g>
                </g>
            </g>
        </g>
    </g>
</svg>