<?xml version="1.0" encoding="UTF-8"?>
<svg width="36px" height="36px" viewBox="0 0 36 36" version="1.1" xmlns="http://www.w3.org/2000/svg" xmlns:xlink="http://www.w3.org/1999/xlink">
    <g id="会议概况" stroke="none" stroke-width="1" fill="none" fill-rule="evenodd">
        <g id="未开始1920备份-7" transform="translate(-742.000000, -417.000000)">
            <g id="编组-4" transform="translate(216.000000, 401.000000)">
                <g id="编组-7备份-3" transform="translate(435.000000, 0.000000)">
                    <g id="编组-11" transform="translate(91.000000, 16.000000)">
                        <path d="M7.6916556,5.96082047e-16 L28.3083444,3.10752092e-16 C30.9829006,-1.80555915e-16 31.9527593,0.278476833 32.9305371,0.801398111 C33.9083149,1.32431939 34.6756806,2.09168511 35.1986019,3.06946289 C35.7215232,4.04724067 36,5.01709938 36,7.6916556 L36,28.3083444 C36,30.9829006 35.7215232,31.9527593 35.1986019,32.9305371 C34.6756806,33.9083149 33.9083149,34.6756806 32.9305371,35.1986019 C31.9527593,35.7215232 30.9829006,36 28.3083444,36 L7.6916556,36 C5.01709938,36 4.04724067,35.7215232 3.06946289,35.1986019 C2.09168511,34.6756806 1.32431939,33.9083149 0.801398111,32.9305371 C0.278476833,31.9527593 -4.0652614e-16,30.9829006 6.99666078e-16,28.3083444 L2.07168062e-16,7.6916556 C-1.2037061e-16,5.01709938 0.278476833,4.04724067 0.801398111,3.06946289 C1.32431939,2.09168511 2.09168511,1.32431939 3.06946289,0.801398111 C4.04724067,0.278476833 5.01709938,-3.46340835e-16 7.6916556,5.96082047e-16 Z" id="矩形" fill="#FF8200"></path>
                        <g id="Icon/拓展类/待办" transform="translate(8.000000, 8.000000)" fill="#FFFFFF">
                            <path d="M15.4166667,10.8333333 C15.876904,10.8333333 16.25,11.2064294 16.25,11.6666667 L16.2493333,13.8206667 L18.3130081,13.8211383 C18.7844707,13.8211383 19.1666667,14.2033343 19.1666667,14.6747969 C19.1666667,15.1462595 18.7844707,15.5284554 18.3130081,15.5284554 L16.2493333,15.5276667 L16.25,17.6829268 C16.25,18.1431641 15.876904,18.5162602 15.4166667,18.5162602 C14.9564294,18.5162602 14.5833333,18.1431641 14.5833333,17.6829268 L14.5833333,15.5276667 L12.5203252,15.5284554 C12.0488626,15.5284554 11.6666667,15.1462595 11.6666667,14.6747969 C11.6666667,14.2033343 12.0488626,13.8211383 12.5203252,13.8211383 L14.5833333,13.8206667 L14.5833333,11.6666667 C14.5833333,11.2064294 14.9564294,10.8333333 15.4166667,10.8333333 Z M11.5861201,10.6361789 C12.1288737,10.6361789 12.6527798,10.6579418 13.1536873,10.7014175 C13.6122815,10.7412206 13.952547,11.1543188 13.9136915,11.6240982 C13.8748361,12.0938776 13.4715735,12.4424423 13.0129794,12.4026392 C12.5598684,12.363312 12.0828312,12.3434959 11.5861201,12.3434959 C7.92544317,12.3434959 5.75,13.3848745 5.75,14.8703252 C5.75,15.5235745 6.13205791,15.9530617 7.07173202,16.2806207 C8.05010475,16.6216696 9.50291129,16.7783743 11.5057145,16.7824391 L11.5861201,16.7825203 C11.8537934,16.7825203 12.1109296,16.7798852 12.3583888,16.7745182 C12.8185229,16.7645386 13.1994328,17.1385589 13.2091748,17.6099158 C13.2189168,18.0812728 12.8538018,18.4714732 12.3936676,18.4814528 C12.1341111,18.4870821 11.86525,18.4898374 11.5861201,18.4898374 L11.4148688,18.4894867 C9.28883323,18.4807039 7.70926237,18.3063164 6.53481986,17.8969199 C4.97929513,17.3546828 4.08333333,16.3474951 4.08333333,14.8703252 C4.08333333,13.4213356 4.95307844,12.286552 6.44749355,11.5711797 C7.74408416,10.9505055 9.5189769,10.6361789 11.5861201,10.6361789 Z M7.11920954,8.67276423 C7.57944683,8.67276423 7.95254287,9.05496017 7.95254287,9.52642276 C7.95254287,9.99788536 7.57944683,10.3800813 7.11920954,10.3800813 C4.20021078,10.3800813 2.5,11.1958637 2.5,12.2965447 C2.5,12.609574 2.60908181,12.8182322 2.87418033,13.009054 L2.8987113,13.0263547 C3.2802121,13.290074 3.38078301,13.8206714 3.12334271,14.2114771 C2.86590241,14.6022828 2.34793831,14.7053067 1.96643752,14.4415873 C1.23528088,13.9361621 0.833333333,13.2012181 0.833333333,12.2965447 C0.833333333,11.0431164 1.58243923,10.0634574 2.85313273,9.45376277 C3.93611377,8.93413494 5.40855252,8.67276423 7.11920954,8.67276423 Z M11.6666667,1.58739837 C13.9218294,1.58739837 15.75,3.46015851 15.75,5.7703252 C15.75,8.0804919 13.9218294,9.95325203 11.6666667,9.95325203 C9.41150394,9.95325203 7.58333333,8.0804919 7.58333333,5.7703252 C7.58333333,3.46015851 9.41150394,1.58739837 11.6666667,1.58739837 Z M11.6666667,3.29471545 C10.3319785,3.29471545 9.25,4.40308369 9.25,5.7703252 C9.25,7.13756672 10.3319785,8.24593496 11.6666667,8.24593496 C13.0013548,8.24593496 14.0833333,7.13756672 14.0833333,5.7703252 C14.0833333,4.40308369 13.0013548,3.29471545 11.6666667,3.29471545 Z M7.16666667,1.41666667 C7.62690396,1.41666667 8,1.79886261 8,2.2703252 C8,2.7337969 7.6394441,3.1110023 7.18999207,3.12365578 L7.16666667,3.12398374 C6.24619208,3.12398374 5.5,3.88837563 5.5,4.83130081 C5.5,5.48549771 5.86205122,6.07233923 6.42195526,6.35933387 L6.45109141,6.37390982 C6.86657764,6.57670174 7.04291462,7.08613027 6.84495109,7.51175031 C6.64698755,7.93737035 6.14968827,8.11800823 5.73420204,7.91521632 C4.58283113,7.35325133 3.83333333,6.16135938 3.83333333,4.83130081 C3.83333333,2.94545045 5.3257175,1.41666667 7.16666667,1.41666667 Z" id="椭圆形备份"></path>
                        </g>
                    </g>
                </g>
            </g>
        </g>
    </g>
</svg>