<?xml version="1.0" encoding="UTF-8"?>
<svg width="38px" height="36px" viewBox="0 0 38 36" version="1.1" xmlns="http://www.w3.org/2000/svg" xmlns:xlink="http://www.w3.org/1999/xlink">
    <g id="会议概况" stroke="none" stroke-width="1" fill="none" fill-rule="evenodd">
        <g id="未开始1920备份-7" transform="translate(-959.000000, -417.000000)">
            <g id="编组-4" transform="translate(216.000000, 401.000000)">
                <g id="编组-7备份-4" transform="translate(653.000000, 0.000000)">
                    <g id="编组-11" transform="translate(89.919231, 16.000000)">
                        <path d="M9.31133645,5.96082047e-16 L29.9280253,3.10752092e-16 C32.6025815,-1.80555915e-16 33.5724402,0.278476833 34.550218,0.801398111 C35.5279957,1.32431939 36.2953615,2.09168511 36.8182827,3.06946289 C37.341204,4.04724067 37.6196809,5.01709938 37.6196809,7.6916556 L37.6196809,28.3083444 C37.6196809,30.9829006 37.341204,31.9527593 36.8182827,32.9305371 C36.2953615,33.9083149 35.5279957,34.6756806 34.550218,35.1986019 C33.5724402,35.7215232 32.6025815,36 29.9280253,36 L9.31133645,36 C6.63678023,36 5.66692152,35.7215232 4.68914374,35.1986019 C3.71136596,34.6756806 2.94400024,33.9083149 2.42107896,32.9305371 C1.89815768,31.9527593 1.61968085,30.9829006 1.61968085,28.3083444 L1.61968085,7.6916556 C1.61968085,5.01709938 1.89815768,4.04724067 2.42107896,3.06946289 C2.94400024,2.09168511 3.71136596,1.32431939 4.68914374,0.801398111 C5.66692152,0.278476833 6.63678023,-3.46340835e-16 9.31133645,5.96082047e-16 Z" id="矩形" fill="#1E89FF"></path>
                        <g id="占位/24x24备份-5" transform="translate(10.000000, 8.000000)" fill="#FFFFFF">
                            <path d="M9.99204449,10.8333333 C12.3023305,10.8333333 14.2843765,11.1716271 15.7274975,11.8371345 C15.9594924,11.944121 16.1777584,12.0597961 16.3815706,12.183866 L15.267342,13.4676297 C15.190901,13.4276898 15.1112359,13.3886005 15.0283251,13.3503655 C13.8330084,12.799135 12.0803914,12.5 9.99204449,12.5 L9.99204449,12.5 L9.90883416,12.5001594 C7.86076258,12.5080186 6.14292616,12.8063636 4.96679119,13.350047 C3.86166928,13.8609038 3.33492444,14.5245695 3.33492444,15.3333333 C3.33492444,16.0841405 3.79363157,16.5820891 4.88620911,16.949873 C6.01374774,17.3294254 7.68470289,17.5 9.99204449,17.5 L9.99204449,17.5 L10.0742182,17.4999274 C10.3833214,17.4993789 10.6809338,17.4957213 10.9672762,17.4888608 L12.2719841,19.1007248 C11.6293013,19.1425251 10.9288577,19.1636067 10.165671,19.1663563 L10.165671,19.1663563 L9.99204449,19.1666667 C7.51769284,19.1666667 5.69389989,18.9804901 4.35352828,18.5292937 C2.64345404,17.9536479 1.66666667,16.8932983 1.66666667,15.3333333 C1.66666667,13.7993384 2.61968589,12.5985935 4.26623954,11.837453 C5.70651565,11.1716669 7.68488776,10.8333333 9.99204449,10.8333333 Z M19.321696,11.9727152 C19.6693573,12.2749325 19.7061969,12.8017632 19.4039795,13.1494245 L14.8094278,18.4348517 C14.5692037,18.7111978 14.1870642,18.7911602 13.8657957,18.6605587 C13.8598163,18.6573923 13.8536634,18.6548782 13.8475369,18.6522884 C13.8283568,18.6445389 13.8095405,18.6355029 13.7909986,18.6257116 C13.6954658,18.5767062 13.6078026,18.5080468 13.534318,18.4204712 L11.2824187,15.7367622 C10.9865839,15.3841999 11.0325705,14.8585703 11.3851327,14.5627355 C11.737695,14.2669006 12.2633246,14.3128873 12.5591595,14.6654495 L14.1883427,16.6052484 L18.1449866,12.0549987 C18.447204,11.7073374 18.9740347,11.6704978 19.321696,11.9727152 Z M10,0.833333333 C12.5313051,0.833333333 14.5833333,2.88536156 14.5833333,5.41666667 C14.5833333,7.94797177 12.5313051,10 10,10 C7.4686949,10 5.41666667,7.94797177 5.41666667,5.41666667 C5.41666667,2.88536156 7.4686949,0.833333333 10,0.833333333 Z M10,2.5 C8.38916948,2.5 7.08333333,3.80583615 7.08333333,5.41666667 C7.08333333,7.02749719 8.38916948,8.33333333 10,8.33333333 C11.6108305,8.33333333 12.9166667,7.02749719 12.9166667,5.41666667 C12.9166667,3.80583615 11.6108305,2.5 10,2.5 Z" id="形状结合"></path>
                        </g>
                    </g>
                </g>
            </g>
        </g>
    </g>
</svg>