<?xml version="1.0" encoding="UTF-8"?>
<svg width="36px" height="36px" viewBox="0 0 36 36" version="1.1" xmlns="http://www.w3.org/2000/svg" xmlns:xlink="http://www.w3.org/1999/xlink">
    <g id="会议概况" stroke="none" stroke-width="1" fill="none" fill-rule="evenodd">
        <g id="未开始1920备份-7" transform="translate(-307.000000, -417.000000)">
            <g id="编组-4" transform="translate(216.000000, 401.000000)">
                <g id="编组-11" transform="translate(91.000000, 16.000000)">
                    <path d="M7.6916556,5.96082047e-16 L28.3083444,3.10752092e-16 C30.9829006,-1.80555915e-16 31.9527593,0.278476833 32.9305371,0.801398111 C33.9083149,1.32431939 34.6756806,2.09168511 35.1986019,3.06946289 C35.7215232,4.04724067 36,5.01709938 36,7.6916556 L36,28.3083444 C36,30.9829006 35.7215232,31.9527593 35.1986019,32.9305371 C34.6756806,33.9083149 33.9083149,34.6756806 32.9305371,35.1986019 C31.9527593,35.7215232 30.9829006,36 28.3083444,36 L7.6916556,36 C5.01709938,36 4.04724067,35.7215232 3.06946289,35.1986019 C2.09168511,34.6756806 1.32431939,33.9083149 0.801398111,32.9305371 C0.278476833,31.9527593 -4.0652614e-16,30.9829006 6.99666078e-16,28.3083444 L2.07168062e-16,7.6916556 C-1.2037061e-16,5.01709938 0.278476833,4.04724067 0.801398111,3.06946289 C1.32431939,2.09168511 2.09168511,1.32431939 3.06946289,0.801398111 C4.04724067,0.278476833 5.01709938,-3.46340835e-16 7.6916556,5.96082047e-16 Z" id="矩形" fill="#1E89FF"></path>
                    <g id="Icon/拓展类/待办" transform="translate(8.000000, 8.000000)" fill="#FFFFFF">
                        <path d="M9.16666667,1.66666667 L9.16666667,3.33266667 L4.33333333,3.33333333 C3.82049749,3.33333333 3.39782617,3.71937352 3.34006106,4.21671221 L3.33333333,4.33333333 L3.33333333,15.6666667 C3.33333333,16.1795025 3.71937352,16.6021738 4.21671221,16.6599389 L4.33333333,16.6666667 L15.6666667,16.6666667 C16.1795025,16.6666667 16.6021738,16.2806265 16.6599389,15.7832878 L16.6666667,15.6666667 L16.6656667,10.8326667 L18.3333333,10.8333333 L18.3333333,15.3333333 C18.3333333,16.9901876 16.9901876,18.3333333 15.3333333,18.3333333 L4.66666667,18.3333333 C3.00981242,18.3333333 1.66666667,16.9901876 1.66666667,15.3333333 L1.66666667,4.66666667 C1.66666667,3.00981242 3.00981242,1.66666667 4.66666667,1.66666667 L9.16666667,1.66666667 Z M17.3333333,1.66666667 C17.8856181,1.66666667 18.3333333,2.11438192 18.3333333,2.66666667 L18.3333333,8.33333333 L16.6656667,8.33266667 L16.6656667,4.51166667 L9.03003247,12.1484788 L7.85152117,10.9699675 L15.4876667,3.33266667 L11.6666667,3.33266667 L11.6666667,1.66666667 L17.3333333,1.66666667 Z" id="形状结合"></path>
                    </g>
                </g>
            </g>
        </g>
    </g>
</svg>