<?xml version="1.0" encoding="UTF-8"?>
<svg width="38px" height="36px" viewBox="0 0 38 36" version="1.1" xmlns="http://www.w3.org/2000/svg" xmlns:xlink="http://www.w3.org/1999/xlink">
    <g id="会议概况" stroke="none" stroke-width="1" fill="none" fill-rule="evenodd">
        <g id="未开始1920备份-7" transform="translate(-1177.000000, -417.000000)">
            <g id="编组-4" transform="translate(216.000000, 401.000000)">
                <g id="编组-7备份-8" transform="translate(871.000000, 0.000000)">
                    <g id="编组-11" transform="translate(89.919231, 16.000000)">
                        <path d="M9.55069815,5.96082047e-16 L30.167387,3.10752092e-16 C32.8419432,-1.80555915e-16 33.8118019,0.278476833 34.7895797,0.801398111 C35.7673574,1.32431939 36.5347232,2.09168511 37.0576444,3.06946289 C37.5805657,4.04724067 37.8590426,5.01709938 37.8590426,7.6916556 L37.8590426,28.3083444 C37.8590426,30.9829006 37.5805657,31.9527593 37.0576444,32.9305371 C36.5347232,33.9083149 35.7673574,34.6756806 34.7895797,35.1986019 C33.8118019,35.7215232 32.8419432,36 30.167387,36 L9.55069815,36 C6.87614193,36 5.90628322,35.7215232 4.92850544,35.1986019 C3.95072766,34.6756806 3.18336194,33.9083149 2.66044066,32.9305371 C2.13751939,31.9527593 1.85904255,30.9829006 1.85904255,28.3083444 L1.85904255,7.6916556 C1.85904255,5.01709938 2.13751939,4.04724067 2.66044066,3.06946289 C3.18336194,2.09168511 3.95072766,1.32431939 4.92850544,0.801398111 C5.90628322,0.278476833 6.87614193,-3.46340835e-16 9.55069815,5.96082047e-16 Z" id="矩形" fill="#03BE1C"></path>
                        <g id="占位/24x24备份-9" transform="translate(10.000000, 8.000000)" fill="#FFFFFF">
                            <path d="M10,0 C14.3731131,0 17.9166667,3.658484 17.9166667,8.16949153 C17.9166667,10.6673228 16.6873787,13.4826261 14.7354765,16.0726066 C13.0440449,18.3169685 11.1048328,20 10,20 C8.89516721,20 6.95595508,18.3169685 5.2645235,16.0726066 C3.31262131,13.4826261 2.08333333,10.6673228 2.08333333,8.16949153 C2.08333333,3.658484 5.6268869,0 10,0 Z M10,1.69491525 C6.53949086,1.69491525 3.73263889,4.59280373 3.73263889,8.16949153 C3.73263889,10.2246858 4.81975684,12.7143926 6.56848969,15.0347876 C7.29910829,16.004246 8.09809576,16.8728264 8.81928573,17.4987432 C9.1489642,17.7848693 9.44871188,18.0078031 9.69424879,18.1526242 C9.80187935,18.2161062 9.89378419,18.2613562 9.96485265,18.2877945 L9.96485265,18.2877945 L10,18.3004237 C10.0030954,18.2992926 10.0068131,18.2979846 10.0111705,18.2964465 L10.0111705,18.2964465 L10.0550424,18.2801181 C10.1230557,18.2529782 10.2079052,18.2103351 10.3057512,18.1526242 C10.5512881,18.0078031 10.8510358,17.7848693 11.1807143,17.4987432 C11.9019042,16.8728264 12.7008917,16.004246 13.4315103,15.0347876 C15.1802432,12.7143926 16.2673611,10.2246858 16.2673611,8.16949153 C16.2673611,4.59280373 13.4605091,1.69491525 10,1.69491525 Z M10,4.91525424 C11.8217726,4.91525424 13.2986111,6.43293305 13.2986111,8.30508475 C13.2986111,10.1772364 11.8217726,11.6949153 10,11.6949153 C8.17822739,11.6949153 6.70138889,10.1772364 6.70138889,8.30508475 C6.70138889,6.43293305 8.17822739,4.91525424 10,4.91525424 Z M10,6.61016949 C9.08911369,6.61016949 8.35069444,7.3690089 8.35069444,8.30508475 C8.35069444,9.24116059 9.08911369,10 10,10 C10.9108863,10 11.6493056,9.24116059 11.6493056,8.30508475 C11.6493056,7.3690089 10.9108863,6.61016949 10,6.61016949 Z" id="形状结合"></path>
                        </g>
                    </g>
                </g>
            </g>
        </g>
    </g>
</svg>