<?xml version="1.0" encoding="UTF-8"?>
<svg width="36px" height="36px" viewBox="0 0 36 36" version="1.1" xmlns="http://www.w3.org/2000/svg" xmlns:xlink="http://www.w3.org/1999/xlink">
    <g id="会议概况" stroke="none" stroke-width="1" fill="none" fill-rule="evenodd">
        <g id="未开始1920备份-7" transform="translate(-525.000000, -417.000000)">
            <g id="编组-4" transform="translate(216.000000, 401.000000)">
                <g id="编组-7" transform="translate(218.000000, 0.000000)">
                    <g id="编组-11" transform="translate(91.000000, 16.000000)">
                        <path d="M7.6916556,5.96082047e-16 L28.3083444,3.10752092e-16 C30.9829006,-1.80555915e-16 31.9527593,0.278476833 32.9305371,0.801398111 C33.9083149,1.32431939 34.6756806,2.09168511 35.1986019,3.06946289 C35.7215232,4.04724067 36,5.01709938 36,7.6916556 L36,28.3083444 C36,30.9829006 35.7215232,31.9527593 35.1986019,32.9305371 C34.6756806,33.9083149 33.9083149,34.6756806 32.9305371,35.1986019 C31.9527593,35.7215232 30.9829006,36 28.3083444,36 L7.6916556,36 C5.01709938,36 4.04724067,35.7215232 3.06946289,35.1986019 C2.09168511,34.6756806 1.32431939,33.9083149 0.801398111,32.9305371 C0.278476833,31.9527593 -4.0652614e-16,30.9829006 6.99666078e-16,28.3083444 L2.07168062e-16,7.6916556 C-1.2037061e-16,5.01709938 0.278476833,4.04724067 0.801398111,3.06946289 C1.32431939,2.09168511 2.09168511,1.32431939 3.06946289,0.801398111 C4.04724067,0.278476833 5.01709938,-3.46340835e-16 7.6916556,5.96082047e-16 Z" id="矩形" fill="#03BE1C"></path>
                        <g id="占位/24x24备份-3" transform="translate(8.000000, 8.000000)" fill="#FFFFFF">
                            <path d="M18.08918,11.1206696 C18.4132001,11.4431792 18.4144247,11.9672951 18.0919151,12.2913152 C18.0910055,12.2922291 18.0900938,12.2931408 18.08918,12.2940504 L11.4285272,18.9236516 C11.1025449,19.2481142 10.575633,19.2481142 10.2496506,18.9236516 C9.92563049,18.601142 9.92440594,18.0770261 10.2469155,17.7530059 C10.2478251,17.7520921 10.2487368,17.7511804 10.2496506,17.7502708 L16.9103034,11.1206696 C17.2362858,10.7962069 17.7631976,10.7962069 18.08918,11.1206696 Z M15.0038745,0.833333333 C16.3850144,0.833333333 17.5046494,1.94774872 17.5046494,3.32244978 L17.504,9.13033333 L15.837,9.13033333 L15.8374662,3.32244978 C15.8374662,2.87198276 15.4767985,2.50536148 15.0272072,2.49306305 L5.0007749,2.4927443 C4.54819801,2.4927443 4.17985955,2.85173054 4.16750352,3.29922592 L4.16718327,16.5977375 C4.16718327,17.0482045 4.52785093,17.4148258 4.97744227,17.4271242 L5.0007749,17.427443 L8.335,17.4273333 L8.335,19.0863333 L5.0007749,19.0868539 C3.61963506,19.0868539 2.5,17.9724385 2.5,16.5977375 L2.5,3.32244978 C2.5,1.94774872 3.61963506,0.833333333 5.0007749,0.833333333 L15.0038745,0.833333333 Z M10.8398025,10.7897991 C11.2980362,10.7897991 11.669508,11.1612709 11.669508,11.6195046 C11.669508,12.0777383 11.2980362,12.4492101 10.8398025,12.4492101 L6.66407202,12.4492101 C6.20583834,12.4492101 5.83436654,12.0777383 5.83436654,11.6195046 C5.83436654,11.1612709 6.20583834,10.7897991 6.66407202,10.7897991 L10.8398025,10.7897991 Z M13.3405774,5.81156622 C13.7988111,5.81156622 14.1702829,6.18303802 14.1702829,6.6412717 C14.1702829,7.09950538 13.7988111,7.47097718 13.3405774,7.47097718 L6.66407202,7.47097718 C6.20583834,7.47097718 5.83436654,7.09950538 5.83436654,6.6412717 C5.83436654,6.18303802 6.20583834,5.81156622 6.66407202,5.81156622 L13.3405774,5.81156622 Z" id="形状结合"></path>
                        </g>
                    </g>
                </g>
            </g>
        </g>
    </g>
</svg>