<?xml version="1.0" encoding="UTF-8"?>
<svg width="16px" height="17px" viewBox="0 0 16 17" version="1.1" xmlns="http://www.w3.org/2000/svg" xmlns:xlink="http://www.w3.org/1999/xlink">
    <title>消息管理</title>
    <g id="会议概况" stroke="none" stroke-width="1" fill="none" fill-rule="evenodd">
        <g id="画板" transform="translate(-252.000000, -184.000000)" fill="#FFFFFF">
            <g id="消息管理" transform="translate(252.000000, 183.536585)">
                <g id="占位/24x24备份-6" transform="translate(0.000000, 1.000000)">
                    <path d="M8,1.33333333 C11.6818983,1.33333333 14.6666667,4.31810167 14.6666667,8 C14.6666667,11.6194933 11.7822195,14.5652878 8.18660323,14.6641055 L8,14.6666667 L3.28211292,14.6666667 C2.91392309,14.6666667 2.61544625,14.3681898 2.61544625,14 L2.6162739,13.9667909 L2.7953887,12.1664976 C1.88054457,11.025192 1.33333333,9.57650002 1.33333333,8 C1.33333333,4.31810167 4.31810167,1.33333333 8,1.33333333 Z M8,2.54545455 C4.98753773,2.54545455 2.54545455,4.98753773 2.54545455,8 C2.54545455,9.18406229 2.92255174,10.3075663 3.60887554,11.2365169 L3.74116843,11.4083825 L4.05072539,11.7945675 L3.88466667,13.454 L7.98336475,13.4546596 L8.1533033,13.4524418 C11.1002609,13.3714511 13.4545455,10.9554744 13.4545455,8 C13.4545455,4.98753773 11.0124623,2.54545455 8,2.54545455 Z M5.66666667,7 C6.21895142,7 6.66666667,7.44771525 6.66666667,8 C6.66666667,8.55228475 6.21895142,9 5.66666667,9 C5.11438192,9 4.66666667,8.55228475 4.66666667,8 C4.66666667,7.44771525 5.11438192,7 5.66666667,7 Z M10.3333333,7 C10.8856181,7 11.3333333,7.44771525 11.3333333,8 C11.3333333,8.55228475 10.8856181,9 10.3333333,9 C9.78104858,9 9.33333333,8.55228475 9.33333333,8 C9.33333333,7.44771525 9.78104858,7 10.3333333,7 Z" id="形状结合"></path>
                </g>
            </g>
        </g>
    </g>
</svg>