<?xml version="1.0" encoding="UTF-8"?>
<svg width="16px" height="17px" viewBox="0 0 16 17" version="1.1" xmlns="http://www.w3.org/2000/svg" xmlns:xlink="http://www.w3.org/1999/xlink">
    <title>通知管理</title>
    <g id="会议概况" stroke="none" stroke-width="1" fill="none" fill-rule="evenodd">
        <g id="画板" transform="translate(-252.000000, -136.000000)" fill="#FFFFFF">
            <g id="通知管理" transform="translate(252.000000, 135.536585)">
                <g id="占位/24x24备份-3" transform="translate(0.000000, 1.000000)">
                    <path d="M7.97369332,0 C8.27622015,0 8.55901696,0.105267093 8.76618207,0.2944189 C8.92543144,0.439631095 9.04240222,0.629554951 9.10259888,0.838295683 L9.13283143,0.968786214 L9.23572372,1.00043539 L9.37945656,1.05102613 L9.53113101,1.09050129 L9.58991,1.10694927 L9.66225337,1.13326605 C10.3560921,1.38656499 10.9627899,1.79611977 11.4659052,2.35041681 C12.2774316,3.24172436 12.7436556,4.43860902 12.7904838,5.73828506 L12.7943925,5.95581474 L12.7943925,9.19113304 L14.1261682,10.9510672 L14.1343891,10.9642256 C14.2429041,11.0798315 14.3115565,11.2365237 14.3289569,11.4032285 L14.3333333,11.4872715 L14.3333333,12.3096707 C14.3333333,12.7167583 14.0240885,13.0530103 13.6277783,13.0934516 L13.5474213,13.0975291 L9.84804431,13.0975291 L9.84146764,13.130425 C9.7674801,13.538335 9.56689166,13.9001906 9.26272066,14.1781616 C8.91908965,14.492318 8.47023191,14.6666667 8.00164417,14.6666667 C7.53141225,14.6666667 7.08255452,14.492318 6.7389235,14.1765168 C6.46854929,13.9294315 6.28001808,13.616067 6.18949639,13.2641478 L6.15359986,13.0958843 L2.45422291,13.0958843 C2.04729145,13.0958843 1.71116837,12.7850752 1.67074256,12.3884323 L1.66666667,12.3080259 L1.66666667,11.4856267 C1.66666667,11.3136278 1.72223282,11.1488794 1.82508197,11.0120974 L1.88698512,10.9395537 L3.21218415,9.18619865 L3.20889581,5.95745953 C3.20889581,4.57747374 3.68077189,3.29617584 4.53738318,2.35206161 C4.99018692,1.85319427 5.52689252,1.47156817 6.13431542,1.21557669 L6.33939079,1.13491084 L6.50524126,1.07529019 L6.56464174,1.05760532 L6.69861095,1.007043 L6.7898927,0.977010205 L6.81455521,0.970431012 L6.81948771,0.945759037 C6.8655244,0.695749692 6.99376947,0.465477926 7.18120457,0.2944189 C7.38836968,0.103622294 7.66952233,0 7.97369332,0 Z M8.80140965,2.26105399 L7.9879385,2.15630281 L7.95944814,2.15794761 L7.16866667,2.256 L6.91466667,2.344 L6.7975905,2.38704135 C6.30841294,2.56604906 5.88313113,2.85326072 5.52484114,3.24799941 C4.93537783,3.89767647 4.5875344,4.78242864 4.546356,5.75949892 L4.54222845,5.95610159 L4.545973,9.63278766 L3,11.678 L3,11.762 L13,11.764 L13,11.6726667 L11.4610592,9.63865964 L11.4610592,5.95581474 C11.4610592,4.89692509 11.107492,3.93724375 10.4786173,3.24654208 C10.1648634,2.90087005 9.80020051,2.63802446 9.38665987,2.45823478 L9.18066667,2.37666667 L9.05724817,2.33004393 L8.80140965,2.26105399 Z" id="路径"></path>
                </g>
            </g>
        </g>
    </g>
</svg>