<?xml version="1.0" encoding="UTF-8"?>
<svg width="16px" height="17px" viewBox="0 0 16 17" version="1.1" xmlns="http://www.w3.org/2000/svg" xmlns:xlink="http://www.w3.org/1999/xlink">
    <title>活动总览</title>
    <g id="会议概况" stroke="none" stroke-width="1" fill="none" fill-rule="evenodd">
        <g id="画板" transform="translate(-49.000000, -40.000000)" fill="#FFFFFF">
            <g id="活动总览" transform="translate(49.000000, 39.536585)">
                <g id="占位/24x24备份-11" transform="translate(0.000000, 1.000000)">
                    <path d="M3.33266667,1.99966667 L3.33266667,3.33266667 L2.66666667,3.33333333 C2.33194864,3.33333333 2.05484466,3.5800084 2.00722838,3.90148489 L2,4 L2,12.6666667 C2,13.0348565 2.29847683,13.3333333 2.66666667,13.3333333 L2.66666667,13.3333333 L13.3333333,13.3333333 C13.7015232,13.3333333 14,13.0348565 14,12.6666667 L14,12.6666667 L14,4 C14,3.63181017 13.7015232,3.33333333 13.3333333,3.33333333 L13.3333333,3.33333333 L12.6666667,3.33266667 L12.6666667,1.99966667 L13.3333333,2 C14.4379028,2 15.3333333,2.8954305 15.3333333,4 L15.3333333,12.6666667 C15.3333333,13.7712362 14.4379028,14.6666667 13.3333333,14.6666667 L2.66666667,14.6666667 C1.56209717,14.6666667 0.666666667,13.7712362 0.666666667,12.6666667 L0.666666667,4 C0.666666667,2.8954305 1.56209717,2 2.66666667,2 L3.33266667,1.99966667 Z M8,8 C8.36818983,8 8.66666667,8.29847683 8.66666667,8.66666667 C8.66666667,9.0348565 8.36818983,9.33333333 8,9.33333333 L4,9.33333333 C3.63181017,9.33333333 3.33333333,9.0348565 3.33333333,8.66666667 C3.33333333,8.29847683 3.63181017,8 4,8 L8,8 Z M12,8 C12.3681898,8 12.6666667,8.29847683 12.6666667,8.66666667 C12.6666667,9.0348565 12.3681898,9.33333333 12,9.33333333 L10.6666667,9.33333333 C10.2984768,9.33333333 10,9.0348565 10,8.66666667 C10,8.29847683 10.2984768,8 10.6666667,8 L12,8 Z M12,5.33333333 C12.3681898,5.33333333 12.6666667,5.63181017 12.6666667,6 C12.6666667,6.36818983 12.3681898,6.66666667 12,6.66666667 L4,6.66666667 C3.63181017,6.66666667 3.33333333,6.36818983 3.33333333,6 C3.33333333,5.63181017 3.63181017,5.33333333 4,5.33333333 L12,5.33333333 Z M4.66666667,0.666666667 C5.0348565,0.666666667 5.33333333,0.9651435 5.33333333,1.33333333 L5.33333333,1.33333333 L5.33333333,3.33333333 C5.33333333,3.70152317 5.0348565,4 4.66666667,4 C4.29847683,4 4,3.70152317 4,3.33333333 L4,3.33333333 L4,1.33333333 C4,0.9651435 4.29847683,0.666666667 4.66666667,0.666666667 Z M11.3333333,0.666666667 C11.7015232,0.666666667 12,0.9651435 12,1.33333333 L12,1.33333333 L12,3.33333333 C12,3.70152317 11.7015232,4 11.3333333,4 C10.9651435,4 10.6666667,3.70152317 10.6666667,3.33333333 L10.6666667,3.33333333 L10.6666667,1.33333333 C10.6666667,0.9651435 10.9651435,0.666666667 11.3333333,0.666666667 Z M9.99966667,1.99966667 L9.99966667,3.33266667 L5.99966667,3.33266667 L5.99966667,1.99966667 L9.99966667,1.99966667 Z" id="矩形备份-77"></path>
                </g>
            </g>
        </g>
    </g>
</svg>