<?xml version="1.0" encoding="UTF-8"?>
<svg width="18px" height="24px" viewBox="0 0 18 24" version="1.1" xmlns="http://www.w3.org/2000/svg" xmlns:xlink="http://www.w3.org/1999/xlink">
    <title>PDF备份 2</title>
    <g id="icon篇" stroke="none" stroke-width="1" fill="none" fill-rule="evenodd">
        <g id="编组" transform="translate(-3.000000, 0.000000)">
            <path d="M21,6 L21,21.4361148 L20.9996186,21.532863 C20.9930123,22.3515843 20.9007186,22.6629911 20.7328673,22.9768457 C20.5585602,23.3027716 20.3027716,23.5585602 19.9768457,23.7328673 L19.9406136,23.7518989 C19.6322397,23.9108072 19.307361,23.9966613 18.4850626,24 L5.5638852,24 C4.67236646,24 4.34908022,23.9071744 4.0231543,23.7328673 C3.69722837,23.5585602 3.4414398,23.3027716 3.2671327,22.9768457 L3.24774174,22.9399159 C3.08906338,22.6317494 3.00333629,22.3067409 3,21.4850626 L3,2.5638852 C3,1.67236646 3.09282561,1.34908022 3.2671327,1.0231543 C3.4414398,0.697228371 3.69722837,0.441439796 4.0231543,0.267132704 L4.06008414,0.247741744 C4.36825057,0.0890633758 4.69325912,0.00333629384 5.51493736,0 L15,0 L21,6 Z" id="路径" fill="#CD1E2C"></path>
            <path d="M15,0 L21,6 L16.6665254,6 C16.0870382,6 15.8769021,5.93966335 15.6650503,5.82636374 C15.4531984,5.71306413 15.2869359,5.54680156 15.1736363,5.33494971 L15.1570395,5.30313841 C15.0544538,5.10116087 15,4.88398744 15,4.33347462 L15,0 Z" id="矩形" fill="#AE0715"></path>
            <path d="M7.4952,17.2208 L7.4952,15.8512 L8.0392,15.8512 C9.2936,15.8512 9.7864,15.448 9.7864,14.2896 C9.7864,13.2208 9.3704,12.7792 8.0392,12.7792 L6.5224,12.7792 L6.5224,17.2208 L7.4952,17.2208 Z M7.9112,15.0704 L7.4952,15.0704 L7.4952,13.5472 L7.9112,13.5472 C8.564,13.5472 8.7944,13.7392 8.7944,14.3088 C8.7944,14.8976 8.5704,15.0704 7.9112,15.0704 Z M12.1032,17.2208 C13.4088,17.2208 14.2664,16.7152 14.2664,15 C14.2664,13.1504 13.4088,12.7792 12.1032,12.7792 L10.58,12.7792 L10.58,17.2208 L12.1032,17.2208 Z M12.052,16.3888 L11.5528,16.3888 L11.5528,13.5984 L12.052,13.5984 C12.852,13.5984 13.2616,13.8544 13.2616,15 C13.2616,16.0816 12.8712,16.3888 12.052,16.3888 Z M16.116,17.2208 L16.116,15.4928 L17.7288,15.4928 L17.7288,14.6544 L16.116,14.6544 L16.116,13.624 L17.8568,13.624 L17.8568,12.7792 L15.1432,12.7792 L15.1432,17.2208 L16.116,17.2208 Z" id="PDF" fill="#FFFFFF" fill-rule="nonzero"></path>
        </g>
    </g>
</svg>