<?xml version="1.0" encoding="UTF-8"?>
<svg width="18px" height="24px" viewBox="0 0 18 24" version="1.1" xmlns="http://www.w3.org/2000/svg" xmlns:xlink="http://www.w3.org/1999/xlink">
    <title>ppt备份 2</title>
    <g id="icon篇" stroke="none" stroke-width="1" fill="none" fill-rule="evenodd">
        <g id="编组" transform="translate(-3.000000, 0.000000)">
            <path d="M21,6 L21,21.4361148 L20.9996186,21.532863 C20.9930123,22.3515843 20.9007186,22.6629911 20.7328673,22.9768457 C20.5585602,23.3027716 20.3027716,23.5585602 19.9768457,23.7328673 L19.9406136,23.7518989 C19.6322397,23.9108072 19.307361,23.9966613 18.4850626,24 L5.5638852,24 C4.67236646,24 4.34908022,23.9071744 4.0231543,23.7328673 C3.69722837,23.5585602 3.4414398,23.3027716 3.2671327,22.9768457 L3.24774174,22.9399159 C3.08906338,22.6317494 3.00333629,22.3067409 3,21.4850626 L3,2.5638852 C3,1.67236646 3.09282561,1.34908022 3.2671327,1.0231543 C3.4414398,0.697228371 3.69722837,0.441439796 4.0231543,0.267132704 L4.06008414,0.247741744 C4.36825057,0.0890633758 4.69325912,0.00333629384 5.51493736,0 L15,0 L21,6 Z" id="路径" fill="#B7300B"></path>
            <path d="M15,0 L21,6 L16.6665254,6 C16.0870382,6 15.8769021,5.93966335 15.6650503,5.82636374 C15.4531984,5.71306413 15.2869359,5.54680156 15.1736363,5.33494971 L15.1570395,5.30313841 C15.0544538,5.10116087 15,4.88398744 15,4.33347462 L15,0 Z" id="矩形" fill="#952303"></path>
            <path d="M11.0835,18.4236 L11.0835,16.3086 L11.9389,16.3086 C13.7155,16.3086 14.4487,15.7164 14.4487,14.0714 C14.4487,12.5298 13.8565,11.9 11.9389,11.9 L9.8521,11.9 L9.8521,18.4236 L11.0835,18.4236 Z M11.7885,15.3122 L11.0835,15.3122 L11.0835,12.8964 L11.7885,12.8964 C12.8319,12.8964 13.1891,13.1972 13.1891,14.0902 C13.1891,15.0396 12.8413,15.3122 11.7885,15.3122 Z" id="P" fill="#FFFFFF" fill-rule="nonzero"></path>
        </g>
    </g>
</svg>