<?xml version="1.0" encoding="UTF-8"?>
<svg width="24px" height="24px" viewBox="0 0 24 24" version="1.1" xmlns="http://www.w3.org/2000/svg" xmlns:xlink="http://www.w3.org/1999/xlink">
    <title>qing</title>
    <g id="icon篇" stroke="none" stroke-width="1" fill="none" fill-rule="evenodd">
        <g id="画板" transform="translate(-118.000000, -55.000000)" fill-rule="nonzero">
            <g id="晴备份" transform="translate(118.000000, 55.000000)">
                <rect id="矩形" fill="#000000" opacity="0" x="0" y="0" width="24" height="24"></rect>
                <path d="M11.9671875,20.4421875 C12.3335076,20.4421875 12.6304687,20.7391486 12.6304687,21.1054687 C12.6304687,21.4717889 12.3335076,21.76875 11.9671875,21.76875 C11.6008674,21.76875 11.3039062,21.4717889 11.3039062,21.1054687 C11.3039062,20.7391486 11.6008674,20.4421875 11.9671875,20.4421875 Z M11.9671875,4.9453125 C15.8789168,4.9453125 19.05,8.11639567 19.05,12.028125 C19.05,14.5585702 17.7000236,16.8967981 15.5085938,18.1620207 C13.317164,19.4272433 10.617211,19.4272433 8.42578121,18.1620207 C6.23435137,16.8967981 4.884375,14.5585702 4.884375,12.028125 C4.884375,8.11639567 8.05545817,4.9453125 11.9671875,4.9453125 Z M5.54765625,17.7820312 C5.91397637,17.7820312 6.2109375,18.0789924 6.2109375,18.4453125 C6.2109375,18.8116326 5.91397637,19.1085937 5.54765625,19.1085937 C5.18133613,19.1085937 4.884375,18.8116326 4.884375,18.4453125 C4.884375,18.0789924 5.18133613,17.7820312 5.54765625,17.7820312 Z M18.384375,17.7820312 C18.7506951,17.7820312 19.0476562,18.0789924 19.0476562,18.4453125 C19.0476562,18.8116326 18.7506951,19.1085937 18.384375,19.1085937 C18.0180549,19.1085937 17.7210937,18.8116326 17.7210937,18.4453125 C17.7210937,18.0789924 18.0180549,17.7820312 18.384375,17.7820312 Z M21.0421875,11.3648437 C21.4085076,11.3648437 21.7054687,11.6618049 21.7054687,12.028125 C21.7054687,12.3944451 21.4085076,12.6914062 21.0421875,12.6914062 C20.6758674,12.6914062 20.3789062,12.3944451 20.3789062,12.028125 C20.3789062,11.6618049 20.6758674,11.3648437 21.0421875,11.3648437 Z M2.55820312,11.4537066 C2.76342306,11.3352228 3.01626444,11.3352228 3.22148438,11.4537066 C3.42670431,11.5721904 3.553125,11.7911574 3.553125,12.028125 C3.553125,12.2650926 3.42670431,12.4840596 3.22148438,12.6025434 C3.01626444,12.7210272 2.76342306,12.7210272 2.55820312,12.6025434 C2.35298319,12.4840596 2.2265625,12.2650926 2.2265625,12.028125 C2.2265625,11.7911574 2.35298319,11.5721904 2.55820312,11.4537066 Z M5.54765625,4.94765625 C5.91397637,4.94765625 6.2109375,5.24461738 6.2109375,5.6109375 C6.2109375,5.97725762 5.91397637,6.27421875 5.54765625,6.27421875 C5.18133613,6.27421875 4.884375,5.97725762 4.884375,5.6109375 C4.884375,5.24461738 5.18133613,4.94765625 5.54765625,4.94765625 Z M18.384375,4.94765625 C18.7506951,4.94765625 19.0476562,5.24461738 19.0476562,5.6109375 C19.0476562,5.97725762 18.7506951,6.27421875 18.384375,6.27421875 C18.0180549,6.27421875 17.7210937,5.97725762 17.7210937,5.6109375 C17.7210937,5.24461738 18.0180549,4.94765625 18.384375,4.94765625 Z M11.9671875,2.28984375 C12.3335076,2.28984375 12.6304687,2.58680488 12.6304687,2.953125 C12.6304687,3.31944512 12.3335076,3.61640625 11.9671875,3.61640625 C11.6008674,3.61640625 11.3039062,3.31944512 11.3039062,2.953125 C11.3039062,2.58680488 11.6008674,2.28984375 11.9671875,2.28984375 Z" id="形状结合" fill="#FAD105"></path>
            </g>
        </g>
    </g>
</svg>