<?xml version="1.0" encoding="UTF-8"?>
<svg width="24px" height="24px" viewBox="0 0 24 24" version="1.1" xmlns="http://www.w3.org/2000/svg" xmlns:xlink="http://www.w3.org/1999/xlink">
    <title>shachen</title>
    <g id="icon篇" stroke="none" stroke-width="1" fill="none" fill-rule="evenodd">
        <g id="画板" transform="translate(-374.000000, -55.000000)" fill-rule="nonzero">
            <g id="沙尘备份" transform="translate(374.000000, 55.000000)">
                <rect id="矩形" fill="#000000" opacity="0" x="0" y="0" width="24" height="24"></rect>
                <path d="M9.14285715,5.92307692 C9.92857143,5.92307692 10.5714286,6.58076923 10.5714286,7.38461538 C10.5714286,8.18846153 9.92857143,8.84615384 9.14285715,8.84615384 L9.14285715,10.3076923 C10.7142857,10.3076923 12,8.99230769 12,7.38461538 C12,5.77692307 10.7142857,4.46153846 9.14285715,4.46153846 C7.57142857,4.46153846 6.28571428,5.77692307 6.28571428,7.38461538 L7.71428572,7.38461538 C7.71428572,6.58076923 8.35714287,5.92307692 9.14285715,5.92307692 L9.14285715,5.92307692 Z M4.78571428,5.19230768 L3.42857143,5.19230768 L3.42857143,6.65384614 L4.78571428,6.65384614 L4.78571428,5.19230768 L4.78571428,5.19230768 Z M19.0714286,3 L17.7142857,3 L17.7142857,4.46153846 L19.0714286,4.46153846 L19.0714286,3 Z M14.7857143,8.84615384 L13.4285714,8.84615384 L13.4285714,10.3076923 L14.7857143,10.3076923 L14.7857143,8.84615384 L14.7857143,8.84615384 Z M9.14285715,8.84615384 L2,8.84615384 L2,10.3076923 L9.14285715,10.3076923 L9.14285715,8.84615384 Z M17,13.2307692 C19,13.2307692 20.5714286,11.6230769 20.5714286,9.57692308 C20.5714286,7.53076923 19,5.92307692 17,5.92307692 C16.1428571,5.92307692 15.2857143,6.2153846 14.6428571,6.79999999 L15.5714286,7.89615384 C16,7.60384616 16.5,7.38461538 17,7.38461538 C18.2142857,7.38461538 19.1428571,8.33461538 19.1428571,9.57692308 C19.1428571,10.8192308 18.2142857,11.7692308 17,11.7692308 L2.42857143,11.7692308 L2.42857143,13.2307692 L17,13.2307692 L17,13.2307692 Z M18.4285714,14.6923077 L8,14.6923077 L8,16.1538462 L18.4285714,16.1538462 C19.6428571,16.1538462 20.5714286,17.1038462 20.5714286,18.3461539 C20.5714286,19.5884616 19.6428571,20.5384616 18.4285714,20.5384615 C17.2142857,20.5384615 16.2857143,19.5884615 16.2857143,18.3461539 L14.8571429,18.3461539 C14.8571429,20.3923077 16.4285714,22 18.4285714,22 C20.4285714,22 22,20.3923077 22,18.3461539 C22,16.3 20.4285714,14.6923077 18.4285714,14.6923077 L18.4285714,14.6923077 Z M8.42857143,20.5384615 L9.78571428,20.5384615 L9.78571428,19.0769231 L8.42857143,19.0769231 L8.42857143,20.5384615 Z M4.85714285,16.1538462 L6.21428572,16.1538462 L6.21428572,14.6923077 L4.85714285,14.6923077 L4.85714285,16.1538462 L4.85714285,16.1538462 Z" id="形状" fill="#D8C8AC"></path>
            </g>
        </g>
    </g>
</svg>