<?xml version="1.0" encoding="UTF-8"?>
<svg width="16px" height="16px" viewBox="0 0 16 16" version="1.1" xmlns="http://www.w3.org/2000/svg" xmlns:xlink="http://www.w3.org/1999/xlink">
    <title>上传</title>
    <g id="议程管理" stroke="none" stroke-width="1" fill="none" fill-rule="evenodd">
        <g id="议程管理备份-3" transform="translate(-964.000000, -209.000000)" fill="#FFFFFF">
            <g id="编组" transform="translate(800.000000, 129.000000)">
                <g id="button/主按钮/文本" transform="translate(154.000000, 72.000000)">
                    <g id="上传" transform="translate(10.000000, 8.000000)">
                        <path d="M14,8.65131242 C14.3619493,8.65131242 14.6565288,8.93975714 14.6664105,9.29931876 L14.6666667,11.3333333 C14.6666667,12.7913651 13.4965181,13.976094 12.0440982,13.9996427 L4,14 C2.54196826,14 1.35723937,12.8298514 1.33369059,11.3774315 L1.33333333,9.31797908 C1.33333333,8.94978925 1.63181017,8.65131242 2,8.65131242 C2.36194933,8.65131242 2.65652878,8.93975714 2.66641055,9.29931876 L2.66666667,11.3333333 C2.66666667,12.0620424 3.25124857,12.654215 3.97703404,12.6664729 L12,12.6666667 C12.728709,12.6666667 13.3208817,12.0820848 13.3331395,11.3562993 L13.3333333,11.3333333 L13.3333333,9.31797908 C13.3333333,8.94978925 13.6318102,8.65131242 14,8.65131242 Z M8.11329179,1.33613071 C8.26320048,1.34972166 8.40938704,1.41389612 8.52414502,1.52865411 L8.52414502,1.52865411 L11.8239767,4.82848576 L11.894271,4.91111991 C12.0817227,5.17163968 12.0582912,5.53698022 11.8239767,5.7712948 L11.8239767,5.7712948 L11.7413425,5.84158917 C11.4808227,6.02904083 11.1154822,6.00560937 10.8811676,5.7712948 L10.8811676,5.7712948 L8.66576118,3.5569848 L8.66666667,10.0473181 C8.66666667,10.415508 8.36818983,10.7139848 8,10.7139848 C7.63181017,10.7139848 7.33333333,10.415508 7.33333333,10.0473181 L7.33333333,10.0473181 L7.33276118,3.5579848 L5.11883237,5.7712948 C4.85848284,6.03164433 4.43637286,6.03164433 4.17602333,5.7712948 C3.9156738,5.51094527 3.9156738,5.08883529 4.17602333,4.82848576 L4.17602333,4.82848576 L7.47585498,1.52865411 C7.61955771,1.38495138 7.81254249,1.32056692 8.00059529,1.33542191 Z" id="形状结合"></path>
                    </g>
                </g>
            </g>
        </g>
    </g>
</svg>