<?xml version="1.0" encoding="UTF-8"?>
<svg width="16px" height="17px" viewBox="0 0 16 17" version="1.1" xmlns="http://www.w3.org/2000/svg" xmlns:xlink="http://www.w3.org/1999/xlink">
    <title>报名管理</title>
    <g id="会议概况" stroke="none" stroke-width="1" fill="none" fill-rule="evenodd">
        <g id="画板" transform="translate(-49.000000, -89.000000)" fill="#FFFFFF">
            <g id="报名管理" transform="translate(49.000000, 88.536585)">
                <g id="占位/24x24备份-3" transform="translate(0.000000, 1.000000)">
                    <path d="M14.4700952,8.89529271 L14.471344,8.89653569 C14.7305601,9.15454336 14.7315398,9.57383608 14.4735321,9.83305219 L14.471344,9.83524028 L9.14157299,15.1401642 C8.88147772,15.3990469 8.46106457,15.3990469 8.20096931,15.1401642 L8.19972051,15.1389212 C7.94050439,14.8809136 7.93952475,14.4616209 8.19753242,14.2024047 L8.19972051,14.2002167 L13.5294915,8.89529271 C13.7895868,8.63640999 14.2099999,8.63640999 14.4700952,8.89529271 Z M12.0030996,0.666666667 C13.1080115,0.666666667 14.0037195,1.55819898 14.0037195,2.65795982 L14.003,7.30366667 L12.669,7.30366667 L12.6699729,2.65795982 C12.6699729,2.29758621 12.3814388,2.00428919 12.0217657,1.99445044 L4.00061992,1.99419544 C3.63855841,1.99419544 3.34388764,2.28138443 3.33400282,2.63938073 L3.33374662,2.65795982 L3.33374662,13.27819 C3.33374662,13.6385636 3.62228074,13.9318606 3.98195382,13.9416994 L6.668,13.9416667 L6.668,15.2686667 L4.00061992,15.2694831 C2.89570805,15.2694831 2,14.3779508 2,13.27819 L2,2.65795982 C2,1.55819898 2.89570805,0.666666667 4.00061992,0.666666667 L12.0030996,0.666666667 Z M8.671842,8.63183928 C9.03842895,8.63183928 9.33560639,8.92901672 9.33560639,9.29560367 C9.33560639,9.66219062 9.03842895,9.95936805 8.671842,9.95936805 L5.33125762,9.95936805 C4.96467067,9.95936805 4.66749323,9.66219062 4.66749323,9.29560367 C4.66749323,8.92901672 4.96467067,8.63183928 5.33125762,8.63183928 L8.671842,8.63183928 Z M10.6724619,4.64925297 C11.0390489,4.64925297 11.3362263,4.94643041 11.3362263,5.31301736 C11.3362263,5.67960431 11.0390489,5.97678174 10.6724619,5.97678174 L5.33125762,5.97678174 C4.96467067,5.97678174 4.66749323,5.67960431 4.66749323,5.31301736 C4.66749323,4.94643041 4.96467067,4.64925297 5.33125762,4.64925297 L10.6724619,4.64925297 Z" id="形状结合"></path>
                </g>
            </g>
        </g>
    </g>
</svg>