<?xml version="1.0" encoding="UTF-8"?>
<svg width="16px" height="17px" viewBox="0 0 16 17" version="1.1" xmlns="http://www.w3.org/2000/svg" xmlns:xlink="http://www.w3.org/1999/xlink">
    <title>统计管理</title>
    <g id="会议概况" stroke="none" stroke-width="1" fill="none" fill-rule="evenodd">
        <g id="画板" transform="translate(-252.000000, -232.000000)" fill="#FFFFFF">
            <g id="统计管理" transform="translate(252.000000, 231.536585)">
                <path d="M10,8.19111325 C10.3681898,8.19111325 10.6666667,8.48959009 10.6666667,8.85777992 L10.6666667,14.8577799 C10.6666667,15.2259698 10.3681898,15.5244466 10,15.5244466 L9.33333333,15.5244466 C8.9651435,15.5244466 8.66666667,15.2259698 8.66666667,14.8577799 L8.66666667,8.85777992 C8.66666667,8.48959009 8.9651435,8.19111325 9.33333333,8.19111325 L10,8.19111325 Z M6.66666667,10.8577799 C7.0348565,10.8577799 7.33333333,11.1562568 7.33333333,11.5244466 L7.33333333,14.8577799 C7.33333333,15.2259698 7.0348565,15.5244466 6.66666667,15.5244466 L6,15.5244466 C5.63181017,15.5244466 5.33333333,15.2259698 5.33333333,14.8577799 L5.33333333,11.5244466 C5.33333333,11.1562568 5.63181017,10.8577799 6,10.8577799 L6.66666667,10.8577799 Z M3.33333333,9.52444659 C3.70152317,9.52444659 4,9.82292342 4,10.1911133 L4,14.8577799 C4,15.2259698 3.70152317,15.5244466 3.33333333,15.5244466 L2.66666667,15.5244466 C2.29847683,15.5244466 2,15.2259698 2,14.8577799 L2,10.1911133 C2,9.82292342 2.29847683,9.52444659 2.66666667,9.52444659 L3.33333333,9.52444659 Z M13.3333333,6.19111325 C13.7015232,6.19111325 14,6.48959009 14,6.85777992 L14,14.8577799 C14,15.2259698 13.7015232,15.5244466 13.3333333,15.5244466 L12.6666667,15.5244466 C12.2984768,15.5244466 12,15.2259698 12,14.8577799 L12,6.85777992 C12,6.48959009 12.2984768,6.19111325 12.6666667,6.19111325 L13.3333333,6.19111325 Z M14.3333478,2.33333333 L13,5.41940959 L12.2225776,4.46733333 L8.76570808,7.26945823 L5.37933333,6.90444659 L2.12262452,8.19322501 C1.97045971,8.25342381 1.80052609,8.19384308 1.71707716,8.05963073 L1.69004139,8.00589093 C1.62984259,7.85372612 1.68942333,7.68379249 1.82363567,7.60034356 L1.87737548,7.5733078 L5.2872187,6.22431991 L8.56733333,6.57711325 L11.8025776,3.95133333 L10.9269971,2.87915412 L14.3333478,2.33333333 Z" id="形状结合"></path>
            </g>
        </g>
    </g>
</svg>