<?xml version="1.0" encoding="UTF-8"?>
<svg width="18px" height="24px" viewBox="0 0 18 24" version="1.1" xmlns="http://www.w3.org/2000/svg" xmlns:xlink="http://www.w3.org/1999/xlink">
    <title>txt备份 2</title>
    <g id="icon篇" stroke="none" stroke-width="1" fill="none" fill-rule="evenodd">
        <g id="编组" transform="translate(-3.000000, 0.000000)">
            <path d="M21,6 L21,21.4361148 L20.9996186,21.532863 C20.9930123,22.3515843 20.9007186,22.6629911 20.7328673,22.9768457 C20.5585602,23.3027716 20.3027716,23.5585602 19.9768457,23.7328673 L19.9406136,23.7518989 C19.6322397,23.9108072 19.307361,23.9966613 18.4850626,24 L5.5638852,24 C4.67236646,24 4.34908022,23.9071744 4.0231543,23.7328673 C3.69722837,23.5585602 3.4414398,23.3027716 3.2671327,22.9768457 L3.24774174,22.9399159 C3.08906338,22.6317494 3.00333629,22.3067409 3,21.4850626 L3,2.5638852 C3,1.67236646 3.09282561,1.34908022 3.2671327,1.0231543 C3.4414398,0.697228371 3.69722837,0.441439796 4.0231543,0.267132704 L4.06008414,0.247741744 C4.36825057,0.0890633758 4.69325912,0.00333629384 5.51493736,0 L15,0 L21,6 Z" id="路径" fill="#EDEDEE"></path>
            <path d="M15,0 L21,6 L16.6665254,6 C16.0870382,6 15.8769021,5.93966335 15.6650503,5.82636374 C15.4531984,5.71306413 15.2869359,5.54680156 15.1736363,5.33494971 L15.1570395,5.30313841 C15.0544538,5.10116087 15,4.88398744 15,4.33347462 L15,0 Z" id="矩形" fill="#CCCDCF"></path>
            <path d="M8.0512,16.6448 C8.0512,16.1968 7.9488,16.1328 7.5392,16.1328 C7.1104,16.1328 7.0272,16.1968 7.0272,16.6448 C7.0272,17.0716308 7.10723077,17.1537136 7.5148431,17.1567128 L7.5392,17.1568 C7.9488,17.1568 8.0512,17.08 8.0512,16.6448 Z M10.24,17.1568 C10.3872,17.1568 10.5344,17.144 10.6688,17.1248 L10.6688,16.4912 C10.5728,16.5168 10.4768,16.5232 10.3552,16.5232 C9.9968,16.5232 9.9264,16.4144 9.9264,15.9664 L9.9264,14.3024 L10.688,14.3024 L10.688,13.6624 L9.9264,13.6624 L9.9264,12.8432 L9.1264,12.8432 L9.1264,13.6624 L8.6464,13.6624 L8.6464,14.3024 L9.1264,14.3024 L9.1264,16.0304 C9.1264,16.9392 9.4144,17.1568 10.24,17.1568 Z M11.808,17.1184 L12.608,15.8448 L12.6464,15.8448 L13.4272,17.1184 L14.368,17.1184 L13.184,15.3456 L14.304,13.6624 L13.3888,13.6624 L12.6528,14.872 L12.6144,14.872 L11.8784,13.6624 L10.9504,13.6624 L12.0704,15.352 L10.8736,17.1184 L11.808,17.1184 Z M16.1152,17.1568 C16.2624,17.1568 16.4096,17.144 16.544,17.1248 L16.544,16.4912 C16.448,16.5168 16.352,16.5232 16.2304,16.5232 C15.8793143,16.5232 15.8045934,16.4187955 15.8016898,15.9934067 L15.8016,14.3024 L16.5632,14.3024 L16.5632,13.6624 L15.8016,13.6624 L15.8016,12.8432 L15.0016,12.8432 L15.0016,13.6624 L14.5216,13.6624 L14.5216,14.3024 L15.0016,14.3024 L15.0016,16.0304 C15.0016,16.9392 15.2896,17.1568 16.1152,17.1568 Z" id=".txt" fill="#919191" fill-rule="nonzero"></path>
        </g>
    </g>
</svg>