<?xml version="1.0" encoding="UTF-8"?>
<svg width="18px" height="24px" viewBox="0 0 18 24" version="1.1" xmlns="http://www.w3.org/2000/svg" xmlns:xlink="http://www.w3.org/1999/xlink">
    <title>video备份</title>
    <g id="icon篇" stroke="none" stroke-width="1" fill="none" fill-rule="evenodd">
        <g id="编组" transform="translate(-3.000000, 0.000000)" fill-rule="nonzero">
            <g id="icon／File／video" transform="translate(3.000000, 0.000000)">
                <path d="M18,6 L18,21.4361148 L17.9996186,21.532863 C17.9930122,22.3515843 17.9007186,22.6629911 17.7328673,22.9768457 C17.5585602,23.3027717 17.3027717,23.5585602 16.9768457,23.7328673 L16.9406135,23.7518988 C16.6322398,23.9108072 16.307361,23.9966612 15.4850626,24 L2.5638852,24 C1.67236646,24 1.34908022,23.9071744 1.0231543,23.7328673 C0.69722837,23.5585602 0.441439795,23.3027717 0.267132705,22.9768457 L0.247741745,22.9399158 C0.089063375,22.6317495 0.003336295,22.3067409 0,21.4850626 L0,2.5638852 C0,1.67236646 0.09282561,1.34908022 0.267132705,1.0231543 C0.441439795,0.69722837 0.69722837,0.441439796 1.0231543,0.267132704 L1.06008414,0.247741744 C1.36825057,0.089063376 1.69325912,0.00333629384 2.51493735,0 L12,0 L18,6 Z" id="路径" fill="#6E4DF0"></path>
                <path d="M12,0 L18,6 L13.6665254,6 C13.0870382,6 12.8769021,5.93966335 12.6650503,5.82636375 C12.4531985,5.71306415 12.2869359,5.54680155 12.1736362,5.3349497 L12.1570394,5.3031384 C12.0544538,5.10116085 12,4.88398744 12,4.33347462 L12,0 Z" id="矩形" fill-opacity="0.260025131" fill="#000000"></path>
                <path d="M10.5206904,11.75 C10.8390899,11.75 10.9545493,11.783152 11.0709514,11.8454045 C11.1873535,11.907657 11.2787066,11.9990102 11.3409591,12.1154123 C11.4032117,12.2318144 11.4363637,12.3472737 11.4363637,12.6656733 L11.4363637,17.3343267 C11.4363637,17.6527263 11.4032117,17.7681856 11.3409591,17.8845878 C11.2787066,18.0009898 11.1873535,18.0923429 11.0709514,18.1545954 C10.9545493,18.216848 10.8390899,18.25 10.5206904,18.25 L5.2156733,18.25 C4.89727375,18.25 4.78181435,18.216848 4.66541225,18.1545954 C4.54901015,18.0923429 4.45765705,18.0009898 4.39540455,17.8845878 C4.333152,17.7681856 4.3,17.6527263 4.3,17.3343267 L4.3,12.6656733 C4.3,12.3472737 4.333152,12.2318144 4.39540455,12.1154123 C4.45765705,11.9990102 4.54901015,11.907657 4.66541225,11.8454045 C4.78181435,11.783152 4.89727375,11.75 5.2156733,11.75 L10.5206904,11.75 Z M14.2056817,12.3233278 C14.2663353,12.3892513 14.3,12.4755613 14.3,12.5651424 L14.3,17.4363467 C14.3,17.6335912 14.1401017,17.7934895 13.9428572,17.7934895 C13.853351,17.7934895 13.7671077,17.759881 13.7012025,17.6993182 L12.1427609,16.2672062 C12.0691612,16.1995725 12.0272728,16.1041908 12.0272728,16.0042347 L12.0272728,13.9990037 C12.0272728,13.8991231 12.0690981,13.8038064 12.142601,13.7361792 L13.7010426,12.3023178 C13.8461965,12.1687673 14.0721312,12.1781738 14.2056817,12.3233278 Z" id="形状结合" fill="#FFFFFF"></path>
            </g>
        </g>
    </g>
</svg>