<?xml version="1.0" encoding="UTF-8"?>
<svg width="16px" height="16px" viewBox="0 0 16 16" version="1.1" xmlns="http://www.w3.org/2000/svg" xmlns:xlink="http://www.w3.org/1999/xlink">
    <title>我的</title>
    <g id="首页" stroke="none" stroke-width="1" fill="none" fill-rule="evenodd">
        <g id="会议活动大厅" transform="translate(-396.000000, -155.000000)" fill="#191F24">
            <g id="标题栏" transform="translate(0.000000, 129.000000)">
                <g id="编组-6" transform="translate(380.000000, 14.000000)">
                    <g id="占位/24x24备份-10" transform="translate(16.000000, 12.000000)">
                        <path d="M8,11.5813953 C9.10848817,11.5813953 10.3604986,11.7183921 11.3099597,11.9595411 C11.8671136,12.1010498 12.3200397,12.2760717 12.6529449,12.4955915 C13.1453756,12.8203036 13.4235297,13.2807332 13.3068642,13.8390586 C13.222822,14.2412592 12.9368234,14.512056 12.5221085,14.7135784 C12.2250407,14.8579325 11.8393058,14.9741961 11.3704769,15.067191 C10.4933711,15.2411699 9.31826762,15.3333333 8,15.3333333 L8,15.3333333 L7.92693116,15.3332384 C6.68728826,15.3300132 5.57739831,15.2446321 4.72810774,15.0859156 L4.72810774,15.0859156 L4.62940139,15.0669052 C4.16063803,14.9738739 3.77492053,14.8576002 3.47788803,14.7133008 C3.06315264,14.5118211 2.7771648,14.2411959 2.69313577,13.8390586 C2.57647029,13.2807332 2.85462436,12.8203036 3.3470551,12.4955915 C3.67996029,12.2760717 4.13288643,12.1010498 4.69004033,11.9595411 C5.63950135,11.7183921 6.89151183,11.5813953 8,11.5813953 Z M8,12.9457364 C6.99351956,12.9457364 5.84743342,13.0711428 5.00987642,13.2838698 C4.68581899,13.3661755 4.41955128,13.4586636 4.22755765,13.5527002 L4.22755765,13.5527002 L4.22490209,13.5540279 L4.24560157,13.5613661 C4.40528047,13.6175209 4.6067833,13.6713358 4.84436643,13.7198081 L4.84436643,13.7198081 L4.92526627,13.735838 C5.67740958,13.8806034 6.70372165,13.9627648 7.86537085,13.9686522 L7.86537085,13.9686522 L8,13.9689922 C9.19479709,13.9689922 10.2540277,13.8893243 11.0310749,13.7443655 L11.0310749,13.7443655 L11.1178291,13.7276769 C11.3718874,13.677283 11.5862814,13.6207882 11.7543269,13.5616911 L11.7543269,13.5616911 L11.775364,13.5542326 L11.7468857,13.5403995 C11.5650385,13.4543667 11.3214258,13.3699506 11.028732,13.2937948 L11.028732,13.2937948 L10.9901236,13.2838698 C10.1525666,13.0711428 9.00648044,12.9457364 8,12.9457364 Z M8,0.666666667 C10.7553642,0.666666667 12.9890283,2.95730283 12.9890283,5.78294574 C12.9890283,8.60858864 10.7553642,10.8992248 8,10.8992248 C5.24463577,10.8992248 3.01097173,8.60858864 3.01097173,5.78294574 C3.01097173,2.95730283 5.24463577,0.666666667 8,0.666666667 Z M8,2.03100775 C5.97939957,2.03100775 4.34137927,3.71080761 4.34137927,5.78294574 C4.34137927,7.85508387 5.97939957,9.53488372 8,9.53488372 C10.0206004,9.53488372 11.6586207,7.85508387 11.6586207,5.78294574 C11.6586207,3.71080761 10.0206004,2.03100775 8,2.03100775 Z M9.188391,6.9685486 L9.89438948,7.67680595 C9.41114093,8.1645536 8.74085161,8.46666667 8,8.46666667 C7.25914839,8.46666667 6.58885907,8.1645536 6.10561052,7.67680595 L6.811609,6.9685486 C7.11396385,7.27600525 7.53471625,7.46666667 8,7.46666667 C8.46528375,7.46666667 8.88603615,7.27600525 9.188391,6.9685486 Z" id="形状结合"></path>
                    </g>
                </g>
            </g>
        </g>
    </g>
</svg>