<?xml version="1.0" encoding="UTF-8"?>
<svg width="24px" height="24px" viewBox="0 0 24 24" version="1.1" xmlns="http://www.w3.org/2000/svg" xmlns:xlink="http://www.w3.org/1999/xlink">
    <title>wu</title>
    <g id="icon篇" stroke="none" stroke-width="1" fill="none" fill-rule="evenodd">
        <g id="画板" transform="translate(-118.000000, -119.000000)" fill="#D5E0F7">
            <g id="雾备份" transform="translate(118.000000, 119.000000)">
                <path d="M21.25,18 C21.6642136,18 22,18.3357864 22,18.75 C22,19.1642136 21.6642136,19.5 21.25,19.5 L2.75,19.5 C2.33578644,19.5 2,19.1642136 2,18.75 C2,18.3357864 2.33578644,18 2.75,18 L21.25,18 Z M7.25,14.5 C7.66421356,14.5 8,14.8357864 8,15.25 C8,15.6642136 7.66421356,16 7.25,16 L2.75,16 C2.33578644,16 2,15.6642136 2,15.25 C2,14.8357864 2.33578644,14.5 2.75,14.5 L7.25,14.5 Z M13.25,14.5 C13.6642136,14.5 14,14.8357864 14,15.25 C14,15.6642136 13.6642136,16 13.25,16 L9.75,16 C9.33578644,16 9,15.6642136 9,15.25 C9,14.8357864 9.33578644,14.5 9.75,14.5 L13.25,14.5 Z M21.25,14.5 C21.6642136,14.5 22,14.8357864 22,15.25 C22,15.6642136 21.6642136,16 21.25,16 L15.75,16 C15.3357864,16 15,15.6642136 15,15.25 C15,14.8357864 15.3357864,14.5 15.75,14.5 L21.25,14.5 Z M14.25,11 C14.6642136,11 15,11.3357864 15,11.75 C15,12.1642136 14.6642136,12.5 14.25,12.5 L2.75,12.5 C2.33578644,12.5 2,12.1642136 2,11.75 C2,11.3357864 2.33578644,11 2.75,11 L14.25,11 Z M21.25,11 C21.6642136,11 22,11.3357864 22,11.75 C22,12.1642136 21.6642136,12.5 21.25,12.5 L16.75,12.5 C16.3357864,12.5 16,12.1642136 16,11.75 C16,11.3357864 16.3357864,11 16.75,11 L21.25,11 Z M21.25,7.5 C21.6642136,7.5 22,7.83578644 22,8.25 C22,8.66421356 21.6642136,9 21.25,9 L2.75,9 C2.33578644,9 2,8.66421356 2,8.25 C2,7.83578644 2.33578644,7.5 2.75,7.5 L21.25,7.5 Z M11.25,4 C11.6642136,4 12,4.33578644 12,4.75 C12,5.16421356 11.6642136,5.5 11.25,5.5 L2.75,5.5 C2.33578644,5.5 2,5.16421356 2,4.75 C2,4.33578644 2.33578644,4 2.75,4 L11.25,4 Z M15.25,4 C15.6642136,4 16,4.33578644 16,4.75 C16,5.16421356 15.6642136,5.5 15.25,5.5 L13.75,5.5 C13.3357864,5.5 13,5.16421356 13,4.75 C13,4.33578644 13.3357864,4 13.75,4 L15.25,4 Z M21.25,4 C21.6642136,4 22,4.33578644 22,4.75 C22,5.16421356 21.6642136,5.5 21.25,5.5 L17.75,5.5 C17.3357864,5.5 17,5.16421356 17,4.75 C17,4.33578644 17.3357864,4 17.75,4 L21.25,4 Z" id="wu"></path>
            </g>
        </g>
    </g>
</svg>