<?xml version="1.0" encoding="UTF-8"?>
<svg width="16px" height="16px" viewBox="0 0 16 16" version="1.1" xmlns="http://www.w3.org/2000/svg" xmlns:xlink="http://www.w3.org/1999/xlink">
    <title>Icon/Tab/Work-0</title>
    <g id="首页" stroke="none" stroke-width="1" fill="none" fill-rule="evenodd">
        <g id="我的会议活动" transform="translate(-1114.000000, -664.000000)" fill="#FFC849">
            <g id="编组-2" transform="translate(380.000000, 519.000000)">
                <g id="编组-3" transform="translate(393.000000, 0.000000)">
                    <g id="会议类型" transform="translate(0.000000, 110.000000)">
                        <g id="占位/24x24备份-10" transform="translate(341.000000, 35.000000)">
                            <path d="M8,0.666666667 C10.7553642,0.666666667 12.9890283,2.95730283 12.9890283,5.78294574 C12.9890283,8.60858864 10.7553642,10.8992248 8,10.8992248 C5.24463577,10.8992248 3.01097173,8.60858864 3.01097173,5.78294574 C3.01097173,2.95730283 5.24463577,0.666666667 8,0.666666667 Z M9.188391,6.9685486 C8.88603615,7.27600525 8.46528375,7.46666667 8,7.46666667 C7.53471625,7.46666667 7.11396385,7.27600525 6.811609,6.9685486 L6.10561052,7.67680595 C6.58885907,8.1645536 7.25914839,8.46666667 8,8.46666667 C8.74085161,8.46666667 9.41114093,8.1645536 9.89438948,7.67680595 Z M8,11.5813953 C6.89151183,11.5813953 5.63950135,11.7183921 4.69004033,11.9595411 C4.13288643,12.1010498 3.67996029,12.2760717 3.3470551,12.4955915 C2.85462436,12.8203036 2.57647029,13.2807332 2.69313577,13.8390586 C2.7771648,14.2411959 3.06315264,14.5118211 3.47788803,14.7133008 C3.77492053,14.8576002 4.16063803,14.9738739 4.62940139,15.0669052 L4.72810774,15.0859156 C5.57739831,15.2446321 6.68728826,15.3300132 7.92693116,15.3332384 L8,15.3333333 C9.31826762,15.3333333 10.4933711,15.2411699 11.3704769,15.067191 C11.8393058,14.9741961 12.2250407,14.8579325 12.5221085,14.7135784 C12.9368234,14.512056 13.222822,14.2412592 13.3068642,13.8390586 C13.4235297,13.2807332 13.1453756,12.8203036 12.6529449,12.4955915 C12.3200397,12.2760717 11.8671136,12.1010498 11.3099597,11.9595411 C10.3604986,11.7183921 9.10848817,11.5813953 8,11.5813953 Z" id="形状结合"></path>
                        </g>
                    </g>
                </g>
            </g>
        </g>
    </g>
</svg>