<?xml version="1.0" encoding="UTF-8"?>
<svg width="24px" height="24px" viewBox="0 0 24 24" version="1.1" xmlns="http://www.w3.org/2000/svg" xmlns:xlink="http://www.w3.org/1999/xlink">
    <title>下载</title>
    <g id="首页" stroke="none" stroke-width="1" fill="none" fill-rule="evenodd">
        <g id="会议详情备份-5" transform="translate(-996.000000, -2837.000000)" fill-rule="nonzero">
            <g id="编组-4" transform="translate(420.000000, 2708.000000)">
                <g id="附件备份-2" transform="translate(0.000000, 109.000000)">
                    <g id="下载" transform="translate(576.000000, 20.000000)">
                        <rect id="矩形" fill="#000000" opacity="0" x="0" y="0" width="24" height="24"></rect>
                        <path d="M16.7296875,12.3 L13.0757812,15.9539062 L13.0757812,4.57265625 C13.0757812,3.9703125 12.5859375,3.48046875 11.9835937,3.48046875 C11.38125,3.48046875 10.8914062,3.9703125 10.8914062,4.57265625 L10.8914062,15.9539062 L7.23984375,12.3 C6.81328125,11.8734375 6.121875,11.8734375 5.6953125,12.3 C5.26875,12.7265625 5.26875,13.4179688 5.6953125,13.8445312 L11.2125,19.3617188 C11.3132812,19.4625 11.4351562,19.5445312 11.5710937,19.5984375 C11.5757812,19.6007813 11.5828125,19.6007813 11.5875,19.603125 C11.7117187,19.6523438 11.8453125,19.6804687 11.9859375,19.6804687 C12.1265625,19.6804687 12.2601562,19.6523438 12.384375,19.603125 C12.3890625,19.6007813 12.3960937,19.6007813 12.4007812,19.5984375 C12.5367187,19.5421875 12.65625,19.4625 12.759375,19.3617188 L18.2765625,13.8445312 C18.703125,13.4179688 18.703125,12.7265625 18.2765625,12.3 C17.8476562,11.8734375 17.15625,11.8734375 16.7296875,12.3 Z M17.5007812,19.790625 L6.46640625,19.790625 C5.8640625,19.790625 5.37421875,20.2804687 5.37421875,20.8828125 C5.37421875,21.4851562 5.8640625,21.975 6.46640625,21.975 L17.5007812,21.975 C18.103125,21.975 18.5929687,21.4851562 18.5929687,20.8828125 C18.5929687,20.2804687 18.1054687,19.790625 17.5007812,19.790625 Z" id="形状" fill="#1E89FF"></path>
                    </g>
                </g>
            </g>
        </g>
    </g>
</svg>