<?xml version="1.0" encoding="UTF-8"?>
<svg width="24px" height="24px" viewBox="0 0 24 24" version="1.1" xmlns="http://www.w3.org/2000/svg" xmlns:xlink="http://www.w3.org/1999/xlink">
    <title>xue</title>
    <g id="icon篇" stroke="none" stroke-width="1" fill="none" fill-rule="evenodd">
        <g id="画板" transform="translate(-246.000000, -55.000000)" fill-rule="nonzero">
            <g id="雪备份" transform="translate(246.000000, 55.000000)">
                <rect id="矩形" fill="#000000" opacity="0" x="0" y="0" width="24" height="24"></rect>
                <path d="M19.5926091,15.37838 L17.9365225,14.4378729 L18.6734402,14.2414114 C18.9657456,14.1719413 19.1968524,13.9506269 19.2768168,13.6636009 C19.3567812,13.3765749 19.2729708,13.0691798 19.0580038,12.8610499 C18.8430367,12.6529201 18.5308719,12.5769344 18.2430001,12.6626657 L15.9080209,13.2844454 L13.6642992,12.0001306 L15.9080209,10.7158159 L18.2430001,11.3375956 L18.4582202,11.3375956 C18.7533448,11.3756769 19.0465616,11.2549095 19.2274186,11.0207854 C19.4082756,10.7866613 19.4492963,10.4747495 19.3350286,10.2025442 C19.220761,9.93033885 18.9685649,9.73919445 18.6734402,9.70111324 L17.9365225,9.54566831 L19.5926091,8.60516119 C19.9837449,8.37613958 20.1159736,7.87798565 19.8891392,7.48802408 C19.6623048,7.09806251 19.1608937,6.96153797 18.7646977,7.18186041 L16.9762086,8.21197696 L17.2246612,7.30412634 C17.3147889,7.01699069 17.2390415,6.70402366 17.0272741,6.48857811 C16.8155067,6.27313257 16.5016847,6.18976391 16.2094979,6.27133106 C15.9173112,6.35289822 15.6936237,6.5863186 15.6265996,6.87959187 L14.9477069,9.33379296 L12.8363878,10.5851899 L12.8363878,8.02492055 L14.5507631,6.33174648 C14.7445273,6.13818676 14.8283369,5.86180391 14.7743167,5.59452328 C14.7202966,5.32724266 14.5355313,5.10411817 14.2814743,4.99936139 C14.0774151,4.91530437 13.8479958,4.91502243 13.6437267,4.99857763 C13.5428733,5.04007409 13.4513409,5.10099133 13.3744379,5.17779649 L12.836124,5.70944426 L12.836124,3.82006996 C12.836124,3.36715783 12.4654554,3 12.0082126,3 C11.5509697,3 11.1803012,3.36715783 11.1803012,3.82006996 L11.1803012,5.84059276 L10.5095848,5.17805774 C10.3038336,4.96007033 9.99472268,4.870091 9.7026203,4.94315785 C9.41051792,5.01622469 9.18159881,5.24078749 9.10500441,5.52940117 C9.02841002,5.81801484 9.11624817,6.12505614 9.33431455,6.33096272 L11.1805649,8.15502403 L11.1805649,10.6089639 L9.0526295,9.3656657 L8.37373686,6.91172587 C8.30454033,6.62069 8.08086958,6.39005054 7.79006807,6.30987222 C7.49926655,6.22969391 7.18745905,6.31269403 6.97640642,6.52646103 C6.76535379,6.74022803 6.68853165,7.05085577 6.77593903,7.33704409 L7.03968909,8.21223821 L5.25119998,7.19805804 C4.99427298,7.04761965 4.67554904,7.0455505 4.41665338,7.19264016 C4.15775772,7.33972982 3.99863587,7.61328355 4,7.90891308 C4.00138176,8.20454262 4.16303767,8.47663469 4.42328856,8.62135881 L6.07937514,9.54566831 L5.38386625,9.75832742 C5.08874159,9.79645531 4.83657064,9.98764283 4.72234376,10.2598715 C4.60811689,10.5321001 4.64918787,10.8440119 4.83008566,11.0781127 C5.01098345,11.3122135 5.30422538,11.4329377 5.59935005,11.3948098 L5.81457009,11.3948098 L8.15007681,10.7722463 L10.3526535,12.0001306 L8.1089318,13.2844454 L5.77395258,12.6626657 C5.49525614,12.5594245 5.18204365,12.6125723 4.95393085,12.801812 C4.72581805,12.9910518 4.61803389,13.2871579 4.67174111,13.5770476 C4.71467583,13.806863 4.85495684,14.0074451 5.05707994,14.128028 C5.15718365,14.1878158 5.26889779,14.2260068 5.38492125,14.2401051 L6.1218389,14.4365666 L4.46575232,15.3770737 C4.07461653,15.6060953 3.9423878,16.1042493 4.16922224,16.4942108 C4.39605668,16.8841724 4.89746778,17.0206969 5.29366373,16.8003745 L7.04074409,15.7882843 L6.79229154,16.6961349 C6.72636154,16.9078796 6.74992068,17.1370546 6.85758538,17.3312903 C6.96525007,17.5255259 7.14781955,17.6682233 7.36357415,17.726774 C7.43516937,17.7348734 7.50746273,17.7348734 7.57905795,17.726774 C7.96371092,17.7399178 8.30677824,17.4887621 8.40696936,17.1206694 L9.085862,14.6664683 L11.1805649,13.4150714 L11.1805649,15.9753407 L9.46618958,17.6685148 C9.25385156,17.8756627 9.17039369,18.1799201 9.24770751,18.4650217 C9.32502134,18.7501233 9.55115825,18.9720076 9.83970508,19.0458865 C10.1282519,19.1197653 10.4346146,19.034221 10.6417236,18.8219423 L11.1800374,18.2902945 L11.1800374,20.1799301 C11.1800374,20.6328422 11.550706,21 12.0079488,21 C12.4651917,21 12.8358602,20.6328422 12.8358603,20.1799301 L12.8358603,18.1596685 L13.5065766,18.8222035 C13.713603,19.0345117 14.0198959,19.1201443 14.308437,19.0463859 C14.596978,18.9726274 14.8231854,18.7508741 14.9006371,18.4658461 C14.9780888,18.1808182 14.8948181,17.8765546 14.6826381,17.6692986 L12.8363878,15.8452373 L12.8363878,13.3907749 L14.9643232,14.6095154 L15.6432158,17.0634552 C15.7432533,17.4316167 16.0864585,17.6827651 16.4711272,17.6692986 C16.5426342,17.6773985 16.6148403,17.6773985 16.6863473,17.6692986 C16.8997522,17.6143073 17.0820384,17.4769581 17.1925014,17.2879209 C17.3029644,17.0988837 17.3324039,16.873903 17.2742462,16.6632172 L16.9762086,15.7882843 L18.7480815,16.8024645 C19.0050085,16.9529029 19.3237324,16.954972 19.5826281,16.8078824 C19.8415237,16.6607927 20.0006456,16.387239 19.9992726,16.0916095 C19.9978997,15.7959799 19.8362438,15.5238879 19.5759929,15.3791637 L19.5926091,15.37838 Z" id="路径" fill="#88CDFB"></path>
            </g>
        </g>
    </g>
</svg>