<?xml version="1.0" encoding="UTF-8"?>
<svg width="12px" height="12px" viewBox="0 0 12 12" version="1.1" xmlns="http://www.w3.org/2000/svg" xmlns:xlink="http://www.w3.org/1999/xlink">
    <title>已取消</title>
    <defs>
        <filter id="filter-1">
            <feColorMatrix in="SourceGraphic" type="matrix" values="0 0 0 0 1.000000 0 0 0 0 1.000000 0 0 0 0 1.000000 0 0 0 1.000000 0"></feColorMatrix>
        </filter>
    </defs>
    <g id="首页" stroke="none" stroke-width="1" fill="none" fill-rule="evenodd">
        <g id="会议活动大厅" transform="translate(-1176.000000, -605.000000)">
            <g id="编组-2" transform="translate(380.000000, 265.000000)">
                <g id="已取消" transform="translate(786.000000, 334.000000)" filter="url(#filter-1)">
                    <g transform="translate(10.000000, 6.000000)" id="icon/system/my-work备份-2" fill="#191F24">
                        <path d="M6,0.5 C9.03756612,0.5 11.5,2.96243388 11.5,6 C11.5,9.03756612 9.03756612,11.5 6,11.5 C2.96243388,11.5 0.5,9.03756612 0.5,6 C0.5,2.96243388 2.96243388,0.5 6,0.5 Z M6,1.5 C3.51471863,1.5 1.5,3.51471863 1.5,6 C1.5,8.48528137 3.51471863,10.5 6,10.5 C8.48528137,10.5 10.5,8.48528137 10.5,6 C10.5,3.51471863 8.48528137,1.5 6,1.5 Z M7.76776695,3.52512627 L8.47487373,4.23223305 L6.707,6 L8.47487373,7.76776695 L7.76776695,8.47487373 L6,6.707 L4.23223305,8.47487373 L3.52512627,7.76776695 L5.293,6 L3.52512627,4.23223305 L4.23223305,3.52512627 L6,5.293 L7.76776695,3.52512627 Z" id="形状结合"></path>
                    </g>
                </g>
            </g>
        </g>
    </g>
</svg>