<?xml version="1.0" encoding="UTF-8"?>
<svg width="13px" height="13px" viewBox="0 0 13 13" version="1.1" xmlns="http://www.w3.org/2000/svg" xmlns:xlink="http://www.w3.org/1999/xlink">
    <title></title>
    <g id="PC-1012-10px" stroke="none" stroke-width="1" fill="none" fill-rule="evenodd">
        <g id="头像-tips" transform="translate(-474.000000, -471.000000)" fill="#636363" fill-rule="nonzero">
            <g id="编组-10备份-5" transform="translate(324.000000, 453.000000)">
                <g id="椭圆形-2" transform="translate(150.000000, 18.000000)">
                    <path d="M6.5,0 C10.0898509,0 13,2.91014913 13,6.5 C13,10.0898509 10.0898509,13 6.5,13 C2.91014913,13 0,10.0898509 0,6.5 C0,2.91014913 2.91014913,0 6.5,0 Z M6.5,1 C3.46243388,1 1,3.46243388 1,6.5 C1,9.53756612 3.46243388,12 6.5,12 C9.53756612,12 12,9.53756612 12,6.5 C12,3.46243388 9.53756612,1 6.5,1 Z M7,9 L7,10 L6,10 L6,9 L7,9 Z M7,3 L7,8 L6,8 L6,3 L7,3 Z" id="椭圆形"></path>
                </g>
            </g>
        </g>
    </g>
</svg>