<?xml version="1.0" encoding="UTF-8"?>
<svg width="24px" height="24px" viewBox="0 0 24 24" version="1.1" xmlns="http://www.w3.org/2000/svg" xmlns:xlink="http://www.w3.org/1999/xlink">
    <title>yun</title>
    <g id="icon篇" stroke="none" stroke-width="1" fill="none" fill-rule="evenodd">
        <g id="画板" transform="translate(-54.000000, -55.000000)" fill-rule="nonzero">
            <g id="icon/天气/多云备份" transform="translate(54.000000, 55.000000)">
                <rect id="矩形" fill="#000000" opacity="0" transform="translate(12.000000, 12.000000) scale(-1, 1) translate(-12.000000, -12.000000) " x="0" y="0" width="24" height="24"></rect>
                <path d="M17.4,9.40000001 C17.9333333,9.40000001 18.4666667,9.53333334 19,9.66666666 C19.5333333,8.66666665 20.3333333,7.8 21.3333333,7.2 C20.7333333,5.4 19.0666667,4.06666666 17.0666666,4.06666666 C14.4666667,4.06666666 12.4666667,6.06666666 12.4666667,8.59999999 C12.4666667,9.73333334 12.8666667,10.7333333 13.5333333,11.5333333 C14.4,10.2666667 15.8,9.40000001 17.4,9.40000001 Z" id="路径" fill="#FAD105" transform="translate(16.900000, 7.800000) scale(-1, 1) translate(-16.900000, -7.800000) "></path>
                <path d="M20.2666667,13.8666667 C20.2666667,10.5333333 17.5333333,7.8 14.2,7.8 C11.8,7.8 9.80000002,9.13333334 8.80000001,11.1333333 C8.33333334,10.9333333 7.8,10.8666667 7.2,10.8666667 C4.66666667,10.8666667 2.66666667,12.9333333 2.66666667,15.4 C2.66666667,17.8 4.53333333,19.8 6.93333333,19.9333333 L14.8666667,19.9333333 C17.8666667,19.6 20.2666667,17 20.2666667,13.8666667 Z" id="路径" fill="#D5E0F7" transform="translate(11.466667, 13.866667) scale(-1, 1) translate(-11.466667, -13.866667) "></path>
            </g>
        </g>
    </g>
</svg>