<?xml version="1.0" encoding="UTF-8"?>
<svg width="24px" height="24px" viewBox="0 0 24 24" version="1.1" xmlns="http://www.w3.org/2000/svg" xmlns:xlink="http://www.w3.org/1999/xlink">
    <title></title>
    <g id="表单" stroke="none" stroke-width="1" fill="none" fill-rule="evenodd">
        <g id="56" transform="translate(-117.000000, -52.000000)" fill="#191F24">
            <g id="占位/24x24备份-6" transform="translate(117.000000, 52.000000)">
                <path d="M12,4 C17.5472092,4 22.2645069,7.55006382 24,12.5002424 C22.2638683,17.4504167 17.5468338,21 12,21 C6.45279081,21 1.73549315,17.4499362 0,12.4997576 C1.73613166,7.54958332 6.45316623,4 12,4 Z M12,6 C7.71187444,6 3.90789671,8.54026522 2.21111151,12.3468788 L2.145,12.499 L2.21108415,12.6528417 C3.86797259,16.3708977 7.5358229,18.8811489 11.7016169,18.9958939 L12,19 C16.2881256,19 20.0921033,16.4597348 21.7888885,12.6531212 L21.854,12.5 L21.7889158,12.3471583 C20.1320274,8.62910234 16.4641771,6.11885108 12.2983831,6.00410605 L12,6 Z M12.0109637,8 C14.4970891,8 16.5132242,10.0143138 16.5132242,12.5 C16.5132242,14.9856862 14.4970891,17 12.0109637,17 C9.5248384,17 7.50870334,14.9856862 7.50870334,12.5 C7.50870334,10.0143138 9.5248384,8 12.0109637,8 Z M12.0109637,10 C10.6290035,10 9.50870334,11.1192881 9.50870334,12.5 C9.50870334,13.8807119 10.6290035,15 12.0109637,15 C13.392924,15 14.5132242,13.8807119 14.5132242,12.5 C14.5132242,11.1192881 13.392924,10 12.0109637,10 Z" id="形状"></path>
            </g>
        </g>
    </g>
</svg>