<?xml version="1.0" encoding="UTF-8"?>
<svg width="18px" height="24px" viewBox="0 0 18 24" version="1.1" xmlns="http://www.w3.org/2000/svg" xmlns:xlink="http://www.w3.org/1999/xlink">
    <title>Zip备份</title>
    <g id="icon篇" stroke="none" stroke-width="1" fill="none" fill-rule="evenodd">
        <g id="编组-5备份-3" transform="translate(-3.000000, 0.000000)">
            <path d="M21,6 L21,21.4361148 L20.9996186,21.532863 C20.9930123,22.3515843 20.9007186,22.6629911 20.7328673,22.9768457 C20.5585602,23.3027716 20.3027716,23.5585602 19.9768457,23.7328673 L19.9406136,23.7518989 C19.6322397,23.9108072 19.307361,23.9966613 18.4850626,24 L5.5638852,24 C4.67236646,24 4.34908022,23.9071744 4.0231543,23.7328673 C3.69722837,23.5585602 3.4414398,23.3027716 3.2671327,22.9768457 L3.24774174,22.9399159 C3.08906338,22.6317494 3.00333629,22.3067409 3,21.4850626 L3,2.5638852 C3,1.67236646 3.09282561,1.34908022 3.2671327,1.0231543 C3.4414398,0.697228371 3.69722837,0.441439796 4.0231543,0.267132704 L4.06008414,0.247741744 C4.36825057,0.0890633758 4.69325912,0.00333629384 5.51493736,0 L15,0 L21,6 Z" id="路径" fill="#926000"></path>
            <path d="M11,2.5 L12,2.5 L12,2.5 L12,5 L11,5 C10.7238576,5 10.5,4.77614237 10.5,4.5 L10.5,3 C10.5,2.72385763 10.7238576,2.5 11,2.5 Z" id="矩形" fill="#FFFFFF"></path>
            <path d="M12,0 L13,0 C13.2761424,-5.07265313e-17 13.5,0.223857625 13.5,0.5 L13.5,2 C13.5,2.27614237 13.2761424,2.5 13,2.5 L12,2.5 L12,2.5 L12,0 Z" id="矩形备份-13" fill="#FFFFFF"></path>
            <path d="M11,7.5 L12,7.5 L12,7.5 L12,10 L11,10 C10.7238576,10 10.5,9.77614237 10.5,9.5 L10.5,8 C10.5,7.72385763 10.7238576,7.5 11,7.5 Z" id="矩形备份-9" fill="#FFFFFF"></path>
            <path d="M12,5 L13,5 C13.2761424,5 13.5,5.22385763 13.5,5.5 L13.5,7 C13.5,7.27614237 13.2761424,7.5 13,7.5 L12,7.5 L12,7.5 L12,5 Z" id="矩形备份-8" fill="#FFFFFF"></path>
            <path d="M12,10 L13,10 C13.2761424,10 13.5,10.2238576 13.5,10.5 L13.5,12 C13.5,12.2761424 13.2761424,12.5 13,12.5 L12,12.5 L12,12.5 L12,10 Z" id="矩形备份-10" fill="#FFFFFF"></path>
            <path d="M13,13.5 C13.2761424,13.5 13.5,13.7238576 13.5,14 L13.5,17.5 C13.5,17.7761424 13.2761424,18 13,18 L11,18 C10.7238576,18 10.5,17.7761424 10.5,17.5 L10.5,14 C10.5,13.7238576 10.7238576,13.5 11,13.5 L13,13.5 Z M13,15.5 L11,15.5 L11,17.5 L13,17.5 L13,15.5 Z" id="形状结合" fill="#FFFFFF"></path>
            <path d="M15,0 L21,6 L16.6665254,6 C16.0870382,6 15.8769021,5.93966335 15.6650503,5.82636374 C15.4531984,5.71306413 15.2869359,5.54680156 15.1736363,5.33494971 L15.1570395,5.30313841 C15.0544538,5.10116087 15,4.88398744 15,4.33347462 L15,0 Z" id="矩形" fill-opacity="0.26364" fill="#000000"></path>
        </g>
    </g>
</svg>